<svg id="dick" class="dick-image align-left" data-image-path="/_svgs/dick.svg" xmlns="http://www.w3.org/2000/svg" viewBox="0 0 292 268"><title>Dick Dirk, the #2 P.I. in town</title><desc>Dick looking happy and scruffy.</desc><path d="M144.31 266.167c-1.722-.312-5.632-1.69-7.576-2.67-3.453-1.742-11.214-7.47-14.69-10.844-5.827-5.656-10.063-12.658-13.536-22.376-2.06-5.767-4.266-16.07-4.664-21.785-.227-3.26-.298-3.51-.91-3.18-.903.482-3.633.322-4.82-.284-1.167-.595-1.148-.603-1.922.82-.736 1.355-1.274 3.868-1.453 6.794-.138 2.25-.294 3.117-.618 3.44-.524.525-1.042.195-1.713-1.09-.55-1.052-.54-4.237.02-6.357.23-.867.377-1.616.328-1.665-.048-.05-.51-.157-1.028-.24l-.94-.153-.085 4.105c-.074 3.552-.15 4.18-.576 4.647-.48.527-.47.635.353 4.56.868 4.13 2.76 10.953 4.394 15.843 1.2 3.59 1.094 4.55-.205 1.863-3.407-7.043-6.313-18.682-6.986-27.98l-.177-2.448-.827.505c-.454.278-1.352.646-1.996.817-.79.21-1.54.69-2.305 1.48-.624.642-1.288 1.168-1.476 1.17-2.724.016-5.977.34-6.438.642-.31.204-1.03.5-1.6.655-.568.157-1.656.643-2.416 1.082l-1.382.796 1.212 1.996c1.172 1.93 1.197 2.014.742 2.517-.425.468-.44.717-.167 2.565.822 5.546 2.26 23.093 1.92 23.433-.332.333-.81-.027-.81-.612 0-.77-.288-1.328-.684-1.328-.7 0-1.126-1.222-1.664-4.763-.3-1.965-.852-5.477-1.23-7.805-.377-2.33-.756-5.93-.842-8.004-.087-2.074-.197-3.77-.247-3.77-.048 0-.874.417-1.834.926l-1.745.926h-3.905c-3.57 0-3.947-.046-4.385-.53-.713-.787-1.98-.663-5.408.533-2.63.918-3.327 1.056-5.325 1.056-1.812 0-2.852.17-4.91.805a87.597 87.597 0 0 1-4.994 1.356c-14.54 3.36-15.252 3.648-20.08 8.16-6.168 5.764-10.942 10-12.324 10.934-1.63 1.1-1.823-.217-.312-2.114 1.326-1.665 10.76-10.914 13.143-12.883 1.015-.84 2.68-1.934 3.698-2.433 2.19-1.073 6.933-2.463 12.13-3.555 2.06-.433 5.412-1.32 7.45-1.972 3.25-1.04 4-1.187 6.132-1.196 2.052-.01 2.772-.14 4.63-.832 1.784-.665 2.83-.864 5.51-1.05 5.11-.353 6.33-.697 9.39-2.642 3.808-2.42 8.335-4.658 10.113-5 .842-.164 2.244-.522 3.118-.798.874-.275 1.985-.58 2.47-.677.486-.097 1.54-.522 2.342-.944.803-.423 1.62-.768 1.817-.768.356 0 4.212-1.947 4.784-2.415.188-.153.735-.133 1.456.056.634.166 1.642.358 2.238.428.972.114 1.15.04 1.72-.697 1.88-2.44 1.635-2.28 2.88-1.87.965.318 1.212.316 1.796-.013.372-.21.814-.8.983-1.31.228-.692.517-.99 1.146-1.178.463-.14.842-.402.842-.583 0-.182-.514-2.105-1.143-4.274-.94-3.243-1.317-4.158-2.126-5.145-1.627-1.985-5.02-5.083-5.727-5.227-.44-.09-.663-.312-.663-.66a.717.717 0 0 0-.53-.67c-.368-.1-.554-.41-.613-1.026-.055-.567-.95-2.22-2.496-4.61-3.853-5.957-5.274-10.033-6.02-17.26-.122-1.18-.41-2.597-.64-3.146l-.415-.998-1.06.957c-.583.527-1.268.952-1.522.945-.787-.022-2.312-.897-2.313-1.328 0-.225-.432-.79-.96-1.252-1.586-1.395-2.618-4.623-3.148-9.843-.18-1.776-.482-2.826-1.434-4.995-1.196-2.724-1.206-2.77-1.2-5.688.002-1.62.178-4.074.39-5.456.69-4.476.648-4.736-1.617-9.72-3.374-7.427-3.67-8.553-2.69-10.232.33-.568.92-1.267 1.305-1.554.633-.47.882-.494 2.514-.255.995.146 1.847.233 1.892.194.203-.18-1.01-3.283-1.655-4.232-.736-1.082-.756-1.376-.262-3.782.136-.66-.034-1.426-.695-3.136-.667-1.726-.807-2.364-.592-2.697.155-.24.474-.4.71-.36.613.113.528-.4-.125-.75-.423-.227-.513-.453-.384-.967.11-.447.02-.834-.277-1.16-.508-.563-.967-2.334-.948-3.663.007-.5-.206-1.214-.474-1.59-.266-.375-.62-1.182-.784-1.793-.165-.61-.425-1.19-.578-1.284-.153-.094-.208-.454-.122-.798.253-1.005-.36-4.43-.863-4.818-.324-.25-.455-.816-.49-2.117-.062-2.164-.547-8.21-.712-8.86-.065-.258.003-1.33.152-2.38.196-1.382.185-2.352-.04-3.504-.32-1.64-.04-3.25.505-2.913.14.086.44-.204.67-.646.368-.713.37-.8.01-.8-.588 0-.5-.218.39-.968.88-.74.99-1.318.406-2.09-.502-.664-.502-.912-.003-.912.22 0 .538-.298.704-.66.33-.724.636-.848.817-.332.065.182.33-.613.59-1.765.378-1.683.647-2.272 1.36-2.986.517-.517.89-1.156.89-1.526 0-.35.12-.71.264-.8.146-.09.265-.397.265-.683 0-.315.267-.622.68-.78.623-.236.644-.292.254-.682-.532-.532-.105-1.162.787-1.162.422 0 .727-.267 1.027-.9.48-1.01.564-1.862.162-1.613-.375.23-.86-1.185-.694-2.02.096-.483-.02-.842-.37-1.16-.39-.352-.446-.574-.242-.955.316-.59.98-.626 1.687-.09.662.5 1.373.496 1.567-.008.084-.22.454-.397.822-.397.542 0 .67-.13.67-.68s.096-.648.508-.517c.732.232 2.202-1.898 1.774-2.57-.394-.62.364-1.888 1.204-2.013.734-.11 1.32-.546 1.137-.845-.21-.34.45-1.577.842-1.577.212 0 .355-.3.355-.745 0-.476.276-1.01.767-1.48.667-.638.798-.68 1.005-.31.205.368.34.318.993-.362l.755-.787-1.1-.176c-.68-.11-1.097-.317-1.097-.545 0-.46 1.09-.897 1.785-.716.45.118.56-.072.83-1.447.326-1.656.807-2.328 1.482-2.07.274.106.4-.01.4-.367 0-.546.42-.72.58-.24.125.378.93.043 1.126-.47.095-.25-.055-.563-.377-.79-.517-.36-.745-1.137-.336-1.137.11 0 .61.118 1.113.262.814.233.993.185 1.647-.442.558-.534.665-.788.445-1.052-.36-.432-.114-1.15.392-1.15.205 0 .44-.254.522-.565.13-.497.284-.55 1.24-.42.797.106 1.128.045 1.233-.23.093-.242.547-.373 1.298-.373.65 0 1.68-.254 2.353-.582 1.455-.707 2.03-.424 1.5.74-.28.61-.265.678.108.535.235-.09 1.25-.164 2.257-.164 1.044 0 1.83-.113 1.83-.264 0-.146-.178-.265-.396-.265-.733 0-.406-.694.655-1.388 1.537-1.008 2.097-1.13 2.522-.555.288.39.426.42.695.156.25-.246.254-.33.016-.33-.41 0-.413-.968-.002-1.22.174-.108.362-.055.42.117.057.172.213.246.346.163.353-.218.296.25-.075.623-.247.247-.163.317.38.317.385 0 .773-.12.863-.264.09-.146.47-.265.842-.265.646 0 .66.03.275.597-.32.47-.607.578-1.39.513-.894-.074-.948-.043-.574.33.56.56 1.067.52 1.653-.128.77-.85 3.02-1.87 3.935-1.785.66.063.832-.03.896-.48.092-.644 1.08-1.258 1.797-1.12.27.052.643.39.826.754.33.653.333.654.337.06.005-.79 1.037-1.294 1.805-.883.766.41.845.377.845-.36 0-.365.217-.768.49-.915.692-.37 2.34.13 2.71.82.238.444.343.48.53.188.126-.202.232-.694.235-1.094.004-.796.7-1.03.97-.325.126.332.256.292.732-.22.856-.925 3.118-1.15 4.287-.426.57.35 1.212.508 1.87.456.83-.066 1.05.025 1.268.516.204.462.48.595 1.243.595 1.238 0 1.578-.466.42-.577-.86-.083-.86-.085-.247-.435.5-.284.874-.29 1.94-.035.976.234 1.4.24 1.62.02.415-.414 1.123-.367 1.512.102.18.218.672.397 1.09.397.59 0 .762-.122.762-.538 0-1.015 1.632-1.005 2.653.015.68.68.995.66 1.1-.074.082-.583.142-.593 3.126-.507 2.25.064 3.16.19 3.49.488.245.22.58.318.744.217.332-.206 1.38.618 1.186.932-.068.11.312.282.845.382.742.138 1.022.083 1.202-.238.178-.318.355-.355.732-.153.274.146.777.265 1.118.265.34 0 .877.18 1.19.4.362.253.632.302.736.132.217-.35 1.615-.343 2.276.01.286.154.438.41.338.572-.128.206.216.245 1.177.13 1.304-.153 1.346-.14 1.034.364-.444.717-.002.958 1.45.79.91-.105.988-.15.393-.226-.86-.11-.828-.727.038-.698 3.105.102 3.428.338 1.59 1.16l-1.103.495.903.564c.664.413 1.16.525 1.868.42.7-.104 1.005-.037 1.113.244.203.525-.24.75-1.1.56-.622-.137-.596-.094.21.345l.92.5.753-.633c.415-.348.856-.634.982-.634.474 0 .56.58.153 1.03-.51.565-.31.822.636.822.742 0 1.542 1.02 1.215 1.55-.24.386.813.895 1.44.696.29-.09.52-.04.52.114 0 .152.313.356.697.452l.697.175-.63.508-.632.507.834-.163c.962-.188 1.3.152.897.904-.215.402-.153.73.278 1.46.307.52.72.943.916.943.298 0 .294-.186-.026-1.092-.456-1.293-.456-1.29-.13-1.29.138 0 .466.6.726 1.334.33.93.65 1.38 1.05 1.48.317.08.783.373 1.037.653.254.28.917.583 1.475.672.995.16 1.332.66.704 1.048-.206.127-.116.263.264.404.316.116.575.394.575.617 0 .553.253.51.976-.17.62-.583.817-.313.38.527-.127.245-.133.684-.015.975.213.517.22.517.39-.04.234-.78 1.377-.974 1.93-.327.565.66 1.368.65 1.368-.016 0-.55.452-.974.736-.69.094.094.176.55.18 1.015.008.63.143.867.54.938.774.14 1.126.55.697.816-.272.168-.287.347-.063.765.16.3.292.842.292 1.203 0 .362.088.697.197.745.272.12 1.125 2 1.125 2.48 0 .59-.42.467-1.44-.428-.547-.482-1.12-.765-1.397-.692-.442.115-.44.124.01.153.343.023.458.205.398.627-.128.895.862 1.6 1.763 1.26.996-.38 1.25-.334 1.087.195-.08.255-.03.642.11.86.22.344.255.34.26-.038.004-.558.82-.878 1.104-.434.14.216.026.5-.31.78-.29.24-.527.747-.527 1.124 0 .742-.458.883-1.34.41-.285-.152-.512-.166-.512-.03 0 .31.67.868.964.8.25-.055 1.04.206 1.736.577.58.31.9-.163.465-.686-.255-.308-.24-.385.078-.385.22 0 .556.19.75.424.298.36.287.475-.073.738-.382.28-.358.373.23.897.46.408.85.536 1.297.423.825-.207.878.494.08 1.054l-.562.392.56.787c.31.433.56.93.56 1.106 0 .175.18.25.396.166.22-.085.63.1.922.413.52.56.533.56 1.1.057l.57-.508-.14.76c-.11.593-.03.79.36.89.557.147.682.6.164.6-.183 0-.482.237-.663.528-.44.708-.707.667-1.087-.166-.51-1.118-.664-.506-.303 1.195.253 1.19.462 1.604.866 1.71.408.106.495.283.372.75-.088.336-.024 1.355.143 2.265.243 1.314.404 1.653.79 1.653.265 0 .482-.165.482-.368 0-.203.162-.43.36-.507.197-.075.434-.513.525-.972.093-.464.286-.76.435-.667.53.327.194 2.847-.36 2.72-.166-.038-.57.198-.895.524-.484.484-.594.89-.594 2.182 0 .872.085 1.586.188 1.586.105 0 .452-.327.77-.727.795-.994 1.077-.583.448.65-.5.978-.5 1.014-.02 1.48.32.306.434.663.326 1.004-.092.29-.03.693.138.895.226.272.228.51.01.92-.235.435-.21.64.123.972.38.38.38.48.013 1.042-.224.343-.408.806-.408 1.03 0 .397-.298.518-1.025.417-.597-.082-.1 1.808.648 2.464.504.442.683.925.81 2.18.153 1.515.12 1.652-.56 2.282-.463.43-.618.735-.43.85.46.286.343 1.082-.237 1.606-.63.57-.688 1.523-.12 1.994.283.235.323.423.132.614-.428.428-.333.628.385.808.85.213.86.685.016.685-.356 0-.712.105-.79.233-.25.403-.503 4.938-.264 4.714.125-.117.26-.623.302-1.125.07-.864.25-2.665.31-3.094.064-.45.558-.156.558.33 0 .39.176.53.66.53.486 0 .663.142.663.53 0 .355-.178.53-.54.53-.676 0-.98.723-1.03 2.446-.014.563-.148.728-.59.728-.558 0-.56.01-.077.544.485.536.496.536.684.027.214-.577.713-.968.943-.74.083.084-.115.862-.44 1.73-.646 1.727-.577 2.173.3 1.943.44-.115.537-.055.417.258-.086.223-.03.532.123.686.397.397.05 1.133-.443.943-.292-.112-.556.17-.93.997-.288.634-.526 1.416-.53 1.74-.002.32-.192 1.135-.42 1.808-.39 1.15-.387 1.245.066 1.58.38.285.42.458.19.838-.16.263-.548.516-.86.563-.87.13-.684.425.556.89.696.26 1.086.557 1.026.78-.054.2-.15.84-.216 1.42-.11.988-.058 1.086.758 1.456 1.28.58 2.06 2.133 2.064 4.115.002.88-.105 1.714-.238 1.853-.134.138-.43 1.382-.66 2.765-.23 1.382-.71 3.168-1.07 3.968-1.468 3.266-2.79 7.1-2.79 8.09 0 .577.247 1.937.547 3.023.454 1.633.528 2.5.43 5.02-.122 3.156-.503 4.623-1.615 6.223-.425.612-.588 1.37-.71 3.308-.3 4.738-2.585 11.75-4.256 13.058l-.75.586-.142 4.225c-.078 2.322-.265 5.162-.414 6.308-.59 4.53-3.525 10.837-7.767 16.7-2.55 3.526-2.367 2.552-1.715 9.078.315 3.157.61 5.78.655 5.827.045.048.346-.054.668-.226.323-.173 1.276-.32 2.118-.33 1.377-.012 1.954.19 5.72 1.993 2.304 1.103 5.855 2.625 7.893 3.38 2.037.758 4.618 1.835 5.734 2.396 1.907.958 9.85 4.078 16.094 6.322 6.363 2.288 18.53 6.486 20.373 7.03 2.3.68 5.54 1.95 7.44 2.912.907.46 1.506.61 1.903.475.318-.108.817-.162 1.108-.12.29.04 3.744 1.595 7.673 3.455 8.624 4.082 10.492 4.856 13.776 5.71 1.393.362 2.98.886 3.527 1.165.547.28 2.404.824 4.126 1.21 4.236.95 4.3.98 4.905 2.394.62 1.444 1.663 5.41 1.474 5.6-.074.072-.582-.774-1.13-1.88-.992-2.006-1.002-2.016-2.593-2.544-.878-.292-2.683-.767-4.01-1.056-1.328-.29-2.975-.766-3.66-1.06-.685-.294-2.2-.778-3.37-1.076-1.166-.298-3.15-.97-4.41-1.49a68.817 68.817 0 0 0-4.78-1.732c-3.09-.97-5.26-1.916-6.017-2.628-.32-.3-1.332-.81-2.252-1.135-.92-.326-3.035-1.278-4.7-2.117-2.962-1.492-7.96-3.322-9.073-3.322-.663 0-12.818-3.224-17.93-4.757-5.418-1.625-6.768-2.187-13.417-5.59-3.377-1.73-6.206-3.145-6.287-3.145-.263 0 1.49 3.258 2.935 5.457 1.493 2.27 3.577 4.206 8.17 7.595 3.074 2.267 4.203 3.282 6.53 5.864 1.047 1.163 2.894 2.936 4.104 3.94 1.21 1.002 2.198 1.975 2.198 2.16 0 .187 1.578 1.563 3.506 3.06 6.404 4.967 6.8 5.295 7.338 6.05.628.88.694 1.812.142 2.024-.617.237-2.38-.768-6.09-3.475-1.892-1.38-4.63-3.12-6.086-3.868-1.455-.748-3.003-1.733-3.44-2.19-.436-.455-1.686-1.556-2.778-2.445-1.09-.89-2.222-1.883-2.513-2.208-.29-.325-.976-.946-1.522-1.378-1.364-1.082-1.318-.358.08 1.257 1.118 1.293 1.21 1.69.274 1.188-.705-.376-.695-.307.108.782.755 1.024.836 1.373.266 1.154-.318-.122-.364.01-.232.67.092.457.037.974-.124 1.168-.216.26-.112.596.418 1.34.556.78.63 1.04.354 1.212-.194.12-.267.357-.162.527.106.17.12.6.03.957-.194.768-1.2.885-1.866.218-.88-.88-3.83-7.417-5.775-12.803-1.354-3.746-5.183-11.013-8.783-16.667-.417-.655-.96-1.717-1.205-2.36-.422-1.103-.56-1.214-2.398-1.92-1.073-.41-2.04-.718-2.15-.682-.11.037.284.782.874 1.655 1.534 2.27 3.5 6.268 4.294 8.73 1.007 3.12 1.488 5.897 1.75 10.104.13 2.064.314 3.88.41 4.035.24.388-.536 4.386-1.357 6.995-.84 2.663-2.897 7.843-4.165 10.485-.95 1.976-.953 1.98-.806.798.08-.652.61-3.153 1.176-5.556 1.58-6.714 1.955-9.548 1.96-14.822.007-6.616-.92-10.935-3.41-15.875-1.838-3.65-6.12-9.26-7.065-9.26-.467 0-.465.045.047 1.05.295.576.768 1.172 1.052 1.324 1.127.604 2.77 7.207 3.838 15.428.742 5.706-.137 11.17-3.155 19.615-2.567 7.182-4.08 9.817-8.595 14.963-5.994 6.834-9.734 10.068-14.215 12.295-2.707 1.345-12.246 4.313-16.623 5.173-3.26.64-9.486.922-11.662.528zm11.133-1.82c2.72-.566 2.377-.66-1.06-.293-4.75.507-10.863-.624-17.68-3.272-4.292-1.668-4.118-1.622-3.22-.847.988.854 4.828 2.858 7.205 3.762 2.8 1.064 5.315 1.416 9.066 1.27 1.82-.07 4.38-.35 5.69-.62zm4.795-3.968c9.247-1.93 13.52-4.19 19.815-10.48 8.89-8.88 11.35-14.696 11.926-28.18.162-3.822.137-4.163-.365-5.026-1.748-3.007-4.983-19.108-5.474-27.252-.09-1.528-.296-3.72-.453-4.868-.263-1.92-.313-2.038-.625-1.457-.255.477-.262.68-.03.83.208.132-.015.52-.684 1.192-.83.832-4.96 6.76-4.96 7.12 0 .064-.49.778-1.09 1.588-1.406 1.905-4.202 6.64-4.202 7.12 0 .472-1.794 3.29-2.095 3.29-.29 0-2.6 2.868-4.902 6.086-.99 1.382-2.187 2.93-2.66 3.44-1.24 1.33-3.747 7.288-4.234 10.06-.214 1.22-.53 2.64-.703 3.155-.17.516-.44 1.648-.597 2.515-.157.866-.404 1.52-.55 1.455-.145-.067-.23-.39-.188-.72.045-.352-.092-.665-.33-.756-.484-.186-.518-1.016-.11-2.64.254-1.005.19-1.84-.428-5.475-.817-4.814-1.238-6.15-1.862-5.91-.472.18-5.98 1.103-7.93 1.328-.727.084-1.483.05-1.678-.073-.225-.143.744-.394 2.646-.685 4.633-.71 4.423-.993-.57-.772-2.402.107-5.736.213-7.41.237-1.673.023-4.024.137-5.225.253-2.155.208-2.546.082-1.865-.6.247-.246.222-.316-.11-.316-.236 0-.602-.067-.814-.148-.293-.112-.354.015-.256.53.115.603.044.676-.663.676-.935 0-1.494-.564-1.267-1.28.135-.422-.002-.54-.787-.688-.523-.098-1.81-.63-2.86-1.184-1.37-.722-1.983-.923-2.177-.712-.185.2-.163 1.685.068 4.658.187 2.4.28 4.633.205 4.96-.207.916-.9.71-1.33-.396-.21-.546-.582-1.35-.825-1.786-.242-.437-1.325-2.4-2.407-4.366-3.02-5.488-3.748-6.62-5.36-8.334-1.99-2.118-2.372-2.73-2.372-3.793 0-.78-.37-1.288-2.81-3.845-1.547-1.62-3.035-3.054-3.308-3.185-.273-.132-.497-.377-.497-.546 0-.17-.355-.648-.79-1.064-.724-.694-.847-.728-1.455-.402-.82.44-1.157.162-.696-.576.308-.493.264-.62-.407-1.17-.903-.738-1.272-.8-1.023-.17.245.62 1.09 3.973 3.32 13.162 1.024 4.22 2.288 8.922 2.81 10.448.52 1.526 1.338 4.145 1.817 5.82 1.433 5.026 5.017 15.113 5.97 16.808 1.252 2.23 5.887 8.318 8.3 10.903a31.07 31.07 0 0 0 8.76 6.61c4.15 2.12 10.03 4.145 14.523 5 2.777.53 9.86.32 13.275-.394zm-17.712-23.512c-.343-.69-1.007-2.225-1.477-3.41-.65-1.635-1.1-2.348-1.872-2.968-.585-.47-1.726-2-2.694-3.612-.923-1.538-2.058-3.424-2.52-4.19-1.046-1.73-1.36-2.82-.816-2.82.497 0 1.993.746 2.214 1.104.113.183.24.164.376-.055.412-.668.99.014 1.95 2.3 1.875 4.47 1.806 4.34 2.15 4.056.22-.183.404-.162.586.067.286.36 2.865 8.505 3.143 9.925.252 1.287-.313 1.072-1.04-.397zm3.79-14.09c0-.144.237-.263.528-.263.29 0 .53.12.53.264 0 .145-.24.264-.53.264-.29 0-.53-.12-.53-.265zm-6.616-1.973c0-.202 1.142-1.2 1.373-1.2.425 0 .203.78-.297 1.048-.534.286-1.076.362-1.076.152zm11.234-.425c-.096-.155-.11-.345-.033-.423.19-.19.706.144.706.457 0 .338-.457.315-.672-.034zm-22.47-1.026c-.233-.377.064-.808.555-.808.23 0 .364.186.314.44-.103.532-.63.755-.87.368zm15.734-.147c0-.218.18-.397.397-.397.218 0 .397.18.397.397 0 .22-.18.397-.397.397a.398.398 0 0 1-.397-.397zm23.548-6.482c0-.146.178-.265.397-.265.218 0 .397.12.397.265 0 .146-.18.265-.397.265-.22 0-.397-.12-.397-.265zm7.987-2.927c.064-.19.272-.4.463-.463.198-.066.298.033.23.232a.828.828 0 0 1-.462.463c-.198.066-.297-.034-.23-.232zm-5.077-1.835c0-.146.186-.265.413-.265.226 0 .338.12.248.265-.09.145-.276.264-.413.264-.137 0-.25-.12-.25-.264zm2.117-1.29c0-.335.777-.932.965-.744.27.27-.133.974-.56.974-.223 0-.405-.104-.405-.232zm-59.53-.298c0-.146.11-.265.248-.265s.323.12.413.265c.09.146-.022.265-.25.265-.226 0-.41-.12-.41-.265zm62.44-1.587c0-.292.12-.53.265-.53.145 0 .264.238.264.53 0 .29-.12.53-.264.53-.146 0-.265-.24-.265-.53zm2.382-5.557c0-.144.12-.263.264-.263.145 0 .264.12.264.264a.265.265 0 0 1-.53 0zm-22.755 15.347c0-.145-.238-.264-.53-.264-.29 0-.528.12-.528.264 0 .146.238.265.53.265.29 0 .528-.12.528-.265zm36.7-6.35c-.157-6.08-.465-7.576-2.013-9.782-.604-.86-1.27-1.96-1.478-2.44-.595-1.37-.48-.384.664 5.664 1.396 7.378 2.746 13.213 2.866 12.378.052-.364.034-2.983-.04-5.82zm-54.162 4.763c0-.146-.18-.265-.397-.265-.217 0-.396.12-.396.265 0 .145.18.264.397.264.22 0 .398-.12.398-.264zm9.496-.02c.97-.207 1.282-.383 1.176-.66-.3-.785-3.264-.14-3.264.71 0 .307.482.295 2.088-.05zm-10.89-.14c-.09-.088-.317-.098-.508-.02-.21.083-.148.146.16.16.28.01.435-.052.347-.14zm14.494-.683c.007-.904 1.124-1.718 2.385-1.738 1.328-.02 1.47.256.608 1.173-.793.846-.483.767.71-.18.548-.437 1.31-.8 1.69-.804.896-.013 1.695-.473 2.415-1.39.446-.57.66-.67.933-.444.265.22.603.176 1.34-.174.542-.257.847-.514.677-.57-.565-.19-.32-.795.544-1.342.735-.465.787-.565.38-.722-.262-.1-.61-.048-.776.117-.367.368-1.252.397-1.252.04 0-.14.298-.452.662-.69.8-.524.838-.93.132-1.37-.29-.182-.528-.538-.525-.79.007-.73.636-1.785 1.063-1.785.214 0 .57-.357.788-.794.742-1.47 1.856-.82 1.206.704-.133.31-.023.49.376.618.31.098.517.317.46.487-.16.49-1.22.52-1.93.055-.8-.523-1.078-.1-.66 1 .308.81.506.863 1.224.32.282-.214.7-.392.93-.397.227-.005.9-.425 1.496-.934 1.093-.937 1.66-1.158 1.66-.65 0 .307-3.72 3.953-4.036 3.955-.11 0-.198.133-.198.294 0 .16.17.226.38.146.225-.087.418.037.47.302.06.294.36-.038.865-.96.428-.782 1.103-1.582 1.513-1.794.407-.21.74-.5.74-.64 0-.143.232-.26.515-.26.284 0 .693-.253.91-.564.362-.515.35-.605-.134-.996-.526-.426-.52-.447.454-1.723.948-1.24.967-1.305.48-1.66-.927-.68-.32-4.315.723-4.315.184 0 .226.326.117.91-.214 1.14.053 2.265.537 2.265.203 0 .368.126.368.28 0 .154.132.2.293.1.205-.127.188-.247-.058-.4-.193-.118-.268-.3-.165-.402.103-.103 0-.323-.226-.49-.348-.252-.36-.414-.083-1.023.414-.91 1.508-1.24 1.98-.595.31.425.364.412.75-.176.227-.348.916-.916 1.53-1.26.613-.345.972-.676.796-.734-.43-.143-.405-.904.05-1.523.31-.428.43-.45.792-.15.58.48 1.073.043 1.562-1.393.37-1.09.365-1.126-.25-1.416-.5-.235-.71-.215-1.023.096-.35.35-.414.34-.572-.09-.098-.264-.28-.55-.405-.635-.358-.243.058-1.02.463-.865.23.088.426-.108.533-.535.094-.37.357-.828.585-1.016.366-.3.397-.246.257.452a9.712 9.712 0 0 1-.346 1.28c-.16.415-.075.474.576.397.72-.084.773-.176.897-1.524.142-1.542.666-2.077.945-.967.198.79.322.822 1.098.28.46-.324.567-.65.544-1.674-.03-1.326.16-1.895.632-1.895.164 0 .21.27.112.66-.244.973.206.807.717-.263.428-.896.425-.926-.083-.926-.578 0-.597-.033-.364-.64.088-.23.416-.42.728-.423.4-.003.466-.068.224-.222-.24-.152.123-.51 1.228-1.202 1.235-.774 1.88-1.45 3.012-3.15 1.92-2.89 2.087-3.23 2.173-4.44.083-1.164-.083-1.273-.778-.506-.804.888-1.13.658-1.13-.793 0-1.42.473-1.78 1.14-.868.29.397.417.41.996.1.364-.194.806-.265.982-.157.176.11.423.034.55-.167.362-.57.28-.86-.146-.506-.212.175-.51.243-.66.15-.448-.277-.318-.67.22-.67.707 0 1.223-.734 1.13-1.612-.055-.53.193-1.106.843-1.958 1.01-1.323 1.08-1.642 1.488-6.97.304-3.97.087-8.51-.408-8.51-.65 0-1.215-.838-1.05-1.56l.16-.69-.51.645c-.596.758-.38 1.287.82 1.995.683.404.742.542.55 1.288-.117.46-.185 1.58-.15 2.49.034.91-.042 1.653-.17 1.653-.127 0-.307.405-.4.9-.093.494-.358 1.056-.59 1.247-.358.298-.51.242-1.05-.385-.363-.42-.63-1.072-.63-1.53 0-.665.092-.78.575-.712.45.065.617-.09.766-.71.35-1.454.463-3.043.216-3.043-.22 0-1.14 1.316-1.39 1.984-.063.167-.298.147-.64-.054-.437-.258-.603-.245-.86.066-.177.21-.47.385-.653.385-.183 0-.483.182-.667.404-.184.222-.38.357-.437.3-.122-.12 1.127-2.68 1.765-3.614a5.2 5.2 0 0 0 .637-1.423c.102-.42.647-1.22 1.212-1.78.81-.8 1.063-1.283 1.196-2.28.29-2.172.64-2.53 1.17-1.197.26.656.27.623.122-.33-.09-.583-.15-1.298-.13-1.59.02-.29.09-1.36.155-2.38.2-3.098.646-7.418 1.044-10.13.207-1.413.51-4.177.67-6.142.162-1.964.42-4.61.57-5.882.175-1.447.21-4.854.1-9.128-.113-4.264-.07-8.255.112-10.654.16-2.11.4-5.235.535-6.944.237-3.027.227-3.137-.404-4.265-.723-1.297-2.477-6.13-2.485-6.856-.003-.26.288-.582.655-.722.364-.138.662-.33.662-.43 0-.097-.837-1.575-1.86-3.285-2.595-4.34-3.28-6.638-1.87-6.27.273.072.658.03.856-.09.554-.344-.38-1.903-2.444-4.08-1.95-2.054-2.43-2.804-2.195-3.417.1-.266-.412-1.072-1.457-2.283-1.13-1.31-1.615-2.09-1.615-2.598 0-.4-.357-1.29-.793-1.978-.437-.69-.794-1.557-.794-1.93 0-.372-.234-1.007-.52-1.41-.288-.402-1.195-2.086-2.017-3.74-1.68-3.383-3.268-5.892-4.305-6.81-.384-.338-2.007-1.604-3.608-2.813-1.6-1.208-3.892-3.1-5.09-4.203-1.8-1.655-2.45-2.08-3.705-2.432-.838-.234-1.88-.58-2.318-.772a15.483 15.483 0 0 0-1.39-.526c-.326-.1-.594-.268-.594-.376 0-.108-.15-.403-.336-.656-.314-.43-.403-.43-1.368-.028-.568.237-1.34.364-1.715.282-.376-.08-1.502-.205-2.502-.274l-1.82-.125-1.492 1.554c-.82.855-1.833 1.64-2.25 1.745-.66.165-.866.06-1.61-.825l-.852-1.015-1.56.608c-2.186.854-8.086 1.11-10.105.44l-1.354-.45-1.002.68c-.842.57-1.19.653-2.205.52-.925-.124-1.288-.063-1.558.262-.526.635-1.255.52-3.043-.48-1.164-.65-1.95-.905-2.803-.908-.654-.002-1.657-.2-2.23-.443-1.28-.538-3.568-.333-4.82.434-.46.28-2.185.938-3.836 1.46-3.797 1.2-4.198 1.414-5.098 2.712-.848 1.224-1.908 2-2.655 1.946-.283-.02-1.037.403-1.674.942-.637.54-2.037 1.694-3.11 2.567-7.007 5.7-9.977 8.432-11.143 10.252-1.75 2.732-2.473 4.632-2.473 6.513 0 .726-.344 1.87-.984 3.27-.68 1.484-.884 2.186-.66 2.26.517.173.382.524-.636 1.65-.714.79-.886 1.148-.677 1.4.352.424.228 2.53-.195 3.32-.174.327-.252.797-.172 1.047.082.258-.234 1.085-.73 1.91-.923 1.537-1.673 3.56-1.87 5.05-.067.496-.778 3.758-1.582 7.25-1.657 7.202-2.283 11.052-2.283 14.035 0 2.52.48 5.474.85 5.245.43-.266.73.47.734 1.798.003.83.4 2.244 1.21 4.316.662 1.695 1.272 3.654 1.355 4.353.21 1.784-.31 1.996-1.344.547-.463-.648-.468-.614-.292 1.72.098 1.31.35 3.274.557 4.365.364 1.907.514 3.36 1.186 11.51.27 3.258.477 4.248 1.724 8.225 1.802 5.75 2.15 7.302 2.372 10.56.117 1.73.336 2.92.633 3.44.25.436.415 1.032.37 1.323-.046.29.104.114.334-.392.314-.695.345-1.035.126-1.385-.4-.64-.37-.737.24-.737.29 0 .528-.12.528-.264 0-.146.133-.265.296-.265.206 0 .24.526.108 1.75-.14 1.303-.11 1.702.12 1.56.216-.133.282.075.223.698-.067.702-.262.97-.94 1.284-.97.45-1.018.645-.474 1.886.367.837.4.855.56.295.093-.326.275-.594.404-.594.51 0 .007 5.06-.52 5.234-.168.056-.304.48-.304.94v.838l.67-.794c.63-.75.687-.766.99-.302.178.27.902 1.224 1.61 2.117 2.228 2.814 2.372 4.035.177 1.5-.76-.878-1.5-1.596-1.64-1.596-.7 0 .523 4.756 1.854 7.208.998 1.838 1.365 2.177 1.365 1.258 0-.353.176-.53.53-.53.306 0 .528.177.528.422 0 .23.268.656.595.944l.596.524-1.124-.126c-1.223-.136-1.226-.115-.16 1.328.343.464.623.993.623 1.178 0 .26.07.264.317.017.44-.44 1.005-.397 1.005.08 0 .22-.235.397-.533.397-.505 0-.495.058.183 1.082.66.996.733 1.038.92.53.196-.527.752-.785.752-.35 0 .114.476.16 1.058.106.64-.06 1.06.01 1.06.182 0 .415-1.036.9-1.606.75-.828-.217-1.078.408-.51 1.274.546.832 1.472 1.322 1.725.912.267-.432.654-.278.654.26 0 .674.444.924 1.512.852.764-.052.87.02.87.595 0 .71.248.943 1.444 1.347 1.036.35 2.195 2.064 2.053 3.034-.076.52.07.9.496 1.298.654.61 1.035.718 1.035.298 0-.145.12-.264.264-.264.145 0 .264.183.264.408 0 .428.057.517 1.245 1.92.736.872.74.873 1.598.445.473-.237.86-.54.86-.676 0-.135.127-.245.282-.245.155 0 .245.327.2.728-.06.508-.218.705-.528.654-.905-.15-.76.52.32 1.467.83.728 1.307.956 1.875.896.608-.064.76.025.76.44 0 .286.236.8.522 1.144.49.588.52.594.53.096.004-.29.248-.92.54-1.4.417-.685.626-.82.97-.626.455.255.544.533.71 2.224.098.993-.17 1.342-.457.596-.22-.577-.698-.487-.698.132 0 .294.177.53.397.53.218 0 .397.135.397.3 0 .37.796 1.002 1.273 1.014.23.006.29-.173.18-.52-.118-.377-.046-.53.248-.53.23 0 .416.12.416.264 0 .146.208.264.463.263.645-.003 1.786-2.03 1.402-2.494-.21-.254-.18-.433.11-.675.836-.693 1.612.3.868 1.11-.517.563-.992 1.484-.992 1.924 0 .22-.16.4-.356.4-.196 0-.56.224-.808.5-.43.473-.417.525.24 1.042.38.3.864.48 1.073.4.21-.082.38.007.38.2 0 .268.07.274.317.027.496-.496.67-.386.852.54.247 1.256 1.612 2.67 2.387 2.476.52-.13.61-.05.61.522 0 .794 1.39 2.395 1.675 1.93.248-.4.787-.044.614.406-.128.335 1.602 1.782 3.004 2.512.958.5.683-.133-.313-.72-.62-.367-.99-.837-1.17-1.48-.507-1.842.468-3.38 1.533-2.417.3.27.545.65.545.842 0 1.538 1.896 3.593 2.26 2.45.24-.763 1.18-.65 1.18.142 0 .46-.17.672-.595.747-.545.096-.554.123-.105.322.28.125.562.11.66-.038.246-.366 1.095-.692 2.072-.796.697-.074.856.01.926.488.114.776 1.11.83 2.32.124 1.22-.71 1.473-.967 1.66-1.688.13-.495.05-.595-.48-.595-.448 0-.637-.148-.637-.5 0-.566.688-.946.948-.525.093.15.457.202.808.114.77-.194 1.127.44.603 1.072-.293.352-.277.46.1.67.25.14.452.44.452.67 0 .316-.18.38-.74.27-.882-.177-1.242.018-1.433.775-.11.44-.04.535.323.44.257-.067.545.006.642.163.12.194.373.156.793-.12.59-.386 3.18-.72 5.187-.667.618.015 1.364-.248 2.192-.773.717-.455 1.62-.798 2.106-.8 1.408-.006 2.073-.273 1.915-.77-.077-.245.16-.85.53-1.353.66-.895.484-1.41-.27-.786-.39.325-.927.16-.927-.284 0-.14.298-.37.662-.507.364-.14.66-.398.66-.576 0-.25-.07-.253-.316-.006-.357.357-1.27.432-1.27.104 0-.117.53-.782 1.177-1.477 1.18-1.267 2.218-1.578 2.052-.614-.042.25.068.453.245.453s.043.297-.3.66c-.82.876-.552.835 1.07-.162.736-.454 1.394-.77 1.46-.702.07.067-.142.46-.468.876-.476.605-.503.716-.136.57l.853-.345c.29-.118.396.02.396.53 0 .714-.535 1.392-1.702 2.157-.964.63-.898 1.208.114 1.006.895-.18.998.037.356.746-.507.56-1.057.63-1.215.154-.07-.207-.367-.034-.795.463-.6.697-.854.793-2.094.793-1.24 0-1.42.068-1.492.568-.044.312-.323.787-.62 1.055-.508.46-.556.46-.872.028-.296-.405-.332-.365-.307.345.024.73.1.797.82.726.536-.053.796-.223.798-.523zm-4.077-2.96c-.215-.262-.228-.438-.04-.555.52-.32.28-.637-.44-.587-.51.035-.745-.092-.817-.44-.146-.71.355-1.132.85-.72.22.18.527.25.685.15.386-.237 1.1.38.87.752-.1.162-.187.585-.194.94-.017.765-.47.993-.913.46zm-4.74-.76c.06-.428.29-.62.81-.68.844-.098.934.212.245.836-.685.62-1.156.55-1.056-.157zm-8.25-.317c0-.21.107-.448.24-.53.13-.08.18-.372.108-.646-.153-.586.223-.892.818-.664.507.195.53.56.09 1.505-.347.748-1.257.99-1.257.335zm15.247.172c-.192-.31.563-1 .816-.748.097.097-.01.364-.24.592-.247.248-.48.31-.576.156zm1.54-.607c-.25-.405.292-.873.79-.682.227.088.414.34.414.564 0 .463-.935.554-1.204.118zm7.818-.242c0-.145.18-.264.397-.264.22 0 .397.118.397.263 0 .146-.18.265-.398.265-.218 0-.397-.12-.397-.265zm-32.28-.264a.265.265 0 0 1 .53 0c0 .144-.118.263-.263.263a.265.265 0 0 1-.264-.264zm22.89.003c-.195-.316.053-.798.41-.798.322 0 .324.716.003.914-.135.083-.32.03-.412-.117zm-5.426-.37c0-.2.365-.724.813-1.162.45-.437.703-.865.565-.95-.747-.462.883-2.7 1.812-2.488.555.127.564-.544.01-.84-.44-.235-.585-.19-.827.263-.16.302-.434.497-.606.435-.172-.063-.497.045-.722.24-.27.235-.658.287-1.154.155-.652-.175-.693-.242-.33-.542.226-.19.546-.75.71-1.248.28-.845 1.052-1.283 1.052-.596 0 .17.062.245.138.17.29-.29-.218-1.01-.714-1.01-.387 0-.498-.15-.435-.594.102-.708 1.276-1.03 1.276-.35 0 .23.113.416.25.416.348 0 1.077-1.092 1.055-1.58-.01-.26-.12-.192-.304.19-.355.738-.74.765-.923.067-.16-.61-.39-.627-3.443-.276-2.313.266-3.38.687-3.38 1.333 0 .242-.26.404-.662.415-.364.01-.875.114-1.136.23-.838.378-.874-.143-.055-.8l.794-.636h-1.388c-.764-.002-1.39-.12-1.39-.267 0-.488 1.03-1.3 2.705-2.14 1.886-.943 2.588-1.487 2.588-2.006 0-.486-2.43-2.013-5.954-3.742-1.6-.785-3.623-1.938-4.496-2.56-2.04-1.46-7.003-6.542-9.203-9.43-.83-1.088-5.057-4.647-7.234-6.09-.84-.556-1.658-.91-1.936-.836-.292.076-.633-.09-.865-.42-.21-.3-.837-.855-1.392-1.232l-1.01-.685.15 2.2c.094 1.402.338 2.585.672 3.26.626 1.264 1.202 3.3.992 3.51-.082.082-.188.1-.234.04-3.948-5.14-3.977-5.207-4.453-10.296-.47-5.02.282-7.675 2.176-7.675.572 0 1.138-.35 2.155-1.33 2.137-2.06 2.322-1.538.61 1.724-.803 1.534-1.46 3.07-1.46 3.413 0 .57.135.636 1.52.754 3.294.282 9.905-.514 12.767-1.535 5.67-2.023 9.523-2.304 14.155-1.03 3.986 1.097 4.042 1.097 5.687.014.788-.52 2.213-1.216 3.165-1.545 2.16-.747 6.058-.785 13.9-.134l5.293.44 2.786-.61c3.098-.678 3.54-.86 4.482-1.87l.653-.697-.654-1.906-.654-1.906-2.04.03c-2.21.028-2.338-.143-1-1.354.32-.29.744-.84.943-1.226.336-.65.303-.777-.455-1.72-1.64-2.043-2.695-4.063-2.124-4.063.14 0 1 .728 1.908 1.62.91.89 2.347 2.055 3.194 2.59 1.58 1 4.03 3.192 4.805 4.297.35.498.483.55.68.256.826-1.22 1.112 1.57.445 4.334-.21.873-.388 2.375-.393 3.338-.007 1.292-.138 1.915-.5 2.38-.27.348-.658 1.108-.86 1.69-.384 1.11-.726 1.512-1.09 1.286-.12-.074-.14-1.357-.044-2.85.155-2.375.122-2.738-.256-2.883-.507-.195-.57-.998-.116-1.453.223-.223.234-.4.037-.598-.32-.32-1.267 1.08-2.868 4.25-.55 1.09-1.622 2.936-2.38 4.1-1.758 2.7-4.367 7.59-4.367 8.185 0 .25-.485 1.368-1.078 2.485-.875 1.645-1.814 2.767-4.96 5.928-3.48 3.492-3.887 3.996-3.912 4.835-.016.515-.075.98-.132 1.03-.058.053-.878.483-1.824.958-.946.474-2.088 1.143-2.54 1.486-.45.344-1.044.625-1.322.626-.277 0-.86.24-1.298.528l-.793.525.86.003c.474 0 2.706-.593 4.96-1.32 2.257-.728 4.34-1.324 4.63-1.324.946 0 .564.503-.99 1.305-1.08.557-1.348.79-.927.798.328.007.596.123.596.26 0 .376-.73 1.02-1.392 1.226-.326.1-.667.3-.757.44-.146.227-1.83.686-4.452 1.214-1.263.254-2.1 1.628-1.582 2.596.3.56.295.697-.032.904-.322.204-.312.244.063.247.626.007.816.425.455 1.003-.24.385-.214.668.124 1.32.555 1.075.562 1.05-.362 1.253-.435.096-.858.284-.94.418-.084.134-.532.254-.997.265-.464.01-.695.08-.513.154.54.218.382.774-.512 1.783-.846.956-1.803 1.267-1.803.586zm1.734-19.358c2.717-.56 5.62-1.55 8.47-2.886 2.308-1.082 2.49-1.234 4.73-3.93 2.393-2.878 3.236-4.217 6.3-10.014 1.44-2.722 1.694-3.377 1.36-3.505-.224-.086-.63-.038-.9.107-.272.145-.71.265-.974.266-.264 0-1.42 1.022-2.567 2.27-1.687 1.83-2.198 2.237-2.663 2.12-.577-.144-1.583.5-4.433 2.834-1.467 1.203-2.78 1.787-6.743 3.005-2.61.802-3.604.976-6.035 1.052-1.602.05-3.224.146-3.606.212-.38.066-1.87-.184-3.307-.557-1.437-.373-3.46-.83-4.495-1.017-2.678-.484-3.576-.95-9.385-4.852-2.85-1.915-5.267-3.482-5.373-3.482-.41 0 2.203 2.805 4.99 5.354 1.605 1.47 3.787 3.624 4.848 4.788 3.372 3.697 6.022 5.87 8.437 6.914 1.19.516 2.796 1.108 3.57 1.316 1.88.506 5.34.508 7.774.005zm.806-11.195c2.603-.166 2.7-.195 3.737-1.13.585-.53 2.097-1.595 3.36-2.367 1.265-.772 2.36-1.5 2.43-1.618.242-.39-.892-.223-2.146.315-1.704.73-2.248.695-2.248-.145 0-.63-.063-.663-.993-.508-1.512.25-1.654.33-1.654.91 0 .582-.386.717-.683.238-.127-.206-.683-.235-1.8-.093-.89.113-2.094.237-2.677.275-2.75.178-5.188.478-5.295.65-.064.106-.92-.03-1.902-.303-2.513-.697-4.046-.63-4.046.18 0 .66-.492.658-1.474-.01-1.196-.81-2.023-.93-1.358-.195.234.258.505.966.602 1.573.17 1.07.227 1.122 1.798 1.69 1.803.65 6.612 1.06 9.824.837 1.02-.07 3.055-.206 4.526-.3zm-19.528-6.97c.175-.175.318-.59.318-.926 0-.787.628-.785.987.002.39.853 1.95 1.263 3.71.973 1.624-.27 1.918-.416 1.918-.96 0-.61.65-.27.746.388.083.558.19.575 3.752.575 3.597 0 3.67-.012 3.752-.593.135-.947.986-.923 1.177.033l.16.803 2.153-.132c3.768-.23 5.335-.4 5.678-.612.184-.113.427-.553.54-.977.26-.97 1.183-1.08 1.314-.156.065.458.2.568.53.43.242-.1.94-.34 1.55-.532 1.554-.487 2.198-.87 2.198-1.302 0-.477.537-.815.758-.476.263.403 2.455.6 3.062.276.647-.347 2-1.667 2-1.95 0-.112.27-.495.597-.852l.594-.65-1.058.16c-.582.088-2.428.288-4.1.444a433.91 433.91 0 0 0-7.542.802c-2.474.286-5.843.52-7.486.52-1.643 0-4.62.17-6.615.377a162.47 162.47 0 0 1-6.794.544c-1.744.092-4.475.34-6.07.55-1.595.21-3.378.382-3.962.382-1.238 0-1.038.318.5.792 1.534.473 2.407 1.063 1.97 1.334-.288.177-.29.29-.003.632.42.508 3.185.583 3.668.1zm-6.56-1.27c0-.145-.246-.264-.546-.264-.3 0-.47.12-.38.264.09.146.334.265.544.265.21 0 .38-.12.38-.265zm50.495-15.845c.29-.183.296-.344.034-.833l-.323-.606-.476.63c-.672.893-.18 1.41.767.81zM136.38 206.62c-.21-.34.88-1.568 1.39-1.568.683 0 .716.84.053 1.35-.726.56-1.19.628-1.442.218zm10.294-.643c-.225-.587.583-1.412.986-1.008.412.41.19 1.25-.357 1.355a.582.582 0 0 1-.63-.348zm-7.503-.13c0-.147.18-.266.398-.266.218 0 .397.12.397.266 0 .145-.18.264-.397.264-.22 0-.397-.12-.397-.264zm-15.08-.266c0-.145.12-.264.264-.264a.265.265 0 0 1 0 .53.265.265 0 0 1-.265-.264zm24.874.067c.002-.11.117-.376.254-.593.19-.298.324-.32.555-.09.168.17.225.436.128.594-.2.324-.942.395-.936.09zm-18.164-.463c-.26-.675.24-.986 1.073-.67.883.336.772.904-.2 1.018-.466.056-.764-.063-.873-.348zm-7.107-.66c-.09-.147-.038-.266.116-.266.153 0 .28.12.28.265 0 .145-.053.264-.117.264s-.19-.12-.28-.264zm1.72-.266c0-.516.28-.69.6-.37.21.21-.067.9-.364.9-.13 0-.238-.24-.238-.53zm33.195.25c-.205-.333.37-.824.803-.687.147.047.266.252.266.456 0 .47-.812.645-1.068.232zm-37.43-.63c0-.228.12-.414.266-.414.145 0 .264.112.264.25 0 .136-.12.322-.264.412-.146.09-.265-.022-.265-.25zm1.06-.117c0-.332.776-.93.965-.742.27.27-.134.975-.56.975-.223 0-.406-.104-.406-.232zm3.845-.17c-.707-.543-.855-2.505-.224-2.97.245-.182.663-.33.926-.33.72 0 .587.923-.183 1.274-.926.422-.824.787.28.994.765.144.924.28.86.74-.1.692-.945.84-1.66.29zm3.317-.294c-.64-.815-.733-1.948-.157-1.948.46 0 1.064.89 1.302 1.918.224.963-.398.98-1.145.03zm7.9-.012c-.23-.603-.173-.806.37-1.35.556-.556.685-.588 1-.25.317.34.4.334.678-.04.244-.33.39-.357.634-.116.472.465.095 1.15-.592 1.075-.418-.046-.697.15-.95.663-.45.917-.796.923-1.14.018zm5.135.295c-.19-.5.277-1.04.682-.79.436.268.344 1.203-.118 1.203-.224 0-.478-.186-.565-.414zm16.74-.534c-.314-.818-.152-1.45.435-1.704a6.837 6.837 0 0 0 1.046-.58c.757-.54.92.065.18.675-.38.315-.77.9-.865 1.3-.19.81-.55.948-.795.31zm-28.115-.255c-.086-.223-.088-.475-.004-.56.084-.083-.022-.326-.234-.538-.213-.213-.32-.497-.237-.63.083-.134-.217-.244-.667-.244-.898 0-1.392-.69-.773-1.08.59-.374 2.258-.28 2.613.15.24.288.253.597.048 1.184-.253.727-.23.788.292.733.838-.09.882.708.06 1.083-.872.397-.91.393-1.098-.097zm3.254.017c-.198-.518.533-.853 1.092-.5.574.362.44.748-.294.84-.393.05-.698-.08-.798-.34zm-10.355-.924c-.2-.905-.016-1.33.575-1.33.323 0 .378.183.25.828-.092.455-.166.932-.166 1.06 0 .575-.506.15-.66-.557zm-1.855.258c-.09-.144-.037-.263.117-.263s.28.12.28.264c0 .147-.052.266-.117.266-.064 0-.19-.12-.28-.265zm19.708-.257c.286-.534 1.28-1.2 1.485-.994.207.205-.983 1.516-1.378 1.516-.303 0-.326-.113-.107-.523zm10.606-.38c-.247-.296-.188-.49.28-.926.74-.687 1.07-.695 1.483-.035.276.44.237.58-.26.926-.723.507-1.105.516-1.504.035zm-19.817-.597c.13-.663.747-.754.747-.11 0 .325-.17.552-.416.552-.247 0-.382-.18-.33-.442zm34.35-.055c0-.127.176-.38.393-.558.217-.18.33-.43.254-.554-.207-.335.673-1.565 1.12-1.565.31 0 .283.19-.14.992-.288.545-.59 1.2-.67 1.455-.15.467-.958.662-.958.23zm-47.626-.213c0-.136.175-.478.39-.76.325-.432.388-.445.395-.083.005.237-.17.58-.388.76-.218.18-.397.218-.397.083zm15.08-.348c0-.342.135-.53.332-.464.18.06.33.27.33.463a.52.52 0 0 1-.33.462c-.198.066-.332-.122-.332-.463zm-12.7 0a.265.265 0 0 1 .53 0c0 .145-.12.264-.264.264a.265.265 0 0 1-.265-.265zm1.236.087a.73.73 0 0 1-.176-.45c0-.165.123-.15.313.04.172.173.25.375.176.45-.075.075-.216.057-.313-.04zm2.1-.506c-.23-.605-.197-.904.105-.904.145 0 .264.18.264.397 0 .218.12.397.265.397.146 0 .265.12.265.265 0 .427-.723.303-.898-.154zm39.99.237c-.602-.158-.592-.942.022-1.497.54-.488 1.103-.577 1.103-.173 0 .146.18.265.397.265.618 0 .467.687-.255 1.16-.36.235-.686.413-.728.397a9.566 9.566 0 0 0-.538-.153zm-47.558-.803c0-.333.756-.993.934-.815.07.07-.112.343-.404.607-.292.264-.53.358-.53.207zm10.73-.05c-.235-.38.107-1.014.788-1.46.8-.524 1.08-.123.646.924-.313.754-1.115 1.054-1.435.537zm-7.555-.42c.18-.218.508-.397.726-.397.323 0 .336.074.068.397-.18.218-.508.397-.727.397-.322 0-.335-.073-.067-.396zm31.325-.022c.088-.23.16-.63.16-.89 0-.343.456-.626 1.673-1.037 2.15-.726 2.527-.73 1.88-.013-1.457 1.61-4.12 3-3.713 1.94zm-29.034-.256c.082-.21.254-.383.384-.383.38 0 .272.46-.147.62-.256.098-.335.02-.236-.237zm10.41.014c0-.22.164-.397.364-.397.2 0 .513.178.694.397.28.335.223.396-.364.396-.44 0-.694-.145-.694-.396zm32.948-.65c-.086-.14.05-.705.3-1.257l.46-1.004.097.884c.055.487.035 1.053-.044 1.257-.163.428-.583.49-.812.12zm-49.995-.428c-.28-.205-.434-.447-.343-.54.092-.09.365.033.608.276.57.57.394.746-.265.264zm4.082-.098c0-.46.448-.53.954-.147.474.36.462.38-.227.388-.4.005-.728-.104-.728-.24zm9.622-.146c-.092-.238-.04-.56.115-.716.403-.403 1.167-.034 1.062.512-.118.61-.965.756-1.177.204zm29.28-.972c.008-.618 1.35-2.337 1.825-2.337.62 0 .478.564-.407 1.628-1.15 1.383-1.428 1.522-1.418.708zm-47.897-1.278c0-.29.158-.53.352-.53.498 0 .693.255.527.688-.217.563-.88.443-.88-.158zm3.076-.125c.09-.235.277-.39.416-.343.396.132.282.59-.17.685-.283.06-.36-.047-.246-.342zm52.486-.18c0-.537-.03-.545-.484-.133-.5.452-1.114.588-1.09.24.03-.405 1.537-1.4 1.706-1.126.093.15.28.205.416.122.278-.173.327.418.085 1.048-.233.608-.633.512-.633-.152zm-56.88-.486c-.323-.2-.305-.32.112-.78.56-.62 1.206-.72 1.206-.19 0 .584-.887 1.236-1.32.97zm9.057.085c-.597-.238-.38-.925.263-.834.328.046.596.253.596.46 0 .418-.36.574-.86.374zm.868-1.302c-.52-.79-.41-1.023.367-.777.358.114.55.4.55.818 0 .835-.354.82-.917-.04zm-2.523-.094c0-.267 1.04-1.073 1.382-1.073.418 0 .19.784-.306 1.05-.637.34-1.075.35-1.075.023zm46.495-.05c-.557-.312-.606-1.023-.07-1.023.438 0 1.047.958.732 1.152-.113.07-.41.012-.662-.13zm5.363-.216c0-.563.663-1.026.995-.695.216.217-.253 1.007-.683 1.15-.174.06-.312-.143-.312-.455zm-58.737-.278c0-.146.12-.265.264-.265a.265.265 0 0 1 0 .53.265.265 0 0 1-.264-.265zm10.583 0c0-.146.178-.265.396-.265.218 0 .397.12.397.265 0 .145-.18.264-.397.264-.218 0-.397-.12-.397-.264zm45.243-.265c0-.145.18-.264.397-.264.218 0 .397.12.397.264 0 .146-.18.265-.397.265-.218 0-.397-.12-.397-.265zm-53.187-.676c-.15-.395-.213-.78-.138-.855.074-.074-.07-.286-.323-.47-.61-.447-.26-.75.61-.532.468.117.65.303.55.56-.08.213-.024.387.126.387.384 0 .18 1.39-.22 1.522-.182.06-.454-.216-.604-.61zm1.993.408c.09-.148.27-.203.4-.124.13.08.432-.156.673-.524.242-.37.604-.67.806-.67.53 0 .443.314-.272.992-.62.586-1.935.853-1.61.326zm-8.074-.21c0-.142.19-.33.42-.42.257-.098.378-.038.313.155-.132.395-.734.613-.734.265zm62.706-.58c0-.352.177-.528.53-.528.6 0 .678.274.21.74-.465.467-.74.39-.74-.21zm-50.966-.126c-.224-.582.022-.763.406-.3.217.26.228.434.036.552-.154.095-.353-.018-.442-.252zm-12.534-.105c0-.128.268-.42.596-.65.51-.36.54-.458.198-.7-.218-.156-.657-.238-.975-.184-.874.15-1.165-.162-1.342-1.437-.13-.948-.19-1.044-.318-.52-.086.352-.32.696-.522.763-.268.088-.31-.012-.157-.378.198-.472.334-1.143.384-1.89.042-.637.448-.32.786.616.224.617.468.896.707.805.2-.077.435-.025.52.115.088.14-.032.328-.266.418-.383.148-.38.212.04.675.455.505.466.503.702-.098.237-.604.243-.602.513.183.15.437.435.89.63 1.006.198.117.36.458.36.76 0 .416-.127.513-.53.408-.29-.076-.595-.03-.676.1-.19.308-.648.313-.648.008zm4.234-.265c0-.128.178-.38.397-.56.218-.183.397-.673.397-1.092 0-.487.137-.762.38-.762.588 0 .74.468.246.745-.264.148-.378.42-.282.67.09.232-.02.604-.242.827-.447.446-.896.533-.896.172zm-1.844-.76c.018-.42.79-1.208.98-1.003.112.118.053.268-.128.333-.182.065-.33.287-.33.493 0 .206-.12.375-.266.375-.145 0-.26-.09-.256-.198zm65.08-.527c0-.552.736-1.205 1.17-1.038.7.268.39 1.09-.445 1.186-.4.046-.726-.02-.726-.148zm-56.222-.593c-.195-.316.052-.798.41-.798.322 0 .324.716.003.915-.136.082-.32.03-.413-.118zm-8.602-.944c0-.08.19-.51.42-.956.296-.573.502-.728.7-.53.2.2.152.48-.16.957-.395.6-.96.913-.96.528zm8.38-.557c-.2-.2.302-.884.65-.884.126 0 .23.24.23.53 0 .508-.517.717-.88.355zm-1.765-1.016c0-.218.18-.397.397-.397.218 0 .397.18.397.397 0 .218-.18.397-.397.397a.398.398 0 0 1-.397-.396zm-8.71-.816c.012-.308.075-.37.16-.16.076.19.066.42-.022.508-.086.087-.15-.07-.137-.348zm10.1.243c-.58-.23-.358-.617.352-.617.41 0 .64.126.58.315-.126.372-.476.486-.933.303zm-8.972-.76c-.085-.225-.086-.478-.002-.562.267-.267.97.142.97.565 0 .528-.764.526-.967-.003zm-2.47-1.71c0-.144.118-.263.263-.263.146 0 .265.12.265.264a.265.265 0 0 1-.53 0zm68.79-.222c0-.268.582-2.143 1.294-4.167 3.884-11.05 4.615-13.83 4.93-18.76.123-1.93.055-3.22-.25-4.762-.23-1.164-.417-2.427-.417-2.805 0-.88-2.27-2.696-4.878-3.905-1.556-.72-2.366-1.386-5.293-4.355-1.9-1.928-4.35-4.61-5.44-5.963l-1.985-2.457-.17 1.353c-.237 1.872-.622 2.68-1.678 3.52-1.237.99-2.164 1.317-2.782.986-.272-.146-.716-.265-.987-.265-.27 0-1.49-.408-2.71-.908-1.848-.756-2.444-.886-3.56-.77-2.105.216-3.034.59-3.446 1.388-.207.398-.562.88-.79 1.068-.36.298-.415.25-.415-.358 0-.386-.178-.77-.396-.854-.752-.288-.395-1.04 1.255-2.653 1.823-1.78 2.688-2.332 3.18-2.028.18.11 1.027.283 1.883.384 1.893.224 2.963.935 2.89 1.924-.058.817.704 1.11 2.248.864 1.356-.215 2.33-1.356 2.55-2.99.232-1.732-.23-4.775-.828-5.455-1.83-2.08-4.883-4.96-5.256-4.96-.368 0-.39-.07-.118-.395.37-.446 1.852-.546 1.852-.126 0 .148.268.374.595.5.33.127 2.267 1.66 4.31 3.404 2.747 2.35 3.9 3.522 4.442 4.515 2.046 3.76 6.667 8.708 9.735 10.423 2.506 1.402 5.315 3.678 6.456 5.233.85 1.16 1.052 1.726 1.48 4.173.27 1.556.493 3.545.492 4.418-.005 3.924-1.5 10.837-3.45 15.957-.593 1.556-1.44 3.84-1.883 5.078-1.144 3.2-1.715 4.233-2.338 4.233-.332 0-.524-.178-.524-.488zm-2.645-.306c-.55-.55-.643-.983-.37-1.698.2-.522.866-.547 1.06-.04.106.275.44.345 1.2.254.98-.118 1.032-.09.773.393-.305.57-1.54 1.62-1.905 1.62-.126 0-.467-.237-.758-.528zm5.583.287c-.656-.416-.154-1.01.742-.877.867.127 1.1.69.4.958-.547.21-.7.2-1.142-.08zm-81.634-.26c-.193-.312.097-1.086.408-1.086.313 0 .305.985-.01 1.18a.29.29 0 0 1-.398-.094zm2.033.062c-.465-.188-.413-.883.066-.883.22 0 .397.234.397.528 0 .29-.03.52-.066.508-.036-.012-.215-.08-.397-.154zm3.638-1.148c0-1.07.338-1.41.633-.64.2.517-.077 1.698-.397 1.698-.128 0-.235-.476-.235-1.058zm-2.86-.81c.063-.19.272-.4.463-.463.198-.065.297.034.23.232a.828.828 0 0 1-.462.463c-.198.066-.298-.033-.23-.23zm7.423-3.88c-2.47-4.136-3.407-6.056-3.73-7.63a469.01 469.01 0 0 0-.96-4.48c-.448-2.04-.715-4.122-.748-5.822-.05-2.597-.03-2.685.996-4.743.817-1.637 1.604-2.662 3.572-4.655 1.39-1.405 3.185-3.14 3.992-3.855.807-.715 2.193-2.133 3.08-3.152 4.65-5.343 6.963-8.138 6.963-8.418 0-.703 1.588-3.57 2.62-4.733 1.76-1.98 6.1-3.853 7.6-3.277.395.152.39.218-.064.722-.276.305-1.096.82-1.823 1.146-1.764.79-3.514 2.292-5.032 4.318-1.615 2.156-1.695 3.322-.408 5.936.7 1.423 1.137 1.947 2.176 2.614 1.312.842 1.93.854 1.334.026-.878-1.223-.963-1.646-.433-2.14 1.325-1.234 5.225-2.016 6.542-1.312 1.698.91 4.7 3.77 5.46 5.206.504.956 1.944 1.423 4.075 1.325 1.306-.06 1.887.013 1.964.244.06.18.42.328.802.328.928 0 .468.36-.988.776-1.7.485-2.74 1.657-3.464 3.908-.515 1.598-.555 1.964-.26 2.32.317.382.402.35.83-.3.427-.653.494-.677.66-.24.104.267.05.708-.12.98-.42.67.08.648.814-.035.313-.29.784-.528 1.048-.528.263 0 .48-.18.48-.397 0-.43.36-.477 1.18-.156.377.145.648.048.972-.35.447-.552.452-.55 1.504.588.58.627 1.2 1.49 1.377 1.918.412.996.19 1.272-2.12 2.645-1.733 1.03-1.794 1.045-3.99.95a17.67 17.67 0 0 1-4.552-.827c-2.437-.77-2.933-1.108-2.215-1.51.238-.133.434-.55.434-.927s.23-2.068.513-3.757c.75-4.493.753-4.664.077-5.44-.324-.374-.59-.843-.59-1.042 0-.2-.18-.51-.397-.692-.218-.18-.397-.485-.397-.675 0-.19-.315-.592-.7-.894-.55-.433-.777-.484-1.074-.237-.208.17-1.233.332-2.28.358-1.282.03-2.62.29-4.116.793-2.012.68-2.316.717-3.307.418-.6-.18-1.425-.395-1.832-.475-.545-.107-.946-.503-1.52-1.502-.427-.745-.78-1.624-.78-1.952 0-.327-.07-.595-.156-.595-.4 0-3.443 2.923-4.923 4.728a88.554 88.554 0 0 1-3.143 3.608c-1.86 1.985-2.956 3.6-3.952 5.82-.428.954-1.117 2.237-1.53 2.852-1.476 2.192-1.783 3.948-1.732 9.902l.047 5.345 2.12 4.967c1.167 2.732 2.085 5.004 2.04 5.048-.043.044-.916-1.323-1.94-3.037zm37.44-24.88c.066-.196-.188-.16-.71.1-.446.222-.81.445-.81.495 0 .23 1.432-.33 1.52-.597zm34.197 27.718a.265.265 0 0 1 .53 0 .265.265 0 0 1-.53 0zm2.382-.132c0-.22.12-.397.264-.397.147 0 .266.178.266.397 0 .218-.12.396-.265.396-.144 0-.263-.178-.263-.396zm-81.227-.133c0-.145.12-.264.264-.264.146 0 .265.12.265.264a.265.265 0 0 1-.53 0zm80.433-1.903c0-.57.148-1.007.37-1.093.565-.215.684.066.356.84-.498 1.172-.727 1.253-.727.254zm1.098.594c.06-.175.193-.31.3-.298.315.033.254.396-.087.51-.175.057-.27-.038-.212-.212zm-83.118-.657c0-.227-.12-.414-.265-.414-.145 0-.264-.106-.264-.237 0-.13.268-.23.595-.222.328.008.804-.077 1.06-.19.76-.334.532.297-.332.913-.657.468-.794.494-.794.15zm-2.506-.48c.112-.328.206-.983.21-1.456.005-.552.128-.837.343-.794.184.037.53-.17.768-.462l.434-.53-.21.53c-.113.29-.194.976-.18 1.52.024.804-.066.993-.466.993-.33 0-.444.133-.342.398.1.258-.007.397-.303.397-.356 0-.41-.13-.254-.595zm6.078.33c-.09-.145.022-.264.25-.264.226 0 .41.12.41.265 0 .146-.11.265-.248.265-.136 0-.322-.12-.412-.264zm82.153-.396c.18-.22.568-.397.86-.397.44 0 .473.066.198.397-.18.218-.567.397-.858.397-.44 0-.474-.066-.2-.396zm-83.608-.092c0-.158.25-.42.56-.586.445-.24.645-.214.982.123.355.354.36.422.035.425-.213.002-.656.075-.983.163-.35.094-.595.04-.595-.126zm85.37-.217c-.096-.097-.175-.345-.175-.552 0-.503 3.156-3.77 3.642-3.77.644 0 .14 1.27-.847 2.138-.62.545-.85.94-.755 1.303.1.385-.05.59-.573.79-.83.315-1.052.33-1.29.092zm-85.636-.617a.265.265 0 0 1 .53 0 .265.265 0 0 1-.53 0zm.177-.706c-.37-.37-.14-.497.882-.497 1.09 0 1.377.23.64.513-.552.212-1.3.204-1.52-.016zm-9.053-2.14c.1-.4.198-.926.22-1.17.02-.244.15-.374.287-.29.137.084.41-.066.605-.335.195-.268.356-.37.356-.225 0 .144-.14.403-.313.575-.625.625.025.607 1.293-.035.714-.362 1.75-.743 2.305-.847l1.007-.19-.442.675c-.583.89-1.192 1.1-1.595.55-.296-.406-.45-.372-1.805.404-1.01.578-1.435.97-1.334 1.232.095.245-.017.385-.307.385-.365 0-.42-.145-.276-.727zm4.96-.284l-.612-.086.61-.585c.337-.32.91-.727 1.273-.9.364-.176.96-.522 1.323-.77.516-.352.467-.242-.22.495-1.168 1.253-.674 1.514.573.303 1.182-1.15 1.295-.603.16.774-.83 1.007-1.047 1.06-3.107.768zm91.406-.75c-.38-.38-.14-.833.6-1.14 1.38-.572 1.748.395.387 1.015-.774.353-.76.35-.987.124zm-2.274-.342c-.377-.232-.216-1.07.204-1.07.132 0 .375.163.54.362.39.467-.212 1.038-.745.708zM93.397 170.3c0-.507.97-1.318 1.318-1.102.16.1.496.027.744-.16.248-.19.04.098-.46.637-.93 1-1.602 1.263-1.602.625zm88.37-.29c0-.67 1.196-1.84 1.688-1.652.407.156.412.242.052.938-.53 1.022-1.74 1.518-1.74.713zm-93.13-.346c0-.255.298-.6.66-.77.815-.377.925.118.176.795-.618.56-.84.552-.837-.026zm85.458.107c0-.415.835-1.23 1.262-1.23.55 0 .643.56.178 1.074-.53.587-1.44.686-1.44.157zm-76.465-.65c0-.12.176-.446.39-.728.396-.525.534-.23.244.523-.165.432-.633.583-.633.204zm-4.714-1.418c.11-1.155.88-1.236.88-.092 0 .553-.145.818-.483.883-.4.077-.467-.056-.397-.79zm80.65-.08c0-.504 1.034-1.066 1.36-.74.135.136.17.444.076.687-.21.55-1.435.595-1.435.053zm-76.68-1.017c-.14-.173-.396-1-.568-1.836-.17-.838-.42-1.522-.55-1.522-.13 0-.17-.172-.09-.38.08-.21.008-.598-.16-.86-.275-.434-.292-.423-.18.115.07.328.015.596-.12.596-.435 0-.577-.806-.265-1.49.335-.736-.176-3.01-.89-3.96-.34-.452-.362-.36-.22.884.098.867.057 1.39-.11 1.39-.282 0-.6-1.21-.6-2.282 0-.346-.238-.867-.53-1.158l-.528-.53v2.514c0 1.55-.105 2.514-.273 2.514-.415 0-.217-6.144.203-6.283.18-.06.466.195.636.568.266.583.35.62.607.27.547-.748 1.446.644 2.17 3.364.362 1.362.73 2.655.817 2.874.087.218.136.495.11.615-.027.12.182.146.465.056.566-.18.598.16.1 1.064-.19.34-.21.685-.058.926.133.21.244.654.246.986.002.332.183.672.4.756.22.084.398.305.398.492 0 .476-.703.695-1.01.315zm-7.097-.58c-.084-.217-.062-.604.05-.86.11-.254.176-.62.144-.812-.076-.46.47-1.105.933-1.105.51 0 .476 1.84-.048 2.587-.48.684-.865.752-1.08.19zm2.668.11c-.273-.44.34-.947.705-.582.305.305.114.87-.294.87-.13 0-.315-.13-.412-.288zm92.53-.607c-.264-.695-.23-.877.27-1.407.314-.334.73-.608.922-.608.423 0 .436.14.078.81-.235.44-.19.5.33.445.925-.098.72.528-.348 1.073l-.952.485zm-90.665-.695c-.09-.146.026-.34.26-.43.507-.194.79.02.546.415-.22.355-.593.362-.807.015zm4.548-.196c-.063-.11-.018-.437.1-.728.185-.463.214-.438.23.198.018.717-.105.916-.33.53zm-5.075-.596c.09-.144.216-.263.28-.263.064 0 .117.12.117.264 0 .147-.126.266-.28.266-.155 0-.207-.12-.117-.265zm94.588-.254c0-.614.93-1.224 1.2-.787.18.29-.58 1.306-.976 1.306-.123 0-.224-.234-.224-.52zm-89.533-1.02c-.294-.478.068-2.306.393-1.98.15.148.164.673.036 1.287-.144.69-.288.92-.43.692zm-9.806-.294c-.18-.292.236-.608.48-.364.252.252.205.61-.08.61-.136 0-.317-.11-.4-.246zm1.377.064c-.523-.137-.64-1.145-.13-1.132.538.014 1.323.727 1.134 1.032-.18.294-.24.3-1.003.1zm7.344-.61c.09-.147.275-.266.412-.266.137 0 .25.12.25.265 0 .145-.187.264-.413.264-.227 0-.34-.12-.25-.265zm88.01-.088c-.22-.266-.116-.622.425-1.457.393-.606.924-1.17 1.178-1.25.254-.08.616-.467.803-.86.363-.756 2.157-1.888 2.482-1.563.248.248-.914 1.502-1.66 1.79-.33.128-.642.55-.74.998-.156.71-1.656 2.694-2.036 2.694-.087 0-.29-.16-.45-.352zm4.88.122c-.114-.184-.136-.407-.048-.494.237-.237.495.112.367.495-.09.27-.152.27-.32 0zm-96.198-1.094c0-.145.126-.264.28-.264.155 0 .207.12.117.264-.09.146-.216.265-.28.265-.064 0-.117-.118-.117-.264zm17.367-.448c-.298-.298-.18-.61.228-.61.22 0 .398.112.398.25 0 .333-.413.572-.625.36zm-23.403-.89c.064-.192.272-.4.463-.464.2-.066.298.033.232.23a.828.828 0 0 1-.463.464c-.198.067-.298-.033-.232-.23zm26.938-.514c0-.145.238-.264.53-.264.29 0 .53.12.53.264 0 .146-.24.265-.53.265-.292 0-.53-.12-.53-.266zm-16.933-.264a.265.265 0 0 1 .53 0 .265.265 0 0 1-.53 0zm23.873-.314c.164-.49.733-.572.733-.105 0 .23-.187.42-.418.42-.23 0-.37-.142-.314-.314zm62.7-.177c-.28-.178-.28-.272.008-.51.42-.35 1.146.014.882.44-.215.35-.425.365-.89.07zm-68.846-.737c0-.585 1.295-1.75 1.75-1.576.537.206.45.578-.307 1.335-.767.767-1.443.88-1.443.24zm-30.162-.198c0-.2.238-.428.53-.504.635-.165.734.47.11.71-.587.226-.64.21-.64-.205zm100.806-.188c0-.328.212-.61.52-.69.286-.074.592-.36.68-.636.156-.49.666-.662.995-.333.253.252-.31 1.156-.717 1.156-.197 0-.42.238-.496.53-.185.71-.98.69-.98-.026zm-63.434-.5c-.473-.29-.86-.646-.86-.794 0-.49.958-.277 1.54.344 1.01 1.074.69 1.285-.68.45zm67.8.26c.09-.145.275-.264.412-.264.137 0 .25.12.25.265 0 .145-.187.264-.414.264-.226 0-.338-.12-.25-.264zm-78.78-1.088c-.752-.562-.978-1.296-.397-1.29.825.01 1.48.355 1.736.918.482 1.057-.175 1.238-1.338.37zm8.665.294c-.244-.395.095-.794.677-.794.585 0 .66.278.196.74-.387.388-.657.404-.873.054zm4.25.028c-.193-.313.098-1.086.408-1.086.314 0 .305.984-.01 1.18a.29.29 0 0 1-.397-.094zm2.997-.046c-.415-.257-.38-.296.797-.867 1.096-.533 2.66-.568 3.333-.076.48.35.476.37-.093.55-.324.104-1.06.108-1.637.01-.623-.104-1.047-.072-1.047.08 0 .36-.926.565-1.352.302zm-13.544-.15c-.092-.09-.048-.388.098-.66.18-.335.176-.495-.01-.495a.27.27 0 0 1-.273-.263c0-.146.178-.265.397-.265.218 0 .397.17.397.375 0 .206.125.417.278.468.154.05.2.3.104.55-.175.46-.677.607-.99.292zm4.938-.03c-.707-.12-1.082-1.575-.544-2.113.564-.564 1.176-.126 1.312.94.143 1.116.02 1.303-.768 1.172zm4.027-.5c-.092-.24-.1-.504-.016-.587.195-.197.99.304 1.123.708.163.486-.92.366-1.108-.123zm35.3-.368c0-.14.246-.257.548-.257 1.225 0 1.76-1.414.642-1.695-.364-.09-.66-.296-.66-.455 0-.305 1.36-.14 2.54.31.687.26.863.783.265.783-.203 0-.436.176-.52.392a.42.42 0 0 1-.556.237c-.28-.108-.407.004-.407.358 0 .405-.197.522-.926.55-.51.02-.925-.08-.925-.222zm3.175-.226c0-.128.208-.307.463-.397.254-.09.61-.233.793-.317.208-.097.33.05.33.397 0 .436-.165.55-.793.55-.436 0-.793-.104-.793-.233zm27.347-.163c-.1-.26-.51-.398-1.182-.398-.805 0-1.03-.1-1.03-.463 0-.392.266-.467 1.72-.483 1.834-.02 2.126.255 1.35 1.276-.43.567-.66.585-.858.066zm-63.595-.126c0-.25 2.678-1.595 3.176-1.595.155 0 .152-.26-.008-.68-.554-1.457-.06-1.636.686-.248l.498.926-.655.463c-1.747 1.235-3.7 1.833-3.7 1.134zm26.56-.735c.022-.4.134-.877.25-1.06.295-.466 1.148-.41 1.34.09.28.73.175.968-.37.826-.392-.102-.528-.008-.528.366 0 .278-.165.505-.366.505-.233 0-.35-.266-.326-.728zm-36.557.154c.064-.195.388-.393.72-.442.41-.06.567.025.488.265-.064.194-.388.393-.72.44-.41.06-.567-.024-.488-.263zm7.4-.123c-.164-.293-.3-.335-.425-.13-.228.368-1.74.397-1.74.033 0-.146.13-.265.292-.265.16 0 .223-.183.137-.407-.25-.646.934-2.502 1.595-2.502.195 0 .355.166.355.37 0 .2.187.44.416.526.282.11.36.336.24.713-.16.5-.12.523.4.244.817-.436.96-.14.45.93-.476 1-1.303 1.237-1.72.49zm.48-.89c0-.146-.053-.265-.117-.265s-.19.12-.28.264c-.09.145-.037.264.117.264s.28-.12.28-.265zm6.35 1.057c0-.145.238-.264.53-.264.29 0 .528.12.528.264 0 .146-.238.265-.53.265-.29 0-.528-.12-.528-.265zm35.45-.667c-.186-.223-.545-.336-.805-.254-.55.175-.902-.256-.6-.732.116-.182.212-.45.215-.595.002-.147.59-.28 1.304-.296.87-.02 1.402-.172 1.615-.463.387-.528.815-.557 1.004-.066.158.414-.838 1.385-1.58 1.54-.324.066-.468.297-.426.684.073.68-.25.76-.73.182zm-10.257-.167c.065-.196.33-.397.59-.448.302-.058.43.037.353.265-.064.196-.33.397-.59.447-.3.06-.428-.036-.352-.264zm-42.008-.51c-.098-.16-.05-.417.105-.572.33-.33 1.19.235.95.625-.203.325-.84.293-1.055-.053zm6.55-.03c-.355-.356-.437-1.536-.107-1.536.41 0 .847.642.847 1.244 0 .674-.258.775-.74.292zm12.117-.72c0-.325.17-.55.416-.55.247 0 .382.18.33.44-.128.664-.746.755-.746.11zm-15.228-.045c-.273-.44.34-.947.705-.582.305.305.114.87-.295.87-.128 0-.313-.13-.41-.288zm41.47-.176c.112-.59 1.538-.815 1.538-.244 0 .398-.538.707-1.23.707-.234 0-.36-.19-.308-.463zm-6.823-.11c-.106-.17.054-.504.366-.756.363-.294.465-.54.295-.71-.474-.472.434-.918 1.474-.723 1.115.21 1.108.715-.013.918-.613.11-.677.178-.31.323.7.276.558.644-.37.967-1.047.365-1.208.363-1.443-.017zm-60.883-2.565c-.455-1.434-1.372-3.797-2.04-5.252-1.302-2.843-1.348-2.987-.95-2.987.254 0 1.996 3.295 2.587 4.895.89 2.41 1.685 5.495 1.47 5.71-.144.145-.57-.8-1.066-2.366zM125 150.522c-.28-.452.603-1.213.975-.84.166.165.23.488.142.716-.183.477-.853.552-1.117.124zm30.046-.112c0-.27.283-.39.91-.39.5 0 .984-.12 1.074-.266.09-.145.524-.264.965-.264h.802l-.72-.86c-.395-.473-.948-.948-1.228-1.056-.495-.19-.496-.215-.033-.856.53-.732 1.27-.777 1.274-.077.005.594 2.147 2.77 3.24 3.293.473.226.86.53.86.675 0 .158-.348.195-.86.09-1.21-.242-1.377-.244-3.97-.06-1.94.137-2.314.1-2.314-.228zM127 149.843c0-.522.117-.638.575-.57.816.12.857.56.084.92-.608.28-.66.254-.66-.35zm6.765.47c-.172-.28.586-.97.815-.74.22.22-.1.975-.412.975a.534.534 0 0 1-.403-.235zm-47.2-.44c.12-.575.59-.61.697-.053.056.29-.074.463-.346.463-.255 0-.4-.17-.35-.41zm53.4.187c0-.35 1.04-1.204 1.234-1.01.094.094-.044.41-.308.703-.5.55-.927.693-.927.307zm-10.848-.306c0-.145.238-.264.53-.264.29 0 .528.12.528.264 0 .146-.238.265-.53.265-.29 0-.528-.12-.528-.266zm1.587-.132c-.264-.318-.274-.552-.046-1 .164-.324.272-.826.24-1.117-.043-.366.102-.537.468-.556.923-.048.973-.097.538-.53-.362-.364-.544-.377-1.234-.09-.666.275-.848.27-1.03-.027-.308-.497-.12-.713.797-.914.952-.21 1.855.04 1.855.515 0 .19.238.41.53.486.82.216.647.972-.266 1.155-.815.163-.843.21-.895 1.523-.035.896-.465 1.145-.956.554zm1.852-.874c0-.258 1.67-1.904 1.93-1.904.445 0 .122.672-.654 1.365-.844.753-1.276.935-1.276.538zm7.54-.052c-.09-.146-.037-.265.118-.265.154 0 .28.12.28.266 0 .145-.053.264-.117.264s-.19-.12-.28-.264zm9.923-.132c0-.22.17-.397.382-.397s.487-.184.612-.408a.524.524 0 0 1 .675-.237c.712.273.518.776-.433 1.12-1.127.407-1.238.4-1.238-.08zm-8.203-.133c0-.144.12-.263.264-.263.147 0 .266.12.266.264a.265.265 0 0 1-.53 0zm12.368-.693c-.437-.23-.727-.6-.727-.93 0-.467.11-.522.725-.368.742.185 1.116.557 1.123 1.116.007.523-.356.582-1.12.18zm-24.67-.1c-.09-.145.08-.264.38-.264s.545.12.545.264c0 .146-.172.265-.382.265-.21 0-.455-.12-.544-.265zm-43.48-.44c.112-.578.88-.66.88-.092 0 .216-.22.435-.486.487-.355.068-.463-.04-.395-.394zm64.777-1.068c0-.556-.07-.644-.317-.398-.53.53-.674.366-.645-.74.017-.664.153-1.06.363-1.06.184 0 .335.12.335.266 0 .145.298.264.66.264.365 0 .663-.12.663-.264 0-.146.298-.265.662-.265.364 0 .662.12.662.265 0 .145-.18.264-.397.264-.218 0-.397.12-.397.265 0 .146.18.265.397.265.573 0 .49.554-.108.71a.987.987 0 0 0-.638.637c-.076.293-.363.504-.686.504-.425 0-.554-.166-.554-.715zm2.646-1.117c0-.543.343-1.08.69-1.08.457 0 .457.26 0 .86-.383.505-.69.603-.69.22zm-8.78-9.12c-.426-.586-.416-.655.23-1.56.575-.81.675-1.242.686-2.95.01-1.506.102-2.002.373-2.002 1.003 0 1.13 4.07.187 5.973-.61 1.232-.897 1.337-1.476.54zm-23.5-24.65c0-.082.342-.47.758-.86.805-.76 1.436-2.676 1.073-3.263-.17-.273-.384-.197-.958.337-.407.38-1.068.897-1.468 1.15l-.728.462v-.918c0-.595.274-1.295.782-1.996.5-.688.67-1.118.47-1.184-.31-.104-1.633.123-2.773.475-.426.13-.595.076-.595-.196 0-.21.657-.65 1.48-.99l1.48-.614-.642-.642c-.527-.526-5.008-3.285-5.134-3.16-.02.02.087.633.238 1.363.328 1.58.076 3.596-.546 4.363-.607.75-2.06 1.043-5.2 1.05l-2.635.007-1.26-1.32c-.692-.728-1.46-1.71-1.704-2.184-.56-1.085-.547-2.925.03-3.805.243-.37.392-.725.33-.786-.19-.19-2.122 1.33-3.45 2.718-1.61 1.683-1.93 2.146-2.373 3.437l-.36 1.047 1.074.336c1.176.367 1.74.74 1.74 1.153 0 .253-.478.214-2.842-.23-1.21-.227-2.186.07-2.186.665 0 .83-.624 1.15-1.493.768-.416-.183-.827-.43-.913-.55-.086-.12-.473-.074-.86.103-.39.176-.78.246-.87.156-.354-.354.208-1.02 1.23-1.453l1.07-.455-.944-.51c-1.382-.744-1.133-1.308.65-1.473 1.425-.13 1.444-.144 2.31-1.63 2.534-4.345 7.222-7.57 12.06-8.296 1-.15 1.67-.03 3.685.663 4.59 1.58 7.152 3.347 10.74 7.41.322.364.836.883 1.143 1.153.507.446.596.453.973.077.378-.377.374-.566-.04-2.056-.25-.903-.868-2.485-1.372-3.516-.712-1.46-1.133-1.99-1.905-2.404-1.063-.57-1.343-1.347-.46-1.285 2.17.155 2.99.555 4.592 2.24 1.915 2.01 2.817 4.002 2.565 5.66-.09.583-.247 2.31-.352 3.838-.105 1.528-.287 2.927-.405 3.108-.298.46-.89.413-1.08-.087-.14-.367-.287-.343-1.154.18-.546.332-1.407.937-1.913 1.346-.818.66-1.858.995-1.858.596zm2.614-5.576c.45-.99.17-1.09-.316-.115-.222.446-.313.81-.202.81.11 0 .344-.313.518-.695zm-14.138-5.49c-.197-.788-.646-.938-.646-.217 0 .463.53 1.2.723 1.005.054-.053.02-.408-.076-.79zm50.154 10.54c-.8-.2-1.787-.368-2.192-.375-.534-.008-1.18-.442-2.346-1.575-.89-.865-1.528-1.692-1.43-1.852.356-.574 1.375-.265 2.666.808 1.26 1.047 3.613 2.336 4.277 2.34.173.002.645.13 1.05.283.59.224.658.33.348.526-.477.3-.566.295-2.372-.155zm-6.297-5.2c-.173-.176-.32-.444-.322-.597-.003-.152-.384-.456-.846-.674-1.04-.49-1.23-.99-.42-1.104.336-.048.575-.206.532-.35-.043-.147-.303-.23-.58-.186-.718.115-.995-.616-1.034-2.738-.083-4.49 1.08-7.177 4.503-10.417 2.602-2.46 4.013-3.457 4.9-3.46.674 0 1.02.71.596 1.224-.385.462-.26.456.944-.047 1.033-.432 1.833-.17 1.57.51-.094.25.43.304 2.2.224 1.78-.078 2.448-.01 2.853.295.78.587.36.782-1.782.828-1.46.03-2.335.22-3.642.786-.946.41-2.017.76-2.38.775-.77.036-4.427 3.387-5.345 4.9-.32.525-.903 1.372-1.296 1.882-.393.51-.794 1.194-.892 1.52-.163.55-.092.596.9.596.592 0 1.076-.095 1.076-.21 0-.555 2.97-3.608 4.512-4.64 2.388-1.594 4.674-2.45 7.916-2.967 3.04-.483 3.652-.44 5.926.415 1.907.72 5.187 3.71 6.15 5.608.35.696.747 1.266.88 1.266.13 0 .41.067.622.148.327.125.347-.066.132-1.247-.317-1.747-.752-2.59-2.364-4.582-.705-.87-1.47-1.982-1.7-2.468-.42-.882-.36-1.64.127-1.64.397 0 3.3 2.77 3.714 3.546.204.38.478.688.61.688.26 0 .12-2.828-.2-4.035-.164-.623-.113-.728.36-.728.71 0 .982.542 1.482 2.938.51 2.44.51 2.862.006 3.42-.228.25-.475 1.21-.567 2.203-.163 1.747-.16 1.758.505 1.758.46 0 .715-.176.817-.565.123-.473.28-.54.957-.405.695.14.808.085.808-.393 0-.516.042-.527.595-.16 1.305.865.57 2.138-1.164 2.012-.802-.057-1.203.083-1.843.644-.478.42-1.13.718-1.568.718-.414 0-1.678.357-2.812.794-1.134.436-2.213.794-2.398.794-.784 0-.232-.585 1.184-1.256.837-.397 1.568-.75 1.625-.784.113-.07-1.027-1.468-2.967-3.636-1.255-1.403-2.587-2.262-3.507-2.262-.412 0-.395.08.136.645.85.905.806 2.712-.115 4.78-1.21 2.72-1.316 2.778-4.903 2.778-3.02 0-3.114-.018-4.197-.802-1.365-.99-1.68-1.77-1.57-3.895.047-.908.053-1.653.014-1.652-.48.004-2.436 1.742-3.366 2.994l-1.19 1.6.543.505c.298.277.5.634.446.793-.085.255-1.565.443-3.703.47-.4.005-.727.124-.727.263 0 .14.273.254.608.254.59 0 1.245.435 1.245.827 0 .105-.31.557-.685 1.005-.72.855-1.378 1.026-1.908.496zm.742-4.983c0-.114-.238-.145-.53-.07-.54.143-.664.383-.354.693.192.192.884-.295.884-.623zm13.125-3.586c-.088-.23-.16-.528-.16-.66 0-.47-.734-.24-.867.27-.162.62-.005.81.674.81.36 0 .466-.127.353-.42zm15.213 6.542c-.64-.897-.733-1.89-.18-1.89.543 0 1.513 1.33 1.42 1.948-.12.82-.632.796-1.24-.058zm-50.946-2.128c-.443-.857-1.998-5.035-1.998-5.37 0-.55.84-.115 1.506.78.407.545.825 1.055.93 1.133.418.313 1.003 2.153 1.003 3.157 0 .886-.088 1.067-.522 1.067-.31 0-.685-.315-.92-.768zm14.43-2.155c-.544-.97-.572-1.19-.296-2.337.373-1.555 1.186-2.943 1.723-2.943.488 0 .492.47.026 2.422-.197.822-.297 2.043-.22 2.71.177 1.58-.387 1.648-1.23.147zm-34.14-6.253c-1.55-.93-2.98-1.18-4.87-.85-.853.148-1.604.215-1.67.148-.067-.066.596-.478 1.472-.916 1.412-.706 1.72-.768 2.704-.547 2.48.556 4.76 1.917 4.343 2.59-.267.433-.7.34-1.978-.426zM86.92 90.238c-.095-.428-.045-1.015.11-1.305.156-.29.282-.878.282-1.306 0-.43.18-1.207.397-1.73.218-.52.396-1.306.396-1.742 0-1.24 1.693-4.014 3.522-5.77.916-.88 2.85-2.368 4.297-3.308 2.5-1.623 6.71-3.64 7.6-3.64.227 0 .462-.148.523-.33.13-.394 5.907-.49 8.334-.14.837.122 2.368.325 3.403.453 5.998.74 12.01 2.746 12.01 4.008 0 .257.298.822.663 1.257.887 1.053 1.452 2.733 1.452 4.31 0 1.525-.34 1.64-1.093.364-.443-.752-.706-.927-1.393-.927-.466 0-.96.11-1.1.242-.653.63-2.733.39-8.98-1.035-5.44-1.24-10.038-1.644-11.008-.964-.406.285-.915.377-1.546.28-.76-.116-1.424.094-3.455 1.095-1.382.682-3.644 1.593-5.027 2.024-3.42 1.068-6.126 2.4-7.078 3.484-.743.847-1.103 1.907-1.517 4.466-.192 1.19-.558 1.288-.794.214zm99.725-4.014c-.295-.477-1.163-4.012-1.168-4.756-.005-.683-.93-1.39-1.856-1.42-.217-.006-.912-.57-1.542-1.255-1.3-1.41-3.073-2.387-3.93-2.163-.577.152-4.034-.526-4.82-.944-.245-.13-1.257-.08-2.407.117-1.298.224-2.147.255-2.457.09-.33-.176-1.248-.055-3.042.4-1.413.36-3.3.734-4.192.832-1.274.14-2.07.446-3.704 1.423-2.738 1.638-3.785 2.113-5.25 2.387-.67.125-1.443.433-1.72.684-.277.25-.81.472-1.184.494-.374.02-.727.218-.785.436-.057.218-.177.724-.267 1.124-.09.4-.335.728-.548.728-.605 0-.777-1.276-.438-3.253.44-2.57 2.38-8.39 2.856-8.573.218-.083.677 0 1.02.183.56.3.73.247 1.63-.494.553-.456 1.224-.83 1.492-.83s.928-.37 1.468-.822c1.367-1.148 4.91-2.417 6.167-2.21.692.115 1.262.01 2.01-.372.575-.293 1.832-.716 2.795-.94 1.832-.424 2.435-.385 7.458.48l2.117.364 2.447 2.602c1.346 1.43 2.448 2.748 2.448 2.927 0 .18.327.48.727.67.46.218.988.88 1.436 1.8.39.8 1.015 1.785 1.39 2.188.374.402.68.904.68 1.115 0 .21.226.504.5.65.277.15.64.66.81 1.135.442 1.24.698 5.496.332 5.496-.158 0-.37-.134-.47-.296zm-51.178 125.178c0-.38-.748-.5-.886-.14-.074.194-.072.416.005.493.187.187.882-.09.882-.353zm19-3.735c-.18-.112-.482-.077-.67.078-.58.482-.373.75.33.43.47-.213.57-.365.34-.508zm8.795-.192c.35-.282.488-.556.332-.653-.148-.09-.545.128-.883.487-.714.76-.327.877.552.165zm7.923-9.037a.265.265 0 0 0-.264-.265.265.265 0 0 0-.264.265.265.265 0 0 0 .53 0zm-70.283-11.245c.092-.24 0-.397-.228-.397-.23 0-.32.157-.228.397.084.218.186.397.228.397.042 0 .144-.18.228-.397zm-22.75-32.93c.367-.138 1.15-.688 1.738-1.22 1.095-.99 1.223-1.412.905-3-.164-.82-.175-.825-.556-.28-.352.5-.433.515-.835.15-.402-.363-.478-.35-.785.14-.314.505-.374.513-.812.117-.26-.236-.657-.358-.882-.272-.53.204-.823-.283-.507-.846.163-.293.124-.735-.117-1.31-.383-.918-.26-1.692.27-1.692.175 0 .87.35 1.543.778 1.07.677 1.242.72 1.344.33.086-.325.127-.29.15.133.035.683.505 1.064.692.563.193-.52-.28-1.945-.622-1.87-.34.074-.7-1.096-.457-1.49.238-.384-.656-3.512-1.18-4.132-.79-.932-1.843-2.938-1.843-3.512 0-.735.448-.984.98-.544.39.32.414.236.262-.882a83.9 83.9 0 0 1-.346-3.374c-.098-1.176-.25-2.137-.34-2.137-.35.003-1.613 2.85-1.763 3.98-.18 1.358.393 3.338 1.893 6.542.97 2.07 1.117 2.774.54 2.552-.2-.077-.435.046-.522.273-.087.226-.4.412-.696.412-.45 0-.537-.172-.537-1.07 0-1.264-.774-2.454-1.9-2.92-1.053-.437-1.56-1.548-1.72-3.78-.127-1.728-.07-2.016.655-3.385.437-.823.93-2.124 1.094-2.892.164-.768.435-1.56.602-1.762.57-.686 1.252-3.107 1.26-4.476.005-.835.135-1.41.332-1.475.254-.085.257-.707.013-2.89-.305-2.73-.346-2.843-2.21-6.198-1.042-1.88-1.996-3.526-2.12-3.66-.358-.39-2.15-.94-3.078-.943-1.55-.008-2.17 1.874-1.39 4.228l.483 1.455-.143-1.728c-.114-1.388-.06-1.798.284-2.082.775-.643 1.54.27 3.99 4.768 2.33 4.277 2.36 4.36 2.417 6.32.064 2.232-.767 5.198-2.42 8.644-.84 1.748-.912 2.093-.912 4.392v2.495l1.485 3.017c1.297 2.635 1.48 3.202 1.455 4.494-.017.813.208 2.41.5 3.55.29 1.137.53 2.353.53 2.7 0 .85.675 2.14 1.668 3.187.45.473.845.86.88.86.034 0 .362-.114.727-.253zm121.91-13.108c.517-1.98.622-3.038.623-6.283 0-2.146.102-3.932.226-3.97.124-.035.378.292.565.728l.34.794.627-1.323c1.198-2.53.74-7.645-1.347-15.08-.446-1.59-.93-3.007-1.073-3.15-.452-.454-.28-1.3.573-2.803.453-.8 1.3-2.35 1.88-3.44 1.26-2.362 1.703-2.91 2.353-2.91.644 0 .622.59-.044 1.194-.332.3-.475.667-.378.97.085.27.017 1.35-.152 2.404-.168 1.053-.266 2.39-.217 2.973l.09 1.06.747-1.986c.774-2.05 1.76-6.807 1.763-8.51.005-1.935-.38-2.172-2.04-1.253-1.318.73-2.455 1.82-2.455 2.354 0 .237-.307.84-.68 1.34-.376.502-1.148 1.69-1.716 2.64l-1.034 1.725.4 5.67c.218 3.12.508 5.74.643 5.823.136.083.5 1.458.812 3.054.312 1.596.75 3.27.976 3.72.744 1.487-.22 3.88-1.093 2.714a1.993 1.993 0 0 0-.76-.565c-.6-.224-.876-.978-1.113-3.032-.105-.91-.286-1.594-.402-1.523-.116.072-.29 1.114-.385 2.315-.096 1.2-.232 2.492-.304 2.868-.11.578-.036.68.477.662.544-.02.6.087.55 1.036-.03.582-.06 2.484-.066 4.226-.006 1.743-.08 3.38-.16 3.638-.17.535-.888.64-.947.14-.068-.58-.43 2.788-.46 4.278-.02.863.155 1.836.433 2.44l.463 1.007.83-1.78c.458-.978 1.112-2.85 1.455-4.16zm-5.593 3.014c0-.57-.504-.16-.765.623l-.287.86.525-.624c.29-.345.526-.732.526-.86zm3.084-12.738c-.073-.182-.133-.033-.133.33 0 .364.06.513.134.33a1.02 1.02 0 0 0 0-.66zM73.2 106.032c-.073-.182-.133-.033-.133.33 0 .364.06.513.133.33a1.02 1.02 0 0 0 0-.66zm131.058-9.856c0-.218-.112-.397-.25-.397-.332 0-.57.412-.36.624.298.298.61.18.61-.228zm-.702-3.716c-.086-.224-.214-.35-.283-.282-.07.07-.047.253.048.41.262.42.415.34.236-.128zm1.824-7.21c.134-.515-.752-1.835-1.04-1.548-.223.224.472 2.304.72 2.15.106-.065.25-.337.32-.603zm-.328-15.665c0-.145-.186-.264-.412-.264-.227 0-.34.12-.25.265.09.146.276.265.413.265.137 0 .25-.12.25-.265zm-.286-1.95c.743-1.2.694-1.457-.11-.588-.365.392-.662.886-.662 1.097 0 .58.168.47.772-.508zm.89-2.844c-.164-.163-.235-.46-.158-.66.077-.2 0-.365-.17-.365-.168 0-.24.108-.158.242.083.133.014.287-.152.342-.217.072-.2.263.058.677.234.374.45.486.618.318.167-.167.154-.362-.04-.554zm-.472-5.26c.09-.144-.03-.263-.264-.263-.236 0-.355.12-.265.264.09.147.21.266.265.266.055 0 .174-.12.264-.265zm.26-1.33c-.075-.12-.015-.294.133-.386.347-.214.35-.93.004-.93-.307 0-1.322.966-1.322 1.258 0 .11.297.216.66.237.363.02.6-.06.525-.18zm.137-2.622c0-.137-.118-.322-.263-.412-.146-.09-.265.022-.265.25 0 .225.12.41.265.41.145 0 .264-.11.264-.248zm-5.173-16.75c-.223-.726-.335-.863-.538-.66-.23.228.144 1.255.455 1.255.152 0 .187-.253.082-.595zM87.18 36.778c.57-.292 1.192-.53 1.38-.53.505 0 .412-.707-.123-.93-.255-.104-1.864-.235-3.575-.29-2.873-.09-3.63-.25-5.29-1.103-.108-.056-.197.056-.197.25 0 .477 3.93 2.57 5.346 2.85l1.28.252c.078.016.61-.21 1.18-.5zm-12.572-1.083c.004-.442-1.215-1.152-1.417-.825-.064.105-.056.51.02.898.088.467.26.66.504.565.203-.078.37.02.373.217.006.527.516-.31.52-.855zm124.888.58c0-.242-.627-.556-1.113-.556-.166 0-.145.155.054.396.36.433 1.06.54 1.06.16zm-1.852-1.615c0-.145-.126-.264-.28-.264-.155 0-.207.12-.117.264.09.146.216.265.28.265.064 0 .117-.12.117-.265zm-122.238-.53c0-.144-.126-.263-.28-.263-.154 0-.207.12-.117.264.09.147.215.266.28.266.064 0 .116-.12.116-.265zm1.4-.788c.075-.294.043-.534-.073-.534-.22 0-.533.645-.533 1.096 0 .43.456.007.605-.562zm-3.384-.004c-.09-.146-.342-.265-.56-.265-.22 0-.324.12-.234.265.09.145.342.264.56.264.22 0 .324-.12.234-.264zM194.47 31.22a.265.265 0 0 0-.266-.264.265.265 0 0 0-.264.265c0 .146.12.266.264.266.146 0 .265-.12.265-.265zm-1.06-.793c0-.145-.126-.265-.28-.265-.154 0-.206.12-.116.265.09.146.216.265.28.265.064 0 .116-.12.116-.265zm-.793-2.066c0-.117-.175-.444-.39-.727-.38-.504-.387-.504-.396.038-.004.304.072.632.17.73.243.243.617.22.617-.04zm-88.09-1.136c.375-.704.19-.852-1.604-1.284a14.7 14.7 0 0 1-5.55-2.62c-1.39-1.052-2.307-1.312-3.292-.934-.23.088-.418.318-.418.51 0 .194-.238.427-.53.52-.707.224-.666.513.126.874.36.164.73.6.823.97.192.76.088.725 4.477 1.455 1.747.29 3.532.638 3.97.774 1.252.388 1.678.332 2-.266zm85.444-.204c0-.128-.178-.38-.396-.562-.322-.267-.397-.256-.397.056 0 .212.08.465.176.562.252.25.618.218.618-.056zm2.722-.83c-.166-.638-.605-.972-.605-.462 0 .295.486.995.69.995.03 0-.008-.24-.085-.533zm-3.78-.79c0-.146-.052-.265-.116-.265s-.19.12-.28.265c-.09.146-.038.265.116.265s.28-.12.28-.265zm-.793-.38c0-.065-.12-.192-.266-.28-.145-.09-.264-.04-.264.115 0 .154.12.28.264.28.146 0 .265-.052.265-.116zm5.29-.15c0-.145-.126-.264-.28-.264-.154 0-.206.12-.116.265.09.146.216.265.28.265.064 0 .116-.12.116-.264zm-2.38-.418c0-.23-.142-.372-.315-.314-.49.163-.572.733-.105.733.23 0 .42-.188.42-.418zm-3.573-.375c.09-.145.045-.265-.1-.265-.146 0-.34.12-.43.265-.09.146-.043.265.102.265s.337-.12.427-.265zm-72.63-.33c0-.183-.514-.543-1.142-.8-.63-.26-1.606-.945-2.17-1.524-.942-.964-.994-1.09-.608-1.475.357-.357.7-.383 2.238-.168 1 .14 2.016.338 2.26.443.34.147.463.035.53-.477l.085-.67 1.936.78c3.173 1.28 4.16.942 1.977-.674-4.25-3.143-5.67-4.07-6.03-3.932-.49.188-.773 1.202-.567 2.024l.152.604-3.63-.013c-3.266-.01-3.743-.073-4.778-.623-.633-.336-1.188-.572-1.234-.526-.154.156.81 1.194 1.403 1.51.66.355.788 1.09.186 1.09-.247 0-.396.248-.396.66 0 .89-.337.847-3.028-.39-1.258-.578-2.203-.906-2.1-.728.91 1.576 1.164 1.73 4.868 2.944 4.13 1.354 4.276 1.384 4.058.817-.21-.546.373-1.19 1.075-1.19.317 0 1.523.592 2.68 1.314 2.423 1.51 2.236 1.428 2.235 1.002zm73.82-.596c0-.217-.118-.396-.264-.396-.145 0-.264.18-.264.397 0 .22.118.398.263.398.146 0 .265-.18.265-.397zm-46.3-1.81c0-.196-.258-.583-.57-.86-.314-.277-1.09-1.205-1.725-2.06-.636-.857-1.568-1.99-2.073-2.515a105.6 105.6 0 0 1-1.872-2.014c-1.1-1.22-.957-.818.352.996.5.693 1.24 1.865 1.643 2.604.405.74 1.36 1.988 2.126 2.775 1.36 1.402 2.116 1.785 2.116 1.075zm-4.406-1.718c.414-.456.405-.518-.132-.992-.316-.278-1.44-1.83-2.5-3.448-1.792-2.733-3.324-4.6-3.777-4.6-.398 0 .06 1.968.67 2.864.35.514.7 1.24.778 1.616.515 2.437 2.632 5.042 4.1 5.045.233 0 .62-.217.863-.485zm47.41-.06c.097-.156.113-.345.037-.42-.208-.21-1.237.17-1.237.455 0 .34.987.312 1.202-.035zm-51.735-.462c0-.198-1.25-2.067-4.236-6.334-.637-.91-1.275-1.653-1.417-1.653-.34 0-1.228.807-1.228 1.117 0 .263 2.113 2.745 4.606 5.412 1.404 1.5 2.275 2.06 2.275 1.458zm-46.307-.793c-.004-.386-.04-.393-.26-.05-.335.517-.335.868 0 .66.145-.09.263-.364.26-.61zm19.247-8.942c-.087-.088-.316-.097-.507-.02-.21.084-.148.146.16.16.28.01.435-.052.347-.14zm0-1.058c-.087-.088-.316-.097-.507-.02-.21.083-.148.146.16.16.28.01.435-.052.347-.14zm2.486-.548c-.23-.398-.282-.41-.288-.065-.01.446.27.847.457.66.06-.063-.015-.33-.17-.596zm-1.355-.087c0-.294-.176-.53-.396-.53-.485 0-.502.17-.068.663.436.495.463.488.463-.133zm58.34-1.588c-.09-.145-.364-.256-.61-.246-.365.015-.35.06.082.245.708.305.717.305.53 0zm-47.853-1.507c-.108-.108-.307-.022-.443.192-.408.644-.286.93.192.452.246-.246.36-.536.25-.644zm45.984.327c-.46-.703-1.262-1.076-1.713-.797-.472.292-.136.733.82 1.08 1.298.468 1.37.445.893-.283zM121.03 4.47c-.185-.3-.91-.312-.91-.016 0 .372.3.544.687.395.203-.08.303-.25.223-.38zm2-.766c0-.436-.104-.794-.232-.794-.282 0-.59 1.06-.4 1.37.297.48.633.174.633-.576zm1.456 0c.09-.145.038-.264-.116-.264s-.28.12-.28.264c0 .146.052.265.116.265s.19-.12.28-.266zM127 3.44c0-.146-.053-.265-.117-.265s-.19.12-.28.265c-.09.145-.037.264.117.264s.28-.12.28-.264zm1.736-1.09c.217-.42.34-.763.277-.763-.485 0-.955.405-.955.823 0 .275-.12.5-.264.5a.26.26 0 0 0-.265.257c0 .49.815-.062 1.206-.818zm3.556.443c0-.21-.265-.567-.588-.794-.663-.465-1.53-.548-1.53-.148 0 .146.18.265.396.265.217 0 .543.238.725.53.383.613.997.703.997.146zm21.166-.36c0-.303-.586-.846-.915-.846-.154 0-.43.24-.61.53-.308.49-.265.53.597.53.51 0 .928-.096.928-.213zm-8.07-.316c-.09-.146-.342-.265-.56-.265-.218 0-.323.12-.233.265.09.145.342.264.56.264.218 0 .323-.118.234-.263zm5.292 0c.09-.146-.074-.265-.365-.265-.29 0-.603.12-.693.265-.09.145.074.264.366.264.29 0 .602-.118.692-.263zM78.706 221.443c-.095-.152-.147-.896-.116-1.653.098-2.388-.002-2.462-1.872-1.4-.906.515-1.242.585-1.732.36-.865-.392-.982-.927-.445-2.025.396-.806.907-1.176 3.247-2.346 2.92-1.46 3.563-1.614 4.35-1.04.415.305.44.475.18 1.258-.166.498-.67 2.036-1.122 3.42-.957 2.926-1.952 4.295-2.49 3.425zM206.64 75.01c0-.22.193-.398.43-.398.35 0 .37.072.1.397-.182.218-.376.396-.43.396-.055 0-.1-.178-.1-.397zm-2.382-27.782c0-.647.12-.926.397-.926.408 0 .52.69.236 1.434-.28.733-.632.45-.632-.508z"></path></svg>