<svg id="hector" class="hector-image align-right" data-image-path="/_svgs/hector.svg" xmlns="http://www.w3.org/2000/svg" viewBox="0 0 291 274"><title>Hector "The Schvance" Savala</title><desc>Hector wearing a hat and looking pretty.</desc><path d="M103.084 273.425c-.548-1.426.176-3.664 2.478-7.666.73-1.27 1.33-2.353 1.33-2.405 0-.052-.225-.095-.5-.095-.745 0-1.735-.897-1.543-1.4.09-.235.946-.664 1.937-.97.977-.302 2.144-.78 2.594-1.06.72-.452 2.274-2.15 2.274-2.486 0-.068-.923-.195-2.05-.282l-3.41-.265c-1.21-.095-1.344-.054-1.232.376.073.28-.12.73-.46 1.07-.686.685-1.387.662-8.152-.264-5.57-.764-7.87-1.83-11.36-5.265-2.217-2.184-4.094-4.923-5.887-8.59-1.696-3.47-1.538-3.486-2.093.218-.153 1.018-1.05 6.62-1.992 12.445-1.09 6.748-1.657 10.944-1.556 11.56.35 2.165-.54 3.767-1.74 3.126-1.386-.742-1.367-3.383.085-12.05.512-3.056 1.417-8.652 2.01-12.435.595-3.785 1.508-8.667 2.03-10.85.967-4.037 1.066-4.92.92-8.2-.046-1.02 0-2.406.103-3.08.13-.857.01-2.12-.403-4.183-.543-2.732-.578-3.48-.46-9.886.142-7.574.743-13.206 1.667-15.612.085-.224-.217-.29-1.03-.225-1.324.105-2.156-.47-1.89-1.306.128-.405.025-.5-.54-.5-1.017 0-.755-.85.375-1.218.936-.305.88-.453-.274-.728-.382-.09-1.013-.584-1.403-1.095-.835-1.096-1.097-1.154-1.313-.293a11.5 11.5 0 0 1-.325 1.067c-.14.362.014.42.962.356 1.462-.097 1.698.455.423.988-1.27.53-2.78.514-2.99-.032-.09-.234.093-1.157.405-2.05.31-.895.497-1.883.41-2.197-.1-.373.025-.75.364-1.09.953-.953 1.005-3.763.068-3.763-.192 0-.64 1.318-.942 2.778-.09.436-.404 1.05-.697 1.363-.498.534-.503.587-.073.827.276.155.396.426.3.678-.17.437-3.077 2.027-3.71 2.027-.483 0-2.032-.78-2.032-1.025 0-.106-.697-.336-1.55-.512-.85-.176-1.745-.538-1.986-.804-.41-.45-.406-.514.048-.924.267-.242.665-.44.884-.44.22 0 .47-.07.556-.158.237-.237-.082-.9-.434-.9-.664 0-3.134-2.52-4.155-4.238-1.127-1.894-1.3-3.07-.443-3 .255.02.463.004.463-.034 0-.04-.433-1.008-.963-2.154l-.963-2.083-.192-5.69c-.177-5.246-.247-5.84-.907-7.672-1.168-3.243-1.43-4.323-1.172-4.818.45-.86.905-.186 2.147 3.17 1.477 3.993 1.785 5.59 1.785 9.238v2.73h.794c1.065 0 1.04.65-.05 1.314l-.844.513.71.27c.823.313.907.672.25 1.06-.405.238-.413.307-.067.538.217.146.456.23.528.187.073-.043.644-.31 1.27-.59 1.1-.498 1.13-.542.94-1.44-.724-3.4 1.37-6.366 3.486-4.94 1.293.872 3.182-.21 4.097-2.344.612-1.424.616-1.447.25-1.447-.452 0-1.57 1.425-1.43 1.82.163.46-.347 1.09-.884 1.09-.226 0-.622.193-.88.428-.437.394-.563.382-1.654-.146-1.434-.694-1.85-1.153-1.64-1.815.18-.564-1.603-3.217-2.165-3.224-.182-.002-.33-.237-.33-.52 0-.315-.466-.838-1.19-1.336-1.306-.898-1.505-1.49-.613-1.82.813-.3 1.927.187 2.45 1.073.514.87.94.97.94.223 0-.35-.37-.71-1.124-1.09-1.694-.85-2.095-1.287-1.92-2.086.114-.518-.015-.845-.52-1.32-.61-.574-.9-1.33-.51-1.33.09 0 .595.34 1.126.757 2.182 1.715 4.677 2.505 9.796 3.102 3.276.383 3.678.38 5.36-.032.998-.245 2.12-.37 2.49-.275.452.112 1.005-.016 1.662-.385.798-.45 1.122-.502 1.705-.28.395.15.72.396.72.545 0 .15.342.27.76.27.42 0 .906.174 1.08.385.176.21.855.464 1.51.562.96.144 1.54.04 2.986-.544 1.5-.603 1.893-.67 2.382-.41.56.3.565.337.126.823-.253.28-.616.508-.807.508-.404 0-1.952 1.45-1.952 1.827 0 .593-.605.543-1.837-.15-1.37-.77-2.078-.705-1.122.103.306.258.59.827.633 1.263.066.692-.018.805-.648.878-.516.06-.915-.123-1.386-.63-.54-.583-.733-.655-1.05-.392-.214.177-.5.253-.638.168-.342-.21-1.89.12-1.89.406 0 .128.512.232 1.14.232 1.47 0 2.048.433 1.855 1.39-.115.57-.297.727-.844.73-.384.003-.874.116-1.09.253-.327.208-.266.38.373 1.047.672.702.71.82.31.974-.712.273-1.734-.34-2.145-1.283-.358-.824-.41-.818-.49.062-.072.78-.957.606-1.32-.26l-.35-.83-1.168.937c-1.733 1.39-3.73 2.532-4.437 2.535-.49.002-.582.1-.43.465.105.255.386 1.237.623 2.183l.43 1.72 1.272.08c.836.054 1.323.22 1.425.484.085.22.448.514.808.65.542.207.6.318.33.642-.18.216-.49.393-.69.393-.2 0-.365.118-.365.263 0 .307.61.37 2.675.28 1.337-.057 1.5-.005 1.638.524.12.458.287.553.764.433 2.04-.512 2.067-.513 2.067-.073 0 .392-.567.73-2.337 1.396-.596.224-.577.26.586 1.095l1.202.863 1.067-.543c.586-.3 1.066-.718 1.066-.93 0-.693 2.71-1.73 3.057-1.17.098.16.045.422-.117.584-.16.162-.294.516-.294.786 0 .344-.473.705-1.58 1.204-.867.392-1.58.802-1.586.91-.02.456 1.903.185 2.33-.327.737-.884 4.452-2.648 5.576-2.648.78 0 1.22-.2 1.954-.894.52-.49 2.14-1.505 3.597-2.253 1.457-.75 2.72-1.478 2.81-1.62.087-.143.403-.26.7-.26.3 0 .796-.327 1.106-.727.308-.4 1.088-1.295 1.73-1.99.643-.692 1.116-1.312 1.05-1.377-.243-.245-1.284.203-1.284.553 0 .42-.238.46-.768.124-.26-.165-.762.074-1.677.797-.718.568-1.46 1.033-1.648 1.033-.188 0-.404.238-.48.53-.15.574-1.092.728-1.4.23-.222-.36 1.43-1.856 2.93-2.658l1.06-.565-.926-.336c-.51-.184-1.266-.344-1.682-.355-.616-.016-.723.066-.576.443.323.83.282.978-.296 1.067-.577.09-1.415-.774-1.415-1.457 0-.705 1.042-1.396 2.107-1.396.793 0 1.122-.135 1.345-.552.16-.303.255-.577.206-.608-.048-.03-.4-.19-.78-.352-.857-.367-1.064-1.285-.594-2.635.194-.557.355-1.262.357-1.567 0-.304.24-.767.527-1.028.433-.392.595-.416.932-.136.224.186.44.292.483.235.04-.058.455-.598.92-1.2.97-1.26 1.062-1.843.328-2.076-.95-.3-2.556.342-3.303 1.32-.865 1.135-1.663 1.22-1.882.198a9.68 9.68 0 0 0-.395-1.32c-.13-.326-.165-.802-.075-1.06.134-.38.1-.404-.192-.134-.49.456-1.838.43-1.838-.037 0-.202.235-.886.523-1.52.632-1.392.664-1.815.138-1.815-.218 0-.396-.22-.396-.49 0-.435-.318-.506-2.92-.655-2.823-.162-7.504-1.055-10.64-2.03-.898-.28-1.522-.364-1.522-.205 0 .148-.268.075-.595-.163-1.29-.936-1.93-1.036-6.813-1.062l-4.895-.026-1.896-.86c-2.227-1.01-2.552-1.038-3.487-.316-2.322 1.794-2.828 2.103-3.452 2.11-.38.006-.918.182-1.197.393-.95.72-1.654-.532-.82-1.453.292-.323.333-.643.16-1.245-.27-.94.216-3.372 1.03-5.155 1.124-2.47 3.448-5.776 4.057-5.776.14 0 .405-.204.59-.455.315-.432.46-.43 2.674.043 1.362.292 4.018.565 6.352.655l4.01.155.976 1.004c.536.553 1.47 1.317 2.074 1.698 2.643 1.665 4.54 3.78 3.39 3.78-.425 0-2.058-1.105-4.407-2.983-.774-.618-.907-.633-5.16-.575-4.797.065-5.83-.088-7.17-1.065a17.31 17.31 0 0 0-1.76-1.108c-.853-.45-.867-.447-1.654.307-.436.418-.793.985-.793 1.26 0 .274-.472 1.294-1.048 2.265-1.02 1.72-1.863 3.724-1.863 4.433 0 .194.416.43.925.525.79.148 1.06.053 1.87-.656.71-.625 1.163-.816 1.83-.77.485.032 1.07-.097 1.3-.288.23-.19.628-.266.885-.168.303.117.2-.097-.29-.61-1.07-1.117-.65-1.57.578-.623 1.144.884 3.737 1.907 4.832 1.907.424 0 .77-.04.77-.092 0-.37-.698-2.02-1.098-2.594-.598-.86-.63-1.32-.074-1.106.228.087.885.904 1.46 1.814s1.28 1.717 1.57 1.792c.288.075.524.3.524.502 0 .494 1.373 1.272 2.246 1.272h.71l-.817-1.03c-1.716-2.167-.593-2.23 1.284-.072.898 1.033 1.665 1.642 2.32 1.843.537.166 1.035.243 1.107.17.07-.07-.42-.692-1.095-1.38-1.652-1.684-4.698-5.342-4.698-5.64 0-.132.11-.24.244-.24.314 0 4.492 4.54 5.84 6.35 1.333 1.784 1.314 1.768 1.575 1.346.185-.298.528-.302 2.037-.025 2.442.45 3.633.952 3.442 1.45-.15.385.13.502 2.605 1.095l.794.19-.994-1.102c-1.054-1.17-1.39-2.395-.53-1.926.256.14.875.68 1.376 1.2.502.522 1.03.948 1.174.948.144 0-.043-.327-.416-.728-.888-.95-1.273-1.726-1.273-2.562 0-.912.67-.88 1 .05.144.4.65 1.203 1.127 1.785.476.582.77.82.652.53-.117-.292-.268-.917-.335-1.39-.067-.488-.275-.86-.478-.86-.405 0-.975-.902-.727-1.15.216-.216-2.546-1.49-3.235-1.493-1.358-.006-1.613-1.457-.318-1.81l.86-.232-1.19-.328c-1.536-.423-2.058-.9-2.8-2.56-.57-1.277-.675-1.368-1.78-1.534-.675-.1-1.615-.507-2.202-.95-1.14-.863-1.685-.99-1.685-.394 0 .48.117.48-1.51-.003-2.422-.72-3.824-2.926-3.404-5.355.265-1.524.274-1.955.066-3.248-.142-.884-.09-1.333.2-1.72.387-.52.397-.52 1.427.06.894.503 1.176.545 2.05.303.56-.154 1.78-.23 2.717-.17 1.487.093 1.785.205 2.37.886.607.704.802.77 2.032.692.994-.064 1.454.024 1.705.327.287.346.274.442-.082.58-.605.23-.55 1.164.07 1.164.503 0 .826.896.826 2.29 0 .606.067.63 1.258.495 1.606-.182 4.09.16 4.232.586.06.18-.198.467-.573.638-1.377.627-.796 1.078 2.162 1.68.472.096.86.336.86.532 0 .35-1.037 1.303-1.668 1.535-.242.09-.244.196-.01.446.244.26.5.182 1.216-.364 1.106-.843 1.894-.927 1.656-.177-.126.397.038.62.71.966.48.248 1.364.85 1.964 1.342.693.566 1.25.83 1.525.725.55-.212 1.22.333 1.22.994 0 .78 2.07 2.522 3.837 3.23 2.255.904 2.338 1.296.937 4.408-1.013 2.25-1.1 2.61-.942 3.878.096.77.29 1.47.43 1.557.142.087.19.373.107.635-.084.262-.013.782.157 1.155.256.563.436.652 1.062.527 1.033-.207 1.28.497.532 1.51-.31.42-.564.88-.564 1.023 0 .713.684.483 1.872-.628.904-.845 1.5-1.206 1.903-1.15.895.13.835.788-.194 2.135-.513.674-.935 1.33-.935 1.457 0 .128.72.576 1.6.997 1.995.953 2.486 1.454 1.41 1.437-.67-.01-1.645-.295-3.037-.89-.48-.207-1.1.583-1.394 1.777-.167.676-.137.717.337.463.644-.344 1.615-.364 1.615-.033 0 .135-.44.606-.974 1.048-.876.722-.922.82-.462.987.28.1 1.064.397 1.74.657 1.206.462 1.238.46 1.717-.068.81-.897 1.428-1.123 1.866-.685.338.337.337.504-.014 1.343-.236.565-.298 1.02-.15 1.11.487.303.246.918-.36.918-.603 0-1.245.437-1.245.846 0 .117.243.212.54.212.495 0 1.008.66.73.938-.068.066-.623.14-1.236.164-.91.036-1.26.21-1.912.954-.44.5-.73.98-.645 1.064.085.085 1.107-.31 2.27-.876 1.898-.926 2.142-1.13 2.375-1.993.243-.902.696-1.477 1.553-1.968.287-.166.34-.035.246.61-.08.542.004.868.243.96.2.077.298.033.217-.098-.278-.45.177-1.08.78-1.08.42 0 .654-.196.766-.64.48-1.918 2.482-2.88 3.567-1.715l.517.555.618-1.082c.7-1.228 1.45-1.42 1.697-.435.09.358.333.79.54.963.207.172.507.83.667 1.466.16.634.408 1.154.552 1.154.147 0 .176-.203.066-.463-.107-.255-.25-1.06-.32-1.79-.1-1.045-.017-1.46.388-1.96.75-.927 1.13-.512.948 1.033-.12 1.002-.016 1.644.44 2.77.533 1.312 1.064 1.914 1.064 1.207 0-.144.387-.448.86-.676 2.002-.968 2.05-1.013 2.05-1.92 0-.783-.125-.934-1.162-1.392-1.216-.538-2.806-1.854-2.806-2.323 0-.403.96-.636 1.833-.445.695.153.78.09.95-.68.14-.643.083-.907-.24-1.088-.235-.13-.427-.463-.427-.74 0-.274-.12-.573-.264-.663-.41-.254-.315-1.513.254-3.34.396-1.273.443-1.716.2-1.87-.526-.327.077-.996 1.837-2.04 1.138-.675 1.776-1.27 2.19-2.044.32-.6.983-1.477 1.47-1.95.844-.818.924-.84 1.7-.497.802.353 1.08 1.093.54 1.427-.15.094-.57.637-.93 1.207-.36.57-.776 1.036-.925 1.036-.448 0-1.838 1.13-1.838 1.495 0 .205 1.04-.207 2.627-1.04 2.058-1.083 2.697-1.312 2.95-1.062.483.474.037.88-2.41 2.198-1.44.777-2.018 1.215-1.788 1.36.656.417 1.436.218 1.972-.503.297-.4 1.51-1.242 2.695-1.87 1.74-.924 2.284-1.366 2.835-2.308.376-.64 1.338-1.764 2.14-2.496.8-.732 1.384-1.33 1.297-1.33-.087 0-.825.376-1.64.837-1.165.658-1.582.777-1.94.554-.373-.234-.54-.137-.944.548-.27.458-.56 1.25-.643 1.762-.113.7-.28.93-.675.93-1.196 0-.52-2.4 1.508-5.358.498-.728.97-1.125 1.332-1.125.31 0 .785-.2 1.057-.447.577-.522 2.202-1.13 3.037-1.135.39-.003.967-.502 1.762-1.526 2.33-3 5.232-5.286 6.286-4.95.663.21.665 1.18.003 1.18-.273 0-.635.167-.805.372-.222.268.234.204 1.638-.23 2.437-.75 2.75-.923 3.93-2.17.637-.675 1.01-1.362 1.115-2.05.195-1.293.54-1.68 1.09-1.223.343.286.41.26.412-.156.002-.272.184-1.013.405-1.646.384-1.103.372-1.222-.3-2.9-.846-2.117-1.01-5.347-.306-6.05.648-.65 1.718-.243 2.238.848.54 1.133.738 1.15 1.107.09.314-.904.22-1.162-1.11-3.067-.633-.91-.695-1.152-.44-1.714.164-.36.626-.847 1.026-1.084.674-.398.775-.397 1.367.015.35.244.843.685 1.093.98.64.757.59.432-.432-2.882-1.146-3.714-1.848-6.262-2.81-10.207-.553-2.258-1.03-3.546-1.7-4.596-1.634-2.553-4.884-9.408-5.582-11.773-1.637-5.546-3.124-9.896-4.806-14.058-.382-.946-1.15-2.223-1.707-2.838-.99-1.095-1.3-2.05-.725-2.24.194-.066.155-.396-.12-1.015-.225-.506-.847-2.05-1.382-3.433-1.44-3.717-3.454-7.596-4.475-8.616-.494-.493-1.015-1.32-1.157-1.835-.14-.515-.787-1.857-1.435-2.98-.647-1.126-1.86-3.415-2.695-5.09-2.777-5.56-5.19-9.284-7.182-11.08-.746-.67-2.373-1.795-3.614-2.495-2.02-1.14-2.318-1.237-2.826-.926-.513.313-.625.27-1.147-.447-.952-1.31-1.594-1.787-4.327-3.227-3.628-1.912-7.717-3.235-11.025-3.566-2.236-.224-2.776-.203-3.34.13-.595.35-.806.35-1.826.004-1.027-.35-1.505-.344-4.366.042-4.027.544-7.25 1.238-9.297 2.004-1.35.504-1.948.973-3.97 3.107-1.31 1.384-4.02 4.223-6.025 6.31-3.976 4.143-5.422 6.16-7.34 10.244-1.83 3.9-2.642 6.335-2.642 7.926 0 1.82-1.908 9.283-3.05 11.94-1.117 2.592-1.17 2.51 2.902 4.497 2.63 1.284 3.08 1.61 4.286 3.105.742.92 1.55 2.065 1.796 2.547.245.48.886 1.36 1.424 1.956.995 1.1 1.847 2.53 3.202 5.37 1.188 2.488 1.61 3.99 1.61 5.71 0 1.327-.1 1.687-.62 2.173-.34.32-.776.88-.966 1.243-.96 1.84-3.78 5.055-9.234 10.523-6.913 6.93-7.433 7.694-7.643 11.206-.165 2.744.358 4.238 2.208 6.312 2.003 2.245 1.942 3.044-.133 1.735-2.105-1.33-3.19-3.496-3.715-7.42-.298-2.22-.28-2.482.24-3.864.922-2.45 2.055-3.86 6.767-8.435 6.523-6.332 8.308-8.24 8.55-9.13.293-1.085-.508-3.117-1.608-4.078-2.41-2.103-2.624-2.25-2.533-1.72.07.4-.052.49-.583.438-.666-.067-.67-.056-.57 1.72.086 1.585.018 1.902-.6 2.81-.385.563-.633 1.09-.553 1.17.13.13 1.548-.144 3.254-.63.48-.137.596-.064.596.38 0 .85-2.14 1.363-6.338 1.518-1.958.072-3.584.156-3.614.187-.03.03-.09.592-.137 1.247l-.08 1.19h1.58c.867 0 1.634.12 1.703.265.212.45-1.332.998-3.187 1.13l-1.77.127-.325 1.09c-.18.602-.86 2.283-1.515 3.738a482.18 482.18 0 0 0-1.936 4.366c-1.883 4.33-2.774 9.312-3.076 17.198-.2 5.197 0 7.408.665 7.408.26 0 .58-.338.75-.793.196-.517.485-.793.83-.793.45 0 .5-.11.325-.728-.31-1.108.33-2.184 1.3-2.184.865 0 4.083-2.524 4.37-3.428.254-.8 1.21-.976 1.74-.32.457.563.84.52.615-.072-.258-.67.524-.937 1.63-.555l1.046.363-.053 1.94a148.83 148.83 0 0 1-.066 2.122c-.008.1-.234.25-.503.336-.43.137-1.158 1.225-1.21 1.81-.032.34-.74.678-1.117.533-.21-.08-.462.156-.624.584-.266.698-.316.713-1.79.54-.834-.098-1.74-.243-2.013-.323-.33-.096-.433-.043-.308.16.35.566-.42 1.127-1.317.96-.712-.134-.878-.058-1.142.52-.17.373-.308.89-.308 1.15 0 .52-1.045 1.62-1.54 1.62-.18 0-.312.388-.312.926 0 .626-.123.926-.378.926-.23 0-.54.55-.783 1.39-.553 1.903-1.045 2.536-1.668 2.148-.662-.413-.6-3.147.12-5.258.494-1.45.516-1.814.253-4.233-.21-1.933-.206-4.287.017-8.73.478-9.542 1.278-12.742 4.974-19.9 2.225-4.31 2.334-4.6 2.037-5.387-.3-.792-.278-.845.456-1.122.73-.276.776-.382.85-2.023l.076-1.73 1.018.06c.842.05.99-.012.855-.364-.49-1.277-.734-2.9-.59-3.942.16-1.162.15-1.18-.61-1.18-.515 0-.95-.228-1.317-.696-.65-.828-.686-1.128-.15-1.296 1.335-.417 1.337-.427.186-.975-1.7-.81-1.998-1.595-1.852-4.875.094-2.107.042-2.748-.232-2.853-.22-.085-.353-.573-.353-1.296 0-1.292 1.18-6.267 1.75-7.376.202-.393.367-.99.367-1.328 0-.337.297-1.05.66-1.587.544-.798.664-1.297.67-2.773.01-2.134.678-8.952.916-9.337.092-.147.33-.268.53-.268s.438-.236.53-.525c.2-.63-.124-4.238-.38-4.238-.1 0-.318.566-.487 1.257-.17.69-.622 2.565-1.006 4.164-.406 1.688-1.132 3.77-1.732 4.963-1.81 3.597-2.25 6.637-1.422 9.813.504 1.936.5 2.027-.102 2.027-.73 0-1.36-1.145-1.673-3.03-.42-2.534.282-6.188 1.808-9.405.836-1.762 1.43-3.583 1.99-6.086 1.367-6.113 2.45-8.818 6.523-16.27 2.143-3.926 2.79-4.797 4.026-5.428 1.197-.61 1.95-1.642 1.514-2.077-.427-.427 1.795-4.718 3.655-7.057 2.33-2.93 6.465-6.488 9.898-8.517 1.668-.986 3.87-2.478 4.895-3.317 2.588-2.12 9.165-5.235 15.224-7.213 1.237-.404 2.533-.955 2.88-1.225.753-.584 3.745-1.548 4.805-1.548.413 0 .824.12.913.264.102.165 2.8.254 7.226.24 7.784-.027 9.03.114 13.134 1.486 1.463.49 4.044 1.312 5.733 1.83 3.274 1 4.744 1.686 9.363 4.367 4.276 2.483 5.86 3.613 7.675 5.472 1.472 1.508 1.665 1.628 2.038 1.255.533-.533 1.22-.2 2.862 1.388 1.013.98 1.68 1.32 4.315 2.205 3.28 1.102 8.5 2.26 12.452 2.76 2.468.312 2.436.292 3.205 2.018.805 1.806 1.186 2.295 2.71 3.478 1.414 1.098 3.054 3.354 4.04 5.56.154.34.974 1.81 1.823 3.265 1.13 1.938 1.854 2.864 2.702 3.46 1.837 1.29 2.33 2.87.97 3.12-.333.06-1.31.24-2.17.4-1.705.313-4.113 1.357-6.555 2.84-1.214.738-1.497 1.025-1.272 1.296.352.424-.04.73-.64.5-.628-.242-1.66.093-1.856.6-.1.256.187 1.264.67 2.363.968 2.203.918 2.196 3.615.462.833-.536 3.063-1.73 4.955-2.653 5.192-2.537 5.83-2.915 5.738-3.4-.045-.236.05-.59.212-.783.224-.27.104-.57-.513-1.272-.444-.505-.807-1.052-.807-1.214 0-.642.74-.23 2.017 1.13.96 1.017 1.347 1.645 1.363 2.207.03 1.018 2.152 6.607 3.813 10.036 1.088 2.245 1.292 2.902 1.243 3.988-.053 1.166.093 1.548 1.42 3.69 3.243 5.244 5.684 10.952 6.078 14.21.14 1.164.59 3.023 1 4.132.408 1.108 1.042 3.26 1.41 4.778.366 1.52 1.086 3.923 1.6 5.34l.933 2.577-.354 2.187c-.456 2.822-.9 3.843-2.727 6.274-1.86 2.478-3.276 3.844-5.215 5.038-3.975 2.447-4.828 3.13-6.488 5.2l-1.713 2.137-.058 6.98c-.032 3.84-.113 7.46-.18 8.042-.152 1.292-1.08 3.96-2.484 7.142-.578 1.31-1.265 3.036-1.526 3.836-.61 1.867-3.222 7.244-5.978 12.304-1.19 2.182-2.625 5.022-3.19 6.31-.567 1.29-1.407 2.897-1.867 3.573-1.962 2.885-4.12 5.6-6.024 7.58-1.91 1.983-3.975 4.636-3.975 5.102 0 .114.354.416.786.67 2.786 1.647 3.362 3.135 3.704 9.573.267 5.008.713 6.928 2.12 9.12.464.724 1.257 1.68 1.76 2.12 1.293 1.136 5.104 3.014 5.992 2.955.583-.04 1.106.313 2.514 1.692 1.754 1.718 1.786 1.735 2.44 1.313 2.292-1.483 4.114-1.697 5.65-.664.542.365 1.616 1.615 2.388 2.78 1.43 2.158 4.897 5.56 7.384 7.25 2.378 1.614 15.483 7.7 21.883 10.16 10.816 4.16 15.304 6.443 14.995 7.626-.093.355.238.757 1.21 1.47.735.54 2.36 1.865 3.61 2.945 4.196 3.62 11.123 7.967 18.45 11.578 6.346 3.128 6.768 3.383 9.26 5.605 2.06 1.835 2.92 2.423 4.068 2.777 3.028.935 5.556 3.022 5.556 4.588 0 1.222-.3 1.14-3.844-1.057-1.02-.633-1.713-.817-3.924-1.045-7.7-.795-12.152.298-22.735 5.582-4.456 2.225-5.68 2.73-6.456 2.665-.547-.047-1.077-.277-1.24-.538-.43-.686 1.196-2.202 4.42-4.122 6.034-3.595 14.612-6.48 20.36-6.847 1.423-.09 2.554-.265 2.513-.386-.157-.467-3.336-2.667-5.193-3.596-1.686-.843-2.214-.978-3.97-1.015-1.77-.038-2.373-.195-4.802-1.25-3.503-1.523-6.443-3.15-10.02-5.542-7.572-5.064-14.118-10.763-14.488-12.61-.175-.876-.504-1.043-6.977-3.546-8.996-3.477-22.023-9.543-24.725-11.512-3-2.185-6.4-5.546-7.52-7.436-1.59-2.675-2.324-2.91-4.526-1.453-.86.57-1.036.853-1.186 1.91-.097.68-.69 2.906-1.318 4.943-.628 2.038-1.465 5.133-1.86 6.88a256.126 256.126 0 0 1-1.36 5.688c-2.49 9.748-3.383 13.134-4.563 17.33-3.102 11.03-3.53 15.78-1.918 21.355.548 1.896.497 2.72-.184 2.982-.662.254-1.71-.683-2.434-2.177-.365-.75-.803-1.37-.974-1.377-.17-.007-.67-.446-1.106-.976l-.794-.964-1.494 1.33c-.82.733-2.282 1.733-3.247 2.222-1.632.827-1.93.89-4.28.883-2.387-.006-2.7-.076-5.67-1.262-7.985-3.187-11.365-5.924-12.447-10.078-1.002-3.845-1.392-10.446-.78-13.194.184-.83 0-.88-1.6-.436-.704.195-1.73.94-3.19 2.313-7.433 7-11.666 10.418-14.69 11.86a969.59 969.59 0 0 0-5.504 2.657l-2.99 1.456-4.455 5.065c-5.155 5.86-6.206 6.916-6.623 6.66-.355-.22.054-.923 1.7-2.917 1.846-2.24 1.84-2.226 1.217-2.064-.465.122-.544.02-.544-.705 0-1.102 1.163-2.71 3.386-4.683 3.386-3.005 4.74-3.885 9.71-6.316 5.002-2.445 5.05-2.476 9.394-6.21 2.4-2.064 6.053-5.34 8.116-7.282 2.063-1.942 4.265-3.79 4.895-4.108.63-.318 1.45-.94 1.823-1.38.56-.66.804-.77 1.398-.62 1.018.255 1.266 1.117.98 3.407-.557 4.457-.602 7.446-.165 11.046.528 4.354.953 5.914 2.005 7.368 1.746 2.41 9.384 6.136 13.45 6.56 2.598.273 4.28-.39 6.53-2.572 1.872-1.814 1.9-1.83 3.35-1.83h1.46l.174-2.635c.218-3.33.974-7.318 2.283-12.05 2.754-9.944 4.47-17.054 4.632-19.18.093-1.238.52-4.718.946-7.733.427-3.016.776-6.363.776-7.44 0-1.074.122-2.595.272-3.38.2-1.043.19-1.58-.04-2.008-.176-.333-1.57-1.24-3.236-2.11-3.496-1.824-5.437-3.607-6.824-6.266-.824-1.58-.967-1.735-1.102-1.19-.3 1.216-2.034 13.14-2.564 17.627-.57 4.83-.824 5.884-1.412 5.884-1.118 0-.565-8.628 1.282-20.03.36-2.21.892-5.096 1.185-6.412.683-3.065.677-3.398-.056-3.503-.415-.06-.71-.407-.993-1.172-.22-.598-.795-1.417-1.274-1.82-1.154-.97-1.858-2.408-2.074-4.238l-.175-1.496-.654.654c-.52.52-.782 1.305-1.27 3.792-.8 4.086-1.765 7.488-2.607 9.184-.373.75-1.52 2.492-2.548 3.875-2.564 3.443-5.606 8.374-9.054 14.676-5.427 9.918-7.83 13.646-12.144 18.84-4.98 5.992-9.986 11.156-14.63 15.087-1.284 1.088-1.3 1.12-.827 1.643 1.108 1.225-.04 2.44-4.28 4.523-2.298 1.13-2.422 1.234-2.433 2.044-.013 1.036-.61 1.467-2.657 1.926-1.037.23-1.74.598-2.447 1.274-.546.52-.992 1.088-.992 1.26 0 .17-.785 1-1.745 1.84-2.167 1.904-3.703 3.91-4.164 5.442-.788 2.614-2.36 6.29-2.755 6.442-.232.09-.545.04-.695-.112-.36-.36-.697-.347-.697.03 0 .167-.327.82-.727 1.455-.76 1.205-1.71 1.55-2.022.735zm-9.822-18.638c-.092-.15-1.208-.97-2.48-1.826-1.273-.854-3.123-2.43-4.114-3.498-2.264-2.445-5.29-6.977-6.933-10.383-1.188-2.465-1.275-2.574-1.466-1.858-.168.622-.09.86.425 1.295.347.294 1.113 1.582 1.703 2.863 2.04 4.433 5.785 9.465 8.844 11.888 1.308 1.035 4.456 2.226 4.02 1.52zm2.764-2.83c-6.52-6.173-10.457-11.082-14-17.458-.874-1.572-1.59-2.738-1.59-2.593-.005.632.8 4.376 1.197 5.57 1.574 4.738 6.746 11.37 11.236 14.41 1.674 1.136 5.554 2.996 5.778 2.772.062-.063-1.118-1.278-2.622-2.702zm13.776 1.752c0-.297.123-.77.274-1.05.208-.39.188-.512-.082-.512-.51 0-1.515-1-1.515-1.507 0-.617 1.455-1.908 6.3-5.588 4.863-3.69 7.898-5.565 13.85-8.552 4.136-2.075 5.25-2.433 5.25-1.685 0 .418-1.517 1.476-4.763 3.322-1.168.664-2.692 1.854-3.704 2.893-1.087 1.115-2.84 2.463-4.763 3.66-1.673 1.04-3.334 2.12-3.69 2.4l-.648.51 2.632-.015c1.448-.008 2.91-.117 3.252-.242 1.48-.543 10.914-9.185 15.208-13.93 7.075-7.816 11.126-13.537 16.3-23.025 4.177-7.657 6.065-10.81 8.894-14.86 4.204-6.02 4.623-7.19 5.17-14.42.225-2.96.37-3.662 1.04-5.028.933-1.903 1.224-4 1.584-11.425.382-7.87.42-7.395-.583-7.596-1.467-.294-2.647-1.887-1.79-2.417.16-.098-.006-.388-.398-.696-1.54-1.212-.303-1.393 1.447-.21.654.442 1.576.97 2.05 1.175.472.204.86.513.86.687 0 .228.444.268 1.61.147.885-.093 1.718-.236 1.85-.318.134-.084.243-1.04.243-2.124 0-1.72-.105-2.16-.826-3.436-.792-1.404-.84-1.442-1.205-.922-.39.557-1.382.748-1.44.277a31.783 31.783 0 0 0-.067-.492c-.02-.126-.626-.765-1.35-1.42-1.134-1.027-1.27-1.253-.973-1.61.263-.32.503-.358 1.004-.168.98.373.982.35.085-.955-1.172-1.705-.858-2.288.853-1.58.37.152.295-.294-.46-2.683-2.23-7.066-2.637-8.15-3.09-8.24-.38-.072-.334.17.313 1.597 1.06 2.336 1.257 3.515.647 3.856-.287.16-.712.174-1.082.034-.582-.222-.61-.177-.613 1.018-.005 1.584-.238 1.94-1.293 1.97-1.02.028-1.46.732-1.74 2.786-.18 1.326-.16 1.39.418 1.39.71 0 2.09 1.227 2.09 1.86 0 1.406-4.372 2.82-5.292 1.71-.503-.605-.823-.472-.637.266.145.578.08.66-.522.66-.4 0-.825-.22-1.018-.528-.438-.702-.702-.66-1.724.268-1.022.93-1.08 1.377-.234 1.83.545.29.76.25 1.654-.313.565-.356 1.593-.732 2.284-.835 1.164-.174 1.257-.146 1.257.375 0 .678-.39 1.457-1.242 2.48-.348.418-.595.874-.55 1.012.047.138.725.51 1.508.826 1.382.56 2.173 1.287 1.8 1.66-.254.254-1.462.262-2.668.016-.683-.14-.962-.118-.85.066.094.15.002.604-.204 1.01-.232.456-.293.934-.16 1.263.115.29.22.892.23 1.336.01.443.162.95.338 1.126.576.576-.368 1.16-1.944 1.203-1.383.036-1.418.02-1.408-.69.008-.527-.12-.728-.463-.728-.26 0-.474.12-.474.265 0 .46.84 5.15.956 5.34.232.377 1.52-.58 2.056-1.53.308-.545.71-1.04.893-1.1.458-.152 1.372 1.953 1.38 3.177.006 1.138-.396 1.297-.837.33-.392-.86-.642-.834-1.136.12-.222.43-.88 1.165-1.462 1.632-1.198.963-1.28 1.185-.53 1.423.292.092.53.293.53.446 0 .518-5.928 6.62-8.595 8.847-1.724 1.44-3.435 2.59-4.898 3.292-1.237.593-3.142 1.55-4.234 2.123-1.09.575-2.776 1.43-3.743 1.9-1.585.77-1.86 1.025-2.757 2.574-1.197 2.064-1.667 2.646-2.14 2.646-.588 0-.407-.783.595-2.575.522-.934.895-1.754.828-1.82-.066-.068-.96.298-1.986.813-1.026.515-1.995.936-2.154.936-.158 0-.777.354-1.375.787-1.265.916-2.705 1.272-3.265.806-.464-.384-2.482.37-6.847 2.554-3.018 1.512-3.788 1.652-3.682.67.036-.322.008-.585-.06-.585s-1.334.482-2.814 1.072c-2.69 1.07-3.406 1.153-3.406.392 0-.588-.47-.514-3.326.52-2.967 1.074-3.29 1.11-3.476.396-.12-.453-.36-.53-1.69-.53-1.383 0-1.6.076-2.007.7-.882 1.346-3.505 1.91-4.06.872-.223-.416-.463-.51-1.003-.398-.992.208-1.48-.17-1.274-.99l.168-.67-3.58.046c-2.138.026-3.657-.062-3.77-.22-.104-.146-.563-.277-1.02-.292-.455-.014-1.188-.282-1.627-.595-.97-.692-1.214-.722-.827-.102.223.356.132 1.258-.378 3.77-.903 4.452-1.232 8.157-1.23 13.866 0 5.427.304 8.45 1.21 12.028.522 2.067 1.023 3.155 2.98 6.483 1.296 2.2 3.037 5.17 3.87 6.598 2.27 3.892 4.337 6.485 8.85 11.1 3.478 3.56 4.356 4.312 5.953 5.1 2.143 1.054 3.46 1.352 6.174 1.393 1.76.027 1.918-.014 1.918-.507zm-31.42-59.68a1.02 1.02 0 0 0-.66 0c-.183.072-.034.132.33.132s.513-.06.33-.133zm17.22-.024c.066-.11-.15-.59-.478-1.066l-.597-.867-.414.63c-.376.575-.374.67.022 1.066.45.45 1.26.58 1.468.236zm3.9-.14c-.032-.316-.394-.254-.508.087-.058.174.037.27.212.21.174-.057.308-.19.297-.296zm2.35-.257c-.006-.183-.298-.868-.65-1.522-.5-.938-.64-1.063-.648-.587-.016.797.68 2.44 1.032 2.44.153 0 .273-.15.267-.33zm-13.693-1.55c.37-.2.475-.58.475-1.717 0-1.723-.258-1.682-1.208.192-.412.813-1.02 1.528-1.583 1.86-.502.296-.913.634-.913.752 0 .202 2.21-.543 3.23-1.088zm3.803.8c.388-.43.502-.98.517-2.492l.018-1.94-1.134-.09c-.77-.06-1.177.023-1.27.264-.074.194-.136 1.356-.136 2.58v2.228h.753c.428 0 .97-.238 1.253-.55zm14.4.158c1.09-.023 2.517-.194 3.168-.38.692-.198 1.696-.27 2.415-.175 2.062.273 3.24-.43 5.236-3.12.93-1.256 1.84-2.283 2.02-2.283.428 0 1.256-1.26 1.05-1.595-.334-.538-.86-.218-1.32.802-.304.673-.652 1.058-.96 1.058-.266 0-.677.297-.915.66-.507.773-2.05 1.26-3.627 1.142-.92-.07-1.112.003-1.2.447-.164.85-.582 1.19-1.454 1.19-.54 0-1.086.26-1.62.774-.73.7-.93.758-2.1.623-.903-.104-1.325-.283-1.407-.595-.093-.355-.315-.414-1.09-.29-.906.147-.978.227-1.057 1.182-.074.905-.028 1 .397.813.265-.116 1.374-.23 2.466-.252zm-7.995-1.68l.52-1.542-2.36-.737c-1.3-.406-2.422-.68-2.494-.607-.07.07-.202.578-.29 1.126l-.163.996.816-.603c.955-.706 1.648-.554 1.648.362 0 .358.383 1.065.86 1.59.473.518.878.946.9.95.024.003.278-.688.564-1.536zm-16.81-.587c.99-.275 1.24-.595.712-.92-.46-.285-1.537.11-1.838.673-.323.604-.23.624 1.126.248zm-5.093-.733c0-.12-.295-.495-.654-.833-.546-.514-.72-.558-1.064-.272-.37.307-.368.39.033.832.44.49 1.685.69 1.685.273zm43.92-.474c0-.22-.12-.324-.264-.234-.145.09-.264.34-.264.56 0 .218.12.323.265.233.146-.09.265-.342.265-.56zm-40.36-.673c.808-.37.83-.527.16-1.135-.284-.255-.593-.818-.688-1.25-.094-.43-.37-.843-.61-.916-.24-.073-.947-.363-1.57-.644-1.47-.665-1.646-.647-1.646.173 0 .72 2.752 4.052 3.362 4.068.175.005.62-.13.992-.298zm30.193-1.03c1.8-1.213 2.25-1.838 1.324-1.838-1.175 0-2.798-2.463-2.798-4.245 0-.6-.09-1.042-.2-.982-.108.06-.584.274-1.057.477-.473.202-.86.483-.86.624 0 .14.534.936 1.187 1.767.653.83 1.3 1.813 1.442 2.18.365.964-.43 1.87-2.024 2.3-1.626.44-1.797.542-1.36.82.947.6 2.354.243 4.346-1.102zm13.726-.028c.144-.127-.047-.222-.447-.222-.385 0-.766-.11-.85-.243-.207-.336 1.015-1.73 2.112-2.408l.91-.565-.79-.665c-.938-.79-.964-.965-.24-1.64l.55-.513-1.94-1.248c-1.066-.688-2.563-1.78-3.326-2.428l-1.388-1.18-.795.568c-.883.63-1.01 1.377-.423 2.508l.37.716.606-.818c.714-.965 1.563-1.097 1.563-.243 0 .316-.208.81-.463 1.1-.453.51-.443.52.434.35.686-.133.976-.065 1.237.29.287.39.264.55-.138.993-.723.797-.883 1.59-.403 1.988.517.43.926.08 1.34-1.14.16-.467.398-.848.53-.848.422 0 .413 1.303-.024 3.327-.234 1.08-.497 2.373-.585 2.872l-.16.908 1.033-.62c.57-.34 1.148-.72 1.286-.84zm-57.6.114a11.515 11.515 0 0 0-1.984 0c-.546.057-.1.104.992.104 1.09 0 1.538-.047.992-.104zm17.66-.336c.572-.29 1.51-.53 2.087-.53.98 0 2.016-.565 2.016-1.1 0-.122-.297-.222-.66-.222-.647 0-.89-.358-.435-.64.126-.077 1.19-.307 2.363-.51 2.027-.352 2.22-.448 3.862-1.916 1.883-1.684 2.105-2.137.52-1.06-.988.672-2.21.92-2.21.45 0-.28 1.29-1.443 2.814-2.537.59-.425 1.36-1.306 1.71-1.958 1.16-2.164 2.733-2.706 3.063-1.056.122.613.29.76.866.76.423 0 .972.275 1.346.673l.632.673.476-.606c.473-.603.478-.603.882-.078.39.507 1.318.593 1.77.163.108-.104.003-.682-.234-1.286-.356-.91-.568-1.112-1.226-1.18-1.155-.115-1.575-.887-1.124-2.063 1.07-2.788 1.204-3.27.98-3.496-.145-.144-.536.455-.98 1.497-.888 2.09-1.36 2.58-1.842 1.92-.295-.403-.37-.41-.665-.056-.183.22-.526.403-.762.405-.237.002-1.7 1.118-3.252 2.48-1.55 1.36-3.112 2.548-3.47 2.637-.512.13-.622.296-.527.794.17.882-.55 2.14-1.575 2.76-.477.29-1.66.79-2.63 1.113-1.398.464-1.798.72-1.924 1.22-.1.393-.352.633-.668.633-.28 0-.582.12-.672.264-.09.146-.515.265-.945.265-.584 0-.904-.2-1.26-.783-.455-.75-.493-.762-.89-.297-.23.267-.577.54-.773.604-.51.17.35 1.412 1.434 2.074.466.285.85.517.857.518.006 0 .477-.237 1.048-.528zm32.08-.474c.73-.882.747-1.114.077-1.114-.64 0-2.448 1.543-2.227 1.9.267.433 1.52-.025 2.152-.786zm12.002-.407c.43-.316 1.56-2.333 1.56-2.783 0-.555-1.31-.488-1.856.095l-.553.588.563.147c.803.21.303 1.04-.99 1.643-1.28.597-1.248.56-.83 1.013.37.4.798.258 2.106-.704zm-36.01.38c0-.127.228-.292.51-.366.28-.073.805-.72 1.17-1.436.362-.717.847-1.46 1.076-1.65.468-.388.552-.81.16-.81-.385 0-3.722 4-3.557 4.266.185.3.64.298.64-.003zm9.227-2.05c.757-1.977.735-2.477-.11-2.477-.58 0-.633.068-.396.51.43.804.326 1.678-.36 3.032-.496.98-.53 1.16-.164.827.258-.234.722-1.085 1.03-1.89zm5.92 1.782c.99-.378.906-.995-.327-2.36l-1.033-1.14-.304 1.14c-.33 1.242-.926 2.07-1.487 2.07-.39 0-.47.324-.158.643.242.248 2.31.027 3.307-.353zm-10.163-1.35c.295-.872.455-1.58.355-1.574-.212.015-2.43 2.746-2.43 2.994 0 .093.347.168.77.168.704 0 .815-.134 1.305-1.587zm2.588-1.01c.17-.895-.294-1.853-.524-1.084-.06.206-.303.915-.538 1.575-.234.66-.42 1.374-.416 1.587.016.668 1.3-1.137 1.478-2.08zM68 186.2c.003-.183.41-1.26.903-2.39l.9-2.06-.9-1.49c-.493-.82-.968-1.713-1.053-1.983-.166-.524-2.762-1.986-2.762-1.556 0 .14.193.364.43.497.393.22.395.354.024 1.535-.224.712-.47 1.75-.55 2.31-.125.882-.084.99.307.825 2.054-.866 2.15.07.143 1.386-.478.312-.56.496-.34.76.222.268.042.502-.79 1.028-1.783 1.125-1.455 1.415 1.634 1.446 1.474.015 2.052-.072 2.054-.31zm22.198-.69c-.39-.135-.59.138-.365.5.142.23.25.218.415-.048.13-.21.11-.397-.05-.452zm87.21-2.58c-.298-3.188-1.845-5.448-2.518-3.68-.146.385-.265 1.238-.265 1.896 0 1.066.127 1.32 1.16 2.325.638.62 1.257 1.413 1.374 1.762.187.56.226.575.32.13.06-.276.03-1.372-.07-2.434zm-92.764 1.416c.275-.727.143-.992-.494-.992-.48 0-.806.49-.806 1.213 0 .613 1.052.435 1.3-.222zm-22.206.133c-.002-.108-.07-.45-.154-.758-.13-.488-.232-.522-.788-.264-.793.367-.802.534-.046.898.727.35.993.385.988.125zm49.74-.603c.007-.19-1.65-.805-1.79-.664-.063.06.21.433.603.827.577.576.763.644.95.347.13-.203.237-.432.24-.51zm5.937.308c.078-.126-.085-.433-.36-.683-.477-.43-.517-.427-.787.078-.23.43-.197.554.177.652.75.197.82.193.97-.047zm-14.3-.63c.248-.927.198-1.084-.23-.728-.428.355-.548 1.323-.164 1.323.13 0 .307-.268.394-.595zm-21.27-.662c.003-.182-.114-.33-.26-.33-.145 0-.262.327-.26.727.003.567.06.64.26.33.14-.217.26-.545.26-.727zm-1.582.514c0-.118-.168-.444-.373-.724-.365-.5-.386-.5-.92-.015-.3.272-.483.598-.405.724.18.29 1.698.303 1.698.015zm-2.25-1.02c.495-.397.497-.413.025-.25-.277.097-1.088-.018-1.803-.255-1.614-.537-1.916-.33-.562.385 1.233.65 1.65.672 2.34.12zm49.706.043c.082-.218.036-.397-.105-.397-.14 0-.257.18-.257.397 0 .22.047.397.104.397.058 0 .173-.178.257-.397zm-65.978-.94c0-.59-.103-.62-.81-.24-.638.34-.66.71-.05.85.64.145.86-.01.86-.61zm26.92.286c.66-.3 1.258-.802 1.446-1.216.286-.627.254-.76-.293-1.204-.696-.563-2.055-.648-3.058-.19-.776.353-.854.625-.247.858.27.104.377.356.29.69-.076.29-.016.526.133.526.15 0 .208.238.132.53-.173.66.156.66 1.598.006zm43.228.06c.336-.43.323-.435-.166-.076-.29.213-.58.422-.64.463-.06.04.015.075.167.075.153 0 .44-.208.64-.463zm-73.07-.185c.174-.21.264-.656.2-.99-.103-.542-.12-.53-.153.117-.045.908-.42.93-.992.057-.613-.936-.788-.603-.203.387.54.917.696.975 1.147.43zm38.492-2.792l.17-2.25-.793.903c-1.08 1.23-1.272 2.216-.57 2.92.3.3.547.688.547.863 0 .197.09.222.238.066.13-.14.314-1.265.407-2.502zm15.23 1.61c0-.57.072-1.226.16-1.456.296-.77-.49-.437-1.356.574-1.153 1.347-1.175 1.49-.26 1.686 1.42.304 1.456.285 1.456-.805zm21.035.023c-.08-.08-.413.13-.736.465l-.587.613.736-.465c.404-.255.668-.53.587-.612zm-30.296-.583c0-.106-.296-.25-.66-.32-.682-.13-.82.14-.497.98.15.395.207.393.662-.018.273-.25.496-.537.496-.643zm41.21.26c.473-.444.86-.91.86-1.036 0-.125.08-.435.176-.687.28-.73-1.473.663-1.922 1.527-.67 1.292-.357 1.362.886.197zm-38.827.28a.265.265 0 0 0-.265-.266.265.265 0 0 0-.265.266.265.265 0 0 0 .53 0zm-29.43-.53c-.36-.574-.474-.612-1.108-.37-.843.325-.33.782.973.868.4.027.42-.043.134-.498zm24.236-.45c-.648-.867-1.23-1.122-.987-.432.187.53 1.205 1.447 1.395 1.256.066-.064-.12-.435-.41-.824zm8.608-.988c.668-.615 1.51-1.317 1.87-1.56l.653-.443h-.722c-.397 0-1.18.33-1.736.735-.558.404-1.515.96-2.126 1.236-.74.333-1.063.626-.968.874.08.205.144.545.144.755 0 .56 1.355-.19 2.886-1.598zm24.09.79c.187-.227.237-.408.11-.403-.288.01-1.422.943-1.422 1.168 0 .244.917-.29 1.31-.765zm7.116-1.39c-.342-2.3-.45-2.654-.867-2.814-.287-.11-.44.195-.612 1.228-.14.832-.356 1.348-.547 1.308-.174-.037-.316.112-.316.33 0 .567.46.49.793-.132.3-.56.92-.702 1.185-.274.087.14-.084.73-.38 1.313-.7 1.367-.685 1.43.216.964.745-.386.752-.41.528-1.925zm-77.777 1.005c.86-.804 1.008-1.204.547-1.488-.267-.166-2.106 1.617-2.106 2.042 0 .453.775.177 1.56-.555zm42.555.607c-.088-.088-.316-.097-.507-.02-.212.084-.15.147.16.16.278.01.435-.052.347-.14zm30.75-.098c.265-.14.56-.588.657-.992.095-.404.236-.943.31-1.197.088-.29-.004-.463-.242-.463-.21 0-.675.594-1.035 1.32-.765 1.548-.69 1.868.31 1.332zm-6.932-.533c.876-.533 1.063-.903.602-1.188-.33-.203-1.536.583-1.88 1.224-.354.662.157.648 1.278-.035zm-54.703-.134c.473-.27.535-.38.22-.387-.62-.015-1.278.267-1.278.547 0 .325.28.282 1.057-.16zm-13.385-1.494c-.26-.42-.52-.23-.836.606l-.314.832.645-.606c.355-.333.582-.707.505-.832zm10.634 1.054c.11-.178-.114-.57-.53-.926-.742-.64-1.48-.816-1.48-.354 0 .146.126.265.28.265.16 0 .212.225.122.51-.123.386-.015.538.445.626.334.063.69.132.79.152.1.02.268-.103.373-.272zm53.892-.22c.103-.394.008-.53-.366-.53-.328 0-.504.184-.504.53 0 .29.165.528.366.528.2 0 .428-.238.504-.53zm7.067-.68c0-.074-.238-.006-.53.15-.29.155-.528.342-.528.415 0 .074.238.006.53-.15.29-.156.528-.343.528-.415zm-25.4-.732c0-.79.774-1.5 1.637-1.5.442 0 .827-.17.918-.408.27-.706-.078-.707-1.46-.006-1.473.746-2.392.856-2.922.348-.282-.27-.31-.162-.15.596.4 1.913.567 2.145 1.31 1.807.39-.178.667-.523.667-.836zm41.68-.772c.646-.62 1.435-1.188 1.754-1.264.81-.195.944-.787.177-.787-.73 0-3.924 2.29-3.924 2.814 0 .677.815.365 1.992-.762zm-33.742-.82c0-.76-.157-1.29-.466-1.57-.43-.39-.57-.367-1.768.29-1.52.83-1.95 1.525-.81 1.308.502-.097 1.016.056 1.658.49.51.35 1.032.632 1.157.632s.228-.517.228-1.15zm28.972.886c.09-.146-.015-.265-.234-.265-.217 0-.47.12-.56.265-.09.145.016.264.234.264.22 0 .47-.12.56-.264zm7.48-.215c.16-.476-.388-.376-.573.105-.1.257-.04.378.154.314a.75.75 0 0 0 .42-.42zm-18.25-.01c.205-.13.377-.87.423-1.808.043-.873.158-1.718.256-1.876.453-.735-.447-.51-1.397.348-1.26 1.14-1.536 1.82-.966 2.39.23.227.416.584.416.792 0 .413.723.5 1.27.152zm-66.62-.9c-.002-.48-.157-.6-.806-.624l-.805-.03.586.625c.736.782 1.024.79 1.024.028zm70.002-.212c.98-.673 1.13-.887.914-1.292-.292-.548-1.972-.856-2.39-.44-.355.357-.34 2.54.02 2.54.155 0 .81-.363 1.457-.807zm-14.492-.302c.053-.442-.074-.733-.37-.846-.618-.238-.716-.066-.505.894.21.96.758.932.875-.048zm7.83.427c.098-.257.038-.378-.155-.314-.395.133-.613.734-.265.734.142 0 .33-.188.42-.42zm-10.078-.98c-.162-.837-.49-1.24-1.008-1.24-.146 0-.106.102.088.226.195.124.325.45.29.724-.082.652.275 1.462.567 1.282.125-.078.153-.524.063-.99zm23.924.446c-.087-.087-.315-.097-.506-.02-.21.084-.15.147.16.16.278.01.435-.052.347-.14zm-2.317-1.096c-.007-.624-.046-.662-.28-.263-.148.257-.197.584-.107.73.273.44.396.295.387-.466zm-79.377-.116c.297-.32.54-.668.54-.775 0-.108.16-.356.356-.552.196-.195.44-.8.54-1.34.186-.986.185-.987-.737-.987-1.265 0-1.747.747-1.747 2.705 0 1.654.212 1.847 1.048.95zm3.98-.38c0-.217-.12-.322-.266-.232-.145.09-.264.342-.264.56 0 .22.12.324.264.234.146-.09.265-.342.265-.56zm79.745.472c.076-.122-.512-.34-1.307-.484-.794-.144-1.444-.163-1.444-.043 0 .12.326.222.726.224.4.002.907.12 1.125.26.493.318.724.33.9.043zm-77.364-.587c0-.3-.12-.47-.264-.382-.146.09-.265.337-.265.546 0 .21.12.382.265.382.145 0 .264-.246.264-.545zm49.034-.815c.13-.49.287-.548 1.198-.426 1.026.138 1.053.12 1.223-.783.208-1.107.094-1.272-.614-.893-1.34.717-2.152.048-1.098-.905.697-.63.67-.983-.066-.878-.72.102-1.396 1.414-1.644 3.193-.157 1.128-.122 1.257.34 1.257.303 0 .575-.233.663-.566zm7.583-.17c-.002-.105-.108-.355-.236-.557-.186-.293-.29-.257-.525.182-.465.868-.38 1.176.236.847.29-.157.527-.37.525-.473zm-3.6-.256c-.25-1.04-.365-1.074-.365-.11 0 .46.122.837.27.837.16 0 .2-.296.095-.728zm-14.388.198a.265.265 0 0 0-.264-.265.265.265 0 0 0-.264.265.265.265 0 0 0 .53 0zm-1.468-1.764c-.356-.526-.648-1.11-.648-1.3 0-.526-.508-.724-.94-.366-.567.47-.468 1 .207 1.097.325.046.83.457 1.124.913.295.456.618.78.72.72.102-.06-.106-.54-.463-1.064zm9.6 1.075c-.09-.087-.317-.096-.508-.02-.212.085-.15.147.16.16.277.01.434-.05.346-.14zm29.896-.633c.37-.29 1.017-.53 1.437-.53.558 0 .845-.177 1.065-.662.404-.886.12-1.096-.726-.54-.412.268-.944.392-1.302.302-.456-.115-.89.105-1.76.893l-1.156 1.045.884.01c.498.006 1.178-.22 1.557-.518zm5.1-2.12c-.832-.53-1.1-.205-2.08 2.516-.053.146.483-.303 1.19-.998 1.055-1.037 1.215-1.31.89-1.518zM67.16 169.2c-.082-.08-.358.183-.613.588l-.465.736.613-.588c.336-.323.546-.654.464-.736zm41.002-.184c.474-.475.39-.665-.376-.857-.87-.22-1.016-.077-.642.622.338.63.568.684 1.018.234zm25.116-.128c.057-.172-.14-.444-.44-.604-.487-.26-.546-.217-.546.398 0 .502.12.667.44.605.243-.047.49-.227.546-.4zm9.597-.664c0-.117-.222-.214-.492-.214-.39 0-.465.146-.358.704.126.662.155.675.492.214.197-.27.358-.586.358-.704zm-7.144.58c0-.145-.05-.264-.115-.264s-.19.12-.28.264c-.09.146-.038.265.116.265.155 0 .28-.12.28-.266zm2-.552c.203-.33-.64-2.358-.98-2.358-.304 0-.285 1.132.033 1.967.272.716.65.872.947.392zm18.974-.043c.063-.183-.106-.747-.375-1.254-.27-.507-.49-1.2-.49-1.537 0-.34-.116-.544-.258-.456-.287.177-.072 2.38.304 3.113.277.54.655.602.818.132zm-55.8-2.18c-.206-.536-.45-.505-1.025.13-.41.45-.432.635-.16 1.235l.322.706.508-.834c.28-.46.438-1.015.354-1.236zm79.017-.732c.926-1.346 2.47-3.52 3.435-4.828 2.57-3.492 3.16-4.616 4.637-8.86 1.01-2.904 1.455-3.86 1.828-3.93.52-.1.52.198.017 2.868-.424 2.253 5.138-8.233 6.05-11.404.234-.815 1.034-2.9 1.776-4.63 2.095-4.88 2.152-5.166 2.115-10.424-.04-5.648-.41-11.21-.967-14.503-.23-1.355-.356-2.62-.282-2.813.073-.192-.155-.92-.508-1.616-.857-1.693-.848-3.823.017-3.823.185 0 .508-.26.718-.575.25-.378.535-.517.826-.405.35.133.445.518.445 1.788 0 .925.11 1.58.256 1.53.14-.05.826-.794 1.522-1.656 1.2-1.487 1.927-2.07 1.927-1.548 0 .218-.394.89-2.832 4.834-.93 1.505-.977 2.016-.447 4.8.13.685.153.692.928.305.576-.29 1.04-.918 1.682-2.29.49-1.04 1.5-3.195 2.25-4.79.75-1.594 1.895-3.645 2.546-4.558 1-1.403 1.217-1.933 1.398-3.436.21-1.756.203-1.79-.7-2.982a86.353 86.353 0 0 0-.98-1.28c-.038-.04-1.78 1.664-3.87 3.786s-3.845 3.73-3.897 3.57c-.14-.417.987-1.805 4.438-5.47 1.68-1.783 3.95-4.34 5.046-5.682 1.095-1.34 2.137-2.487 2.316-2.547.425-.14.438 1.61.018 2.4-.17.32-.764 1.123-1.323 1.787-.558.664-1.015 1.34-1.015 1.502 0 .304 1.243 1.39 1.592 1.39.108 0 .354-.38.547-.845.538-1.3 1.795-2.594 2.52-2.594.774 0 .802.364.096 1.26-.367.47-.45.77-.264.956.34.34.36 1.754.023 1.754-.138 0-.327-.125-.42-.278-.12-.19-.29-.18-.545.03-.204.17-.67.253-1.034.183-.97-.185-.822-.025.67.73.733.372 1.8 1.098 2.37 1.615 1.158 1.044 1.446 1.016 1.683-.167.116-.583-.122-1.565-.85-3.512-.556-1.485-1.275-3.773-1.597-5.083-.322-1.31-.92-3.33-1.33-4.49l-.746-2.11-.696 1.373c-.382.754-.903 1.487-1.158 1.628-.255.14-.82.797-1.257 1.46-.727 1.098-1.457 1.58-1.457.963 0-.137.596-1.037 1.325-2 .728-.962 1.5-2.092 1.718-2.51.217-.42.632-.93.923-1.134.49-.344.51-.515.28-2.346-.295-2.314-.338-2.436-2.438-6.95-2.154-4.63-3.89-7.52-4.577-7.618-.494-.07-.54-.266-.54-2.326v-2.25l-1.557-2.645c-1.366-2.32-3.883-7.193-4.19-8.114-.076-.23-.336-.163-.884.223-.427.3-1.43.877-2.23 1.28-.802.404-2.47 1.41-3.706 2.235-1.237.826-2.93 1.888-3.763 2.36-.833.47-1.75 1.155-2.036 1.52-.522.662-.522.667.067 2.3.46 1.277.695 1.617 1.07 1.552.266-.047.68 0 .918.102.918.393 1.534.277 2.685-.504 1.212-.822 4.9-3.903 6.067-5.067.937-.936 2.042-1.33 2.888-1.034.97.34.887.97-.156 1.182-.85.174-2.14 1.17-5.75 4.44-1.023.926-2.484 2.104-3.248 2.617-.862.58-1.39 1.125-1.39 1.437 0 .277.55 1.09 1.222 1.81.767.818 1.163 1.454 1.066 1.707-.085.22-.035.402.11.402.146 0 .353.237.46.527.18.485.308.432 1.645-.684.798-.666 1.902-1.502 2.453-1.86 1.51-.978 3.06-2.455 4.205-4.003 1.16-1.57 1.54-1.727 1.54-.635 0 1.64-4.082 5.762-9.177 9.264-1.41.967-1.78 1.338-1.43 1.43.272.07.542.474.638.952.143.715.28.83.985.83.696 0 .805.087.733.594-.057.398-.36.685-.916.864l-.83.27.76 1.678.763 1.68.995-.184c1.72-.318 5.033-2.586 8.462-5.792 1.703-1.592 2.455-1.795 2.455-.66 0 .552-1.58 2.257-4.762 5.14-.655.595-1.928 1.85-2.828 2.792-1.532 1.603-1.604 1.733-1.124 2.033.904.563.483 1.902-.6 1.902-.55 0-.556.02-.23.876.158.415.513.69.992.773.41.07.944.214 1.185.317.32.138 1.07-.395 2.778-1.978 2.754-2.55 5.978-5.015 6.56-5.015.915 0 .357.704-2.582 3.258-.972.846-1.77 1.685-1.77 1.864 0 .18-.49.797-1.088 1.372-.6.575-1.67 1.736-2.382 2.58-1.212 1.44-1.282 1.605-1.12 2.62.17 1.058.158 1.078-.503.912-.584-.146-.716-.056-.966.663-.338.97-.38 3.64-.063 4.138.4.633.84-.32.768-1.666-.083-1.55.41-1.86.978-.614.39.853.398.816.265-1.238-.076-1.17-.024-2.288.117-2.5.32-.48.52.27.62 2.32l.07 1.41 2.512-2.34c2.976-2.77 4.186-3.785 4.518-3.785.746 0-.103 1.065-3.06 3.84-1.817 1.704-3.55 3.5-3.854 3.99-.462.75-.736 2.147-.797 4.077-.007.218.07.962.17 1.653.152 1.047.112 1.257-.236 1.257-.23 0-.528.197-.663.438-.337.602-1.103.26-1.11-.496-.01-1.554-.81-4.303-1.443-4.964-.442-.462-.718-1.126-.83-2.002-.093-.72-.407-1.707-.698-2.19-.443-.738-.478-.99-.218-1.562.217-.476.227-.767.034-.96-.44-.44-.327-.94.372-1.638.63-.63.637-.67.202-1.43-.246-.428-.65-.83-.895-.895-.257-.07-.586-.607-.776-1.273-.18-.634-.475-1.333-.653-1.55-.437-.537-1.207-4.4-1.023-5.134.096-.38-.188-1.23-.807-2.42-1.072-2.054-1.413-3.18-1.723-5.676-.3-2.417-.502-3.223-1.318-5.24-.65-1.613-.79-1.78-1.55-1.854-.945-.094-1.102-.46-.308-.71.412-.132.473-.273.278-.638-.138-.26-.422-.935-.63-1.504a125.9 125.9 0 0 0-1.35-3.373c-.768-1.86-.902-2.418-.652-2.72.345-.415-.054-1.687-.53-1.687-.47 0-1.32-1.74-2.38-4.884-.587-1.735-1.252-3.258-1.48-3.385-.226-.126-.325-.368-.22-.54.107-.17.198-.847.205-1.504.01-1.183.02-1.195.854-1.11.463.045 1.968-.278 3.343-.718 2.627-.84 5.193-1.346 6.86-1.35.802-.002.993-.1.993-.51 0-.278.11-.546.247-.594.135-.05-.133-.72-.596-1.49l-.84-1.4-1.27.155c-.7.084-2.783.69-4.63 1.347-1.85.656-3.956 1.368-4.684 1.583-.728.215-1.556.523-1.84.685-.452.256-.7.1-1.92-1.21-1.515-1.628-1.765-2.453-.804-2.648.327-.067 2.084-.186 3.903-.265 1.82-.08 4.14-.337 5.16-.573 1.018-.237 2.536-.492 3.372-.567.837-.075 1.522-.184 1.522-.242 0-.058-.287-.558-.636-1.11-.653-1.035-1.186-1.574-3.466-3.5-1.554-1.312-2.23-2.243-2.073-2.852.246-.95-.517-1.41-2.707-1.64-2.782-.29-8.324-1.42-10.28-2.095-1.744-.603-2.233-.542-.955.118 1.652.855.22 1.512-2.05.94-.65-.163-1.236-.243-1.303-.176-.067.067.33.534.88 1.038.93.855 1.186.94 3.747 1.243 1.574.186 3.565.25 4.66.146 2.137-.2 3.334-.003 3.334.548 0 .24-.305.368-.886.368-2.097 0-4.14.345-4.14.7 0 .46-.322.452-1.496-.038-1.363-.57-1.86-.504-2.054.272-.132.526.045.924.83 1.863 1.192 1.425 1.75 1.608 3.302 1.08 2.14-.726 10.53-1.28 10.53-.695 0 .477-1.24.765-4.085.95-2.768.178-2.77.18-1.924.603.467.234.885.615.928.847.068.366-.288.418-2.673.39l-2.75-.033.372.894c.655 1.567.372 1.755-1.173.778-.954-.6-1.658-1.328-2.253-2.324-.476-.797-1.03-1.45-1.23-1.45-.202 0-.496-.237-.653-.53-1.123-2.07-2.302-3.55-5.586-7.01-.62-.655-2.018-2.324-3.103-3.71-2.395-3.053-3.653-4.132-7.908-6.78-3.906-2.428-7.224-4.04-10.294-5a269.717 269.717 0 0 1-4.935-1.61c-2.506-.848-5.795-1.672-6.707-1.68-.217-.002-.003.236.477.53 1.408.857.57 1.39-1.214.767-.522-.183-.847-.494-.9-.86-.078-.552-.22-.58-3.432-.65-3.253-.07-3.346-.058-3.21.463.115.436.014.537-.534.537-.37 0-.955-.106-1.298-.236-.343-.13-1.54-.323-2.66-.428-1.845-.173-2.053-.145-2.216.303-.247.677-1.71 1.924-2.275 1.937-.634.015-.58-.49.133-1.26l.595-.642-1.19.18c-2.477.374-5.517 1.283-8.853 2.646-6.094 2.492-8.633 3.794-10.687 5.48-1.073.88-3.347 2.48-5.054 3.554-4.328 2.725-8.503 6.732-10.45 10.03l-.467.794.546-.662c.3-.364.798-.99 1.106-1.39.562-.728 1.314-.98 1.314-.438 0 .158-.695 1.146-1.545 2.194s-1.632 2.258-1.74 2.688c-.107.43-.487 1.166-.843 1.634-.69.908-.666 2.02.05 2.296.206.08.374.326.374.55 0 .716.37.434 1.72-1.312.728-.942 1.68-1.885 2.117-2.096.437-.21 1.39-.655 2.117-.987l1.322-.602-.86-.095c-.783-.086-.86-.174-.86-.994 0-.987.537-1.448 1.687-1.448.982 0 1.12-.51.188-.696-.443-.09-.928-.31-1.08-.49-.42-.508.254-.912 2.09-1.253.898-.167 1.612-.44 1.612-.614 0-.172.35-.776.78-1.342.43-.565 1.002-1.325 1.273-1.69.272-.363.83-1.59 1.238-2.726.488-1.355.963-2.21 1.38-2.484.813-.53 1.064-.283.644.64-.23.5-.242.75-.043.815.5.167.313.738-.636 1.933-1.165 1.468-.888 1.545 2.15.598 1.78-.555 2.487-.918 2.996-1.537 1.308-1.59 2.094-2.266 2.636-2.266.365 0 .55.17.55.51 0 .71-1.264 2.136-1.894 2.136-.39 0-.484.125-.367.494.12.373-.04.576-.652.83-.445.183-.757.386-.694.45.062.063.6-.133 1.192-.436 1.01-.514 1.927-.713 2.545-.55.71.184 1.355-.052 1.59-.583.155-.347.643-.69 1.188-.838.67-.18 1.588-.955 3.304-2.785 4.116-4.39 7.19-7.37 8.068-7.825.887-.46 1.383-.35.847.187-.172.173-.313.58-.313.907 0 .327-.265.78-.588 1.006-.746.523-1.1.526-.902.01.314-.818-.792.1-2.842 2.357-1.124 1.24-2.095 2.518-2.158 2.844-.062.326-.86 1.27-1.773 2.102l-1.66 1.508.888.234c.774.204 1.226.072 3.522-1.03 1.448-.695 2.685-1.264 2.75-1.264.063 0 .116.15.116.33 0 .328-1.468 1.644-2.466 2.212-.476.27-.45.315.35.594.957.334 1.595 1.032 1.403 1.533-.07.18-.502.414-.963.522-.89.207-3.702.17-4.476-.062-.655-.196-.574-1.026.133-1.367l.595-.286-.6-.018c-.328-.01-.805.086-1.057.214-.896.453-2.362.826-3.257.83-1.62.007-1.773.317-.88 1.763l.79 1.276 2.778.035c1.528.02 3.487.18 4.354.36 2.22.454 6.05 1.984 7.934 3.167 2.83 1.778 9.74 5.713 11.237 6.4.8.368 2.246 1.275 3.21 2.017 1.252.96 1.914 1.306 2.308 1.203.325-.085 1.274.193 2.31.678.966.453 1.916.823 2.11.823.527 0 1.18 1.08 1.028 1.703-.098.405.07.66.655.99.735.412.782.53.69 1.754-.097 1.308-.093 1.314.97 1.793 2.218 1 3.512 2.992 1.36 2.092-.52-.217-.996-.394-1.06-.394-.226 0 1.37 2.02 2.717 3.44 2.007 2.113 2.754 3.34 2.754 4.52 0 1.358-.452 1.55-.934.394-.252-.6-.573-.945-.885-.945-.27 0-.773-.217-1.12-.48a186 186 0 0 0-1.68-1.258l-1.05-.776.685 1.19c.377.655.94 1.696 1.253 2.314.498.985.628 1.086 1.058.818.424-.265.69-.096 1.98 1.257.818.86 1.49 1.76 1.49 2.002 0 .242.53.987 1.18 1.656 1.575 1.62 1.82 2.133 1.617 3.395-.185 1.157.14 1.787.923 1.787.695 0 .905.51.37.9-.432.317-.43.377.03 1.107.268.424 1.176 1.675 2.02 2.78.842 1.104 1.53 2.218 1.53 2.476 0 .393.152.44.93.295.81-.152 1.075-.05 2.115.82 1.456 1.217 1.542 1.85.282 2.088-.5.094-1.036.093-1.19-.003-.156-.096-.282-.067-.282.064 0 .132.453.375 1.008.54.554.167 1.29.603 1.633.97l.627.665-.774-.01c-.425-.004-1.07-.18-1.435-.386-1.707-.977-1.746.304-.057 1.83 1.203 1.086 1.623 2.056 1.143 2.635-.226.272-.195.444.13.712.607.505 2.225 3.09 2.225 3.558 0 .696-.56.422-2.163-1.064-.864-.8-1.67-1.454-1.79-1.454-.64 0 .758 2.41 2.632 4.533 2.28 2.58 2.71 3.668 1.456 3.668-.624 0-.582.096.8 1.818.802 1 2.17 2.378 3.04 3.06 1.158.91 1.58 1.415 1.58 1.887 0 .994-.61.792-2.53-.835-.958-.814-1.788-1.434-1.844-1.38-.126.126 3.646 4.91 4.448 5.644 1.97 1.802 2.905 3.565 1.89 3.565-.443 0-2.584-1.153-3.353-1.806-.69-.586-.59.042.234 1.447.383.655.722 1.63.752 2.167.072 1.274 1.606 6.424 2.242 7.523.272.47.792 1.987 1.156 3.37.364 1.382 1.208 3.91 1.875 5.616 1.285 3.284 1.523 4.702.79 4.702-.3 0-.37.137-.24.463 2.373 5.905 3.28 8.946 3.474 11.654.105 1.474.48 3.303 1.04 5.08.57 1.81.99 3.873 1.203 5.912.3 2.88.375 3.15.936 3.364.908.345 1.08 1.447.377 2.4-.49.662-.54.917-.314 1.632a10.6 10.6 0 0 1 .348 1.485c.064.5.39.072 1.518-1.984a258.96 258.96 0 0 1 3.525-6.14c1.148-1.938 2.236-4.094 2.417-4.792.453-1.745 3.802-6.526 6.704-9.57 2.008-2.106 3.867-8.116 3.007-9.723-.633-1.183-.86-.94-3.82 4.08-.95 1.614-3.372 5.45-5.382 8.522-2.01 3.073-4.095 6.306-4.634 7.186-.54.88-1.092 1.6-1.228 1.6-.766 0-.248-1.27 2.394-5.87 3.56-6.2 4.734-7.98 6.14-9.296.594-.557 1.862-2.394 2.822-4.09.96-1.692 2.054-3.31 2.434-3.593.65-.485.73-.49 1.358-.08.836.548 1.335 2.28 1.076 3.735-.105.587-.23 1.586-.277 2.22-.048.63-.46 1.94-.915 2.91-.455.967-1.008 2.295-1.23 2.95-.52 1.55-3.38 6.932-4.196 7.902-.825.98-7.437 12.298-8.982 15.376-.658 1.31-1.48 3.126-1.828 4.037-.347.91-.822 2.014-1.055 2.45-.233.437-.424.883-.425.992-.005.6.615-.06 2.12-2.25zm-3.823-25.836c-.08-.13 1.013-1.014 2.43-1.962 1.42-.95 3.823-2.687 5.34-3.863 2.712-2.1 3.193-2.386 3.193-1.892 0 .296-5.423 4.665-8.177 6.587-1.948 1.36-2.505 1.586-2.786 1.13zm1.587-7.145c-.322-.52 1.37-1.734 6.286-4.51 1.865-1.055 3.463-1.846 3.55-1.76.087.088.108.194.047.236-.06.042-.545.397-1.076.788-.53.392-2.317 1.5-3.968 2.462-1.65.962-3.24 1.96-3.53 2.215-.79.694-1.138.846-1.308.57zm17.62-8.426c-.132-.254-.44-1.16-.686-2.01-.697-2.427-1.626-4.324-3.08-6.286-1.533-2.066-1.608-2.77-.29-2.71.712.034.833-.04.71-.432-.165-.515.343-1.856.7-1.856.464 0 .184-1.2-.968-4.146-.655-1.675-1.124-3.155-1.043-3.287.082-.132.392-.24.69-.24.492 0 .467-.084-.28-.933-1-1.142-1.88-2.817-1.88-3.587 0-.473-.322-.268-1.87 1.194-1.856 1.75-3.51 2.797-3.862 2.444-.1-.1 1.132-1.425 2.74-2.946 3.534-3.343 3.884-3.968 3.635-6.496-.172-1.746-.153-1.846.362-1.846.432 0 .632.3.966 1.447.827 2.847.824 2.91-.202 3.692-.51.39-.992.87-1.068 1.07-.14.364.625 1.356 2.663 3.452 1.286 1.323 1.602 2.244 1.174 3.428-.473 1.307-.37 2.056.552 4.012.613 1.3.864 2.228.886 3.27.017.8.164 1.932.327 2.515.367 1.318 1.192 9.843 1 10.345-.2.516-.887.46-1.176-.094zm-18.8-27.146c.378-.334 1.807-1.004 3.175-1.49 3.514-1.25 4.197-1.635 5.535-3.124 2.34-2.606 2.64-3.155 2.457-4.517-.09-.675-.383-1.51-.652-1.858-.3-.386-.49-1.065-.49-1.753 0-.675-.157-1.254-.396-1.452-.474-.393-.505-1.12-.095-2.25.25-.697.203-1.126-.293-2.616-.558-1.676-.568-2.424-.027-1.863.558.58 2.134 5.855 2.134 7.143 0 .827.256 1.977.662 2.976.363.894.66 2.03.66 2.52 0 1.093-1.505 3.794-2.248 4.034-.29.094-.767.383-1.058.643-.778.694-8.667 4.23-9.415 4.22l-.64-.007zm7.277-22.606c-.592-1.147-1.274-4.053-1.126-4.803.073-.372-.066-1.356-.31-2.187-.328-1.127-.575-1.53-.97-1.588-.455-.065-.525-.26-.487-1.345.05-1.436.493-2.206 1.02-1.768.336.28.617 1.31.753 2.773.04.436.572 2.08 1.18 3.65 1.23 3.187 1.268 3.36.71 3.36-.33 0-.31.212.13 1.324.517 1.313.517 1.323.002 1.323-.3 0-.68-.31-.9-.74zm-6.457-8.856c-.412-.496-.9-2.65-.8-3.526.054-.478.262-.798.556-.854.405-.077.446.05.304.94-.15.935.037 2.06.548 3.312.22.534-.2.623-.61.128zm2.758-6.418c-.51-.512-.957-1.51-.957-2.144 0-.615.483-.168 1.077.997.63 1.236.57 1.835-.12 1.147zm-3.195-2.754c-.195-.317.302-.63.655-.413.296.183.1.66-.27.66-.128 0-.3-.112-.385-.247zm-26.015-.93c-.365-.466-.786-.676-1.352-.676-.906 0-1.134-.593-.388-1.01.562-.315.277-1.762-.303-1.54-.537.207-1.496-1.117-1.4-1.933.11-.94.794-.852 1.24.16.2.458.648.96.992 1.118.342.156.623.413.623.57 0 .16.21.262.463.23.58-.07 1.39.268 1.39.582 0 .13-.18.237-.397.237-.527 0-.503.168.15 1.085 1.004 1.41.04 2.524-1.02 1.177zm25.405-2.594c-.794-1.34-1.174-2.473-1.057-3.15.086-.493.308-.195 1.08 1.445.535 1.137.973 2.178.973 2.316 0 .525-.506.215-.995-.61zM151.74 51.17c1.683-1.29 11.36-5.897 11.692-5.565.09.088-1.934 1.166-4.496 2.395-2.562 1.23-5.108 2.54-5.658 2.914-.55.374-1.24.676-1.535.67-.533-.007-.533-.008-.005-.413zm-6.122-4.754c-.655-.695-.89-1.186-.89-1.853 0-1.577.99-1.053 1.928 1.02.887 1.964.398 2.355-1.038.833zm23.602-3.258c-.182-.294 1.3-1.35 1.897-1.353.18 0 .477-.24.66-.53.18-.29.46-.53.617-.53.543 0 1.437 1.227 1.437 1.97 0 .72-.034.74-.99.553-1.268-.246-1.603-.248-2.615-.014-.51.118-.895.08-1.005-.096zm-1.645-5.724c-.21-.546.51-1.186 1.335-1.186.445 0 .35-.188-.58-1.135-1.024-1.043-1.452-2.04-.874-2.04.338 0 2.733 2.54 3.158 3.35.455.868.22 1.074-1.475 1.297-1.183.156-1.41.114-1.565-.286zm-2.53-6.418c-.213-.25-.904-1.206-1.535-2.12-.85-1.232-1.256-1.618-1.565-1.482-.83.365-1.74.254-1.74-.21 0-.517 2.187-2.076 2.658-1.895.175.066.534.598.797 1.18.262.584.873 1.674 1.356 2.424.873 1.356 1.086 2.147.65 2.417-.128.08-.406-.063-.62-.314zm-34.076-3.258c-2.546-1.522-3.97-2.766-3.97-3.468 0-.623.332-.605.924.05.262.29 1.5 1.23 2.753 2.087 4.05 2.776 4.253 3.7.292 1.33zm-7.142-.37c-.463-.558-.134-1.194.618-1.194.545 0 1.506.692 1.203.866-1.475.848-1.4.835-1.822.328zm-7.94-5.414c-2.476-1.098-2.94-1.758-1.19-1.695.58.02 1.592.158 2.246.306 1.388.314 1.59.237 1.59-.604 0-.724.455-.967 1.146-.61.268.137.506.21.53.162.412-.83.74-1.158 1.397-1.392.434-.156 1.795-1.07 3.025-2.035 4.673-3.662 9.776-6.414 9.776-5.272 0 .138-.803.697-1.786 1.24-4.12 2.285-8.668 5.52-8.99 6.398-.447 1.21-2.3 3.432-3.138 3.76-.496.196-.902.452-.902.57 0 .47-1.567.12-3.704-.83zm43.054.49c-.258-.15-1.2-.354-2.095-.454-.894-.1-1.673-.324-1.73-.498-.12-.363 1.814-1.668 2.472-1.668.588 0 2.218 1.762 2.218 2.4 0 .572-.182.62-.866.22zm-47.027-2.686c-.005-.73-.25-1.11-.856-1.334-.256-.094-.464-.428-.464-.742 0-.526.105-.56 1.323-.444 1.134.11 1.322.06 1.322-.34 0-.446 2.24-2.378 4.31-3.718.54-.348.924-.78.857-.96-.067-.18.103-.446.376-.592.35-.187.528-.177.598.032.055.166 1.15-.448 2.47-1.386 1.61-1.146 2.22-1.715 1.905-1.776-.678-.132-.57-.646.315-1.493.622-.595.94-.715 1.565-.59.523.105.89.03 1.105-.23.176-.21.424-.384.552-.384.408 0 .25.78-.256 1.258-2.606 2.47-4.695 4.162-7.776 6.3-3.515 2.436-4.702 3.555-3.774 3.555.635 0 .78.753.26 1.33-.67.74-2.872 2.11-3.39 2.11-.28 0-.443-.218-.445-.595zm5.03.217c0-.245.227-.416.552-.416.645 0 .554.617-.11.746-.26.05-.44-.084-.44-.33zm-33.317-.668c-.418-.258-.15-.806.393-.806.403 0 .53.67.17.894-.115.072-.368.032-.562-.087zm69.566-3.206c-1.21-.777-3.238-1.303-5.028-1.303-.565 0-1.257-.213-1.618-.498-.348-.274-.87-.544-1.16-.6-.914-.175-.578-.858.794-1.614 1.5-.827 2.67-.876 2.605-.108-.05.586.954 1.658 1.446 1.545.748-.172 3.046.847 4.036 1.79 1.77 1.683 1.09 2.182-1.076.788zm-39.952-3.685c0-.338 1.554-1.883 3.577-3.557.87-.72 2.087-1.786 2.704-2.37.777-.732 1.21-.975 1.4-.785.188.19-.874 1.31-3.442 3.626-3.522 3.176-4.24 3.7-4.24 3.085zm27.895-2.58c-.4-.28-1.213-2.432-1.03-2.73.265-.427.76-.256 1.53.53.54.55.725.973.663 1.513-.086.746-.625 1.065-1.163.687zm-12.285-2.16c0-.282 1.873-1.345 2.37-1.345.533 0 .268.52-.452.886-1.146.583-1.918.768-1.918.46zm-23.548-.823c0-.427 2.322-2.64 2.77-2.64.748 0 .414.742-.823 1.83-1.192 1.05-1.946 1.364-1.946.81zm29.835-1.394c-1.06-.623-1.31-1.245-.506-1.245.58 0 2.2 1.047 2.356 1.522.167.51-.75.373-1.85-.277zm-.102 161.276c-.258-1.082-.24-1.072-1.952-1.072-1.24 0-1.588.088-1.588.4 0 .29.175.354.647.236.41-.103.726-.032.86.193.28.47 1.154.953 1.74.963.376.006.433-.133.293-.72zm-63.57-.218c.593-.374 1.01-.747.93-.83-.252-.25-1.618.437-1.962.99-.427.683-.263.658 1.032-.16zm68.107.404c.212-.343-.344-1.046-.828-1.046-.286 0-.298.133-.057.66.322.708.61.833.885.386zm13.567-.786c.682-.794.935-1.4 1.144-2.748.323-2.07.237-2.924-.298-2.972l-.737-.066c-.185-.017-.424-.264-.53-.55-.137-.37-.3-.45-.578-.278-.336.207-.327.405.07 1.51.52 1.455.578 2.198.17 2.198-.157 0-.038.314.263.697 1.1 1.4.403 1.93-.993.756l-.79-.663-.686.816c-.377.45-.686.913-.686 1.032 0 .235 2.086 1.31 2.513 1.296.146-.004.658-.466 1.14-1.027zm-6.208-.056c.435-.326.443-.4.08-.703-.7-.58-1.356-.253-1.404.697-.045.906.12.906 1.324.005zm-4.712-.323c1.237-.517 1.156-.718-.207-.51-1.306.2-1.368.235-1.135.61.222.36.245.358 1.342-.1zm-76.19-.574c.5-.38.908-.782.908-.89 0-.22-2.118-.62-2.302-.436-.14.14.198 2.02.364 2.02.067 0 .53-.312 1.03-.693zm11.946-.776c-.032-.024-.505-.112-1.05-.196-.758-.117-.993-.063-.993.227 0 .21.24.38.53.38.29 0 .53.118.53.262 0 .144.233.062.52-.184.287-.245.495-.465.463-.49zm20.83.088c.484-.693.55-1.245.093-.788-.173.175-.74.322-1.255.326l-.94.01.625.52c.794.66.972.653 1.477-.068zm1.998.176c0-.227-.12-.34-.264-.25-.146.09-.265.276-.265.413 0 .138.12.25.265.25.145 0 .264-.186.264-.412zm37.57-.613c0-.128-.073-.602-.163-1.054l-.165-.82-.76.542c-.92.653-.947.865-.168 1.24.74.36 1.257.396 1.257.093zm3.136-.185c.285-.238-.365-.642-1.034-.642-.728 0-1.037.446-.606.877.15.15 1.392-.027 1.64-.235zm-10.455-.48c.227-.347.34-.704.25-.793-.23-.23-1.13-.202-1.136.036 0 .11-.074.466-.162.793-.22.82.505.794 1.05-.035zm48.303-1.42c.456-.908.78-1.653.72-1.653-.254 0-1.75 2.603-1.75 3.044 0 .633.052.562 1.03-1.39zm-44.886.29a1.02 1.02 0 0 0-.66 0c-.183.072-.034.132.33.132s.512-.06.33-.133zm13.084-.54c1.646-.518 1.787-1.103.355-1.474-1.243-.322-3.023-.018-3.595.614-.537.594-.528.61.54.988 1.083.38 1.09.38 2.7-.127zm-6.006-.294c0-.263-.17-.71-.377-.992-.367-.5-.4-.49-1.21.28l-.833.794.747.167c1.338.3 1.672.25 1.672-.25zM64.558 161c0-.486-.14-.663-.53-.663-.65 0-.694.67-.065 1.038.62.36.595.375.595-.376zm114.28-.398c.296-.624.29-.632-.097-.148-.226.283-.41.63-.41.772 0 .336.12.186.507-.624zm-45.356 0c-.09-.145-.752-.265-1.47-.265-.72 0-1.308.12-1.308.265 0 .146.662.265 1.47.265.914 0 1.41-.1 1.308-.265zm5.58-.93c.913-.75 1.152-1.125 1.218-1.92.07-.855.178-.997.81-1.07.442-.05.727-.243.727-.49 0-.282-.145-.353-.463-.23-.255.1-1.023.247-1.706.328-1.22.146-1.24.164-1.084.95.155.774.135.794-.652.637-.87-.175-1.194.06-1.51 1.09-.21.683.448 1.635 1.13 1.635.216 0 .905-.42 1.53-.93zm-6.175-2.134c.982-.417 1.786-.85 1.786-.964 0-.305-2.768-.25-4.084.083-1.205.303-1.738.984-1.738 2.22v.63l1.125-.606c.618-.332 1.928-.946 2.91-1.362zm2.315.796c0-.493-.082-.482-1.4.19-.946.484-1.036.596-.6.75.63.22 2-.423 2-.94zm9.947-.333c.512-.73.278-1.072-.43-.63-.284.177-.806.322-1.16.322-.697 0-1.48.62-1.48 1.17 0 .583 2.562-.137 3.07-.86zm3.81.567c0-.683-.015-.69-.388-.198-.5.66-.502.91-.008.91.254 0 .397-.256.397-.713zm9.79.448c0-.146-.052-.265-.117-.265-.064 0-.19.12-.28.265-.09.145-.037.264.117.264s.28-.12.28-.265zm-11.443-1.144c.546-.49.81-1.237.44-1.237-.194 0-1.077 1.018-1.463 1.686-.342.59.07.41 1.023-.45zm9.795.285c1.264-.666 1.39-1.342.273-1.472-.828-.095-1.8.735-1.8 1.538 0 .67.145.665 1.527-.065zm-4.953-2.25c.482-1.127 1.098-2.372 1.368-2.767l.49-.717-1.068-.544-1.07-.545v.535c0 .294-.165.535-.368.535-.488 0-.69.586-.69 2.006 0 .652-.124 1.17-.282 1.17-.274 0-.202.412.31 1.785.124.328.27.596.327.596.057 0 .498-.922.982-2.05zm2.896.33c.364-.183 1.048-.415 1.52-.517.474-.102.86-.285.86-.406 0-.122-.484-.606-1.078-1.076-1.055-.836-1.09-.844-1.558-.353-.264.276-.728 1.074-1.03 1.773l-.55 1.272.587-.18c.323-.1.885-.33 1.25-.513zm-8.202-.395a.265.265 0 0 0-.265-.265.265.265 0 0 0-.265.265c0 .145.12.264.264.264.145 0 .264-.12.264-.264zm37.884-5.028c4.295-6.965 4.244-6.88 4.068-6.88-.204 0-2.46 3.502-4.773 7.41-2.613 4.412-2.9 4.924-2.59 4.63.153-.146 1.636-2.467 3.295-5.16zm-84.84 4.038c-.343-1.367-1.117-1.422-1.65-.117l-.344.842h1.088c1.054 0 1.082-.023.906-.725zm30.644.055c-.21-.547-.357-.482-.357.156 0 .3.114.476.253.39.14-.086.186-.33.104-.545zm10.756.405c0-.145-.127-.264-.28-.264-.155 0-.207.12-.117.264.09.146.217.265.28.265.065 0 .118-.12.118-.265zm2.5-2.73c.635-1.086.84-1.254 1.368-1.122.6.15.615.115.47-1.105-.234-1.966-.296-2.07-.906-1.518-.29.26-.495.657-.458.878.04.24-.198.468-.59.564-.923.226-1.318 1.178-1.32 3.18-.003 1.577.026 1.666.342 1.06.19-.364.682-1.236 1.094-1.938zm5.966 1.937c0-.146-.126-.265-.28-.265-.154 0-.207.12-.117.265.09.145.216.264.28.264.065 0 .117-.118.117-.263zm-10.104-.513c.066-.198-.033-.298-.23-.23a.828.828 0 0 0-.464.462c-.066.198.033.297.23.23.192-.063.4-.27.464-.462zm-44.01-.53c.272-.528.31-.835.12-.953-.363-.224-.412-.156-.632.872-.23 1.07-.018 1.104.51.08zm53.26-.545c.182-.294.215-.53.072-.53-.142 0-.385.238-.54.53-.156.29-.19.528-.074.528s.36-.238.54-.53zm7.91-1.434c-.224-.585-.706-.524-.706.09 0 .278-.076.724-.17.99-.145.418-.084.406.435-.088.36-.343.537-.74.44-.992zm-8.422.573c.47-.902.04-2.11-.832-2.344-.85-.227-.882-.034-.29 1.7.473 1.39.673 1.504 1.122.643zm11.42.206c0-.236-.155-.33-.395-.237-.217.083-.33.257-.25.388.232.373.645.276.645-.152zm-8.358-4.083c.298-.33.358-.563.173-.677-.357-.22-.732.01-1.083.665-.372.697.284.705.91.013zm5.365-.072c.337-.316.612-.67.612-.786 0-.196-1.378-1.02-1.707-1.02-.196 0-.185 1.44.016 1.963.21.55.348.53 1.08-.156zm-59.818-.503c-.127-1.094-.54-1.49-1.085-1.04-.374.312-.343.427.303 1.1.397.415.756.754.8.754.042 0 .034-.365-.018-.813zm4.02-.297c.066-.336-.08-.426-.592-.37-.88.092-1.16.387-.67.702.55.352 1.162.19 1.263-.332zm52.068-.673c-.29-.29-.487.17-.28.648.197.454.21.453.32-.01.064-.265.045-.552-.04-.638zm11.354.46c.483-.207.472-.227-.134-.24-.364-.01-.84.1-1.058.24-.328.213-.305.255.132.243.29-.008.768-.117 1.06-.242zm-60.715-1.072c.23-.43.188-.514-.264-.514-.4 0-.537.173-.537.678 0 .736.36.663.802-.163zm44.882-1.028c.2-.777.6-1.95.89-2.607.29-.657.482-1.24.425-1.298-.208-.207-1.755 1.996-1.755 2.498 0 .284-.25.74-.554 1.017-.995.9-1.132 1.412-.45 1.684.913.366 1.05.243 1.444-1.293zm-52.488-.6c.615-.662.723-.985.66-1.99-.074-1.178-.1-1.21-1.64-1.955-.86-.417-1.79-.963-2.066-1.213-.433-.393-.536-.402-.747-.07-.134.214-.246.636-.248.94-.003.303-.372.878-.82 1.278-.45.4-.752.792-.672.872.08.08.794-.118 1.587-.44 1.727-.7 2.72-.656 2.59.12-.05.29-.44 1.098-.865 1.795-.62 1.014-.72 1.37-.496 1.788.265.494.32.5 1.13.09.466-.236 1.18-.784 1.585-1.218zm-.867-2.19c-.265-.32-.248-.425.087-.553.517-.2.968.064.968.565 0 .496-.64.49-1.055-.013zm4.74 1.618c-.248-.23-.283-.187-.152.186.095.268.19.744.212 1.06.028.404.073.35.153-.187.062-.418-.032-.894-.21-1.058zm49.942 1.107c-.085-.21-.147-.148-.16.16-.01.28.05.435.14.347.087-.09.096-.317.02-.508zm12.882.423c.328-.126.346-.252.094-.655-.24-.385-.237-.573.014-.823.475-.475.436-1.17-.042-.773-.292.242-.4.173-.53-.343-.09-.355-.1-.812-.02-1.014.173-.452-.54-2.22-.754-1.87-.086.137.013.956.218 1.818.206.862.38 2.074.384 2.692.01 1.2.016 1.207.637.97zm-1.788-.576c.44-.292-.005-1.25-.583-1.252-.346 0-.546-.247-.648-.795l-.15-.794-.16.786c-.12.594-.037.872.344 1.14.277.193.504.524.504.734 0 .418.236.48.69.18zm-8.1-1.444c0-.858.606-.987 1.374-.292.46.417.534.41 1.21-.095.667-.498.722-.682.722-2.403 0-1.675-.045-1.84-.45-1.62-.25.13-.53.657-.626 1.166-.134.712-.335.964-.872 1.097-1.01.248-2.34 1.334-2.523 2.06-.086.343-.227.807-.313 1.03-.134.352-.043.366.66.1.643-.242.817-.465.817-1.044zm4.045.852c-.154-.586-.478-.687-.757-.235-.1.162-.018.398.183.525.57.36.724.283.575-.29zm-68.29-2.44c-.47-.47-.38-1.025.28-1.743.56-.607.565-.636.067-.493-.29.084-.856.23-1.257.326-.693.166-1.03.646-.454.646.152 0 .524.422.828.937.304.517.62.872.7.79.082-.08.008-.288-.164-.46zm69.994-2.436c-.295-.22-.403-.518-.293-.805.156-.407.113-.418-.392-.103-.458.286-.568.612-.568 1.675v1.32l.86-.87c.8-.81.828-.893.392-1.218zM85 137.914c-.512-.39-1.127-.435-1.127-.083 0 .137.12.565.268.952l.268.704.513-.62c.473-.57.48-.648.08-.952zm77.866-1.004c-.096-.515-.1-1.177-.007-1.47.138-.436.238-.472.563-.203.564.468.94-.182.77-1.335-.15-1.036-.5-1.49-.938-1.218-.213.132-.177.28.124.5.38.28.34.43-.382 1.427-.903 1.247-.95 1.502-.477 2.522.45.966.556.897.347-.222zm-72.828-.833l.846-.447-1.152-.205c-.634-.113-1.32-.343-1.522-.51-.603-.502-.46.46.16 1.08.64.64.614.64 1.668.082zm82.417-1.664c-.32-1.065-.627-1.8-.683-1.633-.112.338.994 3.84 1.16 3.674.058-.058-.157-.976-.477-2.04zm-88.41 1.196c-.268-.205-.665-.304-.88-.22-.322.122-.33.192-.042.374.194.123.59.222.882.22.51-.005.512-.018.04-.375zm-5.184-1.173c-.357-.67-1.246-1.185-1.456-.844-.146.236 1.46 1.68 1.654 1.485.052-.052-.036-.34-.197-.64zm6.865-.03c0-.616-.334-.684-.772-.157-.237.285-.23.403.033.51.614.245.74.185.74-.352zm-2.447-1.742c.522-.338.817-.903.472-.903-.068 0-.693.37-1.39.824-1.102.717-1.163.8-.47.643.435-.1 1.06-.354 1.388-.565zm79.176-.11c0-.144-.052-.263-.117-.263-.064 0-.19.12-.28.264-.09.146-.037.265.117.265s.28-.118.28-.264zm-81.603-.798c.135-.003.542-.24.906-.525l.662-.52-1.72.166c-.946.09-1.766.204-1.822.252-.056.048.102.398.352.78.418.637.49.658.916.272.255-.23.573-.422.707-.425zm86.61-1.33c-.547-.338-.804-.012-.477.6.278.52.315.525.56.085.19-.338.166-.532-.085-.686zm-1.83-.038c0-.35-.602-.13-.734.265-.064.193.056.252.314.153.23-.088.42-.277.42-.42zm-2.382-.246c0-.146-.12-.19-.265-.1-.145.09-.264.28-.264.427 0 .146.118.192.263.102.146-.09.265-.283.265-.428zm-80.75-1.08c.07-.593 0-.658-.595-.544-.768.147-.78.173-.393.895.367.687.886.503.988-.35zm86.042.317c0-.144-.127-.263-.28-.263-.155 0-.207.12-.117.264.09.147.216.266.28.266.064 0 .117-.12.117-.265zm-1.257-1.575c1.102-.352 1.155-.455.622-1.216-.204-.292-.452-1.24-.55-2.11-.26-2.267-.36-2.507-1.047-2.507-.518 0-.675.236-1.054 1.586-.245.872-.43 2.152-.412 2.844.02.69-.053 1.606-.158 2.03l-.192.775.9-.544a10.75 10.75 0 0 1 1.89-.86zm-87.794.02c.078-.13-.093-.298-.382-.373-.537-.14-.914.13-.608.437.246.244.82.207.99-.066zm-5.996-.775c.057-.173-.084-.315-.315-.315a.42.42 0 0 0-.42.42c0 .467.57.385.734-.105zm-7.877.063c0-.083-.165-.315-.366-.516-.458-.46-.772-.197-.345.29.325.37.712.493.712.226zm97.07-1.568c.005-.437-.156-1.15-.356-1.588-.355-.777-.362-.76-.384.84-.01.896.06 1.84.158 2.096.165.432.193.428.378-.045.11-.28.203-.867.206-1.303zM77.385 89.628c.192-1.63-.177-3.104-1.535-6.13-.934-2.082-.95-2.1-2.346-2.54-.773-.242-2.298-.87-3.39-1.394-2.385-1.145-5.344-1.502-7.54-.91l-1.323.357-.227 1.503c-.125.825-.15 1.806-.058 2.18l.17.677 2.246-.182c1.914-.155 2.32-.116 2.745.27.274.247 1.404.607 2.512.8 2.012.35 2.8.72 2.8 1.32 0 .176.745.926 1.654 1.667.91.74 2.13 1.888 2.713 2.548.582.66 1.14 1.207 1.238 1.213.1.006.254-.614.344-1.378zm-11.057-.75c.433-.434.097-1.3-.505-1.3-.37 0-.48.122-.366.418.088.23.16.587.16.793 0 .446.313.485.71.088zm130.19-12.23c.328-.296.548-.586.49-.643-.16-.16-2.803 1.233-2.803 1.478 0 .746.95.403 2.314-.834zm-45.44-7.03c0-.254-.365-.812-.812-1.24l-.812-.777.283.73.547 1.404c.283.725.794.652.794-.115zm-86.804-7.812c.307-1.004.496-1.887.42-1.962-.073-.075-.135.003-.135.172 0 .17-.22.53-.492.8-.302.303-.542 1.023-.624 1.87-.168 1.75.122 1.442.83-.88zm1.51-13.453c.303-1.814 2.142-8.214 3.022-10.518.897-2.348.19-1.222-2.076 3.308-2.316 4.626-3.02 6.508-2.497 6.682.174.058.442.573.595 1.143.154.57.37 1.038.48 1.038.11 0 .324-.744.476-1.653zM186.33 44.56c1.97-1.3 5.376-3.02 5.974-3.02.2 0 .683-.19 1.075-.42l.71-.42-.87-.924c-.78-.825-1.048-.936-2.523-1.037-.91-.064-2.248.02-2.975.187-1.454.333-5.4 1.894-6.467 2.56l-.753.468c-.27.164 3.26 3.818 3.69 3.818.162 0 1.124-.546 2.137-1.214zm-48.636-1.074c.19-.494.218-.45-.574-.862-.683-.355-.708-.3-.288.623.355.78.625.854.862.24zm-67.848-2.16c-.004-.386-.04-.393-.26-.05-.335.517-.335.867 0 .66.145-.09.262-.364.26-.61zm65.356-2.29c0-.214-.238-.516-.53-.67-.61-.33-.66-.203-.2.53.387.62.73.686.73.14zm-60.457-1.2c.09-.146.037-.265-.117-.265s-.28.12-.28.265c0 .146.052.265.117.265.064 0 .19-.12.28-.265zm-4.36-2.83c.742-1.17 1.08-2.096.56-1.523-.417.455-1.678 2.765-1.51 2.765.09 0 .517-.56.95-1.243zm18.49-13.36c.202-.99.992-1.324 1.495-.636.372.51 1.21.286.997-.265-.08-.21.017-.578.215-.822.32-.393.3-.418-.168-.22-.29.12-1.065.24-1.72.262-1.026.036-1.24.145-1.553.79-.198.41-.704.875-1.123 1.034-.97.365-.996.79-.035.59.4-.085.902-.042 1.117.096.488.314.556.24.775-.83zm5.052.58c1.383-.288 2.9-.525 3.374-.527.833-.004 1.203-.555.616-.918-.134-.083-.323-.51-.42-.95-.165-.754-.228-.788-1.144-.624-1.56.28-4.725 1.95-4.37 2.308.098.097-.038.415-.302.707-.265.292-.433.53-.374.528.06 0 1.24-.238 2.62-.525zm69.674-3.837c-1.285-.63-2.358-1.125-2.385-1.1-.027.028.347.523.83 1.103.824.987.975 1.057 2.387 1.097l1.506.043zM62.91 245.6c-.223-.255-.907-1.476-1.52-2.713-2.158-4.36-4.433-6.88-6.21-6.88-.573 0-1.48.53-3.312 1.934-3.4 2.606-5.35 3.746-7.512 4.4-2.433.735-2.9.7-5.124-.38-2.16-1.047-2.304-1.065-4.307-.53-.8.214-1.664.324-1.918.244-.695-.218-.58-1.517.217-2.465.678-.806.694-.81 3.083-.74 2.186.065 2.42.123 2.613.643.263.714 1.54 1.393 2.615 1.393 1.847 0 5.585-1.708 8.34-3.81.58-.444 2.083-1.786 3.336-2.982 2.2-2.098 3.088-2.62 4.118-2.42.386.075.486.35.494 1.367.01 1.216.085 1.344 1.63 2.774 3.38 3.13 5.828 8.297 4.728 9.976-.508.774-.727.807-1.27.19zm92.512-1.832c-.256-1.707.04-6.937.534-9.43.225-1.135.9-3.754 1.497-5.82.746-2.573 1.165-4.645 1.333-6.584.29-3.33.71-4.728 1.554-5.154.448-.227.987-1.233 1.987-3.704 3.05-7.544 4.45-10.14 5.47-10.14.568 0 .077 2.146-1.22 5.337-5.606 13.778-8.232 22.698-9.294 31.572-.227 1.892-.534 3.826-.684 4.3-.4 1.264-.96 1.086-1.178-.377zM46.567 230.092c0-.482 1.188-3.3 3.03-7.18 2.225-4.696 3.15-7.038 4.232-10.716a247.63 247.63 0 0 1 1.644-5.375c.67-2.06.676-2.63.018-2.084-.664.55-4.85 2.237-9.322 3.755-2.474.84-5.98 2.084-7.793 2.764-5.246 1.97-8.767 2.942-15.932 4.4-9.817 2-12.5 2.993-16.844 6.247-2.035 1.525-3.598 2.326-4.024 2.063-.567-.35-.18-1.292 1.072-2.616l1.324-1.4-.834-.24c-.46-.13-.965-.452-1.126-.71-.56-.904.344-1.345 7.645-3.73 2.48-.812 4.71-1.343 6.747-1.608 3.952-.515 5.978-1.05 13.494-3.572 9.403-3.154 10.893-3.535 13.054-3.34 1.577.143 2.12.06 4.233-.648 1.333-.446 4.015-1.593 5.96-2.55 3.644-1.79 4.25-2.266 7.048-5.52 1.485-1.727 2.99-2.776 5.13-3.577 1.268-.474 1.61-.504 2.73-.236 1.215.292 2.008 1.02 1.683 1.545-.076.123-1.033.28-2.126.35-2.396.155-4.3 1.146-4.718 2.458-.352 1.103-1.39 2.43-2.44 3.118-1.125.74-1.384 1.3-3.623 7.862-2.4 7.028-4.086 11.2-6.317 15.61-1.704 3.37-3.036 5.292-3.667 5.292-.154 0-.28-.162-.28-.36zM91.61 174.56c.116-.356 1.38-.843 2.942-1.136 1.368-.257 1.297.48-.1 1.04-1.296.518-3 .575-2.842.095zm6.286-2.378c0-.442 1.62-2.055 2.063-2.055.464 0 .392.34-.287 1.35-.62.92-1.777 1.38-1.777.705zm-23.102-.374c-.407-.407-.17-1.152.366-1.152.412 0 .527.143.463.575-.088.598-.513.894-.83.578zm-2.018-2.323c-.618-.745.956-2.726 1.63-2.052.135.136.09.696-.11 1.332-.357 1.148-.937 1.422-1.52.72zM84.93 146.05c0-.146.127-.265.28-.265.156 0 .208.12.118.265-.09.146-.216.265-.28.265-.064 0-.117-.12-.117-.265zm-19.695-11.352c-.236-.383.05-.82.538-.82.214 0 .755-.416 1.202-.925.494-.562 1.056-.926 1.432-.926.69 0 .766.084 1.017 1.135.156.653.077.78-.69 1.1-1.284.534-3.284.784-3.5.436zm3.82-1.465c0-.28-.507-.396-.658-.152-.09.15.02.27.247.27s.412-.053.412-.117zm16.86-6.543c-.258-.196-.496-.712-.528-1.147-.047-.634.056-.808.52-.874.316-.046.935.102 1.374.33 1.71.884 4.162.2 6.118-1.704 1.57-1.53 1.802-2.272 1.198-3.853-.725-1.898-2.638-4.492-3.263-4.423-.723.08-1.013-.726-.326-.905.343-.09.502-.332.464-.704-.04-.417.092-.567.508-.574.31-.005.763-.172 1.004-.372.646-.537 1.124.032.527.628-.426.426-.425.477.017.896.443.42.46.41.327-.15-.2-.843.088-.904.967-.204.76.607.76 1.195-.004 1.195-.222 0-.35.148-.287.33.062.182.413.3.778.26.93-.1 1.48.594.806 1.015-.49.306-.49.332.005 1.332.76 1.54 1.518 4.723 1.242 5.23-.13.237-.424.86-.655 1.385-.53 1.197-1.04 1.46-3.838 1.978-3.34.62-6.38.763-6.954.33zm-16.618-4.267c-.202-.443-.72-.732-1.913-1.064-2.23-.622-2.846-.97-3.547-2.013-.475-.704-.855-2.406-.535-2.4.46.01 3.23 1.377 3.862 1.91.457.383 1.056.77 1.33.857.776.246 1.965 2.12 1.76 2.77-.23.72-.613.694-.957-.06zm13.197.186c-1.01-1.25-1.56-1.68-2.49-1.937-1.915-.532-2.92-.283-3.96.98l-.55.67-1.036-.506c-.794-.387-1.056-.683-1.123-1.265-.202-1.764.15-2.105 2.92-2.818 2.037-.525 6.038.055 7.848 1.14 1.564.936 2.04 1.653 1.784 2.678-.307 1.223-2.665 1.958-3.393 1.057zm30.748-24.07a78.185 78.185 0 0 1-4.047-1.037c-1.28-.366-2.73-.666-3.226-.666-.495 0-.98-.128-1.076-.286-.097-.156-.463-.213-.814-.125-.828.208-1.158-.594-.96-2.343.136-1.208.114-1.264-.424-1.093-.452.143-.567.07-.567-.358 0-.526-.203-.784-1.123-1.426-.432-.302-.42-.404.19-1.645.358-.726.655-1.458.66-1.624.004-.166.188-.372.408-.456.22-.085.516-.455.655-.822.14-.368.406-.672.592-.677.45-.01 1.334-1.25 1.13-1.58-.09-.145.13-.375.488-.51.36-.138.73-.377.828-.534.097-.157.29-.216.427-.13a.294.294 0 0 1 .097.403c-.084.135.026.426.245.646.355.354.427.347.66-.07.144-.255.537-.484.875-.506.338-.023 1.106-.226 1.707-.45.6-.227 2.148-.548 3.44-.714 1.29-.167 2.73-.467 3.202-.668.615-.262 1.05-.292 1.54-.106.374.142 1.03.26 1.457.26.426 0 .775.108.775.242s.625.45 1.39.704c2.133.706 4.58 1.858 5.946 2.798 1.46 1.003 3.778 3.37 3.778 3.853 0 .663-.562.313-2.583-1.61-2.365-2.254-3.088-2.66-7.367-4.137-2.938-1.015-3.28-1.077-5.13-.924-3.738.306-7.82 1.415-7.603 2.064.055.165-.296.818-.78 1.45-1.138 1.494-1.19 2.214-.09 1.29 1.473-1.24 3.578-1.862 6.355-1.88 2.44-.016 2.597.02 5.385 1.25 3.55 1.566 5.864 3.266 9.384 6.9 3.034 3.133 3.287 3.772 1.463 3.693-.996-.043-1.275-.25-3.716-2.752-2.417-2.48-2.848-2.8-5.13-3.827l-2.492-1.12-.18 1.89c-.1 1.038-.305 2.214-.456 2.613-.153.4-.21.902-.126 1.12.254.66-1.288 1.952-2.585 2.165-1.022.168-1.078.21-.492.378.364.104 1.525.2 2.58.216 1.085.013 1.918.14 1.918.29 0 .39-4.59.288-6.614-.15zm-5.318-3.488c-.015-.692-.104-1.528-.2-1.86-.15-.53-.242-.444-.79.75-.588 1.286-.595 1.373-.156 1.858.8.884 1.175.64 1.146-.748zm-4.48-4.398c-.008-.552-.016-.553-.397-.05-.54.713-.534 1.39.008.942.218-.18.393-.583.388-.892zm11.914.56c0-.4-1.04-1.098-1.278-.86-.093.094.127.397.49.675.786.604.788.604.788.183zm-9.26-5.22c0-.125.072-.414.16-.644.09-.23.026-.42-.14-.42s-.376.21-.468.464c-.09.255-.385.676-.653.937-.777.756-.562 1.073.307.453.437-.31.794-.666.794-.79zm28.84 12.35c-.66-.225-.952-.498-1.016-.948-.08-.56-.018-.608.53-.42.34.12 1.232.225 1.984.237 1.563.024 1.793.162 1.55.927-.203.642-1.51.73-3.048.204zm-34.462-2.483c-.255-.065-.55-.438-.654-.828-.3-1.105-.24-3.163.1-3.503.51-.508.884-.02.884 1.143 0 .878.17 1.273.857 1.98.713.736.79.927.463 1.134-.41.26-.865.28-1.65.074zm40.05-10.42c-.344-.138-1.058-.588-1.586-1-1.134-.882-2.383-1.556-7.177-3.87-1.965-.947-4.142-2.04-4.838-2.425-1.78-.988-4.52-1.154-6.837-.414-2.16.69-2.304.72-6.714 1.37-2.037.3-4.65.79-5.805 1.086-1.41.363-2.445.484-3.142.366-.688-.117-1.107-.07-1.235.136-.106.172-.64.414-1.19.538-.854.192-1.082.14-1.588-.366-.676-.676-1.99-4.388-1.99-5.622 0-1.102 1.472-2.284 2.72-2.184.47.037 1.39-.185 2.046-.494 1.802-.85 5.824-1.816 9.523-2.29 4.274-.547 10.93-.233 13.225.625a49.75 49.75 0 0 0 1.49.543c.02 0 .186.36.368.798.41.992 1.73 2.05 3.96 3.17 2.38 1.198 5.107 3.27 7.928 6.028 1.992 1.947 2.397 2.48 2.397 3.156 0 .498-.16.876-.417.974-.23.09-.44.153-.463.144l-.673-.268z"></path></svg>