<svg id="gwen-logo" xmlns="http://www.w3.org/2000/svg" data-image-path="_svgs/gwen-logo.svg" viewBox="0 0 508 97.895836"><title>The Pulp Tales of Gwendolyn Gween, P.I.</title><path d="M450.85 92.772l-1.984-.3.03-2.646c.017-1.455.46-8.42.984-15.478s.974-13.963 1-15.346l.047-2.513-3.015-.134c-2.814-.123-3.012-.167-2.97-.66.237-2.8.7-5.582.96-5.76.566-.388 12.025-.035 14.076.434 3.935.9 6.738 2.84 8.065 5.58 1.653 3.414 2.25 9.326 1.148 11.386-.727 1.363-1.74 2.293-3.396 3.12-1.803.9-3.205 1.25-6.477 1.615l-2.78.31-.077 4.49c-.048 2.803.082 6.03.347 8.59.233 2.256.494 4.905.58 5.887l.154 1.786-2.352-.03c-1.295-.018-3.247-.166-4.338-.33zm10.662-27.104c1.785-.79 2.134-1.64 1.98-4.824-.173-3.607-.712-4.54-3.41-5.9-1.403-.705-2.495-1.056-3.598-1.156l-1.584-.144-.183 1.422c-.506 3.933-.947 8.46-.95 9.772l-.006 1.47 3.273-.053c2.625-.043 3.51-.16 4.48-.587zM123.817 91.375c-.226-.062-2.128-3.657-4.288-8.106-5.36-11.04-7.677-16.31-9.184-20.894-.323-.983-.712-1.786-.864-1.786-.274 0-.185 7.228.22 17.77l.168 4.408-1.423.177c-.783.097-1.84.197-2.35.22l-.925.046-.17-1.983c-.21-2.45.47-26.477.756-26.724.114-.098 1.22-.088 2.457.023 1.236.11 3.517.21 5.068.222l2.82.02.797 1.92c.44 1.054.884 2.274.99 2.71.39 1.616 6.87 19.113 7.222 19.5.093.104.092-2.04-.002-4.76a592.37 592.37 0 0 1-.236-11.696l-.066-6.747.67-.332c1.035-.51 2.794-.494 3.32.033.4.4.454 1.23.484 7.254.023 4.64.214 8.737.6 12.89.314 3.346.643 8.238.735 10.87l.166 4.788-1.43.172c-1.526.183-4.868.186-5.537.005zm372.273-.842c-.525-.276-1.13-.903-1.406-1.454-.41-.82-.437-1.115-.176-1.905.388-1.177 1.41-2.405 2.452-2.943 1.035-.535 2.34-.327 3.65.58 2.09 1.45 2.085 4.72-.01 5.803-1.074.556-3.376.513-4.51-.082zm-8.86-.48c-1.018-.207-3.565-.52-5.66-.698l-3.807-.323-.356-1.19c-.358-1.2-.482-4.426-.21-5.44.113-.42.505-.62 1.667-.86.835-.174 1.8-.315 2.14-.315h.623l-.175-6.945c-.095-3.82-.174-9.308-.174-12.194v-5.25l-2.05.086-2.05.086-.177-1.45c-.095-.8-.246-2-.333-2.667l-.16-1.214 6.42-.172c3.532-.093 6.986-.248 7.677-.343l1.257-.172v2.28c0 2.64.233 2.46-3.373 2.63-1.2.055-2.228.15-2.283.21-.054.062-.23 3.564-.39 7.784-.267 7.013-.22 13.652.118 16.445l.133 1.1 3.006.187 3.008.187.175.933c.2 1.064-.078 4.644-.434 5.592-.173.458-.128.754.162 1.075.97 1.073-1.166 1.36-4.75.635zm-21.575-.153c-.827-.684-1.31-1.672-1.31-2.673 0-.814.185-1.212.898-1.925.74-.74 1.1-.9 2.016-.9.948 0 1.273.158 2.176 1.06.958.96 1.046 1.158.903 2.04-.24 1.472-1.414 2.505-2.995 2.633-.795.065-1.437-.025-1.69-.235zm-156.04-4.175c.067-2.328.072-4.233.012-4.233s-.606.354-1.212.788c-.606.433-1.875 1.112-2.82 1.508-1.556.652-2.04.722-5.042.734-3.317.012-3.322.01-5.337-.984-2.242-1.108-4-2.82-4.936-4.814-1.79-3.808-2.615-10.458-1.77-14.26 1.084-4.868 4.082-8.64 8.617-10.84 4.074-1.975 9.068-2.92 12.054-2.282.866.185 1.844.32 2.176.297 1.004-.068 1.21.96.898 4.452-.41 4.58-.82 5.255-2.65 4.368-3.52-1.706-9.613-1.573-12.983.283-1.385.763-2.538 2.17-3.708 4.53-.722 1.455-.812 1.897-.812 3.977 0 4.085.892 6.323 3.52 8.83 1.93 1.84 3.625 2.436 6.534 2.295 1.377-.067 2.57-.278 3.073-.543 1.046-.55 1.706-1.936 1.89-3.967l.144-1.593-3.572.19c-4.668.247-4.496.402-4.42-3.975.04-2.254-.042-3.382-.265-3.65-.534-.644.388-.912 4.198-1.22 3.776-.304 8.377.004 9.983.668.824.34.84.38.726 1.758-.236 2.823-.643 13.542-.643 16.888v3.433l-1.58.798c-.87.44-1.718.798-1.887.798-.226 0-.275-1.127-.185-4.233zM422.087 89c-.696-.696-1.685-2.78-4.44-9.36a587.44 587.44 0 0 0-2.927-6.88c-.544-1.237-1.804-4.57-2.8-7.408l-1.815-5.16.084 11.378c.045 6.257.177 11.585.292 11.84.114.255.36.463.548.463.282 0 .662.54.662.938 0 .49-4.725 1.53-5.31 1.17-.45-.28-.734-3.977-1.023-13.35-.16-5.155-.162-10.067-.006-13.217.188-3.8.17-5.228-.073-5.9-.267-.742-.256-.93.07-1.136.61-.386 3.895-.3 4.712.12.83.43 2.47 3.42 5.078 9.268 2.287 5.125 7.862 15.648 8.14 15.368.062-.06-.03-3.003-.2-6.54l-.527-10.93c-.21-4.336-.198-4.513.318-4.924.553-.44 2.696-1.03 3.737-1.03 1.18 0 1.224.27 1.224 7.282 0 8.617.44 19.594.934 23.267.214 1.594.39 3.476.39 4.18v1.282l-3.23-.056c-2.978-.05-3.274-.102-3.838-.665zm-285.505-.166c-.19-.23-.16-1.083.09-2.76.872-5.853 1.146-13.518.92-25.675l-.126-6.674-.748-.31c-.458-.19-.715-.474-.665-.735.07-.36.623-.438 3.65-.51 4.064-.095 7.194.25 10.675 1.183 4.166 1.115 5.13 1.95 7.182 6.237 1.384 2.89 1.714 4.64 1.717 9.09.004 6.873-1.858 12.83-4.787 15.312-1.9 1.61-6.44 3.296-12.096 4.49-3.545.75-5.393.86-5.812.352zm11.225-13.317c1.896-1.877 2.347-2.518 3.682-5.244 1.325-2.706 1.536-3.35 1.636-5.005.093-1.545.008-2.138-.456-3.17-.845-1.88-3.062-3.913-5.63-5.16-2.187-1.063-4.158-1.735-4.394-1.5-.236.237-.036 14.266.273 19.094l.306 4.814 1.21-.846c.666-.464 2.182-1.807 3.37-2.983zM261.852 87.47c-1.258-1.357-7.62-13.777-9.906-19.34-.916-2.226-1.636-3.675-1.64-3.3-.02 1.327.806 7.354 1.573 11.502.43 2.33.815 4.82.856 5.54l.073 1.306-2.066.325c-1.136.178-2.237.39-2.447.47-.21.082-.56.08-.78-.005-.457-.175-.536-1.063-.107-1.206.35-.117-.11-5.83-1.51-18.776-.53-4.9-.893-9.193-.805-9.543.166-.663.97-1.106 4.445-2.45 2.448-.945 2.836-.734 4.336 2.363.638 1.318 1.633 3.722 2.21 5.342 1.797 5.038 4.583 11.188 6.757 14.914l.695 1.19-.042-11.674c-.024-6.422.04-11.81.144-11.977.122-.196.933-.272 2.35-.218 3.084.12 3.05.02 2.473 7.202-.455 5.66-.588 16.252-.264 21.136.144 2.193.248 2.636.64 2.738.76.2.838.89.183 1.594-.46.494-3.83 2.328-6.352 3.458-.105.047-.474-.218-.818-.59zm97.72-2.312c.003-2.834.477-24.9.632-29.452l.07-2.106.827-.214c.454-.117 3.957-.182 7.783-.143l6.958.07v2.672c0 1.858-.108 2.803-.358 3.103-.303.366-1.11.443-5.29.504l-4.935.072-.213 3.27c-.118 1.798-.156 3.328-.085 3.4.07.07 1.356-.004 2.858-.166s3.535-.344 4.517-.406l1.786-.112v.896c0 .99-1.237 5.156-1.53 5.156-.103 0-1.885-.435-3.962-.966-2.077-.53-3.822-.918-3.88-.86-.055.06-.19 2.235-.296 4.837l-.194 4.732 1.823-.18c1.003-.097 3.527-.48 5.61-.852 2.08-.37 4.08-.6 4.44-.51.934.234 1.166 1.108 1.166 4.4v2.893h-1.52c-3.055 0-13.19 1.81-15.837 2.825-.305.117-.37-.395-.368-2.862zM30.66 87.65l-.96-.1-.185-2.607-.185-2.605-2.163 1.15c-2.524 1.34-4.088 1.75-6.704 1.76-6.317.022-12.104-5.21-13.63-12.317-.156-.733-.227-2.45-.155-3.814.12-2.292.222-2.665 1.343-4.908 3.294-6.59 9.847-11.122 19.187-13.272 1.74-.4 4.59-.44 4.96-.072.072.072-.18 1.188-.558 2.48-.525 1.787-.72 3.144-.812 5.658l-.12 3.307-.986-.086c-.542-.047-1.7-.277-2.572-.51-.873-.234-2.66-.434-3.974-.444-2.188-.017-2.534.054-4.174.86-2.05 1.01-3.87 2.97-5.11 5.51-.648 1.32-.755 1.858-.76 3.792-.004 1.895.107 2.494.7 3.756.94 2.007 2.51 3.656 4.52 4.744 1.463.793 1.883.896 3.638.895 1.714-.002 2.138-.1 3.107-.73 1.626-1.052 3.243-3.873 3.243-5.655v-.633l-2.88.174c-3.457.21-3.387.274-3.45-3.142l-.04-2.315h4.75c2.614 0 4.927-.067 5.142-.15.334-.128.41.82.547 6.68.086 3.758.23 8.17.322 9.808l.165 2.977-.625-.045a57.97 57.97 0 0 1-1.583-.146zm28.992-.17c-.82-2.396-2.582-8.048-3.165-10.156-.413-1.49-.838-2.712-.945-2.712-.106 0-.523.566-.924 1.257-.402.69-1.444 2.32-2.316 3.623-.872 1.302-1.967 3.244-2.433 4.316-.467 1.07-.954 2.042-1.083 2.16-.26.233-4.303.952-4.425.786-.536-.733-3.844-12.21-5.595-19.42-1.238-5.093-2.43-9.91-2.65-10.707-.22-.796-.398-1.64-.398-1.878 0-.728.917-1.32 3.755-2.42 3.535-1.372 3.8-1.427 4.025-.837.308.802 1.196 5.667 1.743 9.55.577 4.1 1.454 8.01 2.6 11.583l.76 2.38 2.02-4.08c1.11-2.245 2.124-4.19 2.254-4.32.408-.407 7.193-.302 7.614.12.208.207.54 1.714.778 3.524.228 1.738.44 3.185.47 3.215.028.03.846-2.47 1.815-5.552 1.036-3.298 2.207-7.784 2.845-10.897 1.276-6.238 1.397-6.59 2.203-6.407 1.03.235 6.063 2.25 6.36 2.548.406.407-.314 3.213-1.96 7.634-2.37 6.368-3.702 10.17-4.61 13.16-1.285 4.227-2.753 10.054-2.945 11.68-.09.777-.298 1.516-.46 1.644-.473.375-5.212.555-5.333.203zm323.187-1.794c-.008-1.216-.004-8.6.01-16.408.02-9.765-.06-14.253-.255-14.372-.547-.338 0-.6 1.64-.78 1.885-.207 6.255-1.27 10.916-2.65 4.643-1.377 4.374-1.487 4.357 1.77-.017 3.207-.547 6.77-1.053 7.084-.198.123-.545.126-.77.006-.887-.465-9.582.47-10.21 1.1-.048.047-.17 1.134-.275 2.415l-.19 2.33 1.69-.196c1.89-.22 1.758-.215 4.405-.15 1.23.03 1.918.155 1.918.348 0 .166-.387 1.364-.86 2.662l-.86 2.36-3.146-.184-3.146-.185.185 3.94c.102 2.166.245 4.146.32 4.4.114.393.466.464 2.3.464 1.19 0 3.74-.185 5.668-.41 3.87-.45 4.425-.346 4.672.87.162.796-.192 6.33-.42 6.557-.077.077-3.104.313-6.726.524-3.623.212-7.39.46-8.372.55l-1.786.165-.013-2.21zm-206.955 1.377c-3.905-1.248-7.365-4.837-10.207-10.587-.923-1.868-.974-2.106-.96-4.498.013-1.907.167-2.978.633-4.377 2.014-6.042 5.595-10.566 10.47-13.222 1.97-1.074 2.618-1.294 4.14-1.403 2.26-.162 3.75.243 5.865 1.596 3.92 2.51 6.225 5.915 7.083 10.474.428 2.275.154 7.795-.516 10.372-.66 2.536-2.39 6.088-3.89 7.976-2.65 3.34-8.41 5.017-12.617 3.67zm6.15-4.918c1.77-.887 3.803-3.032 4.81-5.078.838-1.707.876-1.914.856-4.7-.05-6.798-2.938-11.606-7.338-12.21l-1.144-.155-1.878 3.01c-3.68 5.892-4.745 8.696-4.495 11.82.258 3.204 2.736 7.01 5.118 7.857 1.225.436 2.438.274 4.072-.545zm-99.39 4.176l-3.21-.082-.14-.718c-.156-.825.19-10.828.63-18.115.164-2.728.316-6.974.337-9.435.035-4.052.086-4.506.53-4.785.518-.325 4.484-.652 11.21-.925l4.025-.163.207.74c.114.408.204 1.782.2 3.053-.01 3.346.266 3.206-6.168 3.135-2.94-.033-5.347.048-5.43.18-.08.133-.23 1.972-.33 4.088l-.18 3.848 4.683-.935c5.963-1.192 5.817-1.273 4.684 2.61-.45 1.54-1.003 2.892-1.26 3.08-.602.44-1.207.428-4.93-.096-1.712-.242-3.184-.37-3.27-.283-.085.086-.26 1.68-.386 3.544-.127 1.864-.285 3.776-.35 4.25l-.12.86 2.694-.02c1.483-.01 4.54-.114 6.797-.23 2.254-.114 4.19-.13 4.297-.034.31.274.555 4.046.35 5.405l-.183 1.23-5.738-.058a732.613 732.613 0 0 1-8.95-.14zm142.582-1.066c-2.893-.49-2.78-.2-1.79-4.597.81-3.586 1.68-9.512 1.757-11.987l.06-1.842-2.54-1.862c-4.474-3.285-8.93-7.036-8.93-7.518 0-.852 3.804-5.325 4.53-5.325.83 0 2.943 2.834 6.076 8.15l1.763 2.99 2.394-2.593c2.812-3.046 3.276-3.615 4.683-5.744.67-1.013 1.335-1.697 1.813-1.865.672-.235.83-.176 1.455.545.386.445 1.026 1.336 1.423 1.98a74.88 74.88 0 0 0 1.38 2.138l.656.97-.535.68c-.294.375-2.532 1.72-4.972 2.992l-4.438 2.31-.314 8.475c-.173 4.66-.4 9.367-.507 10.458-.228 2.344-.114 2.297-3.963 1.646zm-16.735-.103c-1.965-.127-4.73-.26-6.145-.292l-2.574-.06-.126-1.057c-.186-1.56-1.315-26.197-1.333-29.1l-.008-1.32 1.526-.193c2.04-.257 3.633-.702 3.633-1.014 0-.36.89-.316 1.27.063.5.5.406 5.61-.372 20.368l-.177 3.356 6.276.084c5.668.076 6.31.13 6.622.557.726.996 1.124 7.903.486 8.433-.486.403-4.45.48-9.078.178zm131.498-.638c-.838-.274-.993-.49-1.627-2.257-.386-1.075-1.038-3.234-1.45-4.798-.41-1.565-.81-2.843-.886-2.842-.076.002-.48.925-.9 2.05-.42 1.127-1.352 3.314-2.074 4.86l-1.313 2.813-2.027.168c-3.428.285-3.288.408-5.245-4.612-2.328-5.97-4.672-12.985-5.61-16.79-1.256-5.09-1.592-6.26-1.903-6.634-.16-.194-.22-.584-.13-.866.17-.536 5.23-4.01 5.84-4.01.606 0 1.44 1.336 1.967 3.15.278.96.985 3.53 1.57 5.713.84 3.134 3.368 11.86 3.833 13.23.05.145.95-1.46 2-3.57 1.05-2.107 2.048-3.92 2.22-4.03.74-.47 4.365-.023 4.432.548l.11.966c.1.88 2.035 7.422 2.26 7.643.08.077.638-2.028 1.242-4.677 1.74-7.636 4.534-19.048 4.823-19.7.5-1.132 1.41-.767 2.64 1.058 2.357 3.507 3.65 7.078 2.56 7.078-.438 0-5.396 10.645-6.515 13.99-.835 2.498-2.112 8.438-2.118 9.856-.007 1.768-.174 1.982-1.535 1.974-.682-.004-1.656-.143-2.165-.31zm-94.457-42.47c-1.668-.324-2.605-.75-2.765-1.258-.26-.828-.91-7.607-1.348-14.06-.242-3.566-.585-7.358-.764-8.427-.375-2.242-.248-2.51 1.33-2.806.54-.1 1.25-.36 1.583-.58.56-.366.633-.35 1 .22.217.336.477 1.06.576 1.605l.182.992 1.227-1.022c1.858-1.546 2.847-1.974 4.15-1.795 1.555.213 2.73.98 3.944 2.57 1.938 2.543 2.353 4.845 1.594 8.846-1.025 5.41-2.167 7.01-4.995 7.01-1.477 0-3.706-.808-5.19-1.883l-1.118-.81.193 3.53c.107 1.942.246 3.62.31 3.728.066.11.592.274 1.17.367.664.106 1.16.364 1.337.697.317.592.1 2.488-.346 3.025-.317.38-.38.383-2.073.053zm4.382-13.313c.464-.34.522-.783.602-4.606.12-5.654-.188-6.177-2.663-4.537-1.664 1.102-1.74 1.227-2.222 3.627l-.425 2.12.715 1.218c1.306 2.23 2.803 3.046 3.993 2.177zm-51.742 7.748c-.364-.147-1.175-.19-1.803-.097-.633.095-1.28.054-1.455-.09-.233-.195-.314-3.124-.314-11.397V13.758h-1.51c-1.225 0-1.565-.097-1.787-.51-.4-.75-.355-5.444.057-5.782.19-.157 2.784-.332 6.15-.414 3.203-.08 6.265-.222 6.807-.318 2.062-.367 3.19 1.885 3.69 7.366.51 5.61-.33 10.213-2.002 10.975-.312.142-1.856.41-3.43.598l-2.864.34.183 4.654c.23 5.9.048 6.52-1.72 5.81zm3.755-14.5c1.315-.782 1.633-1.853 1.618-5.442-.017-3.918-.35-5.077-1.61-5.604-1.006-.42-3.33-.372-3.75.077-.232.246-.81 7.578-.808 10.258v1.557l1.787-.132c1.18-.087 2.118-.33 2.763-.714zm15.285 13.334c-1.567-.483-3.406-2.258-4.36-4.208-.655-1.34-.75-1.84-.768-4.08-.03-3.72.403-9.903.723-10.307.366-.462 2.395-.186 4.534.616l1.6.6.082 1.24c.045.68-.104 2.404-.33 3.83-.47 2.946-.522 4.72-.17 5.646.523 1.376 3.535 1.702 4.197.454.42-.788.262-3.756-.32-6.04-.21-.826-.462-2.344-.56-3.376-.174-1.817-.157-1.893.534-2.437.855-.67 3.537-1.713 3.978-1.543.708.27 1.008 2.503.825 6.145-.136 2.715-.08 4.133.24 5.968.47 2.72.363 3.636-.592 5.046-1.6 2.363-6.137 3.517-9.612 2.446zm115.78-.28c-.72-.195-2.297-.743-3.506-1.216-2.18-.854-2.197-.868-2.188-1.794.004-.513.226-1.852.492-2.976.266-1.123.426-2.1.356-2.17-.258-.26.22-1.476.58-1.476.206 0 .51.413.675.917.39 1.183 2.283 3.28 3.653 4.05l1.07.6.73-.63c.676-.58.707-.687.403-1.42-.405-.976-1.837-2.353-4.886-4.696-1.286-.988-2.566-2.17-2.843-2.623a3.46 3.46 0 0 1-.115-3.327c.593-1.148 2.397-2.555 3.788-2.956 2.3-.662 5.693-.327 7.042.695.483.364.436.47-1.058 2.41-.86 1.118-1.643 2.154-1.74 2.303-.105.163-.56-.065-1.133-.568-1.038-.91-2-1.076-2.534-.435-.274.33-.268.536.034 1.1.708 1.326 1.945 2.042 4.104 2.376 2.336.36 3.254 1.035 3.972 2.915.828 2.17.123 6.06-1.43 7.897-1.26 1.49-2.74 1.768-5.467 1.025zm-18.14-.09c-3.28-.997-4.908-3.855-5.208-9.145-.235-4.118.583-6.693 2.966-9.344 1.395-1.55 4.48-3.224 5.945-3.224 1.63 0 3.197 1.41 4.22 3.797.778 1.815 1.604 5.098 1.604 6.375v1.172l-1.125.14c-1.02.13-8.47.686-9.167.686-.848 0 .17 2.197 1.287 2.774 1.298.67 2.333.5 4.154-.687.918-.598 1.83-1.025 2.03-.95.2.078.728.79 1.175 1.582.448.792 1.307 1.863 1.91 2.38l1.095.937-1.408.41c-.774.225-2.237.91-3.25 1.522-2.708 1.634-4.522 2.092-6.23 1.572zm4.145-11.76c.126-.093-.815-3.786-1.036-4.066-.98-1.236-4.11 1.15-4.54 3.458l-.186 1.01 2.86-.184c1.572-.102 2.878-.2 2.902-.217zm-24.252 11.222c-1.43-.458-1.457-.487-1.537-1.56-.087-1.16-.377-1.333-1.25-.74-.287.196-1.127.57-1.867.83-2.363.836-4.756.07-6.123-1.957-.937-1.39-.85-3.756.197-5.41 1.19-1.878 3.02-2.653 6.302-2.67l2.468-.01-.135-.847c-.2-1.25-.96-2.703-1.588-3.04-.488-.26-.697-.132-1.805 1.105l-1.253 1.4-2.32-.052c-1.274-.028-2.47-.178-2.657-.334-.573-.476-.382-1.194.52-1.96 1.034-.878 6.877-3.703 8.157-3.943 1.955-.367 3.44.78 4.26 3.29.504 1.538.582 2.49.684 8.423.11 6.38.026 8.028-.406 7.968-.106-.015-.848-.237-1.648-.494zm-2.1-5.838c.42-.225.512-.563.512-1.87v-1.6l-1.52.188c-.838.103-1.772.28-2.077.394-.633.237-1.43.97-1.43 1.318 0 .49 1.184 1.31 2.226 1.543 1.496.336 1.706.338 2.29.026zm14.16 6.13c-.17-.276-2.573-1.143-3.46-1.25l-.708-.086c-.098-.013-.336-.47-.528-1.015-.27-.762-.35-3.594-.35-12.237l-.004-11.244 1.11-.08c.63-.047 1.445.092 1.89.322l.78.404.135 8.143c.142 8.516.39 10.798 1.53 14.092.3.87.507 1.9.46 2.293-.086.737-.575 1.112-.856.657zm47.883-.706c-1.828-.502-3.348-1.638-4.05-3.027-.74-1.46-.825-4.947-.178-7.17.9-3.083 3.53-7.098 5.22-7.96 2.198-1.12 6.065.067 8.348 2.566 3.49 3.818 3.208 11.697-.515 14.394-1.95 1.412-6.025 1.964-8.826 1.196zm5.295-7.084c1.014-.873 1.19-2.87.396-4.51-.57-1.18-1.226-1.785-2.305-2.126-1.47-.465-2.404 4.934-1.133 6.55.713.906 2.045.944 3.043.086zm12.702 6.996c-.506-.11-.847-.396-.992-.83-.12-.363-.43-3.334-.683-6.6l-.463-5.94-1.456-.278-1.455-.278-.076-1.923c-.085-2.18.14-2.45 1.655-1.985l.872.268.113-2.413c.084-1.77.26-2.696.668-3.472.96-1.834 2.637-3.085 4.942-3.685 1.208-.315 1.683-.32 2.918-.033 1.828.425 3.59 1.543 3.59 2.278 0 1.18-2.312 4.748-3.076 4.748-.212 0-.728-.253-1.147-.563-.42-.31-1.2-.578-1.74-.595-1.33-.044-1.958.8-2.043 2.746l-.064 1.455 2.51.133c3 .158 2.976.123 2.113 3.334l-.59 2.196-.826-.145a28.65 28.65 0 0 1-1.752-.382c-1.76-.45-1.682-1.107-.773 6.563.7 5.9.722 5.638-.483 5.6a11.955 11.955 0 0 1-1.765-.198zm-137.65-.55c-.452-.275-.903-.63-1-.787-.097-.157-.403-.286-.68-.286-.278 0-.625-.225-.772-.5-.434-.81-.853-9.76-.762-16.26l.084-6.042.712-.61c.91-.784 3.227-1.558 4.045-1.352.347.087.7.38.787.65.086.27-.092 3.218-.397 6.548-.8 8.748-1.23 17.063-.93 17.917.367 1.04-.08 1.335-1.087.722zm-86.2-.213c-.256-.658-.522-18.95-.302-20.708l.183-1.458 2.04-.736c1.12-.405 2.247-.804 2.502-.888.562-.184.57.17.113 5.004-.176 1.855-.28 3.373-.23 3.373.05 0 .795-.542 1.657-1.205 1.947-1.498 3.712-2.304 4.572-2.088 1.587.398 2.87 2.91 3.334 6.536.135 1.054.282 3.702.327 5.885l.083 3.97-2.845.074c-1.563.04-2.858.04-2.876 0-.02-.042-.108-2.694-.2-5.894-.137-4.873-.228-5.83-.56-5.892-.22-.04-1.182.634-2.14 1.5l-1.745 1.577-.178 5.294c-.097 2.91-.248 5.478-.335 5.705-.24.63-3.152.586-3.4-.05zm26.185.173c-1.31-.32-4.575-1.918-5.936-2.904-4.223-3.06-3.01-12.592 1.92-15.108 1.542-.786 4.758-.965 6.36-.353 1.038.395 1.323.67 1.883 1.82.766 1.573 1.725 5.143 1.725 6.423 0 .536-.212 1.096-.537 1.42-.51.512-.74.53-4.75.358l-4.213-.18-.33.728c-.286.624-.26.862.185 1.674 1.043 1.907 4.306 2.64 6.293 1.41.513-.317.985-.72 1.048-.897.168-.465.282-.264 1.034 1.82.632 1.746.648 1.91.247 2.397-1.09 1.324-3 1.863-4.928 1.39zm.12-11.374c.734-.16 1.335-.34 1.335-.404 0-.063-.288-.572-.64-1.13-.75-1.19-2.323-1.778-3.35-1.257-.734.37-1.463 1.392-1.678 2.347l-.164.728h1.58c.868 0 2.18-.13 2.915-.286zm98.08 11.455c-.06-.104.05-1.678.245-3.497.196-1.82.44-5.974.542-9.233l.185-5.926-1.697.184c-.98.107-2.413.517-3.39.97-.93.43-1.72.752-1.75.713-.446-.553-.55-1.443-.383-3.275.3-3.31.215-3.195 2.442-3.225 1.052-.015 3.76-.282 6.014-.593 2.257-.312 5.073-.63 6.26-.707l2.157-.14.318 1.532c.406 1.952.243 4.75-.307 5.3-.356.356-.705.37-2.595.112-1.2-.164-2.243-.24-2.315-.167-.146.146.175 3.88 1.025 11.902.455 4.3.493 5.293.208 5.47-.19.117-1.485.287-2.878.376-1.393.09-2.855.214-3.25.277-.394.063-.767.03-.83-.075zM133.98 30.89c.094-.618.347-2.196.563-3.506.216-1.31.472-4.572.57-7.25l.176-4.87-1.828.18c-1.005.1-2.197.247-2.65.328-.805.145-.823.124-.99-1.102-.095-.688-.172-2.437-.172-3.887 0-2.405.04-2.62.463-2.455.254.1 1.95.536 3.77.968 2.698.64 4.125.813 7.755.943l4.448.157-.135.953a92.517 92.517 0 0 0-.297 2.445c-.087.82-.302 1.682-.475 1.914-.288.383-.42.384-1.504.008-.653-.228-1.985-.48-2.96-.562l-1.773-.15.09 6.454c.068 4.712.206 6.94.515 8.256.232.99.423 1.914.423 2.05 0 .14-1.34.25-3.08.25h-3.078z"></path></svg>