<svg id="chrisdeluca-graphic" height="50" viewBox="-1.813 300.016 488.984 69.641" xmlns="http://www.w3.org/2000/svg"><g><path d="m24.95024983 357.64159677c.69449888.16573265 1.28752875.09752291 1.65619941-.12909119l7.72742714-3.81861674c.54116793-.29031408.91942175-.77680154 1.13250659-1.66972867l1.40872751-5.90324045c.37881748-1.587426-.14994875-2.44765752-1.73737475-2.82647501l-9.97101959-2.3794473c-1.63703306-.39065553-2.41157973-1.09981099-2.08011443-2.48880874l2.00062982-8.38359358 6.1016687 1.45607969c.69449888.16573265 1.28752875.09752291 1.65619941-.12909119l7.72742714-3.81861674c.54116793-.29031408.91942175-.77680154 1.13250659-1.66972867l1.4324036-6.00245457c.37881748-1.58742601-.14994875-2.44765753-1.73737475-2.82647501l-12.10412328-2.8884833c-4.31581444-1.02991003-7.69191324-.94422493-10.14013442.30666237l-7.73926519 3.8682238c-2.50966629 1.28865631-4.17883106 3.66923166-5.05484649 7.34015429l-3.32649101 13.93958459c-1.71651671 7.19302408 1.08008171 13.05116698 9.81092473 15.13466313zm7.80803859-4.37613247-12.10412328-2.8884833c-8.33398651-1.98879178-11.43386439-6.13661846-9.78837595-13.03200016l3.6816324-15.42779647c1.65732648-6.94498876 6.29615037-9.24608022 14.63013689-7.25728844l12.10412327 2.88848329c1.24017657.29595116 1.65563575.97184736 1.35968459 2.21202392l-1.4324036 6.00245458c-.29595116 1.24017656-.97184736 1.65563574-2.21202392 1.35968459l-9.97101958-2.37944731c-2.08349663-.49719794-3.21543956.07159218-3.61793314 1.75823231l-2.81745502 11.80648089c-.39065552 1.63703307.37430797 2.60606189 2.4578046 3.10325983l9.97101958 2.37944731c1.24017657.29595116 1.65563575.97184735 1.35968459 2.21202392l-1.40872751 5.90324045c-.29595116 1.24017656-.97184736 1.65563574-2.21202392 1.35968459zm-1.54458381-5.61179881-8.28437946-1.97695373c-5.95284751-1.42056556-7.06224191-3.36313295-6.03233188-7.6789474l3.31465297-13.88997752c1.05358612-4.41502858 3.0198296-5.6236371 8.87346299-4.22674763l8.28437945 1.97695373.11838046-.49607063-8.28437945-1.97695373c-6.34970401-1.51526993-8.36329968-.10823315-9.48791408 4.60443779l-3.31465296 13.88997753c-1.10093831 4.61345682-.0388961 6.75445246 6.41002204 8.29339848l8.28437945 1.97695374zm20.13150864 3.74483668.50625051.06172857 1.63580697-13.41563866 19.44001979 2.37037689-1.63580697 13.41563866.50625051.06172856 3.33334251-27.33752782-.50625052-.06172857-1.63580697 13.41563866-19.44001978-2.37037689 1.63580697-13.41563866-.50625052-.06172857zm3.64632219 5.06860173-7.84688299-.95679276c-1.26562629-.15432141-1.75460043-.7790984-1.60027902-2.04472469l4.00001101-32.80503339c.15432141-1.26562629.7790984-1.75460043 2.04472468-1.60027902l7.84688299.95679275c1.26562629.15432142 1.75460044.77909841 1.60027902 2.04472469l-1.33950986 10.98563619 8.45438361 1.03086703 1.33950986-10.98563618c.15432141-1.26562629.7790984-1.75460044 2.04472469-1.60027902l7.84688299.95679275c1.26562628.15432141 1.75460043.7790984 1.60027902 2.04472469l-4.00001101 32.80503339c-.15432141 1.26562629-.7790984 1.75460044-2.04472469 1.60027903l-7.84688299-.95679276c-1.26562628-.15432141-1.75460043-.7790984-1.60027902-2.04472469l1.37037414-11.23876144-8.4543836-1.03086703-1.37037414 11.23876144c-.15432142 1.26562629-.7790984 1.75460043-2.04472469 1.60027902zm1.61382879.24815646c.50500832-.34944471.826035-.87545599.93714641-1.78670692l.63580422-5.21438031.91125093.11111142-1.30864558 10.73251093c-.19753141 1.62000165.42479933 2.41517236 2.04480097 2.61270377l7.84688299.95679275c.70875072.08641999 1.29031772-.04817879 1.63110516-.31489196l7.2479252-4.66503422c.50500832-.34944471.826035-.87545599.93714642-1.78670692l4.000011-32.80503339c.19753141-1.62000165-.42479932-2.41517237-2.04480097-2.61270377l-7.84688299-.95679276c-.70875072-.08641999-1.28414485-.00244626-1.67555735.25809406l-7.20347301 4.72183213c-.50500832.3494447-.82603499.87545599-.93714641 1.78670691l-.60493994 4.96125505-.91125093-.11111141 1.2777813-10.47938567c.19753141-1.62000165-.42479932-2.41517236-2.04480097-2.61270377l-7.84688299-.95679276c-.70875072-.08641999-1.28414486-.00244625-1.67555736.25809406l-7.203473 4.72183213c-.50500832.3494447-.826035.87545599-.93714642 1.78670692l-4.000011 32.80503339c-.19753141 1.62000165.42479932 2.41517236 2.04480097 2.61270377l7.84688299.95679275c.70875072.08641999 1.29031771-.04817879 1.63110516-.31489196zm50.2779491-28.27686564c3.61969887.09706267 5.24467676 2.28340661 5.1599178 5.44427041l-.09569559 3.56871718c-.10116391 3.77264389-1.22782934 5.83418385-5.45930828 5.72071622l-11.11400496-.29802341.39508608-14.73370381zm-5.71735053 3.92815514-.17498623 6.52565428 3.82362556.10253099c1.78435859.0478478 2.27053526-.95948197 2.30744641-2.33598717l.04648072-1.73337691c.03691116-1.37650521-.39458231-2.40844241-2.17894091-2.4562902zm-6.12120674 22.79410871.31716253-11.82774838 14.42781376.3868836c3.87460723.10389807 5.61521927 1.78315943 5.524992 5.14794992l-.1831887 6.83154433.50981674.0136708.1831887-6.83154433c.09569559-3.56871719-1.84200774-5.50835524-6.02250502-5.62045579l-.56079841-.01503788c2.46762655-.69910528 3.13408983-2.72196728 3.2174817-5.8318494l.09432852-3.51773551c.09022727-3.36479049-1.67949317-5.86112572-5.65606375-5.96775795l-11.62382169-.31169421-.73822312 27.530104zm3.54764334 4.68678042-7.85117781-.2105303c-1.27454185-.03417699-1.82030238-.61001329-1.78612539-1.88455514l.88586775-33.03612481c.034177-1.27454185.61001329-1.82030239 1.88455515-1.78612539l16.97689747.45523759c7.64725111.20506198 9.95042836 3.73606857 9.81508745 8.78325431l-.06288567 2.34515701c-.07655647 2.85497375-.8449831 4.87510159-3.01082085 5.73535437 3.71072557.50765022 6.08539069 3.27529878 5.97055598 7.55775941l-.28982093 10.8081149c-.034177 1.27454186-.61001329 1.82030239-1.88455514 1.7861254l-7.90215948-.21189738c-1.27454186-.034177-1.82030239-.61001329-1.7861254-1.88455515l.20916322-7.80019613c.0410124-1.52945022-.4510323-2.20588279-1.87851918-2.24416102l-7.13743437-.19139118-.26794765 9.99240812c-.034177 1.27454185-.61001329 1.82030239-1.88455515 1.78612539zm1.6300465.09472823c.4697717-.39554967.73971795-.94951269.76432539-1.86718282l.10526515-3.92558891.05098167.00136708c1.07061516.02870868 1.412449.59907665 1.38237324 1.72067348l-.20916322 7.80019614c-.04374655 1.63141357.65085776 2.36429613 2.28227134 2.40804268l7.90215948.21189738c.71374344.01913912 1.28001017-.1697497 1.59410269-.46743727l6.77526226-5.32830042c.46977171-.39554967.73971795-.94951268.76432539-1.86718282l.28982093-10.8081149c.10799931-4.02755226-1.90979409-6.78563126-5.09703212-7.78942742l.05098167.00136708c1.40794804-1.13566735 2.01932841-3.00695141 2.08631532-5.50505344l.06288568-2.34515701c.1421763-5.30209411-2.20514723-9.08937615-10.31123341-9.30674185l-16.97689747-.45523759c-.71374343-.01913912-1.27864309.11876803-1.64371729.41508851l-6.72564766 5.38064917c-.4697717.39554968-.73971795.94951269-.76432539 1.86718283l-.88586775 33.03612481c-.04374656 1.63141357.65085776 2.36429612 2.28227133 2.40804268l7.85117781.2105303c.71374344.01913911 1.28001018-.1697497 1.5941027-.46743727zm48.04437492 5.52640071c.71355381-.02523795 1.26699239-.24894028 1.56198491-.56556532l6.43116409-5.73891039c.44429148-.42396943.67930231-.99363241.64685352-1.91105874l-.21452257-6.06520742c-.05768674-1.63098015-.7964785-2.31929601-2.42745865-2.26160927l-4.43422727.15683582-.4056099-11.46782915 5.88493635-5.31133553c.44429148-.42396944.67930231-.99363241.64685352-1.91105875l-.21812799-6.16714368c-.05768674-1.63098014-.79647851-2.31929601-2.42745865-2.26160927l-21.71242321.76795475c-.71355381.02523794-1.26879511.19797215-1.61475575.5163999l-6.37839326 5.7880758c-.44429148.42396944-.67930231.99363242-.64685352 1.91105875l.218128 6.16714368c.05768674 1.63098015.7964785 2.31929601 2.42745865 2.26160927l4.53616353-.16044125.40200448 11.3658929-5.98326719 5.41687721c-.44429148.42396943-.67930231.99363241-.64685352 1.91105874l.21452257 6.06520743c.05768674 1.63098014.7964785 2.31929601 2.42745865 2.26160927zm-15.35205706-5.52980235c-1.27420324.04506777-1.85468249-.49575184-1.89975025-1.76995508l-.21452257-6.06520742c-.04506777-1.27420324.49575184-1.85468249 1.76995508-1.89975025l5.04584483-.17846836-.60571078-17.12529154-5.04584483.17846835c-1.27420324.04506777-1.85468249-.49575184-1.89975025-1.76995508l-.21812799-6.16714368c-.04506777-1.27420324.49575184-1.85468248 1.76995508-1.89975025l21.7124232-.76795474c1.27420324-.04506777 1.85468249.49575184 1.89975025 1.76995508l.21812799 6.16714368c.04506777 1.27420324-.49575184 1.85468248-1.76995508 1.89975025l-4.94390857.17486293.60571079 17.12529155 4.94390857-.17486294c1.27420324-.04506776 1.85468248.49575184 1.89975025 1.76995508l.21452257 6.06520743c.04506776 1.27420324-.49575185 1.85468248-1.76995509 1.89975024zm18.79790025-5.25774003-.01802711-.5096813-7.79812383.27581473-.93740955-26.50342739 7.79812383-.27581473-.0180271-.50968129-16.20786521.57326199.0180271.50968129 7.90006009-.27942015.93740955 26.50342739-7.90006009.27942015.0180271.5096813zm10.91584566 10.09530376 16.07149558-1.19686492c3.40756394-.25376566 6.08957045-1.32289899 7.85394553-3.0396723l6.15177696-5.98138322c1.86230585-1.77520757 2.7014744-4.24133918 2.47422157-7.29288898l-.39769246-5.34021214c-.4090551-5.49278963-3.37674871-7.57313688-7.77174098-8.21751947l4.29325865-4.15531649c.42743209-.44096123.64006489-1.01934976.57188904-1.9348147l-.45071812-6.05224043c-.12120151-1.62749322-.88625546-2.28649584-2.51374868-2.16529433l-14.24056571 1.06051322c-3.4584231.25755321-6.14042962 1.32668654-7.85773308 2.98881313l-6.19884857 6.03602994c-1.81144669 1.77142002-2.65061524 4.23755163-2.4233624 7.28910143l.39769245 5.34021214c.36739209 4.93333883 2.72856328 7.10999581 6.42288991 7.95998155l-4.76776236 4.65092443c-.42743209.44096124-.64006489 1.01934977-.57188904 1.93481471l.44314303 5.9505221c.12120151 1.62749322.88625545 2.28649584 2.51374868 2.16529433zm22.18160952-7.73769894-16.07149558 1.19686492c-1.27147908.09468868-1.8725929-.42309909-1.96728158-1.69457817l-.44314303-5.9505221c-.09468868-1.27147908.4230991-1.8725929 1.69457818-1.96728158l13.68111491-1.0188502c.86460578-.06438831 1.27310014-.75964535 1.21249938-1.57339196-.08711359-1.16976076-.57893398-1.5934053-1.45111485-1.63073533l-7.70841298-.49991034c-4.83378701-.35599885-8.08769785-2.159325-8.51190314-7.85555128l-.39769246-5.34021214c-.43178038-5.79794461 3.24954726-9.24285387 9.86123848-9.73523501l14.24056571-1.06051322c1.27147908-.09468868 1.87259289.42309909 1.96728158 1.69457818l.45071812 6.05224042c.09468868 1.27147908-.4230991 1.8725929-1.69457818 1.96728158l-11.85018504.8824985c-.86460577.06438831-1.32774684.71257374-1.25957099 1.62803867.06817585.91546494.62221805 1.48789943 1.49439892 1.52522945l7.65376627.45283873c4.833787.35599885 8.13855701 2.15553745 8.5627623 7.85176373l.39769246 5.34021214c.43178039 5.79794461-3.30040642 9.24664142-9.86123848 9.73523501zm1.73343747-32.34806417-11.29073424.84083549c-3.15326812.23482792-5.04370785 2.31897802-4.84296785 5.01451367l.31057887 4.17045138c.2083151 2.79725398 1.48574823 3.4692403 3.29233177 3.69269029l10.89414798 1.38777155c1.91208941.26673406 3.19709763 1.0404387 3.43571311 4.24456599l.21967774 2.94983147c.20074 2.69553565-1.63884057 4.77589819-4.79210869 5.01072612l-12.66393165.94309926.03787547.50859163 12.66393165-.94309926c3.4584231-.25755321 5.48629014-2.5565026 5.26282485-5.55719323l-.21967774-2.94983147c-.2651283-3.56014142-1.81579498-4.46748582-3.88046189-4.72285723l-10.89414798-1.38777156c-1.59935934-.18774102-2.66956827-.82401836-2.84758299-3.21439903l-.31057887-4.17045138c-.17801472-2.39038068 1.52413855-4.25594393 4.3722517-4.46804657l11.29073424-.84083549zm58.43216111 30.06123091 6.04969238-6.13972199c1.94890087-2.03981504 2.74592875-4.83588309 2.37587599-8.54044649l-1.58159534-15.83320246c-.73503629-7.35837935-5.14460769-10.4544157-14.0761578-9.56223371l-17.10188855 1.70832573c-.71046421.07096902-1.25347845.27897273-1.57829526.6189419l-5.99387572 6.18540022c-.41617327.45160249-.61414911 1.03517045-.52290323 1.94862444l3.28485186 32.88434357c.16221491 1.6239182.94364814 2.26341339 2.56756634 2.10119849l17.10188856-1.70832574c4.41502761-.44102178 7.57161813-1.67890558 9.47484077-3.66290396zm-3.53165721-3.02997069-17.10188855 1.70832574c-1.2686861.12673039-1.88266935-.37573012-2.00939975-1.64441621l-3.28485186-32.88434357c-.12673039-1.2686861.37573011-1.88266936 1.64441621-2.00939975l17.10188855-1.70832574c8.52557056-.85162826 12.8133702 2.05155675 13.5179912 9.10545144l1.58159535 15.83320246c.704621 7.05389469-2.92418059 10.74787737-11.44975115 11.59950563zm-13.85355458-3.22899696 12.2808814-1.22675023c7.00314724-.69955179 7.82050727-3.80517372 7.43017765-7.71272689l-1.3433422-13.44807261c-.39032962-3.90755317-1.92255965-6.9322335-8.82421201-6.24282015l-12.28088139 1.22675023zm9.594197-28.12289544c6.39417792-.6387212 7.89599266 2.08147448 8.26604541 5.78603787l1.3433422 13.44807261c.37005276 3.70456339-.47772257 6.50570066-6.97339537 7.15456029l-11.77340696 1.17605807-2.63599224-26.38867077zm-5.83138439 5.24660015 1.72353339 17.25413089 6.03894581-.60323669c1.6239182-.16221491 2.30909162-.9994648 2.13673828-2.72487789l-1.23181945-12.33162884c-.16728412-1.67466564-1.00453401-2.35983906-2.62845221-2.19762416zm2.16604787 7.83047984.87697434 8.77930778-.86270654.08617667-1.0543969-10.55546831c.63431541.19290663.94888322.77652988 1.0401291 1.68998386zm51.47495032 20.18879133c.71102106-.06515403 1.25106503-.31949536 1.52786519-.65214183l6.09972161-6.09002136c.4198541-.44818249.62259774-1.03011119.53882827-1.94428113l-.54450156-5.9421046c-.1489235-1.625191-.9250986-2.27105803-2.5502896-2.12213453l-7.00863619.64223261 4.17102301-4.2232349c.41985409-.44818249.62259773-1.03011119.53882826-1.94428113l-.49796296-5.43423241c-.09773105-1.06653159-.46295454-1.69884228-1.1557654-1.99385264l4.03727679-4.00612445c.4198541-.44818248.62259774-1.03011119.53882827-1.94428113l-.54450156-5.94210459c-.1489235-1.625191-.9250986-2.27105804-2.5502896-2.12213453l-23.56526952 2.15939079c-.71102106.06515404-1.25571889.26870815-1.58330626.60600848l-6.04428054 6.13615471c-.4198541.44818249-.62259774 1.03011119-.53882827 1.94428113l3.01570094 32.91011778c.1489235 1.625191.9250986 2.27105803 2.5502896 2.12213452zm5.99774194-6.64402691-23.56526951 2.1593908c-1.26968047.11634648-1.87953233-.39112047-1.99587882-1.66080094l-3.01570094-32.91011777c-.11634648-1.26968047.39112047-1.87953233 1.66080094-1.99587882l23.56526951-2.15939079c1.26968047-.11634649 1.87953233.39112046 1.99587882 1.66080093l.54450156 5.9421046c.11634649 1.26968047-.39112047 1.87953233-1.66080094 1.99587882l-14.01727238 1.28446521.35834718 3.91061585 9.90350766-.9075026c1.26968047-.11634649 1.87953233.39112047 1.99587882 1.66080094l.49796296 5.43423241c.11634649 1.26968047-.39112046 1.87953233-1.66080093 1.99587881l-9.90350767.9075026.40023192 4.36770082 14.01727238-1.28446522c1.26968047-.11634649 1.87953233.39112047 1.99587882 1.66080094l.54450156 5.94210459c.11634649 1.26968047-.39112047 1.87953233-1.66080094 1.99587882zm-3.20789576-4.82741347-16.60742054 1.52181205-1.2053496-13.15388966 12.49365582-1.14484943-.0465386-.50787219-12.49365582 1.14484943-1.16811873-12.74759192 16.60742055-1.52181204-.0465386-.50787219-17.11529273 1.56835064 2.51308412 27.42509814 17.11529273-1.56835064zm37.48346594 8.61979912c.71268013-.04339387 1.26024484-.28111196 1.54708181-.60514368l6.28299131-5.90076132c.43335501-.43514186.65378844-1.01060263.59799631-1.92690566l-.97636227-16.03530298c-.099186-1.62898316-.85526001-2.29826941-2.48424317-2.19908341l-7.38132995.4494366c-.71268013.04339388-1.2633444.23020624-1.60108709.55733752l-6.22898603 5.94856749-.09561232.10801057-1.26152204-20.71862957c-.09918601-1.62898316-.85526002-2.29826941-2.48424318-2.1990834l-7.89038718.48043222c-.71268013.04339388-1.26334441.23020624-1.60108709.55733752l-6.22898603 5.94856749c-.43335501.43514185-.65378844 1.01060263-.59799631 1.92690565l2.00851666 32.986909c.09918601 1.62898316.85526002 2.29826941 2.48424318 2.1990834zm6.1979904-6.45762472-25.91101339 1.57767744c-1.2726431.07748907-1.86670125-.4483787-1.94419032-1.72102179l-2.00851666-32.986909c-.07748907-1.27264309.4483787-1.86670124 1.7210218-1.94419031l7.89038718-.48043223c1.27264309-.07748906 1.86670124.44837871 1.94419031 1.7210218l1.53428356 25.19833326 6.97408416-.4246401-.50212917-8.24672725c-.07748907-1.27264309.4483787-1.86670124 1.7210218-1.94419031l7.38132994-.4494366c1.2726431-.07748907 1.86670125.4483787 1.94419032 1.7210218l.97636226 16.03530298c.07748907 1.27264309-.4483787 1.86670124-1.72102179 1.94419031zm-22.47385621-3.23010578 18.73330634-1.14063909-.64160949-10.53748481-.50905723.03099562.61061386 10.02842758-17.71519187 1.07864784-1.64276825-26.98003359-.50905724.03099563zm44.19894926 9.71699089c6.73199783.00540686 10.76193863-1.16435685 13.1605763-3.20243102l6.63442165-5.5026733c2.29655578-1.93615613 3.0636855-4.58754086 3.06622509-7.74953984l.02027569-25.24499185c.00131075-1.63199948-.71211556-2.3465727-2.34411504-2.34788345l-7.7519975-.00622607c-.76499975-.00061442-1.27512247.15197592-1.63236812.4576891l-6.63446261 5.55367327-.05104095.05095903c-.40828659.35667219-.6127371.91750817-.61347439 1.83550787l-.01536038 19.12499383c-.66275402-.30653239-.81534436-.81665511-.81485283-1.42865491l.01867822-23.2559925c.00131075-1.63199948-.71211557-2.3465727-2.34411504-2.34788345l-8.00699742-.00643088c-.71399977-.00057345-1.27512247.15197593-1.63236812.4576891l-6.58346263 5.55371424c-.45932754.40763122-.71477802.96842623-.71551532 1.88642594l-.01904687 23.71499235c-.00516108 6.42599793 2.99900455 12.44641268 16.25900027 12.45706254zm22.3512232-16.45505377c-.00499724 6.221998-3.11935504 10.40149803-15.76735096 10.3913397s-15.75563612-4.1946556-15.75063887-10.41665359l.02027569-25.24499186c.00102402-1.27499959.56247441-1.83554884 1.837474-1.83452481l8.00699742.00643087c1.27499959.00102403 1.83554884.56247442 1.83452481 1.83747401l-.01867821 23.2559925c-.00110595 1.37699955.61007463 2.39749076 4.18007348 2.40035803 3.62099883.00290823 4.23381786-1.01659991 4.2349238-2.39359947l.01867822-23.2559925c.00102402-1.27499959.51147443-1.8355898 1.837474-1.83452481l7.7519975.00622607c1.27499959.00102403 1.83554884.56247442 1.83452481 1.83747401zm-25.88992784-22.51180093-.01708074 21.26699314c-.00331784 4.13099867 2.18746956 6.8867591 10.19446698 6.89318998 8.00699741.00643088 10.25320858-2.74576595 10.25652642-6.87676462l.01708074-21.26699314-.50999984-.00040961-.01708073 21.26699314c-.00307208 3.82499877-2.14711944 6.37327758-9.74611698 6.3671744-7.59899755-.00610319-9.68794883-2.55778177-9.68487675-6.38278054l.01708073-21.26699314zm54.89598986 40.77158348c.71083382.06716606 1.28853641-.08315598 1.62196493-.35901359l7.11873797-4.85989029c.49534521-.36301257.80198777-.89753698.88834414-1.81146617l.57091155-6.04208748c.15352244-1.62476301-.49014532-2.4027629-2.11490834-2.55628533l-10.2055427-.96431279c-1.67553686-.15832001-2.5414903-.75241482-2.40715817-2.17408246l.81079036-8.58077969 6.24518285.59010186c.71083382.06716606 1.28853641-.08315598 1.62196493-.35901359l7.11873797-4.85989029c.49534521-.36301257.80198777-.89753698.88834414-1.81146617l.5805067-6.14363516c.15352244-1.62476302-.49014532-2.40276291-2.11490834-2.55628534l-12.388818-1.17060856c-4.41732446-.41738912-7.74840928.13872137-9.99805206 1.7191053l-7.12353555 4.91066413c-2.3052142 1.6263602-3.62573646 4.21662485-3.98075709 7.97388933l-1.34811888 14.26745025c-.69564853 7.36220742 2.89129899 12.77262409 11.82749558 13.61699748zm7.12073746-5.42320016-12.388818-1.17060856c-8.53000584-.80599278-12.17852325-4.48050359-11.51166018-11.53806795l1.49204616-15.79066557c.67166065-7.1083382 4.94386295-10.03442715 13.47386879-9.22843437l12.388818 1.17060856c1.26934611.1199394 1.77508506.73122503 1.65514566 2.00057114l-.58050671 6.14363515c-.1199394 1.26934611-.73122502 1.77508506-2.00057113 1.65514566l-10.2055427-.96431279c-2.13250146-.20149819-3.17396572.51972937-3.33708331 2.24604007l-1.1418231 12.08417495c-.15832001 1.67553686.73441939 2.52829847 2.86692085 2.72979666l10.2055427.96431279c1.26934611.1199394 1.77508506.73122503 1.65514566 2.00057113l-.57091155 6.04208747c-.11993941 1.26934611-.73122503 1.77508506-2.00057114 1.65514566zm-2.31280383-5.34125111-8.47923199-.80119521c-6.09286132-.57570912-7.46255421-2.34439942-7.04516509-6.76172388l1.3433213-14.2166764c.42698427-4.51887214 2.20526972-5.99011272 8.19658334-5.42399875l8.479232.80119521.04797576-.50773845-8.479232-.8011952c-6.49905206-.61408974-8.29652782 1.06024622-8.75229755 5.88376143l-1.3433213 14.2166764c-.44617457 4.72196752.90432802 6.6937532 7.50492778 7.31743809l8.47923199.8011952zm23.37251693-6.43532722c.41204668-1.78916559 1.05361319-3.21146248 1.85963865-4.43887926l5.0578404-7.41811583c1.03524278-1.54097287 1.87952154-2.70724487 3.86748332-2.24941521l4.87050634 1.12168264c1.83886464.42349243 2.08796485 1.84157074 2.43284957 3.75272341l1.56357823 8.89070037c.18795543 1.45633161.14277746 3.01597739-.26926923 4.80514298l-.35481798 1.54067038-19.38262728-4.4638391zm10.32111554-8.45638357-4.07560776 7.0163049 7.80274996 1.79698138-.59610241-8.09220458c-.11114633-.65361724-.35211189-.97078691-.74970424-1.06235284l-1.24247611-.28614353c-.39759236-.09156593-.75301533.08825485-1.13885944.62741467zm6.62356885 23.50611911.49699044.11445741 2.4379429-10.58589644c.42349242-1.83886464.48011614-3.44820946.26535315-5.0153849l-1.56357823-8.89070037c-.3488008-2.12139459-.62470858-3.65031673-2.81146653-4.15392934l-4.87050634-1.12168265c-2.28615604-.5265041-3.21447107.77741929-4.38344916 2.44459781l-5.05784041 7.41811583c-.87861598 1.31536913-1.53162823 2.78736506-1.95512065 4.6262297l-2.4379429 10.58589644.49699045.11445741 1.9686675-8.54823562 19.38262728 4.4638391zm-14.88169575-.60117935c-.28614353 1.24247611-.95873617 1.66326244-2.20121228 1.37711891l-7.30575952-1.68252397c-1.2424761-.28614353-1.66326244-.95873618-1.3771189-2.20121228l3.02167569-13.1205477c.45782965-1.98796178 1.62650525-4.3355651 3.76958134-7.50546319l6.92200012-10.28590357c.66084441-1.05151208 1.57048653-1.36537067 2.91236073-1.05633565l13.36904292 3.0789044c1.29217515.29758928 1.97290245.97771158 2.10724275 2.21235553l1.72563359 12.27746255c.54067231 3.78796812.56477377 6.41026923.10694412 8.398231l-3.0216757 13.1205477c-.28614353 1.24247611-.95873617 1.66326245-2.20121228 1.37711891l-7.50455569-1.72830693c-1.3418742-.30903501-1.81235958-.9930734-1.52621604-2.23554951l1.60240378-6.9578662-8.79673085-2.02589621zm-8.31930442 5.67263209 7.69701582-3.87955042c.53885733-.29458068.9132557-.78404146 1.11927904-1.67862426l.24036057-1.04367993 1.39157324.32048076-1.48794636 6.46087576c-.35481798 1.54067037.21898156 2.45784216 1.90874907 2.84699736l7.50455569 1.72830693c.69578662.16024038 1.28825907.08734736 1.65512779-.14217246l7.69701582-3.87955042c.53885733-.29458068.9132557-.78404147 1.11927905-1.67862426l3.0216757-13.1205477c.46927539-2.03766082.45661966-4.70966098-.11086021-8.60847292l-1.72563358-12.27746256c-.13825639-1.44488587-.94518933-2.25874348-2.48585971-2.61356146l-13.36904292-3.07890441c-.94428184-.21746908-1.68585143-.17891328-2.34699833.19217401l-7.58617199 3.85274286-.06114478.0382533c-.4280135.26777312-.8177737.59669103-1.15391877 1.14729659l-6.86085534 10.24765027c-2.21566662 3.25785044-3.39578795 5.6551528-3.86506335 7.69281362l-3.0216757 13.1205477c-.36626372 1.59036942.16928253 2.44639642 1.75965194 2.81266014l7.30575952 1.68252397c.69578662.16024037 1.28825907.08734735 1.65512779-.14217247z"/></g></svg>
