<svg version="1" xmlns="http://www.w3.org/2000/svg" viewBox="0 0 1957.000000 1311.000000"><path d="M1712.7 8c-10.8 3.2-19.3 7.5-32.9 16.6-14.9 10-24.2 18.3-33.6 30.2-10.8 13.5-27.5 38.3-32.6 48.1-4.6 8.9-12.6 30.8-12.6 34.6 0 1.1-9.2 20.5-20.4 43-11.3 22.6-22 44.6-23.8 49-3.1 7.2-15.8 30-27.4 49-2.3 3.8-5 8.7-6 10.7-1.8 3.8-1.8 3.8-8 3.8-8.4 0-33.2 2.7-42.4 4.6-10.7 2.2-19.6 4.9-34.8 10.5-11.6 4.3-18.2 5.9-18.2 4.4 0-.2 1.3-2.6 2.9-5.4 1.6-2.7 6.3-11.6 10.5-19.8 4.1-8.1 10.6-20 14.3-26.3 9.7-16.2 29.5-46.2 33.6-50.7 1.9-2.1 3.6-4.7 3.8-5.8.3-1.4 1.5-2.1 3.9-2.6 5.1-.8 8.9-3.1 14.2-8.6 12.2-12.5 18.8-32.1 14.4-42.6-2-5-9.7-11.1-16.3-13.2-8.9-2.9-21.1-2.6-29.3.7-3.6 1.4-8.3 3-10.5 3.6-2.3.7-5.6 2.7-7.5 4.7-1.9 1.9-3.9 3.5-4.5 3.5-2 0-12.6 17.5-26 43-5.1 9.6-12.2 23.1-15.8 30-8.4 16-12.8 27.3-23.7 60-6.9 21.2-10.7 30.8-18.9 47.7-5.5 11.7-10.1 21.5-10.1 21.7 0 .3-2.7 6.2-6 13.1-3.3 6.9-7.6 16.5-9.6 21.3-2 4.8-5.5 12.3-7.9 16.7-2.4 4.4-8.8 16.8-14.2 27.5-5.4 10.7-14.1 26.7-19.3 35.5-5.2 8.8-10.8 19.1-12.5 23-5.8 13.2-5.1 12.9-9.8 4.4-2.2-4.1-8.3-14.8-13.5-23.9-11.3-19.9-18.7-34.8-24.5-49.4l-4.4-10.8 5.2-11.7c2.9-6.4 6.7-14.1 8.5-17 6.1-10.5 13.8-26.7 21.4-45.4 12.3-30.2 15.6-35.9 25.2-42.6 13.5-9.4 22.1-22.1 28-41.6 2.5-8.2 2.7-10.5 2.8-26 .1-13.3-.3-18.8-1.8-25-2.3-10.1-9.7-30.8-14.5-40.4-10.4-21.1-37.5-44.3-71.6-61.1-11.3-5.6-19.3-8.6-41.5-15.4-15.1-4.6-30-9.1-33-9.9-24.2-6.8-93.8-12.6-117.2-9.9-5.1.7-12.9 1.2-17.3 1.3-7.6.2-12.5 1.7-12.5 3.9 0 .4.7 1.6 1.6 2.5 1.8 1.8 6.3 1.6 27.9-1.2 15.1-2 35.2-1.3 67 2.2 38.4 4.2 39.7 4.5 83.8 18.6 26.7 8.5 40.4 14.4 56.2 24.4 17.5 11 35.5 26.3 43 36.5s17.9 36.7 21.1 53.7c2.3 12.4 1.5 34-1.6 43.8-5.6 17.4-14.3 29.9-27 38.5-8.8 6-27.2 14.8-36.6 17.5-7.1 2.1-10.8 2.5-21 2.5-15.3 0-21.6-1.9-32-9.5-2-1.4-4.8.6-5.2 3.6-.2 1.5 2.3 7.8 6.3 15.7 8.4 17 11.8 27.2 15 45.7 6.7 38.4 17.5 67.9 38.5 104.5 3.9 6.9 9.9 17.4 13.2 23.5 3.3 6 7 12.3 8.2 14 1.2 1.6 5.6 10.1 9.6 18.8 5.4 11.5 8.2 16.4 10.3 17.9 3.9 2.8 7.4 10.6 8.7 19.8.6 4.1 2.1 12.1 3.4 17.7 1.3 5.7 2.2 10.3 2.1 10.3-.1 0-5.1-1.7-11.1-3.7l-10.9-3.8-26.5-.3c-27.5-.3-37 .4-52 3.9-9.9 2.3-33.8 6.1-39.3 6.3l-3.9.1-5-11c-6.3-13.8-16.1-48.9-22.3-80.5-5.9-29.6-7.4-34.8-14.6-50.4-3.4-7.2-8.5-19.4-11.4-27.1-6.2-16.2-17.3-42.4-18.7-44.3-1.7-2-5.6-1.4-6.9 1-.8 1.5-1.4 25.3-2 83.7-.8 79.1-1.1 86.1-4.3 101.6-.8 3.8-1.8 11.2-2.1 16.2l-.8 9.3-4.6-4.9c-6.4-6.7-12.2-9.8-20.6-11-28.1-3.9-46.9-3.7-65.2.6-10.8 2.5-27.6 4.4-29.5 3.2-1.4-.9-2.5-16-1.7-23.8.4-3.7 1.9-10.6 3.3-15.4 2.9-10 5.1-24.4 6.6-43.7.6-7.4 2.6-26.6 4.5-42.5 7-59.7 8.5-72.9 12-107 5.2-51 6-57.1 12.5-99.5 8-51.4 8.8-59.1 10-96.7 1.3-42 1.3-58.7-.1-75.8-1-11.7-1.6-14.4-3.3-16.3-2.8-3.2-8.2-2.7-10.9 1-1.9 2.6-1.9 2.9-.3 14 1.3 9.1 1.6 19.8 1.6 54.9 0 24-.5 49.4-1 56.5-.6 7.1-4 33.1-7.5 57.9-3.5 24.7-8 61.6-10 82-1.9 20.3-4.2 44.2-5.1 53-.8 8.8-3.5 33.8-5.9 55.5-2.4 21.7-5.1 48-6 58.5-2.1 25.2-3.1 31.8-6.8 46-3 11.2-3.2 13-3 27.3.1 13.5.4 15.6 2.2 18.6 1.2 1.9 3.4 3.9 5 4.6 4.1 1.6 19.2.4 31.3-2.6 18.8-4.7 29.5-5.1 58.7-2.4 13.5 1.2 16.8 2.8 26 12 4.5 4.6 6.5 6 8.7 6 5.7 0 6.9-2.4 7.9-15.5.4-5.5 1.8-15.4 3.2-22 2.4-11.8 2.5-13.3 3.4-83.5.6-39.3 1.2-72.6 1.5-74l.6-2.5 1.4 2.8c.8 1.5 4.4 10 7.9 19 3.5 8.9 8.8 21.7 11.9 28.3 6.8 14.9 8.5 21.1 13.6 47.9 5.6 29.7 16.4 69 23 83.5 2.9 6.3 6.1 12.5 7.2 13.7l2 2.2-2.5 3.3c-4 5.3-14.8 26.6-25.5 50.3-5.5 12.1-14.5 31.4-20 43-5.5 11.5-14.3 31.3-19.7 44-5.4 12.6-11.9 27.9-14.5 34-7.4 17.2-15.5 39.7-21.6 60.2-6.5 21.6-13.1 39.6-24.9 67.3-4.5 10.7-10.6 26-13.6 33.9-5.3 14.5-18.2 41.9-26 55.4-2.4 4-8.4 13.8-13.6 21.9-5.1 8.1-14.5 24.8-20.7 37C946 1074 932 1100 932 1098.8c0-.3 2-7.8 4.4-16.5 2.4-8.7 5.3-20.5 6.6-26.3 1.2-5.8 5-20.6 8.5-33 3.5-12.4 8.9-32 11.9-43.5 3-11.6 6.6-25.1 8.1-30 1.4-5 4.8-17.3 7.5-27.5s6.4-22.8 8.3-28c1.9-5.2 4.9-14.9 6.7-21.5 4.3-16.3 12.4-44.6 16.5-58 1.9-6.1 5.7-19.1 8.5-28.9 2.8-9.9 7.7-24.7 10.9-33 7.2-18.7 8.1-21.2 13-41.1 2.2-8.8 6.3-22.1 9-29.5 2.7-7.4 6.1-18.9 7.5-25.5 1.5-6.6 5.6-20.3 9.2-30.5 3.6-10.2 6.6-19.6 6.7-20.9.1-1.3-.6-2.8-1.6-3.5-1.5-.9-2.2-.6-4.1 1.5-2.9 3.4-13.9 36-17 50.9-1.4 6.4-4.8 18.1-7.6 26-2.8 8-7.3 23-9.9 33.5-2.9 11.3-7.3 25.4-11.1 34.9-3.4 8.8-8.6 24.3-11.5 34.6-3 10.3-7.6 26.1-10.4 35.1-2.7 9-7.5 25.6-10.6 36.9-3.1 11.3-8 27.9-11 37-5.3 16.4-11.3 37.7-22.7 81-3.2 12.4-8.8 32.6-12.3 45-3.4 12.4-7.5 27.9-8.9 34.5-1.5 6.6-4.9 20.3-7.6 30.5-2.7 10.2-7.3 28.8-10.1 41.5-5.3 23.9-6.9 28.6-18.2 53-7.2 15.6-18.1 42.1-20.8 50.5l-1.7 5.5-.1-6.9c-.1-7.5 1.7-21.4 5.4-40.6 1.3-6.9 3.1-18.1 4-25 .8-6.9 2.6-20.4 4-30 1.3-9.6 3.1-24.7 4-33.5 1.6-16.2 5-41 8.5-63 7.7-47.9 8.3-52.2 13-102 .6-6.1 1.5-22.9 2-37.5 1-27.8 4.9-76.8 7.5-93 .9-5.2 1.8-10.9 2-12.5.2-1.7 1.8-17 3.5-34 4.7-46.9 12-92.6 21.6-135.1 3.1-13.9 5.4-25.9 5.1-26.8-.8-2-4-2.1-5.7-.2-1.9 2.4-11.5 47.5-16.9 79.6-6.5 38.7-7.4 45.3-11.6 85.5-1.9 18.7-4.2 37.8-5 42.5-2.5 13.9-6.5 63.6-7.5 92-.9 24.6-1.5 32.9-5.4 73.5-1.3 12.5-8.6 63.2-10.2 70-1.3 5.6-5.7 38.3-7.4 55.5-1.1 10.7-3.1 27.4-4.5 37-1.3 9.6-3.4 24.5-4.5 33-1.2 8.5-2.9 19.5-3.9 24.5-2.1 10.7-2.5 9.8-4.1-9.5-.6-7.4-1.8-18-2.6-23.5-2.5-17.1-4.3-36-5.9-65-1.5-25.8-3.2-45.2-7.1-80.5-1.2-10.1-1.8-33.2-2.4-91.5-.4-42.9-1.3-85.9-2-95.5-1.7-25.2-.8-79.4 1.9-109.1 2.5-28.9 11.5-92.4 14.2-100.6 1.4-4.5.4-7.3-2.7-7.3-1.9 0-2.8.8-3.8 3.2-1.3 3.2-9 52.4-12 77.3-5 40.3-7.1 104-4.5 138 .5 7.1 1.4 49.4 1.9 94 .7 59.6 1.3 84.4 2.4 94 3.8 33.9 5.6 54.2 7.1 80 .8 15.4 2.2 33.8 3 41 .8 7.1 1.3 13.1 1.1 13.2-.6.6-4.5-19.2-8.6-43.2-3.7-21.9-9.3-46.1-18.1-79-7.6-28.1-13-43-26.1-72-5.8-13-9.4-22-19.3-49.1-4.1-11.1-9.3-24.4-11.5-29.5-8.8-19.9-14.3-38.4-21.5-71.9-1.5-6.9-4.8-21.3-7.5-32-2.6-10.7-5.5-23.3-6.5-28-.9-4.7-2.5-11.4-3.5-15-2.2-7.6-7.1-37.4-9.9-61-1.1-9.1-2.9-22.8-4-30.5-1.1-7.7-2.3-17.2-2.8-21-.8-6.6-.9-7-3.5-7.3-3.9-.5-4.2 1.9-2.3 17.7.8 7.4 1.3 13.6 1.1 13.9-.3.2-.7-1.3-1.1-3.4-.3-2.2-1.5-6.6-2.6-9.9-4.6-13.6-14.1-46.6-15.8-55.1-1-5-4-14.3-6.5-20.7-2.5-6.4-5.8-15.9-7.2-20.9-1.4-5.1-4.8-16.1-7.4-24.5-7.8-24.2-16-69.5-21.2-117l-1.3-12.3 3-.5c8.8-1.4 26.1-3.4 34-4 11.5-.8 19.4-2.5 37.8-8 16-4.8 18.7-5.3 18.7-3.1 0 .8-2.9 8.1-6.4 16.3-11.1 26-15.2 40.9-18.2 67.3-1.3 10.6-1.7 26.2-1.8 72.5-.2 51.4-.5 60.1-2 67.5-3.1 15.4-3.1 14.6-.1 17.5l2.7 2.7 17.6-.6c9.7-.3 22.4-1 28.2-1.5 6-.6 22.6-.8 38.5-.4 19.2.4 31.8.2 40.1-.7 9.6-.9 13.3-.9 17.6 0 4.1.9 6 1 7.6.1 2.1-1.1 2.1-1.5 2.1-38.4 0-20.4.4-45.8 1-56.2.6-10.5 1.6-57.9 2.1-105.5 1.4-140.8 2.1-170.7 4.5-200.5 3-36.3 5.2-52.6 12.6-91.9 5.1-27.4 8.1-39.2 12.6-50.5 2.9-7.2 2.7-11.3-.8-16.2-1.2-1.7-3.6-3.7-5.3-4.4-5.7-2.4-44.3-4-63.8-2.7-10.7.8-39.6 1.2-75.8 1.1-67.1-.2-66.3-.3-66.8 6.7-.2 3.3.2 4.6 2.5 7 1.5 1.6 3.9 3.6 5.3 4.5 2.5 1.6 2.5 1.7 3.1 21.5.7 20.6 1.4 26.2 7.4 54.9 4.7 22.3 9.5 51.8 10.2 62.8l.6 8.9-3.9-2c-2.1-1.1-7.6-3.1-12.1-4.6-7.3-2.3-12.2-3-36-5.2l-5.3-.5v-12.3c0-6.7-.7-20-1.6-29.6-1.1-13.1-1.5-26.9-1.2-55l.3-37.6-2.5-4.8c-4.7-9.1-14.2-11.1-27-5.7-9.3 4-19.1 6.6-34 9.1-15.7 2.6-32.3 6.2-46.7 10.2l-11.2 3-2.7-2.1c-1.5-1.2-3.6-2.1-4.8-2.1-2.8 0-7.5 2.9-12 7.5-3.8 3.8-4 3.9-20.3 6.1-6 .9-8.4 6.2-4.3 9.9 1.9 1.7 5.6 1.7 14.9-.1l2.6-.5.1 18.3c0 13.8.6 21.3 2.2 30.8 2.5 14.5 8.5 63.2 10.7 86.5 2.6 28.1 5.5 83.1 5.5 105.7 0 17.9-.5 26.5-2.9 47.1-1.7 13.9-4.4 39.1-6.1 56.2-3 31-7.8 75.7-8.3 78.5-.2.8-2.9-6.6-6.1-16.5-3.2-9.9-8-24.8-10.6-33.1-2.7-8.3-6.7-21.6-8.9-29.5-2.2-8-7.9-25.7-12.6-39.5-10.7-30.7-11.4-33-16.5-53.4-10.2-40.8-17.7-65.4-28.7-94-2.6-6.6-7.8-24.8-12.3-43-10.1-40.2-18.6-71.4-24.8-91-4.9-15.1-10.2-37.9-10.2-43.5 0-1.6.6-5.5 1.2-8.8 1.2-5.8 1.2-6-1.2-7.9-2.3-1.9-3.5-2-15-1.5-6.9.3-15.6.2-19.5-.3-4.5-.6-11.4-.5-19 .2-6.6.6-13.4 1-15.2.9-3.7-.1-13.1-3.6-15.4-5.7-.9-.8-6.3-2.7-12-4.2-9.6-2.4-11.9-2.7-30.4-2.7h-20l-15.8 4.2c-8.7 2.4-20 5.9-25 7.9-18.9 7.4-56.9 27.2-78.7 40.8-8.4 5.3-36.5 24.9-44.6 31.2-14.2 11-32.4 32.2-42 49.1C23 182.2 16.8 211.2 8.8 277c-.8 6.6-1.3 22.6-1.3 43 0 35.3.5 39.9 6.6 63.6 6.2 24.5 13.9 40.5 33.9 70.3 19.3 28.9 24.3 35.4 40.7 53.4 38.2 42 40.4 44.5 50.3 57.7 9.3 12.3 21.4 24.5 38.5 38.8 8.3 6.9 18.4 15.6 22.5 19.2 4.1 3.7 11.8 10 17 14 5.2 4 14.2 11.4 20 16.4 5.8 5 12.8 10.9 15.5 13 2.8 2.2 22.6 21.6 44 43.1 35.9 36.2 65.3 64.7 84.8 82.3 12.4 11.1 22.4 23.3 36.4 44.2 3.9 5.8 10.2 14.6 14.1 19.7 9.4 12.1 41.2 44.4 53.2 54.1 5.2 4.2 19.1 16.9 30.8 28.2 18.2 17.5 24.2 24 40.5 44.5 10.6 13.2 22.8 28.8 27.1 34.7 12.2 16.7 31.3 37.5 65.6 71.4 38.9 38.4 52.7 50.9 74 66.9 11 8.3 59.5 55.8 78.6 77 5.4 6 12.2 13.5 15 16.5 2.9 3 10.2 11.3 16.4 18.5 13 15.1 24.7 26.5 27.3 26.5 2.2 0 6.5 4.3 8.8 8.7 1.6 3 1.7 3 9 2.8 13.9-.5 18.8-1.7 25.9-6.5 3.6-2.4 12.3-9.8 19.3-16.5 7.1-6.6 16.4-14.7 20.7-18 4.3-3.3 14.5-12.6 22.7-20.5 13.8-13.5 17-15.9 42.4-33 15.1-10.1 34.2-23.6 42.4-30 8.3-6.4 20.4-15.8 27-20.7 6.6-5 16.7-13.2 22.5-18.3 12.4-10.8 28.5-22.7 54-39.8 10.2-6.9 22.1-15.4 26.5-19.1 4.4-3.6 13-10 19-14.1 6.1-4.1 17.3-12 24.9-17.5 12.9-9.2 19.5-14.1 48.7-36.1 12-9 27.9-20.6 48.4-35.4 30-21.5 56.4-41 71.4-52.5 8.6-6.7 18.5-14.3 22.1-17 3.6-2.7 13.5-10.8 22.1-18 16.2-13.5 45-34.5 62.4-45.6 5.5-3.5 15.8-10.6 23-15.8 7.1-5.2 16.1-11.4 20-13.9 3.8-2.5 14.7-10 24-16.7 9.4-6.7 21.7-15.2 27.5-19 17.8-11.5 48.1-34 60.6-44.8 6.5-5.7 15.1-12.8 18.9-15.9 3.9-3 11.9-9.6 17.9-14.6 6-5.1 16.1-13.1 22.5-17.9 6.4-4.8 17.7-13.7 25.1-19.8 7.4-6.1 19.1-15.1 26-20 6.9-5 18.1-14.4 25-21 20.9-20.1 26.6-25.1 38.3-33.8 12.8-9.5 30.5-22.2 39-28 3.6-2.5 5.7-4.6 5.7-5.8 0-1.1 3.9-6.7 8.6-12.5 10.2-12.7 13.3-17.4 22.5-34.4 11.4-21.2 21.3-47.4 30.3-80.4 5.7-20.5 9.1-35.7 10.8-47.1 1.7-11.6 1.6-60.4-.1-73.5-1.7-13.1-8.5-43.4-12.1-54.1-6.2-18.7-15.1-32.4-28.1-43.7-10.2-8.8-15.3-11.7-32.9-18.8-29.5-11.8-57.7-20.8-69.7-22.3-4.5-.6-11.2-1.7-14.9-2.6-3.7-.8-12.3-2-19.3-2.6-21-1.7-28.1-4.8-28.1-12.4 0-10.3 10.7-18.4 36.5-28 21.3-7.9 36.8-10.1 54.3-7.6 5.8.8 9.3 3.3 7.7 5.5-.6.7-6.3 7.9-12.9 16.1-19.8 24.6-22.5 29.4-17.6 31 2.5.8 4.2-.5 8.3-6.4 4.8-7.1 20.5-27.2 24.5-31.4 2-2 4.4-3.7 5.3-3.7 2.7 0 5.7-4.6 6.8-10.3 1.6-8 3-24 4.1-48.2 1.3-27.9 1.9-34.4 3.6-37.7.8-1.5 1.4-4.3 1.4-6.2 0-4.4-4.1-8.1-8-7.1-1.4.3-8.1.6-15 .5-10.2-.1-16.2-.9-32.5-4.1-11-2.2-23.4-4.9-27.5-6.1-15.8-4.5-19.4-4.9-40-5.4-18.3-.3-21.2-.2-27.3 1.6zm45.3 10c3.6.6 12.6 2.8 20 4.9 30.5 8.7 46.8 12.1 57.8 12.1h10.2v13.2c0 16.3-1.8 58.6-2.6 61-.4 1.5-.9 1.6-2.6.7-1.1-.6-9.3-1.3-18.2-1.6-14.9-.5-16.9-.4-26.7 2-18 4.4-41.4 14.4-51.5 22-9.5 7.2-13.4 13.9-13.4 22.9 0 9.3 5.6 16.4 15.2 19.3 2.9.9 12.3 2.2 20.8 3 8.5.8 17.5 1.9 20 2.5 2.4.6 9.2 1.7 15 2.5 5.8.8 13.2 2.4 16.5 3.5 3.3 1.2 11.6 3.7 18.5 5.6 6.9 2 16.8 5.4 22 7.6 5.2 2.2 13.3 5.4 18 7 9.5 3.4 11 4.3 22.8 14.1 10.2 8.5 13.7 13.1 20.7 27.2 6 12.2 8.7 20.7 13.9 44.2 4.9 22.1 5.9 34.5 5.3 67.1-.5 31.1-1 33.9-10.7 70.4-8.8 33.2-17 55.3-29 78.5-11.1 21.4-18.2 31.4-33.4 47.1-9.5 9.8-16.1 14.8-28.6 21.7-5.8 3.2-14.2 8-18.8 10.7-27.6 16.1-38.4 19.1-73.3 20.3-23 .7-29.6-.2-40.8-5.6-6.9-3.4-10.3-6-19.8-15.2-22.6-21.9-25.7-27.6-30-54.2-2.5-16-2.5-55.9 0-66.8l1.8-7.7h7.5c6.2 0 9.1-.6 17.9-4 12.8-4.9 14.9-5.1 11.3-1.3-3.2 3.5-5.8 8.5-5.8 11.4 0 3.1 2.8 5.9 5.9 5.9h2.6l.2 13.3c.3 17.7 2.1 27.4 7.2 37.9 4.7 10 6.5 11.2 17.8 12.2 3.9.3 12 1.8 18 3.2 8.6 2.1 12.4 2.5 18.8 2.1 7.4-.4 9.2-1 24.4-8.1 16.8-7.8 30-16.2 35.3-22.6 1.6-1.9 5.8-9.1 9.4-16 8.2-16 16.9-31.8 21.7-39.7 9.6-15.8 12.2-24.9 13.2-46.2.3-8.2 1.2-15.8 1.9-17.6.8-1.8 1.7-5.2 2.1-7.6.3-2.4 1.3-5.9 2.2-7.8 1-2.3 1.8-9 2.4-21.5.5-9.9 1.4-21.7 1.9-26.2.6-4.4 1-9.7 1-11.7 0-4.3-3.3-13.5-6.1-17.1-1.1-1.4-3.1-5.4-4.5-8.8-1.3-3.4-3.4-7.3-4.6-8.6-3.1-3.3-12-9.3-19.7-13.1-13.5-6.9-22.8-7.9-85.6-10.1-30.5-1-66.9-3.4-77.4-5-7.4-1.2-27.5-6.4-33.6-8.8-6.4-2.4-19.7-11.6-24.8-17.1-2.7-2.8-5.9-7.5-7.2-10.4-4.3-9.1-4.8-14.4-4.2-38.7.7-23.3 2.2-35.2 5.3-41.1 1-1.9 2.1-5.7 2.5-8.5.4-2.9 2.5-8.9 4.6-13.5 6.8-14.4 32.6-51.1 44.2-62.6 7.4-7.4 26.2-20.6 37.2-26.1 13.7-6.8 20.9-8.3 37.4-7.7 7.7.2 16.9.9 20.5 1.5zM893.3 42c2.1.6 4.1 1.8 4.4 2.7.3.8-1 6.3-3 12.1-5.5 16.5-7.6 26.3-15.6 73.7-8.4 49.1-11 99.5-11.1 207.3 0 71-1.1 131.4-3 170.5-.5 11.1-1 33.5-1 49.8v29.6l-13.2.9c-7.3.4-31.5.9-53.8.9-25.9.1-42.8.6-47 1.3-3.6.6-10.2 1.2-14.7 1.2-9.3 0-9.2 0-7.1-7.5.7-2.7 1.3-27.3 1.8-73.5.6-58.4 1-71.2 2.4-79.8 3.4-20.7 8.6-36.8 19.2-60.1 2.7-6 4.9-12.5 5.2-15.2.4-4.1.1-5.1-2.2-7.4-2.5-2.5-3.1-2.7-8.4-2-3.1.4-10.1 2-15.6 3.7-22.4 6.6-28.4 7.9-44.1 9.3-8.8.8-19.1 1.9-23 2.5-3.8.5-9.3.9-12.2 1-13 0-14.8 4.8-15.8 43.4-.4 13.4-1.7 31.4-3.3 45.6-2.4 20.9-2.7 27.1-2.6 55.5.1 31.6 1.7 72 3.3 80.3.5 2.3.5 4.4.1 4.7-.4.3-9.2 0-19.6-.5-14.2-.7-22.5-1.7-33.4-4-16.2-3.3-23.8-3.6-38.5-1.5-5.5.8-12.9 1.5-16.5 1.5-3.6 0-8.1.4-9.9 1-1.9.5-3.7.7-3.9.5-.3-.3.2-3.1 1-6.2.9-3.2 3.3-14.8 5.3-25.8 2.1-11 4.3-20.6 4.9-21.4.6-.8 1.1-4.6 1.2-8.5.1-3.9 1.1-14.3 2.2-23.1 1.2-8.8 4-33.1 6.2-54 3.6-33.9 5.9-54.5 10.5-92.5.8-6.5 1.5-21.1 1.5-33.5 0-21-2.8-78.3-5-104-1.8-20-7.8-75-10.1-91.9-3.4-25.4-1.8-47.7 3.8-51.3 5.9-3.9 41.4-13 67.3-17.3 16.1-2.7 26.8-5.4 35.4-9.1 8.7-3.7 12.8-3.8 15.5-.3 2 2.6 2.1 3.7 2.1 41.8 0 25.4.6 45.2 1.5 56.6 1.9 23.3 2 37 0 39.6-1.9 2.6-1.9 4.8.3 6.6 1.3 1.2 5.4 1.7 18.7 2.1 17.2.6 24.7 1.8 35.4 5.8 3 1.1 6.7 2.9 8.2 3.9 5.4 3.9 11.9 1.7 13.5-4.6 1.8-7.2-3.4-45.2-10.7-77.9-5.4-24.4-6.9-35.7-6.9-52.5-.1-19.4-.8-23.6-4.9-27.2-2.1-1.9-2.7-3-1.9-3.3 1.7-.6 117.5-1.3 154.8-.9 16.4.2 30.1.8 32.3 1.4zM283 44.7c9.3 2.5 16.6 3.3 46.5 5.2 8.3.5 17.7 1.4 21 2 3.3.6 10.8 1.1 16.7 1.1h10.7l-1.2 3.2c-.7 2.2-1.1 16.1-1.2 42.8 0 29.7-.5 43.6-1.8 56-.9 9.1-2.4 26.1-3.2 37.8-1.5 19.5-2.8 30.9-3.9 32-.3.2-5-1.7-10.5-4.2-21.3-9.8-39.3-12-89.6-11.3-36.1.5-41.1 1.1-55.5 6.1-10.4 3.6-17.4 8.1-26.6 17.1-16.1 15.9-26.9 33.6-32.1 53-2.4 8.8-2.7 11.9-2.7 26-.1 19.1 1.2 25.1 8.4 40.1 6.4 13.2 16 23.7 30.9 33.7 12.5 8.4 18.2 10.8 34.9 14.9 12.1 2.9 13.3 3 27.2 2.5 8-.4 17.2-1.3 20.5-2.2 3.3-.8 9.4-1.5 13.5-1.5 18.1 0 62.9-9.1 85.7-17.4 4-1.4 8.3-2.6 9.6-2.6 3.3 0 9.8 5.1 9 7-4.7 11.7-4.4 21.7 1.1 39.3 4.3 14 5.9 23.4 8.6 49.2 2.3 21.6 2.5 32.2.8 39.4-1.3 5.9-.2 8.1 4.2 8.1 3.6 0 10-6.8 10-10.7 0-2.9-2.5-6.3-4.7-6.3-1 0-1.3-1.9-1.3-7.8 0-10.3-2.7-42.4-4.5-54-.9-5.1-2.6-14-4-19.8-2.6-11.2-3.2-21.4-1.4-26.1.5-1.5 2.3-4.2 3.9-5.8 1.6-1.7 3-3.7 3.1-4.5.7-3.3-1.1-6.8-4.1-8-2-.8-3-1.9-3-3.4 0-1.2-.7-3.2-1.6-4.5-4.5-6.4-16.6-6.4-32.6 0-16.9 6.7-36.8 11.6-68.7 16.9-21.2 3.5-18.7 4.3-23.2-7.2-5.2-13.1-25.8-49.3-29.3-51.6-5.4-3.3-26.5-37.3-45-72.5-7-13.2-9.2-15.2-11.6-10.7-.9 1.7 0 4.1 5.6 14.8 12.5 23.7 33.1 58.4 39.2 66.2 2 2.5 5.4 6.5 7.7 9 7.2 7.9 31.1 53.7 29.1 55.7-.2.2-7.1.7-15.3 1-14.2.5-15.3.4-27.7-2.6-15.7-3.8-19.3-5.4-31.7-13.6-16.8-11.2-27.4-25.6-31.9-43.1-3-11.7-2.8-32.8.4-44.9 3.6-13.5 6.1-19 13.4-30 9.5-14.2 22.6-27.2 32.2-31.8 17.1-8.1 35.2-10.2 79.5-9.4 33.2.6 42.8 1.7 56.5 6.2 10.9 3.7 17.2 7.4 18.1 10.7.4 1.5 3 8.3 5.8 15 2.7 6.8 8.5 21.1 12.7 31.8 8.1 20.7 14.8 34.7 21.6 45.7 2.3 3.8 8.3 14.9 13.3 24.8 5.1 9.9 13.4 26.1 18.5 36 5.1 9.9 11.6 24.5 14.5 32.5 10.8 29.7 19.1 51.1 27 69.5 7.8 18.2 19.3 49 25 66.4l5.2 16.4-1.9 8.6c-1 4.7-2.6 11.1-3.4 14.1l-1.6 5.5-3.4-6.7c-1.9-3.7-4.8-10.2-6.5-14.4-1.6-4.3-5.2-11.8-7.9-16.8-6.6-12.3-13.1-28.5-17.5-43.6-5.5-19-17.1-45-28.6-64.6-8.6-14.5-23.2-48.3-24.7-56.9-.6-3.8-1.9-5.5-4.3-5.5s-4.2 3.6-3.4 6.8c1.1 4.4 11.1 30.1 15.3 39.2 2.2 4.7 7.1 13.9 10.9 20.5 3.9 6.6 8.2 14.3 9.6 17.1 5.9 11.7 14.9 34.1 18.3 45.6 4.3 14.8 12.1 34.4 18 45.3 2.3 4.4 6.3 12.8 8.7 18.7 2.4 5.8 8.1 17.3 12.7 25.5 13.9 24.8 24.2 42.6 27 46.8 8.4 12.5 24.8 43.1 49.7 93 20.6 41.1 25.2 49.4 39.3 70.5 5.3 8 12 18.8 15 24 2.9 5.2 8.1 13.5 11.5 18.5 3.4 4.9 8.6 13 11.5 18 2.9 4.9 8.4 13.7 12 19.5 3.7 5.8 9.1 14.8 12 20 3 5.2 9 15.4 13.6 22.5 4.5 7.2 12.3 21.4 17.3 31.7 9.4 19 19.2 36.1 34 59.1 4.5 7 11.9 19.2 16.5 27 4.6 7.8 16 26.4 25.4 41.4 9.4 14.9 19 30.7 21.3 35 2.3 4.3 7.6 13.6 11.6 20.7 4.1 7.1 10.1 18.1 13.3 24.5 3.2 6.4 7.3 14.1 9.1 17.1 3.4 5.9 28.6 55.4 30.7 60.6 1.1 2.6 1 3.7-.6 7.4l-1.8 4.3-5.9-8.4c-3.2-4.6-12.7-17.6-21-28.9-8.4-11.3-20.3-28.4-26.5-38-12.8-19.9-22.9-34.3-31.2-44.6-3.1-3.9-8.5-11.3-11.9-16.5-6.1-9.4-8.1-12.3-20.9-31.4-3.7-5.5-10.7-16.5-15.5-24.5-4.8-8-14.3-22.9-21.1-33.3-12.9-19.5-19-29.7-39.2-65.7-12.9-23-19.7-34.6-30.9-53-3.8-6.3-12.1-20.1-18.3-30.5-6.3-10.5-13.9-22.8-17-27.5-3.2-4.7-9.7-15.5-14.5-24-4.8-8.5-11.3-19.6-14.5-24.5-3.1-5-7.8-12.8-10.5-17.5-2.7-4.7-7.3-12.1-10.3-16.5-2.9-4.4-9.3-15.9-14.1-25.6-4.9-9.7-10.4-20-12.3-23-1.9-3-7-11.3-11.3-18.4-4.3-7.2-8.8-14.4-10-16-4.1-5.4-13.7-21.8-20.8-35.5-3.8-7.4-8.8-16.2-11-19.5-2.3-3.3-6.2-10.8-8.8-16.6-6.3-14.2-11.3-24.2-14.8-29.3-1.6-2.2-4.1-6.6-5.6-9.6s-4.9-9.1-7.6-13.5c-4.9-8.1-15.3-30.3-16.5-35.3-.9-3.6-2.3-5.2-4.5-5.2-2.3 0-3.3 1.7-3.1 5.2.4 4.4 11.6 29.3 17.5 38.7 3 4.7 6.7 11.1 8.2 14.1 1.5 3 4.5 8.2 6.6 11.5 3.5 5.6 5.8 10.3 15.2 30.7 2 4.3 5 9.9 6.8 12.5 1.8 2.5 6.9 11.6 11.4 20.2s11.3 20.5 15.2 26.6c24.6 38.8 29.8 47.6 39.1 66.2 5 9.8 11 20.8 13.4 24.3 2.5 3.6 7.8 12.1 11.8 19 4.1 6.9 9.3 15.4 11.6 19 2.3 3.6 8.1 13.5 12.9 22 4.8 8.5 11.3 19.3 14.5 24 3.1 4.7 11.6 18.6 19 31 7.3 12.4 17.2 28.8 22 36.5 4.8 7.7 11.6 19.4 15.2 26 3.6 6.6 8.3 14.9 10.5 18.5 2.1 3.6 5.9 10.1 8.3 14.5 8.6 16 15.5 27.4 29 48 7.5 11.5 17.5 27.3 22.2 35.1 13 21.3 36.2 55.8 51.1 75.9 7.4 9.9 16.4 22.5 19.9 28 3.6 5.5 9.9 15.2 14 21.5 4.1 6.3 13.5 19.6 20.9 29.5 7.4 9.9 15.6 21.1 18.2 25 2.6 3.8 6.3 9.1 8.2 11.6 3.1 4.1 3.3 4.8 2.1 6.5-1.8 2.5-1.5 2.7-21.7-20.1-28.3-31.9-31.1-34.9-64.9-69.1-24.7-25-35.6-35.3-44.1-41.7-22.5-16.8-42.5-35.2-86.9-79.6-26.8-26.9-39.2-40.8-53.3-59.6-6.6-8.8-14.8-19.4-18.1-23.5-3.4-4.1-10.5-13.1-15.9-20-10.8-13.9-45.5-48.4-64.3-63.8-12.7-10.4-42.8-41-51.9-52.7-3.4-4.4-10.4-14.1-15.5-21.5-18-26.2-21.3-30-51.5-57.9C359 761.4 329.9 733 306 709s-46.2-45.8-49.5-48.5c-3.3-2.8-10.5-8.9-16-13.7-5.5-4.8-14.8-12.4-20.6-17-5.9-4.6-14.6-11.9-19.5-16.2-4.9-4.3-14.6-12.5-21.5-18.2-14.9-12.2-33.2-31.8-39.4-42.3-.4-.7 5.5 2.9 13.1 8.1 28.9 19.7 55.5 32.6 76.9 37.4 9.5 2.1 37.4 3 44.5 1.5 3-.7 16.6-4.8 30.1-9.2 21.9-7.1 26.5-9 42.2-17.4 9.6-5.1 30.1-15.7 45.4-23.5 20-10.1 27.8-14.6 27.8-15.8 0-3.9-7.1-1-50.1 20.6-36.7 18.4-46.1 22.7-57.4 26.2-7.4 2.3-18.9 6-25.5 8.3-10.9 3.6-13.2 4.1-24.6 4.5-13.8.5-25.4-.7-37.6-3.9-26.8-7-78.3-38.8-110.8-68.5-10.2-9.2-29.5-31.8-33.4-39.1-1.7-3.1-3.4-4.9-5.1-5.3-1.9-.5-6.1-6-17.8-23.5-8.4-12.7-17.2-26.9-19.7-31.6-10.3-19.9-16.9-41.3-20.6-66.7-4.6-31.8-.5-86.6 10.7-142.2 4.6-22.6 6.5-29 11.9-39.7 6.1-11.9 15.7-24.6 29-37.9 25.7-25.8 97.1-69.3 137.1-83.4 10.4-3.7 30.6-8.9 38.3-9.8 10.7-1.4 28.9-.2 39.1 2.5zm116.4 101.8c3 11 6.3 23.4 7.5 27.5 1.2 4.1 4.8 18.5 8.1 32 3.2 13.5 7.5 28.8 9.6 34 11 28.8 19.1 55.3 29.8 97.5 5.2 20.4 6.4 24.5 17.1 55 4.2 12.1 9 26.9 10.6 33 3.9 14.2 15.1 50.2 24.1 77.2l7.1 21.3-2.2 13.4c-3.3 20-3.3 20-5.5 13-4.2-13.6-18.8-51.3-28.3-73.4-2.5-5.8-7.2-17.7-10.5-26.5s-8.8-23.7-12.2-33c-5.8-15.7-15.8-36.3-27.7-57.5-2.6-4.7-6.5-12.6-8.7-17.5-2.1-5-6-12.3-8.5-16.2-7-10.9-15.7-28.9-22.8-46.8-3.4-8.8-8.7-22.1-11.6-29.5-6.3-15.7-6.9-17.5-5.7-16.8.5.3 1.8.2 3-.2 1.8-.7 2.2-1.9 2.7-8.2.4-4 1.3-13.4 2.1-20.8s1.8-18.9 2.1-25.5c.4-6.6 1.3-17.9 2.1-25 .8-7.2 1.7-22.9 2.1-35l.7-22 4.8 15c2.7 8.2 7.3 24 10.2 35zm1096.8 2.6c6.7 1.5 10.8 5.3 10.8 10.3 0 8.8-9.1 24.8-16.7 29.2-4 2.4-5.1 2.6-11.1 2.1-11.8-1.2-22.2-10.1-22.2-19.3 0-6.1 2.2-11 6.2-13.4 4.2-2.5 6.9-2.5 11.8 0 5.2 2.7 6.6 2.5 10.2-1 2.4-2.5 2.8-3.5 2.3-6-.8-3.5.1-3.7 8.7-1.9zm101.4 33.6c0 20.7 1 26.6 6.3 37 3.7 7.4 9.2 13.7 17 19.3 6 4.4 6.1 4.5 3.4 5-2.1.4-2.9 1.2-3.3 3.5-.4 1.7-8.7 15.8-18.5 31.5-22.3 35.7-40.4 64.7-50.8 81.5-4.4 7.1-10.7 17-13.9 21.8-3.2 4.8-9.2 15.2-13.3 23-4.1 7.8-7.5 13.5-7.5 12.7 0-3.8 6.5-49.7 10.1-71.4 4.6-27.6 5-37.3 2-44.1l-2.1-4.7 2.2-4.1c1.1-2.3 3.2-6 4.6-8.1 1.3-2.1 4.9-8.2 7.9-13.5 3.1-5.3 8.6-14.8 12.3-21.1 3.8-6.3 8.2-14.9 9.8-19 3.6-9.1 17.6-37.7 26.9-55.2 3.7-7 6.8-12.8 6.8-12.8s.1 8.4.1 18.7zm-149.9.9c4.6 8.7 18.7 18.4 26.8 18.4 3.4 0 3.1 1.4-1.4 6.8-3.7 4.6-15.9 23.2-28.9 44.2-3.6 5.8-11.3 19.7-17.2 31-10.8 20.6-17.7 33-30.9 55.7-7.5 12.8-17.9 32.7-24.9 47.8-4.2 9.1-16.4 30.3-25.8 45-2.8 4.4-6.7 11.2-8.6 15.1-2 3.9-4.2 8-4.9 9.1-1.5 2.5-.6 5.1 2.1 6.1 1.9.7 1.9.9-1.1 7.2-1.7 3.6-4.7 8.7-6.8 11.5-2 2.7-9.3 16.2-16.1 29.9l-12.3 24.8-6.8-13.3-6.8-13.4 6.8-14c3.8-7.7 11-21.2 16-30 5.1-8.8 13.9-25.2 19.6-36.5 5.7-11.3 12-23.7 14-27.5 1.9-3.9 5.3-11.1 7.4-16 3.7-8.6 14.3-31.8 28.4-62 3.6-7.7 9.3-22.6 12.7-33 12.3-38.2 18.1-52.3 29.4-72.7 4-7.4 9.5-17.7 12.1-22.9 2.6-5.2 6.8-13 9.4-17.4l4.6-8 .5 5c.3 2.7 1.6 6.8 2.7 9.1zm191 65.8c9.5 3.9 28.6 8.5 41.7 10.1 16.2 2 58.1 4.5 74.4 4.5 20.8 0 58 2 65.7 3.5 9.4 1.9 22.7 8.8 29.1 15 5.1 4.9 5.2 5.1 5.9 12.4.4 4.1 1.3 8.8 2 10.6 1.8 4.1 2.2 44.4.6 49.5-.6 1.9-1.1 7.9-1.1 13.4 0 9.7-.1 10-4.1 17.4-3.9 6.9-4.1 7.7-3 10.8 1.8 4.9-1.5 19.4-7.4 32.4-2.6 5.8-6.4 15.7-8.5 22-4.2 12.8-20.5 46.3-25.1 51.5-4 4.6-17.6 13.2-27.4 17.3-20.7 8.8-35.3 10.2-47 4.7-7.7-3.7-23.1-18.8-26.5-25.9-5.3-11.1-3.4-23.6 6.5-43.2 5.6-11.2 6.6-13.8 6.3-17.5-.2-3.6-.7-4.5-2.9-5.3-2.1-.7-3.5-.2-8.1 2.8-3.7 2.5-11.8 5.9-23.4 9.8-16.9 5.7-18.2 6-25.8 5.6l-7.9-.3-2 5.5c-7.3 21-5.4 76.7 3.4 102 3 8.7 8.3 15.5 23.8 31.1 13.1 13.1 15.5 15.1 23.1 18.8 14.5 7.1 24.3 8.1 58 6.1 17.9-1.1 24.9-2.4 38.1-7.3l9.4-3.6-14 13.8c-9 8.8-19.9 18.1-30 25.7-8.8 6.5-21.4 16.4-28 21.9-6.6 5.5-16.3 13.2-21.6 17.2-10.3 7.7-37.8 30.2-60.6 49.5-14.9 12.7-38.8 30.4-63.4 46.8-8.1 5.4-18.9 12.9-24 16.7-5.2 3.8-14.3 10.3-20.4 14.3-6 4.1-16.6 11.5-23.5 16.5-6.9 5-18.3 13-25.5 17.6-23.8 15.5-44.1 30.6-62.5 46.5-19.1 16.4-75.6 59.5-109.1 83.1-4.1 2.9-11.3 8.1-16 11.5-4.8 3.5-13.3 9.7-19 13.8-5.7 4.1-18.5 13.6-28.4 21.2-19.9 15.1-43.7 32.4-61.8 44.8-6.4 4.4-15.7 11.2-20.5 15.2-4.8 3.9-14.3 10.9-21.2 15.4-26 17.1-45.9 31.7-57.8 42.1-5.3 4.7-14 11.9-19.2 15.9-39.2 30.3-49.3 37.8-71 52.3-29.9 20-30 20.1-48 37.6-8 7.8-17.4 16.3-21 19-3.6 2.7-12.1 10.3-18.8 16.7-11.6 11.1-20.8 18.5-21.8 17.6-.2-.2 4-5.1 9.4-10.9 5.4-5.7 14.5-16 20.2-22.9 5.7-6.9 15.8-18 22.3-24.8 6.5-6.8 16.4-18.5 21.9-26 5.6-7.5 14.7-19.3 20.3-26.2 5.5-6.9 14.6-18.4 20.1-25.5 5.5-7.2 13.1-16.9 16.8-21.8 4-5.2 14-15.4 24.9-25.5 23.6-21.8 34.7-32.8 67.1-67 15.5-16.3 31.6-32.2 38-37.5 6.1-5.1 15.5-13.2 20.9-18 5.4-4.8 12.4-10.6 15.5-13 15.5-11.4 50.6-38.8 57.2-44.6 4.1-3.6 12.5-11.3 18.5-17.2 6.1-5.8 14.6-13.4 19-16.9 10.2-8.2 19.2-15.7 28-23.5 3.9-3.4 11.5-9.7 17-14.1 5.4-4.3 15.1-12.9 21.5-18.9 6.3-6.1 16.1-14.9 21.6-19.7 5.6-4.8 15.7-14.6 22.5-21.8 6.8-7.2 16.9-17.3 22.4-22.3s14.3-13.1 19.5-18c11.7-11 27.3-24.2 49-41.2 9.1-7.2 23.5-19.8 32-28 14.3-13.9 29.4-27.4 58.7-52.8 6.2-5.4 17.9-17.1 26-26 8.2-8.9 18-19.5 21.9-23.7 13.9-14.8 18.6-20.8 18.2-23.2-.2-1.4-1.1-2.4-2.4-2.6-2.1-.3-7.4 5.2-33.9 35.1-14.5 16.5-29.5 31-56 54.2-13.7 12.1-31.7 28.5-40 36.6-8.2 8-18.4 17.2-22.5 20.5-22.2 17.5-41.5 33.7-49.5 41.4-4.9 4.8-14.6 13.8-21.5 20-6.9 6.2-19.1 18.2-27.3 26.6-8.1 8.4-19.1 19-24.5 23.5-5.3 4.6-14.6 13.1-20.7 18.9-6 5.8-16.4 15-23 20.3-6.6 5.4-16.5 13.6-22 18.3-5.5 4.8-14.5 12.3-20 16.7-5.5 4.5-16.1 14.1-23.7 21.3-11.7 11.2-41 34.8-68.8 55.5-4.1 3.1-10.9 8.7-15 12.4-4.1 3.7-12.6 11.1-18.9 16.3-13.3 11.1-20.1 17.8-56.4 55.8-14.7 15.5-27.7 29-28.9 30-1.2 1 3.8-4.6 11.2-12.6 16.3-17.5 43-50.9 56-70 7.3-10.7 13.5-18 27-32.1 9.6-10.1 22.7-22.6 29-27.8 6.3-5.2 17.6-15.4 25.1-22.6 7.4-7.2 18.2-16.7 24-21.2 5.7-4.4 15.6-12.9 21.9-18.8 6.3-5.9 15.6-14 20.5-18 20.3-16.2 56.6-47.7 72-62.5 5.5-5.3 14.7-13.6 20.5-18.5 5.8-4.9 21.5-20 35-33.5 25.7-25.8 33.7-33.2 48.5-44.6 4.9-3.8 11.8-9.6 15.4-12.9 14-13.1 44.4-52.3 53.6-69.2 3.2-5.9 10-16.9 15-24.3 5.1-7.5 14.3-21.4 20.5-31 6.1-9.6 14.1-21.2 17.7-25.7 6.7-8.6 13.7-18.8 29.8-42.8 5.1-7.7 13.7-19.2 19-25.5 10.4-12.3 12.1-15 11.2-17.4-1-2.5-6.4-2.1-7.2.5-.4 1.1-4.9 7.1-10 13.4-5.1 6.2-16 21.4-24.2 33.7-8.2 12.2-19 27.8-24 34.4-5 6.7-11.6 16.4-14.8 21.5-3.2 5.2-11.6 18.2-18.8 28.9-7.2 10.7-15.5 24-18.5 29.5-8.6 15.8-19.3 30.7-39.3 54.5-10.8 13-14.2 16.3-28.4 27.5-15.9 12.6-26.4 22.3-52 48.1-13.2 13.3-29.4 28.9-36 34.8-6.6 5.8-17.6 15.8-24.5 22.2-13.9 13-47.2 41.8-62.7 54.2-5.5 4.5-14.9 12.7-20.8 18.3-6 5.5-15.1 13.5-20.4 17.7-5.3 4.2-17.3 14.9-26.7 23.7-9.5 8.9-19.1 17.7-21.5 19.5l-4.4 3.4 3-3.4c1.7-1.9 6-6.6 9.6-10.5 3.7-3.8 11.5-12.6 17.4-19.5 5.9-6.9 15.2-17 20.5-22.5 5.4-5.5 18.7-21 29.7-34.5 25.4-31.4 26.6-33 41.1-54.5 6.6-9.9 15.8-22.5 20.4-28.1 4.6-5.5 12.3-15.2 17.3-21.5 4.9-6.3 14.4-17 21-23.9 6.7-6.9 15.7-16.8 20-22 4.3-5.2 14.9-16.7 23.5-25.5s20.1-21.4 25.5-28c12.1-14.7 52.9-56.6 56.7-58.2 1.7-.7 3-2.3 3.4-4 .8-3.2 2-4.3 4.8-4.3 3.2 0 5.6-3 5.6-7 0-4.5-2.8-7.7-7.4-8.6-3.4-.6-3.5-.8-4.3-6.3-.4-3.1-.8-17.1-.7-31.1 0-28.8 1.5-41.9 7.9-69.2 3-13.1 4.1-16.1 7.4-20.9 2.2-3.1 7.8-13.4 12.5-22.8 4.7-9.5 12.1-22.8 16.5-29.4 7.7-11.9 14.7-23 34.1-54.4 33.7-54.4 51.2-81.6 53.6-83.2 0-.1 2.8 1 6.1 2.3zM1516 303.8c0 1.1 1.1 2.4 2.5 3 2.3 1.1 2.5 1.7 2.5 7.3 0 3.3-1.8 16.7-4 29.7-2.1 13-5.3 34.3-7 47.2-3.8 29-4.5 33.4-7.1 45.1-5.4 24.1-7.1 32.6-9.6 47.9-2.6 15.6-2.8 18.3-2.8 48.6v32.2l-6.5.6c-9.5 1-22.2 4-36.7 8.5-7.1 2.3-15.9 4.9-19.8 5.9-3.8 1.1-7.8 2.2-8.7 2.7-1.6.6-1.8.1-1.8-4.9 0-3.1 1.4-12.3 3.1-20.4 4.5-21.6 5.5-28.7 9-61.2 3-27.2 3.3-32.8 3.6-72 .5-48.7-.6-72.2-4.1-88.2l-2.3-10.7 12.6-6.1c19.7-9.6 32.1-13 55.6-15.5 18.5-1.9 21.5-1.9 21.5.3zm-245.4 7.1c-1.4 2.7-5.8 13-9.6 22.7-3.9 9.8-10.3 23.9-14.2 31.3-3.9 7.5-9.4 18-12.1 23.4-2.7 5.4-5 9.7-5.2 9.5-1.1-1-5.6-21.3-7.9-34.8-3.1-18.8-5.4-27.3-10.2-37.6-6.1-13.3-6-12.4-.6-10.7 3.2 1 8.9 1.5 17.6 1.5 15-.1 25.7-2.3 37.1-7.6 3.9-1.8 7.1-3.2 7.3-3 .2.1-.8 2.5-2.2 5.3zm145.8 31.1c3.3 15.5 4.5 40.3 4.7 95.5.2 41.8-3.9 83.4-11.6 118.5-1.5 6.7-2.8 16.5-3.2 23.5l-.6 12h-3.1c-2.3 0-3.1.5-3.4 2-.7 3.6-10.8 15.8-28.9 34.6-9.9 10.2-21.5 23.5-25.9 29.4-4.3 5.9-12.7 17.2-18.5 25-11.2 14.9-18.7 27-31.4 50-4.3 7.7-12.1 20.3-17.5 28-5.3 7.7-13.9 21-19 29.5-5.3 9-14 21.4-20.5 29.5-6.1 7.7-13.6 17.4-16.5 21.5-7.8 10.9-19.6 25.6-26 32.5-6.8 7.3-16.6 19.2-26.9 32.4-4.2 5.4-11.5 14.2-16.3 19.5-4.8 5.3-13.3 15.5-18.9 22.7-5.7 7.3-14.3 17.5-19.2 22.8-4.9 5.3-12.1 14.1-16 19.6-8.7 12.3-18.8 25.1-29.3 37-4.3 5-12.4 14.9-17.9 22-5.5 7-13.1 16.5-16.8 20.9-7 8.3-11.1 13.7-33.4 43.6-7.2 9.6-16.6 22-20.9 27.5-4.4 5.5-12.6 17-18.3 25.5-5.8 8.5-14.4 20.7-19.2 27-4.7 6.3-10.8 15.1-13.4 19.5-8.6 14.3-17.2 26.4-38.9 55-1.2 1.6-1.1.5.5-5.4 2.2-8.4 4.1-12.3 11.2-23.6 5.9-9.4 21.1-37.8 31.4-58.7 3.9-8.1 10.9-20.7 15.6-28 4.6-7.3 10.3-16.9 12.7-21.3 2.4-4.4 5.9-10.5 7.8-13.5 2-3 7.3-12.5 11.9-21 4.7-8.5 13.1-22.5 18.8-31 5.6-8.5 12.8-20 16-25.5 3.1-5.5 10-16.5 15.3-24.5 5.3-8 12.4-19 15.7-24.5 15.8-25.8 25-39.8 32-48.5 4.3-5.2 13.9-18.7 21.4-30 7.6-11.3 19.6-28.4 26.8-38 7.2-9.6 16.8-23.1 21.3-30 4.6-6.9 11.6-16.6 15.5-21.6 8.3-10.3 21.9-29.4 31.7-44.6 8.9-13.8 27.3-41 32.4-47.8 8.1-11 30.4-44.9 39.7-60.6 10.8-18.1 15-23.9 28.6-40.4 14.3-17.4 16.1-19.1 18.8-18.4 3.1.8 5.3-1.2 5.3-4.9 0-4.4-9.6-38.5-14-50l-3.9-9.9 2.4-6.7c1.4-3.7 5.8-13.3 9.9-21.4 4.1-8 8.5-17 9.7-19.9 1.2-2.9 4.3-8.2 6.8-11.8 2.5-3.6 9.8-17.1 16.2-30 6.9-14 15-28.6 19.9-36 11.4-17.1 22.5-37.3 35.4-64.9 6-12.7 11.3-22.8 11.6-22.4.4.4 1.5 4.2 2.4 8.3zm-768 51.5c2.8 33.7 13.1 90 20.2 110.6 1.9 5.6 4.8 15.1 6.5 21.1 1.6 6 5.2 16.9 8 24.1 2.8 7.3 5.9 17 6.9 21.7 1.8 9.2 9.9 37.2 13.2 46 1.1 3 2.7 8.2 3.6 11.5.8 3.3 3.5 12.9 5.9 21.3 2.5 8.4 5.1 19.4 5.9 24.5 2.9 17.7 7.4 38.9 10.3 48 1.6 5.1 3.4 12.1 4.1 15.7.6 3.6 1.8 8.1 2.6 10 1.8 4.5 10.6 40.2 14.5 59 5.9 28.7 11.5 47.4 18.8 63.7 2.7 5.9 7.7 18.4 11.1 27.8 9.9 27.2 15.2 40.6 25 63 11.1 25.2 16.9 42.3 25 73.2 9.3 35.9 11.8 46.9 16.1 72.3 2.2 12.9 5.5 30.2 7.5 38.5 7.6 32.9 17.4 85.9 16 87.2-.2.2-1.8-3.8-3.6-8.9-1.7-5.1-5.9-15.8-9.2-23.8-3.4-8-7.6-18.8-9.3-24-6.5-18.8-21.1-49.8-31.1-65.7-8.2-13-19-35.3-28.2-58.3-11-27.3-19.5-47.7-24.1-57.5-7.3-15.5-13-30.7-27.6-74-5-14.8-19.7-61.6-24.5-78-4.6-15.5-18-54.3-22.4-64.8-2.1-4.9-4.9-14.1-6.3-20.5-6.2-29.2-26.3-95.2-34.4-113.3-3.9-8.8-8.3-23-10.3-32.9-1-4.9-1.4-5.5-3.8-5.8-2.2-.3-2.9.2-3.4 2.3-1.1 4.3 5.9 29.2 11.2 39.6 2.9 5.9 19.9 58.3 25.8 79.9 2.5 9.1 5.7 22 7.1 28.6 2.7 13 4.7 19.4 9 28.9 3.4 7.5 20.9 59.2 23.6 70 2.9 11.3 19.5 62.2 32.9 100.5 7.6 21.8 9.1 25.8 15.3 39.5 5.8 12.9 15.1 35 24.9 59.5 9.1 22.7 20.8 47 28.8 59.5 7.7 12.1 25.5 49.2 30.4 63.3 1.9 5.6 6.3 16.8 9.7 24.8 5.6 13.5 14.9 38.6 14.9 40.2 0 1.2-8.6-15.2-12.6-23.9-2-4.5-6.6-13.2-10.2-19.3-3.6-6.1-8.4-15.2-10.8-20.2-2.4-5.1-6.7-13.4-9.7-18.5-3-5.2-8.5-15-12.2-21.9-3.8-6.9-14.5-24.7-23.8-39.5-9.4-14.9-19.3-30.9-22.1-35.7-2.8-4.8-10.2-17-16.5-27-21.4-34.4-25.4-41.3-35.9-62.3-5.8-11.6-14.2-26.9-18.7-34-4.5-7.2-10.5-17.3-13.5-22.5-2.9-5.2-8.7-14.9-13-21.5-4.2-6.6-9.4-14.9-11.5-18.5-2.2-3.6-7.3-11.7-11.5-18-4.2-6.3-9.8-15.3-12.5-20-2.6-4.7-8.7-14.4-13.4-21.5-13.1-19.6-18.3-29-36.1-64.5-22.7-45.5-46.2-89.8-51.9-97.9-2.4-3.4-15-25.1-21.1-36.3l-4.8-8.7 4.2-4.7c2.2-2.5 5.4-5.2 6.9-6.1 1.6-.8 8-1.8 14.5-2.4 6.4-.5 14.1-1.4 17.1-1.9 9-1.7 17-1.2 32.7 2 11 2.3 20 3.4 34.2 4.2 21.2 1.1 27.1.7 29.8-2.3 1.7-1.9 1.7-2.2 0-7.4-2.7-8.6-3.8-30.7-4-76.5-.1-41 0-43.2 2.6-63.2 1.6-11.4 3-28 3.3-37 1.1-33.3 2.3-39.9 3.9-21.3zm1062.5 53.6c-2.1 4.2-2.1 4.2-3.3 1.8-1.1-2.1-.9-2.6 1.3-4.1 3.9-2.7 4.3-2.2 2 2.3zm9.7 78.7c-5.1.5-7.4-1.2-10-7.3-4.1-9.1-3.8-9.2 4.9-1l8.6 8-3.5.3zm-223.9 51.3c1.1 1.1-11.5 14.8-35.7 38.9-6.3 6.3-17.5 18.7-24.9 27.5-7.4 8.8-18.7 21.2-25.1 27.5-6.4 6.3-16.2 17.1-21.9 24-5.7 6.9-15.2 17.4-21.2 23.5-13.9 14.2-45.3 53.6-58.5 73.5-17 25.6-50.8 68.2-71.7 90.5-6.8 7.1-16.5 17.9-21.7 24-5.2 6-13.6 15.3-18.5 20.5-5 5.2-14.3 16-20.6 24-6.3 8-15.4 18.7-20.2 23.8-4.7 5.1-11.9 13.8-15.9 19.5-9.8 13.9-17.5 23.4-28.5 34.9-5 5.3-14.5 16.3-21 24.5-6.4 8.1-16.3 19.6-21.8 25.4-5.5 5.8-15.4 17.7-22 26.5-9.7 12.8-16.1 19.8-32.5 35.9-11.3 11-24.6 23.5-29.6 27.7-10.3 8.7-18 16.8-29.3 30.8-4.2 5.2-11.1 12.9-15.4 17-4.3 4.1-11.7 12.1-16.4 17.7-4.7 5.7-8.8 10.3-9 10.3-.1 0 1.7-2.8 4.2-6.1 2.5-3.4 7.7-11.4 11.7-17.8 4-6.4 11.3-17 16.3-23.6 5.1-6.6 13.7-18.8 19.3-27.1 5.5-8.3 14.5-20.7 19.9-27.5 12.8-16.1 20-25.7 30.6-40.5 4.7-6.7 12.6-16.8 17.4-22.6 4.8-5.8 13.5-16.5 19.3-23.9 5.8-7.3 15.7-19.5 22.1-26.9 11.2-13.1 16.5-19.9 30.1-38.5 3.7-5 8.1-10.4 9.8-12 4.2-3.9 15.4-17.2 26.2-31 4.7-6.1 12.3-15.1 16.8-20 4.5-5 11.8-13.7 16.3-19.5 9.1-11.8 14.4-18.3 26.7-32 4.7-5.3 15.8-19.2 24.7-31 9-11.8 19-24.7 22.2-28.7 3.3-3.9 10.4-14.7 15.9-24 5.5-9.2 13.1-21.1 16.8-26.3 8.6-11.8 11.2-16.1 20.7-33.2 11.6-20.9 19.6-33.4 29.4-46.4 4.9-6.6 12.7-17.1 17.4-23.4 4.9-6.7 15.9-19.2 26.2-29.9 9.8-10.1 20.8-22.2 24.5-26.8 6.6-8.4 7.6-9.1 8.7-7.3 1.5 2.4 6.6 1 10.8-2.9 3.1-2.9 5.9-4.4 10.7-5.6 3.6-.9 12.8-3.6 20.5-6 12-3.7 22.1-6.1 32.5-7.8 5.2-.9 12.6-.7 13.7.4zm-203.3 17.2c6 2 11.4 3.7 12 3.7 1.9 0 4.3 2.3 5.1 4.7.5 1.9.2 2.3-1.4 2.3-2 0-5.8 4-21.6 23.5-12.7 15.6-15.1 19-25.8 37-9.2 15.6-35.3 55.2-41.7 63.5-1.5 1.9-11.1 16.1-21.4 31.5-25.7 38.7-28.4 42.6-39.3 56.6-5.2 6.8-13.7 18.7-18.8 26.4-5.1 7.7-14.7 21.4-21.4 30.4-6.7 9-18.1 25.2-25.3 36-7.2 10.8-16.6 23.9-20.9 29.1-7.1 8.8-18.4 26-33.2 50.5-3.3 5.5-9.2 14.7-13.2 20.5-4 5.8-11.2 17.2-16 25.5-4.9 8.2-12.9 21.1-17.9 28.5-5 7.4-11.6 18.1-14.6 23.8-7 13.1-25.5 44.9-36 61.9-4.4 7.2-11.2 19.6-15 27.5-7.5 15.3-21 40.8-21 39.6 0-1.8 10.5-50.7 13.1-60.8 6-23.5 16.6-49.6 29.6-73 4.4-8 11.8-22.2 16.5-31.5 4.6-9.4 11.3-21.5 14.8-27 21.4-33.7 34.3-58.6 43.6-83.5 3.1-8.5 9.3-23.8 13.6-34 11.8-27.6 19.1-47 24.9-66.3 6.2-20.8 11.8-36.5 20.3-56.8 3.5-8.5 9.3-22.4 12.9-30.9 8.6-20.5 17.7-40.7 27.7-61.5 4.5-9.4 11.4-24 15.2-32.5 10.5-23.2 22.4-46.4 26.3-51 1.9-2.3 3.5-4.7 3.5-5.4 0-1.2 11.2-3.7 23-5.1 3-.4 10.7-1.8 16.9-3.1 17.4-3.7 23.5-4.2 50.1-4l24.5.1 10.9 3.8zm-292.9 572.9c-3.1 4-9.4 11.8-13.9 17.3s-12.9 16.2-18.5 23.8c-5.6 7.6-15.3 19.1-21.5 25.5-6.2 6.4-16.6 18-23.1 25.7-14.6 17.4-29.5 33.2-28.8 30.6.3-1 0-2.8-.7-4-1-1.9.4-4 13-19.9 23-28.8 24.9-31.1 38-44.7 6.9-7.2 15.8-17.2 19.8-22.2 4.1-5 11.1-12.7 15.6-17 9.2-8.8 24.4-22.3 25.2-22.3.3 0-2 3.3-5.1 7.2zm-98.5 35.3c-2.5 12-5.5 22.7-8.9 31.7-6.5 17.5-9 23.2-9.7 22.5-.3-.3-1-2.4-1.5-4.7-.8-3.7-.4-5.8 4.1-19.1 2.8-8.3 8.1-22.1 11.7-30.7 3.6-8.7 6.7-16.3 7-17 1.5-3.7.8 1-2.7 17.3zm13 43.9c0 .2-.8 1-1.7 1.7-1.6 1.3-1.7 1.2-.4-.4 1.3-1.6 2.1-2.1 2.1-1.3zm-50.3 42.8c-.3.8-.6.5-.6-.6-.1-1.1.2-1.7.5-1.3.3.3.4 1.2.1 1.9z"/><path d="M1142.7 148.8c-1 1-1.7 3.2-1.7 4.9 0 3.2 1.6 5.1 5.9 6.9 2.5 1 2.5 1-2.1 3.3-9.2 4.4-12.2 14.3-11.6 38.6.4 14.9.6 16.7 3.6 25.3 3.5 10.3 7.5 16.9 12.3 20.3 4.1 2.9 16.6 5.8 25 5.9 5.8 0 7.7-.5 14.8-4.1 16.9-8.5 29.1-19.8 32.8-30.5 4.7-14-4.1-44.4-14.5-49.8-1.6-.8-7.4-2.4-12.8-3.5-13.7-2.8-27-8.4-37.7-15.7-5.7-3.9-11.3-4.6-14-1.6zm28.5 23.7c8.4 3.5 19.7 6.4 24.6 6.5 6.7 0 11.7 7.5 14.7 21.7 2 9.5 1.9 12.2-1.1 18.1-3.1 6.2-9.5 12-20.4 18.7-9.5 5.7-14 6.4-24.9 4.2-10.6-2.2-13.6-5.6-18.1-20.4-1.9-6.5-2.1-9-1.8-24.5.4-20.6 1.3-23.4 7.9-24.4 2.2-.4 5-1.5 6.2-2.5 1.2-1 2.7-1.7 3.2-1.4.6.2 4.9 2 9.7 4z"/></svg>
