<svg version="1" xmlns="http://www.w3.org/2000/svg" viewBox="0 0 2048 300"><path d="M405.5.7c-3.5.9-8.5 5.3-12.2 10.9-2 3-3.3 5.7-3 6 .3.4 1.5-.9 2.7-2.8 3.1-5.3 9.5-10 14.4-10.5 3.7-.3 4.8.1 10.9 4.7 3.7 2.7 7.6 6.5 8.7 8.2 2.7 4.5 4.5 13.5 3.2 16.2-1 2-1.1 2-1.1-.6-.1-1.5-.6-3.9-1.2-5.5-2.8-7.6-15.3-15.2-21.9-13.3-4.1 1.2-12 5.8-12 7 0 1.5.7 1.3 7.6-2.1l6.3-3.1 4.3 1.7c4.8 1.8 9.3 5.7 11.3 9.5 1.9 3.8 3.6 18.4 3.3 28.5-.3 10.3 2.3 33.3 5.9 51.5 3.5 17.6 4 31.2 1.8 45-1.7 10.7-1.7 11.4 0 18.3 1.7 6.8 1.7 7.6.1 12.9-2.7 9.4-2.1 15.4 2.9 30.1 2.5 7.2 5 13.6 5.6 14.2 1.3 1.2.6-1.6-3.3-14.5-4.1-13.5-4.5-18.9-1.9-28.1 2-7.1 2-8 .7-15-1.2-6.4-1.2-8.7.1-17.4 1.9-12.7 1.2-28-2-43.5-1.4-6.3-2.8-15.1-3.2-19.5-.3-4.4-1.3-12.4-2.1-17.7-.8-5.4-1.4-11.7-1.4-14 0-4.1 0-4.1 4.9 5.4 5.9 11.6 8.1 20.5 8.1 33.7 0 13.3 1.5 24.1 4.7 32.9 2.5 7.1 2.6 7.7 1.9 23.5-.4 9.4-1.3 18.4-2.1 21.2-2 6.6-2 28.7.1 38.5 1.4 6.9 3.9 12.8 5 11.7.3-.2-.2-4.4-1.1-9.2-2-11.8-2-33.5.1-40.4 2.3-8 1.7-42.2-.9-46.9-2.6-4.7-5.7-22.2-5.7-32 0-11.4-2.4-22-7-31.1-2.2-4.2-4.2-9.1-4.5-10.9-.6-2.7-.4-3.2 1.3-3.2 1.2 0 2.2-.9 2.5-2.2.7-2.7.1-3.6-1.5-2-1.9 1.9-2.4 1.4-2-2.2.3-2.9.9-3.5 4.2-4.5 4.9-1.4 4.5-1.6 6.7 2l2 3-3.3 8.7c-1.8 4.8-3.3 9.5-3.4 10.5 0 4.1 2.7.5 6.9-8.8l4.4-9.9-2.5-4.5c-1.4-2.6-3.5-5-4.6-5.6-2.3-1-3.2-4.4-3.2-12.4 0-3.8-.6-6.6-2-8.8-2.2-3.6-9.8-9.6-11.1-8.7-1.6 1-.9 2.3 2 3.9 5.1 2.6 7.2 6.7 8.1 15.8.4 4.5.9 8.8 1.1 9.5.2.8-.6 1.8-1.7 2.2-2 .8-2.1.6-2-5.8.1-9.9-2.4-16.1-8.7-21.8-8.4-7.5-14.9-10.2-21.2-8.7zM1849.6 5.7c-2.9 4.6-6.8 8.2-12.1 11.3-2.2 1.3-5.6 3.8-7.5 5.5-1.9 1.8-5.1 3.8-7.1 4.4-2 .7-5.8 2.6-8.4 4.3l-4.7 3.1-4.7-1.6c-2.5-1-7.2-1.7-10.4-1.7h-5.9l.7-4c.6-3.4.4-4-1.1-4-1 0-3.8 2.3-6.3 5.2-2.5 2.9-6.4 6.9-8.6 9-3.6 3.4-4.1 3.6-5.7 2.2-1.6-1.5-1.5-1.9 1.4-7.4 1.7-3.3 2.8-6.6 2.5-7.4-.7-1.9-3.8-2.1-5.5-.4-1.6 1.6-1.5.3.2-3 4.4-8.7 1.7-9.9-4.4-1.8-2.2 2.9-4.8 5.7-5.8 6.2-2.7 1.3-15.9 16.3-21.7 24.7l-5 7.2-.3-3.3c-.2-1.7-.8-3.2-1.5-3.2-.6 0-2.6 1.5-4.5 3.2l-3.3 3.3.6-2.8c.4-1.5.3-2.7-.2-2.7-1.3 0-9.5 19.9-8.7 21.2.4.5 1.4-1.2 2.4-3.8 3.3-9 3.9-10.4 5.2-10.4.7 0 2.9-1.7 5-3.7l3.8-3.7v3.8c0 5.1 1.5 4.4 6.8-3.5 2.5-3.5 6.5-8.7 9.1-11.4 2.6-2.8 6.2-6.9 8.1-9.3 1.8-2.3 3.9-4.2 4.6-4.2.8 0 3.2-2.5 5.5-5.5s4.3-5.5 4.5-5.5c.3 0-.6 2.1-2 4.7-3.5 7.1-4 9.3-2.2 9.3.9 0 2.3-1.1 3.2-2.5 2.1-3.2 4.8-3.4 3.8-.3-.3 1.3-1.5 3.5-2.5 5-1.1 1.4-1.9 3.3-1.9 4.2 0 2.3 3 6.6 4.5 6.6.7 0 5.2-4.2 9.9-9.3 7.1-7.6 8.4-8.6 7.5-5.9-1.9 5.5-1 6.2 8.3 6.2 5.7.1 8.9.5 10.2 1.5 3 2.2 5.2 1.8 11.4-1.9 3.2-1.9 6.9-3.8 8.4-4.1 1.4-.4 4.9-2.7 7.8-5.1 2.8-2.4 6.2-4.4 7.4-4.4 1.4 0 3.6-1.7 5.9-4.5 2.1-2.5 4.5-4.5 5.2-4.5.8 0 1.5-.7 1.5-1.5s.5-1.5 1-1.5c1.8 0 1.1 2.4-2 7-1.6 2.5-3 5.1-3 5.7 0 2.7 2.4 1.1 8.6-5.5 5.1-5.6 6.9-6.9 9.3-6.9h3l-3.1 4.4c-1.7 2.3-4 5-5 6-1 .9-1.8 2.2-1.8 2.9 0 .7-1.8 3.9-4.1 7.1-3.3 4.8-5.2 6.4-10.8 9-4.3 2.1-8.9 5.4-13 9.4-5.6 5.6-6.3 6-6.8 4-.3-1.1-1.2-2.1-1.9-2.1-.9 0-1.4-1.2-1.4-3.4 0-1.9-.4-3.8-1-4.1-1.5-.9-5.9 1.8-12.2 7.4-3.1 2.8-6.5 5.1-7.5 5.1-2.1 0-5.7 2.4-13.4 9l-5.2 4.5.6-3.8c.4-2 1-5.3 1.3-7.2.8-4.1-.5-4.5-4.3-1.5-2.4 1.9-2.7 1.9-3.8.3-1.1-1.5-1.5-1.5-4.6.7-4.9 3.4-13.9 12.2-13.9 13.7 0 .7.7 1.3 1.6 1.3.8 0 1.3-.4 1-.9-.3-.5 2.2-3.5 5.7-6.7 5.6-5.2 6.2-5.5 6.5-3.6.4 2.9 2.4 2.8 6.1-.4l3.1-2.6-.6 6.1c-.6 5.4-.5 6.1 1 6.1 1 0 5.1-2.9 9.2-6.5 5-4.4 8.3-6.5 10-6.5 1.7 0 4.8-2 9.2-6 3.7-3.3 7.2-6 7.9-6 .8 0 1.3 1.4 1.3 4 0 2.9.4 4 1.5 4 .8 0 1.5.9 1.5 2 0 4.5 3 3.2 11.4-4.8 5.3-5.1 9.7-8.4 12.2-9.2 2.1-.7 4.7-1.9 5.7-2.5 1.8-1.3 12.7-16.9 12.7-18.2 0-.4 1.8-3.3 4-6.4 4.4-6.3 4.9-7.9 2.2-7.9-1 0-2.3-.5-3-1.2-.9-.9-2.2-.3-5.5 3-2.3 2.3-4.6 4.2-5 4.2-.4 0-.7-1.3-.7-2.9 0-7.1-3.6-8.2-7.4-2.4zM1959.2 5.8c-6.5 6-5.5 11.9 2.5 16.2 7.6 4 9.7 12.9 4.6 19.2-6.3 7.8-9.7 10.8-13.2 11.4-2 .3-4.7 1.3-5.9 2.1-4.7 2.9-6.9 13.5-3.4 16.6 2.8 2.5 8.5 3.1 12.1 1.3 1.7-.9 5.1-1.9 7.6-2.3 8-1 9.3 2.4 4.9 12.8-2.9 7-2.6 8.9 1.3 8.9 1.5 0 3.9.7 5.3 1.5s3.5 1.9 4.8 2.4c2.9 1.4 2.8 2.9-1 11.4-2.9 6.5-3.2 8.2-3.3 17.2 0 5.5.3 11.1.7 12.5.4 1.4 2.8 4.7 5.3 7.5 6 6.7 8.9 12.7 8.1 16.8-2.2 11.8-1.9 12.5 6 13.7 4.2.7 4.5.5 5.1-1.9.4-1.4.7-6.9.7-12.1.1-8.6-.1-9.8-2.4-13-2.2-3.1-2.5-4.7-2.8-14.1-.3-9.8-.2-11 2.2-15.7 3.3-6.5 3.3-12.1.1-19-2.5-5.3-3.4-10.9-1.6-9.7.5.3 1.2 1.9 1.6 3.5.5 2.1 1.8 3.6 4.6 5.2l4 2.2-.7 6.6c-.7 7.6.8 10.4 6.4 11.4 5.4.9 7.2-1.8 7.2-11.2l.1-7.7 1.9 2.3c1 1.3 3.2 2.4 4.7 2.5 2.4.2 2.8-.2 3.1-2.5.2-1.5-.6-5.8-1.8-9.7-2.1-7.2-4.5-10.1-8.4-10.1-4.3 0-6.4-8-2.6-10 1.7-.9 2.7-.6 6.1 2 5.2 4.2 6.9 3.5 6.9-2.7 0-3.8-.8-6-3.9-10.8-2.1-3.4-5.3-7.2-7-8.5-7.4-5.6-9.1-7.7-9.1-11.4 0-6 6.8-9.6 11.4-6.1 1.1.8 3 1.5 4.3 1.5 2.6 0 3.8-3.3 3-8.3-.3-1.9 0-4 .7-5 1.2-1.5 1.4-1.5 3.3.6 1.1 1.2 2.8 3.7 3.7 5.4 3.4 6.7 7.2 2.1 6.3-7.7-.3-3-1-6.7-1.7-8.2-1.3-2.8-7.9-7.8-10.3-7.8-.7 0-5 1.6-9.4 3.5-9 3.9-15 4.6-15.9 1.7-2.2-7-4.9-6.8-12.8 1.1-7.1 7.3-9.5 8.4-13.6 6.7-2.3-.9-3.1-2.1-3.6-4.9-1-6-1.3-6.5-4.7-8.9-4.6-3.1-6.7-2.8-11.5 1.6zm11.3.8c1.9 1.2 2.5 2.5 2.5 5.1 0 4.2 4.6 9.3 8.3 9.3 3.3 0 11.5-5.7 14.6-10.2 3.2-4.5 7.1-5.3 7.1-1.3 0 1.5.9 3.1 2.5 4.1 2.1 1.4 3.2 1.4 7.7.4 2.9-.7 7.4-2.3 10-3.6 6.2-3.1 8.9-3 12.6.4 3.6 3.4 5.3 9.2 4.4 14.6l-.7 3.9-3.2-5.1c-2.1-3.4-3.9-5.2-5.1-5.2-2.9 0-5.2 4.3-5.2 9.5 0 3.8-.3 4.5-1.9 4.5-1.1 0-2.3-.5-2.6-1-1.2-1.9-6.8-1-10.2 1.6-3 2.2-3.3 3-3.3 7.5 0 5.4.5 6.2 9.4 13.2 5.2 4.2 12.9 18.7 9.9 18.7-.5 0-2.1-.9-3.8-2-4.9-3.3-8.9-2.1-10.8 3.1-.9 2.7 2.9 9.9 5.3 9.9 4.1 0 5.9 2 8 8.6 3.3 10.9 2.6 12.6-2.9 7.3-1.9-1.7-3.7-2.7-4.2-2.2-.4.4-.9 4.6-1.1 9.3-.3 8.5-.3 8.5-3.1 8.8-4.8.6-5.9-1.3-5.5-9.2l.3-7-4-2.7c-2.3-1.6-4.4-4-5-6-1.6-4.5-4.2-6-6.1-3.5-2.1 2.9-1.7 5.7 1.6 12.8 3.7 7.7 3.7 9.2.4 17-2.3 5.6-2.5 7.2-2.2 16.8.3 9.7.6 11.1 3 14.6 2.8 4 3.5 8.7 3 20.1l-.2 5.3h-3.8c-2.1 0-4.7-.6-5.7-1.4-1.8-1.3-1.8-1.8-.6-6.5 2-7.9.8-12-5.9-20.3-6.5-7.9-7-9.5-7-21.5 0-7.1.5-9.7 3-16 3.4-8.5 3.8-12.1 1.3-13-1-.3-3-1.5-4.5-2.5-1.4-1-4-1.8-5.7-1.8-3.8 0-4-1.8-1.1-8.1 2.6-5.7 2.6-11.1 0-13.4-2.3-2-8.1-1.6-13.3 1.1-3.5 1.8-10.5 1.4-11.8-.8-3-4.6 1.3-13.7 7-14.9 4.6-1 7.8-3.5 13.4-10.8 4-5.3 4.7-6.9 4.7-10.7 0-5.6-2.2-9.9-5.9-11.9-4.2-2.1-7-6.1-6.4-8.8.8-3.3 5.4-7.7 8-7.7 1.3 0 3.5.7 4.8 1.6z"/><path d="M1977.8 27.7c-1.9.5-3.2 3.3-2.1 4.3.4.4 2.3 1.2 4.1 1.8 3.6 1.2 7.2.2 7.2-2 0-.7-.5-.6-1.5.2-1.6 1.3-8 .6-9-1-.9-1.4 4.9-1.2 6.3.2.6.6 1.5.8 1.9.4.8-.8-3.3-4.7-4.6-4.5-.3.1-1.3.3-2.3.6zM1996 29.7c-2.4.9-6 4.5-5.4 5.4 1.3 2.2 14.3-.2 15.1-2.8.3-.8-.7-.7-3.4.2-6.1 2.1-10.3 2.8-10.3 1.7 0-1.4 2.6-2.2 7.2-2.2 2.7 0 3.8-.4 3.6-1.3-.5-1.3-4.4-1.9-6.8-1zM1985 63.5c-3 3.2-1.4 3.2 2.5 0 2-1.6 2.5-2.4 1.4-2.5-.8 0-2.6 1.1-3.9 2.5zM1156 6c0 .5-.9 1-2 1-1.4 0-2 .7-2 2.4 0 1.9-.6 2.4-3.7 3-2.1.3-6.1.6-8.9.6-5.2 0-14.4 3.2-14.4 5 0 .6.5 1 1.2 1 1.6 0-2 3.8-4.3 4.5-1.1.4-1.9 1.3-1.9 2.1 0 1.1 1.9 1.4 9.7 1.4 9.4 0 9.6 0 7.9 1.9-2.8 3-1.1 4.1 6.5 4.1 8.5 0 9.1.9 6 8.6-2.9 6.9-2.5 8.7 2.3 9.9 3.7.9 3.8 1 3.1 4.5-.4 1.9-.7 5.2-.6 7.4.3 6.8-4.6 11.1-8 7-1.5-1.8-3.8-1.5-12.6 1.6-5.3 1.9-6.3 2.7-6.3 4.7 0 3.7 4.1 9.2 8.3 11 3.5 1.6 3.7 2 3.1 4.8-1.4 6.7-3.1 9-8.4 11.9-3.5 1.9-7.5 3.1-11.4 3.5-6.1.6-6.1.6-5.8 3.6.8 7.2.9 7-2.8 7-2.8 0-3.6.4-3.8 2.1-.2 1.2-1.1 2.9-2.1 3.9-1.7 1.5-2.2 1.5-5.6.1-3.8-1.6-12-2.1-14.9-1-3.3 1.3-3.7 4-1.5 8.7l2.2 4.5-2.2 3c-2.8 4-2.7 8.4.3 11.9 3.3 3.8 4.2 2.4 1.5-2.2-2.2-3.7-2.2-3.8-.4-7.1 1-1.9 2.4-3.4 3.1-3.4 2.6 0 2.4-2-.8-6.6-3-4.5-3.1-4.7-1.3-6 2.5-1.8 6.7-1.8 11.2.1 5.5 2.3 8.8 1.9 11.5-1.3 1.3-1.6 3.7-3.4 5.5-4.1 3.7-1.5 4.9-4.1 3.4-7-1.6-3-1.5-3.1 3.8-3.1 5.2 0 15.1-4.4 18.3-8.1 2.2-2.5 5.1-12.5 4.3-14.9-.3-1-2.1-2.5-4-3.4-1.9-.9-4.3-3-5.5-4.6l-2.1-3 2.3-.9c1.3-.5 4-1.7 6.2-2.6 3.5-1.5 4-1.5 5.6 0 1.1 1 3.1 1.5 5.1 1.3 4.7-.4 8.1-5.5 7.8-11.8-.1-2.5.1-6.1.5-8 .8-3.9-.7-6.1-5.1-7.4-2.1-.7-2.1-.8-.7-4.2 1.9-4.4 2.2-11 .7-12.5-.6-.6-3.5-1.4-6.5-1.8-4.4-.5-5.3-.9-5.3-2.6 0-1.8-.8-2-8.4-2.5-7.3-.4-8.2-.7-6.8-1.9 1-.7 1.7-2.2 1.7-3.2 0-2.8 2.7-3.7 13.3-4.2 9.6-.4 9.7-.4 13.2-4 3.8-3.9 4.4-5.7 2-5.7-.8 0-1.5.4-1.5 1zM1356.6 6.9c-4.4 2.9-6.7 7.4-7.3 14.1-.5 5.5-.8 6-3 6-3.2 0-8.9 2.5-13.1 5.7-4.9 3.7-9.4 13.7-10 22.3-.5 8 1.6 13.5 9.2 23.8 5.9 8 12 11.9 19.8 12.8l5.8.7-.1 28.6c-.1 29.4.1 31.5 4.5 48.9 3.4 13.2 5.7 18.4 9.8 21.7l3.4 2.7-1 6.3c-.8 5.7-1.2 6.4-3.5 6.9-4.1.8-9.8 6.2-12.6 12-3.3 6.8-4.3 15.3-2.1 18.1.9 1.1 1.5 1.5 1.4 1-.5-2.2 1.5-11.3 3.3-15.5 1.9-4.2 9.4-13 11.1-13 .4 0 .8 3 .8 6.7 0 8.4 1.5 18 3.2 20 .6.8 2 3.7 2.9 6.3 1.9 5.3 1.5 6-3.6 6-5.5 0-10.6 8.2-12.1 19.4-.4 2.6-1 4.9-1.5 5.2-.4.2-2.9-.1-5.4-.7-5.9-1.5-9.8-.1-9.3 3.4.2 1.6.8 2.1 2.3 1.8 5-.9 8.6-.3 10.8 1.7 1.3 1.2 3.1 2.2 4 2.2 1.8 0 2-.6 3.7-12.5 1.7-11.6 5-16.5 10.8-16.5 1.9 0 2.9 1.2 5.4 6.8 1.7 3.7 4.1 9.6 5.3 13.1 1.2 3.6 2.6 6.6 3.2 6.8.6.2 1.5-1 2.1-2.6 1.1-3.2 4.5-4.8 8-3.6 2.7.8 3.6-.9 1.6-2.9-1.9-2-5.1-2-8.7-.1-2.5 1.3-2.8 1.3-3.4-.3-.3-.9-2.1-5-3.9-9.1-1.9-4.1-3.4-8.1-3.4-9 0-3-3-13.5-5-17.7-1.4-2.9-2.2-7.2-2.6-14.7-1-14.9-.6-15.3 6.2-7.8 3.1 3.4 7.4 7.1 9.5 8.1 4.6 2.4 8.9 2.6 8.9.5 0-.8-.9-1.5-2-1.5-4 0-8.6-2.8-15.2-9.1-5.8-5.6-6.7-6.9-7-10.6-.3-3.9-.1-4.2 2.2-4.5 1.6-.2 3-1.3 3.8-3 2.2-4.7 3.4-29.9 2.3-47.4-.6-8.7-1.1-21.8-1.1-29.1V102h2.4c1.5 0 3.3-1.1 4.5-2.6 7.6-9.7 11.7-48.4 6.5-61.4-3.2-7.9-8.5-10.8-18.5-10.1-3.6.2-3.7.2-4.3-4.6-1.1-7.4-3.6-14.6-5.8-16.6-2.7-2.3-9.5-2.2-13.2.2zm12.1 5.8c.8 2.1 2 6.5 2.6 9.9l1.1 6.1-3.5 4.1-3.4 4.1-4-3.9c-2.2-2.1-5.2-4.4-6.8-4.9-2.6-1-2.7-1.3-2.1-5.3 1.4-9.2 5.1-13.8 11.2-13.8 2.9 0 3.5.5 4.9 3.7zM1351.2 33c3.1 0 10 7.3 13 13.5 2.6 5.7 2.8 6.8 2.8 19.3 0 18.4-2.2 22.2-12.8 22.2-9 0-13.9-3.5-22.3-16-4.1-6-4.4-7-4.8-14.1-.3-6.7.1-8.5 2.4-13.7 1.5-3.4 3.5-6.8 4.5-7.7 2.3-2 10.8-4.5 13.5-3.9 1.1.2 2.8.4 3.7.4zm39.8 2.8c4.2 4.2 5.4 11.7 4.7 29.7-.6 15.2-1.3 19.2-4.9 27.7-2.2 5.3-4.3 6.1-7.1 2.8-1-1.2-2.2-1.8-2.7-1.5-1.1.7-5.4-5-7-9.5-.8-2.3-1.4-10.4-1.6-22.9-.3-20.4.5-25.4 4.1-26.8 1.3-.5 1.4-.7.3-1.4-.8-.5 1.2-.9 5-.9 5.6 0 6.7.3 9.2 2.8zm-20.1 52.9c.8 2 3.3 5.7 5.6 8.2l4.2 4.6.7 20.5c.3 11.3.9 27.1 1.2 35.1.7 16.4-.1 30.9-2 33.4-1.1 1.6-1.6 1.5-4.8-1.4-4.3-3.8-6-7.8-9.9-23.5-3.7-15.1-4.9-28.5-4.9-54V91.7l3.8-3.3c2-1.8 3.9-3.3 4.2-3.4.4 0 1.2 1.7 1.9 3.7z"/><path d="M1341.5 49.5c-1.9 1.9-2.5 3.5-2.5 7 0 6.9 4.2 13.5 8.6 13.5 4.8 0 6.6-7.6 3.4-14.7-2.2-4.9-4.7-8.3-6.2-8.3-.5 0-2 1.1-3.3 2.5zm5.5 4.7c2.1 3.4 2.7 11.2 1.1 12.2-.5.4-2.1-.8-3.5-2.5-2.8-3.3-3.5-9-1.3-11.4 1.6-1.9 1.4-2 3.7 1.7zM1379.1 54.8c-.6 1.1-.6 2.4 0 3.3.5.7.9 3.8.9 6.7 0 10.2 5 14.6 9 7.9 1.4-2.3 2-5 2-9.4 0-5.5-.3-6.4-2.6-8.2-3.3-2.6-8-2.7-9.3-.3zm7.7 3.4c2.3 2.3.8 14.8-1.9 14.8-1.5 0-2.8-6.2-2.2-11 .6-5 1.8-6.1 4.1-3.8zM1373 176.9c-1.5 2.9-1.2 4.1.9 4.1 1.9 0 3.1-1.8 3.1-4.6 0-2.1-2.8-1.7-4 .5zM1460.5 5.9c-15.5 1-23.2 6.5-26.6 18.7-1 3.8-1.9 9.3-1.9 12.4 0 4.5-.4 5.8-2.1 6.8-2.9 1.9-4.9 7.3-4.9 13.5 0 4.6.5 6.1 3.5 10 1.9 2.5 3.5 4.9 3.5 5.2 0 .4-1.1 2.1-2.4 3.8-4.5 5.9-6.1 13.8-6 29.2.1 16.3 1.8 24.9 8.4 41.5 2.3 5.8 5.5 13.8 7 17.9l2.9 7.4-4 3.8c-3.4 3.3-3.9 4.3-3.9 8.3 0 4.8 1.6 7.2 5.5 8.2 6.3 1.6 9.4-1.7 10.3-10.8.4-3.9.8-4.8 2.3-4.8 1.1 0 1.9.4 1.9 1 0 1.6 6.1 8 9.1 9.6 4.1 2.1 6.1 1.8 10.7-1.6 5.9-4.3 5.8-7.8-.3-12-2.4-1.7-5.8-3.3-7.5-3.6-2.8-.6-3-.9-3-5.4 0-5.7-2.1-12.2-5.4-16.5-1.3-1.7-4.1-6.2-6.1-10.1l-3.7-6.9.4-14c.4-13.8.4-14.2 5.5-29 7.8-22.9 7.8-22.8 11.6-22 1.8.4 3.8 1.2 4.5 1.7 2.1 1.8 1.3 8.2-1.8 14.4-2.5 5-3 7-3 13.4 0 11 2 14.6 10.1 18.7 5.4 2.8 7.9 3.4 15.9 3.9 8.8.5 9.7.8 12.2 3.5 1.5 1.6 3.2 2.9 3.7 2.9s1.5-3.3 2.1-7.2c.7-4 1.9-9 2.6-11.2.8-2.1 1.4-4.5 1.4-5.4 0-1.3-.2-1.3-1.7 0-1 .8-3.9 2.2-6.4 3.1-3.9 1.3-6 1.3-13.1.3-4.7-.6-9.2-1.7-10.2-2.5-2.6-2.2-2-9.3 1.5-17.4 2.8-6.3 3.1-7.9 2.7-14.1-.3-5-1.3-8.6-3.1-12.2-3.4-6.7-6.6-8.1-14.9-6.6-7.1 1.3-9.3.5-10.1-3.5-.4-2.3.1-3.3 3-5.7 7.5-6.3 9.4-16.3 4.2-23.1-2.8-3.7-2.9-4-1.2-5.3 1-.7 3.7-1.1 6.3-1 4.2.3 4.5.1 4.8-2.4.2-1.8-.4-3.1-2-4.2-1.2-.9-2.5-1.5-2.8-1.4-.3.1-4.5.4-9.5.7zm11.5 4.2c0 .6-.8.8-1.9.4-2.4-.7-9.1 2-9.1 3.7 0 .7-.9 1.9-2.1 2.6-2.6 1.7-7.9 12.8-7.9 16.8 0 1.7 1 4.7 2.3 6.6 1.7 2.5 2.1 3.8 1.4 5-.8 1.1-.3 2.5 1.9 5.2l2.9 3.8 7-.6c8.7-.7 11.2.4 14.3 6.4 3.3 6.5 3 14.6-.8 23.5-1.9 4.5-3 8.8-3 11.8 0 8.4 2.4 10.6 12.4 11.3 3.3.3 7.1.7 8.2.9 1.2.3 4.1-.2 6.4-1 5-1.8 5-1.8 5-.6 0 .5-1 1.1-2.2 1.3-1.9.2-2.4 1-2.6 4.7-.2 2.4.2 4.9.7 5.4 2.2 2.2 1 2.8-1.4.9-1.9-1.5-4.8-2.2-11.3-2.7-11.2-.8-20.1-4.8-22.6-9.9-2.7-5.8-2.1-15.3 1.4-22.2 3.8-7.6 4.4-10.6 3-14.8-1.1-3.5-2.8-4.6-10.7-6.6-3.1-.8-4.9-.8-6.3 0-2.4 1.3-2.6 2.6-.5 3.4 1.4.5 1.4 1-.1 4.3-3.1 7.2-9.3 26.3-11 34-1.2 5.7-1.5 10.3-1.2 18.5.6 11.6 2.2 16.3 8.9 25.3 4.8 6.6 6.9 11.6 6.9 17.1 0 6.8-2.9 9.8-8.7 8.8-7.4-1.1-7.8-1.8-17.3-28.9-5.9-16.6-7.3-25.3-6.8-40.9.5-14 2.7-22.4 6.8-26.1 1.6-1.4 1.7-2.1.8-3.2-1-1.2-.6-1.4 2.3-.8 6.3 1.2 14.2-3.6 11-6.8-.8-.8-2-.6-4.7.7-4.6 2.1-8 1-11.5-3.7-2.8-3.8-3.1-10.2-.5-14.1 2.1-3.3 8.1-3.6 12-.5 2.3 1.8 2.7 1.9 3.2.5 1.2-3.2-5.3-7.6-11.2-7.6-2.3 0-2.5-.3-1.9-2.3.4-1.2 1-4.2 1.5-6.8 1.9-10.3 3.2-13.4 7.4-17.5 2.3-2.2 5.8-4.5 7.7-5.1 4.6-1.5 21.9-1.6 21.9-.2zm-7 17.6c0 3.4-3.8 11.3-5.8 12-2.1.8-4.2-2.4-4.2-6.4 0-1.9 1.2-5.7 2.6-8.5l2.6-5.2 2.4 2.7c1.3 1.6 2.4 4 2.4 5.4zm42.7 82.5c-.3.8-.6.5-.6-.6-.1-1.1.2-1.7.5-1.3.3.3.4 1.2.1 1.9zm-36.9 66.5c4.9 2.8 5.2 4.3 1.6 7.2-3.8 3-6.8 2.6-11.4-1.5-4.6-4.2-4.9-5.5-1.7-7.7 2.6-1.8 5.7-1.3 11.5 2zM1447 180c0 1.7-.7 4.7-1.5 6.6-1.3 3.2-1.8 3.5-4.2 2.9-3.6-.9-4.5-2.3-3.9-6.3.7-4.6 2.3-6.2 6.2-6.2 3.1 0 3.4.3 3.4 3z"/><path d="M1432 94.9c-1.7 3.2-1.2 14.4 1 21.5 2.2 6.9 4.5 8.6 5.6 4.1 1-4 0-21.3-1.3-22.6-.9-.9-1.1 1.2-.7 9.7.4 9.2.3 10.6-.8 8.9-.9-1.3-1.3-5.6-1.3-12.7 0-10.8-.5-12.5-2.5-8.9zM1459 30c0 1.1.5 2 1 2 .6 0 1-.9 1-2s-.4-2-1-2c-.5 0-1 .9-1 2zM351.3 8.8c-1.5 1.8-3.3 3.2-4 3.2-.7 0-2.8 1.4-4.8 3.1-6.2 5.5-8.3 18.1-4.6 27.9 1.8 4.7 1.8 5 .1 5-2.4 0-3.7 1.8-4.5 6.2-1 5.4.1 7.5 6.7 12.4 5.7 4.2 9.8 5.6 9.8 3.4 0-.6-.4-1-.9-1s-3.5-2.1-6.6-4.6c-5.2-4.2-5.6-4.9-5.3-8.2.3-3.7.3-3.7 5-3.7 4.9 0 6.8-1.8 2.5-2.3-3.4-.4-6-11-5.4-22.2.4-8 .5-8.4 3.8-11.1 2-1.7 4.1-2.6 5.1-2.3 1.1.3 2.6-.5 3.9-2 2.1-2.4 2.9-2.6 9.8-2.6 9.5 0 11.7 1.2 5.9 3.1-8.5 2.8-14.6 12.8-15.6 25.5-.5 6.6 1.1 10.5 8.4 20.8 3.1 4.5 3.4 5.4 3.4 12.3 0 5.5-.9 10.6-3.5 19.6-2.7 9.3-3.8 15.5-4.6 25.9-1.3 17.5-.3 23 6.2 36.9 6 12.8 7.2 20.8 6.2 42-.6 14.1-.1 18.9 2 18.9.9 0 1.2-5 1.1-21.3-.1-23.7-.9-28.7-6.9-41.1-5.1-10.6-5.9-15.8-5.1-32.6.6-11.7 1.4-17.1 4.2-28.4 3.3-13 3.4-14.4 2.6-21.7-.9-7.1-1.4-8.4-5.5-13.9-7.5-9.9-8.2-15.2-3.6-27.4 4-10.9 11.7-15.4 24.4-14.3 7 .5 9.6-.6 4.2-1.8-2.2-.5-2.6-.9-1.4-1.2.9-.2 1.7-.8 1.7-1.2 0-1.9-6.2-3.2-18.5-3.8l-13.4-.6-2.8 3.1zM1043.5 7.9c-5 1.2-9 3.5-9.3 5.4-.3 1.2.3 1.7 1.9 1.7h2.3l-2.2 1.6c-7 4.9 4.4 14.6 15.2 13 4.3-.7 4.3-.7 3.8 2.2-.3 2.3.2 3.3 2.5 4.9 4.3 3 10 4.6 14.9 4 4-.4 4.4-.3 3.9 1.4-.7 2.2 3.4 5 10.1 6.9 3.5 1 4.2 1.5 3.3 2.6-.6.8-.9 2.4-.5 3.7.5 2.1-.4 3.1-6.5 7.3-3.9 2.7-8.8 6.1-11 7.7-4.1 2.9-4.9 5.6-2.4 7.7 2.4 2 1.1 2.3-3 .6-2.1-.9-5.7-1.6-8.1-1.6-3.5 0-4.9.6-7.4 3-1.7 1.6-3.8 3-4.8 3-4.9 0-11.2 7.4-11.2 13.2 0 4.7 2.2 9.9 5.6 13.2 3 2.9 3.2 3.5 1.9 4.6-.8.7-1.5 2.7-1.5 4.5 0 2.7.8 4.1 4.1 6.9 2.3 1.9 5.9 4.4 8 5.4 3.3 1.7 3.7 2.1 2.4 3.2-.8.7-1.5 1.8-1.5 2.4 0 .6-1.5 1.8-3.3 2.6-4.3 2-4.8 6-1.1 8.9 1.4 1.1 3 1.8 3.6 1.5.5-.3-.3-1.5-1.7-2.6-4.9-3.8-2.6-6.8 5.3-6.8 3.5 0 4.2-1.3 1.5-2.9-1.7-.9-1.7-1 0-2.8 2-2.3 2.2-4.3.3-4.3-.7 0-4.2-1.9-7.7-4.3-7.8-5.1-8.8-8.2-4-11.7 3.3-2.3 4-4 1.6-4-4.9 0-10.5-7-10.5-13.4 0-8.3 9-14.6 14.2-9.9 2.4 2.2 3.4 1 1.9-2.3-2.3-5.1 3.5-7.1 11.2-3.9 5.3 2.2 8.7 2 8.7-.5 0-1.1-.4-2-1-2-.5 0-1.4-.9-1.9-1.9-.9-1.7.4-2.9 10.9-10.2 11.4-7.8 13.6-10.2 10.8-11.2-1-.3-.8-1 .6-2.5 2.7-3 1.5-4.8-4.2-6.2-2.8-.6-5.9-1.8-6.9-2.5-1.7-1.3-1.7-1.4 0-3.3 2.6-2.8.9-3.4-7.3-2.6-7.5.7-14.4-1-17.1-4.3-1.1-1.3-.9-1.9 1.4-3.9 1.6-1.3 3.5-2.4 4.3-2.4.8 0 1.4-.5 1.4-1.1 0-.8-1.2-.9-3.7-.5-13.4 2.4-19 1.7-23.4-3l-2.4-2.6 3.5-2.9c2.2-2 3.1-3.2 2.3-3.6-2.4-.9-1.3-2.2 2.5-2.9 2-.4 4.6-1.3 5.7-2 1.9-1.3 1.9-1.4-.5-1.3-1.4.1-3.8.4-5.5.8zM680.5 9c-1 1.5.7 2.6 6.9 4.5 6.3 1.9 11.6 2 11.6.2 0-.9-2.6-2-7.3-3-4-.9-8-1.9-8.9-2.2-.9-.4-1.9-.1-2.3.5zM551.5 9.8c-4.7.8-4.7 1.6-.1 2.1l4.9.6 4 9.5c2.1 5.2 4.5 11.5 5.3 14 .7 2.5 1.6 5.5 2 6.7 1 3.6-.2 2.7-3-2.1-1.4-2.4-3.6-5-4.9-5.9-1.3-.8-2.9-3.4-3.6-5.7-1.5-5.1-5.1-11.3-5.1-8.8 0 1.5-.4 1.6-2.4.7-1.7-.8-2.6-2.2-3-4.9-1.2-7.8-8.9-6.5-19.5 3.3-1.8 1.8-4.2 5-5.2 7.2-3.3 7-2 18.3 2.3 20.6 2.7 1.5 3.3.5 1.4-2.3-1.6-2.2-2.3-10.4-.8-9.4.4.2 2.1 3 3.7 6.1 2.9 5.5 2.9 5.6 1 6.7-5.4 3.1-6.5 5.4-6.4 13 0 4 .4 9.7.8 12.5.7 5.1.7 5.3-1.6 5.3-3.4 0-17.6 5.7-20.1 8.1-1.3 1.1-3 3.8-3.9 6l-1.5 4-2.4-5.2c-1.3-2.8-2.4-6-2.4-7s-.4-1.9-1-1.9c-2 0-.9 5.4 2.2 11.1 1.8 3.2 2.9 6.2 2.4 6.6-.4.4-2.6-1.2-4.8-3.5-2.2-2.4-4.2-4.1-4.5-3.8-1 .9 2.5 5.4 5.7 7.2 3.2 1.9 3.7 2.9 2 3.9-.6.4-2.8-.7-4.9-2.4-4.2-3.3-6.1-3.9-6.1-1.8 0 1.7 3.6 5.1 7.4 7.1 2.7 1.3 2.9 1.9 3.1 8.3.4 13 5.6 19.1 16.8 20 7.4.6 11.2-.9 15.1-6 4.9-6.5 1.8-7.9-4.5-2.2-3.2 2.8-4.7 3.5-8.2 3.5-5.9 0-10.9-2.9-12.4-7.1-2.1-5.9-1.6-15.1 1.2-22.6 1.4-3.7 3.3-7.6 4.3-8.6.9-1.1 5.5-3.9 10.2-6.2 11-5.5 11.5-6.4 10.6-19.4-.9-11.5-.2-13.5 5.1-15.8 7.2-3 9.8-.3 12.7 12.8 2.6 11.9 2.5 11.8 14.2 8.2 20.1-6.3 31-6.9 41.7-2.2 11.6 5.1 12.4 5.9 13.2 13.4.9 8.5 0 12.8-3.5 16.9-5.1 5.8-11.5 7.8-27.5 8.7-15.8.8-23.8 2.6-24.3 5.3-.2 1.1.4 1.9 1.6 2.3 1.3.3 2.2 1.6 2.6 3.6 1.6 9.3 3.8 35.4 3.9 47.4l.2 13.7-6.5 3.8c-3.6 2.1-8 4.4-9.8 5.3-1.8.9-3.2 2.1-2.9 2.8.7 2.4 4.8 1.8 9.5-1.3l4.7-3.1.7 6.8c.3 3.7 1.5 10.4 2.6 14.8s2.3 11.8 2.7 16.5c1.2 17.4 5.9 31.8 13.2 40.7l3.4 4.3h8.2c13.9-.1 20.7-2.6 20.7-7.7 0-3.4-2.5-7.8-5.7-10.1-3.1-2.2-16.5-7.2-19.1-7.2-1.4 0-2.1-2-3.7-10.7-1-5.9-4.3-20.1-7.3-31.7-2.9-11.6-5.3-23.1-5.3-25.5.2-8.6-4.8-50.9-6.9-58.9-.8-3-.6-3.4 1.8-4.4 1.5-.6 8.8-1.4 16.2-1.8 25.3-1.5 35-8.7 35-25.9 0-2.8.4-5.1.9-5.1 1.3 0 11.1-8 11.1-9.1 0-2.1-3.3-.6-7.5 3.2-2.5 2.3-4.8 3.9-5.2 3.5-.8-.8 4.5-6.4 6.9-7.2 1-.3 1.8-1 1.8-1.5 0-1.3-3.4-1.1-4.8.3-.7.7-1.2.8-1.2.2 0-.6 1.6-2.5 3.5-4.4 4-3.9 4.4-5.3 1.3-4.8-1.3.2-3.5 2.3-5.5 5.3l-3.4 5.1-9.4-4.8c-5.2-2.5-11.5-5-14-5.4-5.9-.8-24 1.9-34.1 5.2-4.2 1.3-7.9 2.2-8.4 1.9-.5-.3-1.6-4.1-2.6-8.5-2-9.3-4.4-13.7-7.9-14.6-1.4-.3-2.5-.9-2.5-1.3s2-4.6 4.4-9.3c2.5-4.8 4.8-10.3 5.2-12.2 1.2-6.7 4.1-3.6 5.5 5.9 1 7 2.7 11.2 5.4 13.5 1 .8 2.1 2.5 2.6 3.8.5 1.3 2.2 2.9 3.7 3.4 1.6.6 3.7 2.7 4.8 4.6 1.2 2.2 3.2 3.9 5.4 4.7 1.9.7 4.4 1.6 5.4 2 1.8.8 1.9.5 1.3-4.1-.4-2.9-1.4-5.3-2.3-5.9-5.2-3.3-6.5-5-8.5-11.8-2.3-8.2-9.7-27.6-11.1-29.3-1.1-1.5-3.7-2.1-6.3-1.6zm-9.5 6.7c0 .8-.4 1.5-1 1.5-1.5 0-7 10.2-7 13 .1 1.9.9.9 3.7-4.3 6.7-12.6 5.6-3.6-1.2 9.7l-4.4 8.7L529 39c-2.2-4.3-3.6-6-4.6-5.6-2.1.8-1.8-3 .8-7.5 2.5-4.6 5.1-6.1 4.2-2.5-1.2 5 1.6 3.5 4.6-2.4 2.5-4.9 3.5-6 5.5-6 1.6 0 2.5.6 2.5 1.5zM559 36c2 1.6 5.1 5.7 6.9 9 1.8 3.4 3.5 5.9 3.8 5.6 1.1-1 6.5 2.9 7.4 5.3.5 1.3.8 2.6.5 2.8-1 1.1-6.8-2.6-8.8-5.7-1.3-1.9-3.3-3.6-4.5-3.8-1.2-.2-2.5-1.2-2.8-2.3-.4-1.1-2-3.5-3.5-5.3-1.6-1.8-3.4-5.3-3.9-7.7-1.3-5.7-1.2-8.4.2-4.1.5 1.8 2.7 4.6 4.7 6.2zm10 149.7c0 .5 1.6 7.5 3.5 15.8 5.3 22.1 8.5 38.3 8.5 42.4 0 5 .9 5.9 6.6 7 7.3 1.4 15.7 5.4 18.2 8.6 4.5 5.6 2.5 7-11.6 7.7l-9.2.6-3-3.8c-1.7-2.1-3.9-5.8-4.9-8.2-2.6-5.8-6.1-24.4-6.1-32.1 0-3.5-.7-9-1.6-12.2-.9-3.3-2.2-9.8-3-14.4-.7-4.6-1.6-8.6-1.9-8.9-.5-.5 2.5-3.1 3.8-3.2.4 0 .7.3.7.7zM1214.7 10.7c-.4.3-.7 1.3-.7 2.2 0 1.2.3 1.2 1.2.3 1.6-1.6 4.4-1.5 8.4.4 2.2 1.1 4.4 1.4 6.2.9 8.9-2.2 9.6-2.1 13.2 3.4 1.8 2.9 4.1 5.8 5.1 6.5 1.6 1.1-.4 1.3-13.7 1.5-13.5.1-15.9-.1-17.5-1.5-1.1-.9-1.9-1.3-1.9-.7 0 1.8 3.6 4.3 6.2 4.3 1.5 0 2.8.4 3 .8.2.4 5.5.4 11.8 0 6.3-.4 12.7-.5 14.3-.2 2 .4 2.7.2 2.7-1 0-2.4 1.8-1.9 2.2.5.4 2.8 4.8 6.1 7.9 6.1 1.3 0 5.8-.7 9.9-1.6 10.1-2 14.7-2 15.8.1 1.3 2.3 4.2.9 4.2-2.1 0-2.1-.5-2.4-4.2-2.8-2.4-.3-7.7.1-11.8.9-4.1.7-7.6 1.3-7.7 1.3-.2 0-.3-1.3-.3-2.8 0-1.6-.8-3.6-1.7-4.4-5.1-4.4-9.7-4.5-11.3-.2-1.8 4.5-5.8 2.3-11.3-6.1-4.1-6.3-7.1-7.5-12.7-5-3.9 1.8-4.3 1.8-7 .2-2.8-1.7-9.1-2.3-10.3-1zm51.5 13.6c2 3.2.4 7.7-2.8 7.7-2.9 0-6.5-3.4-5.9-5.5.3-.8.7-2.2 1-3.1.4-1.3 1.3-1.5 3.7-1 1.8.3 3.6 1.2 4 1.9zM723 14.6c0 2.2 4.4 3.4 12.4 3.4 5.3 0 7.7-.4 8.6-1.5 1.7-2 .7-2.2-11.2-2.8-8.1-.5-9.8-.3-9.8.9zM1674.2 14.2c-.7.7-1.2 2-1.2 3 0 .9-.8 2.1-1.7 2.6-.9.5-2.4 2.5-3.2 4.3-1.8 3.9-4.4 4.5-4.9 1.1-.4-2.6-1.9-2.8-6.7-.8-2.9 1.2-3.5 2-3.5 4.4 0 1.6-.7 4.3-1.5 5.8-.8 1.6-1.5 3.9-1.5 5.2 0 1.2-.6 2.5-1.4 2.8-2.1.8-3.8 5.7-3.3 9.5.4 3.3.4 3.2.5-.6.2-5.1 2.6-8.5 5.8-8.5 1.3 0 2.4-.5 2.4-1 0-.6-.4-1-1-1-1.3 0-1.3-2.5 0-6.4.5-1.7 1.2-4.3 1.5-5.8.7-3.8 5-4.9 7.1-1.9 2.4 3.4 6.2 2.8 7.9-1.3 2.1-5 4.2-5.8 7.3-2.9 2.4 2.2 2.4 2.4.8 4.2-1.1 1.2-1.5 2.7-1.2 3.8.4 1.2-.3 3.2-1.9 5.3-3.3 4.5-3.2 6.6.5 7.8 1.6.6 3.5 2.3 4.2 3.7 1.1 2.4.9 2.9-1.2 4.5-2.2 1.7-2.3 2.2-1.2 3.9 2 3.4 1.4 4.8-3.1 6.5-2.3.9-4.7 1.6-5.3 1.6-1.9 0-4.4 3.5-3.5 4.9.6.9 1 .7 1.4-.8.3-1.2 1.2-2.1 2-2.1s3.6-.9 6.2-2.1c4.5-2 4.7-2.2 4.3-5.7-.3-2.8 0-4 1.5-5.3 3.2-2.5 1.2-7.2-4.6-11.3-1.8-1.2-1.8-1.4.8-4.4 1.6-2 2.5-4.1 2.3-5.6-.1-1.3.5-3.3 1.5-4.4 2-2.2 1.4-4.8-1.4-5.7-1.4-.5-1.9-1.6-1.9-4.6 0-4-.7-4.8-2.8-2.7z"/><path d="M354.5 16.7c-3 .7-7.5 5.3-9.6 9.8-2.2 4.7-2.5 13.2-.5 15.4.7.9 2.8 4.9 4.6 9 2.9 6.8 3.2 8.4 3.4 18.5.1 9.9-.3 12.7-3.6 25.2-4 15.2-6.4 34-5.5 43.3.6 6.4 2.5 12.5 7.3 23.2 4.2 9.5 6.2 18.9 7.4 35.4 1.2 15.4 2.8 25.5 4.2 25.5.6 0 .7-1.1.4-2.5-.4-1.4-1.1-8.5-1.6-15.8-1.7-24-3.4-33.7-7.2-41.1-1.1-2.2-3.4-7.9-5.1-12.6-2.7-7.5-3.1-9.7-3-18.5.1-12.8 1.7-23.1 5.6-37.5 2.8-10.1 3.2-13 3.1-23.5 0-11.3-.2-12.4-3.2-19.2-1.8-3.9-3.2-7.6-3.2-8.1s-.7-1.5-1.5-2.2c-.8-.7-1.5-2.8-1.5-4.9.1-6.2 6.1-17.1 9.6-17.1.6 0 1.7-.7 2.4-1.5 1.3-1.5 1-1.6-2.5-.8zM376 19.9c-3.3.9-3.8 3.2-3.9 18.8-.2 23.9 2.7 39.4 6.8 36.8 5.3-3.2 7.8-35 3.9-50.3-1.2-4.7-3.1-6.2-6.8-5.3zm3.4 3.9c.3.5 1 3.7 1.5 7.3.9 5 .8 6.6-.2 7.4-1.6 1.2-4.7 5.7-4.7 6.7 0 1.8 1.9.6 4-2.5l2.2-3.2-.6 13c-.4 12.2-1.8 19.5-3.6 19.5-2 0-4-43.2-2.1-46.8 1.2-2.3 2.6-2.8 3.5-1.4z"/><path d="M378.5 47.1c-.4.6-.5 1.2-.2 1.5.2.3.7-.2 1-1.1.7-1.7.1-2-.8-.4zM377.3 54.5c-.8 2.2.6 3.3 1.7 1.5 1.3-2 1.2-3 0-3-.6 0-1.3.7-1.7 1.5zM103.6 24c-2.2 2-4.6 5.8-6.5 10.5-4.5 10.8-3.7 11.4 1.3 1 2.6-5.5 5.5-10.1 7.5-11.8 1.8-1.5 2.8-2.7 2.2-2.7-.6 0-2.6 1.4-4.5 3zM191.6 28.2c-6.5 11.5-7.2 39.3-1.2 52.3 4.1 8.8 5.4 9.8 12.8 10 7.6.1 11.3 2 13.3 6.8 5.7 13.8 8.5 64.1 5 92.4-1.9 15.2-5.1 25.4-10.4 33.7-4.9 7.5-6.3 12.9-3.5 14 3 1.2 12-4.1 16.6-9.7 2.4-2.9 9.3-10.2 15.4-16.2 11.6-11.4 13.8-14.5 16-23 1.9-6.8 1.8-8.5-.5-8.5-1.9 0-2.1.4-5.6 10.5-1.2 3.4-3.5 6.6-6.9 9.9-2.8 2.6-8.6 8.2-12.8 12.3-4.3 4.2-7.8 7.3-7.8 7 0-.2.7-2.4 1.6-4.8 4.5-12.8 6.2-52.7 3-70.4-.8-4.4-1.8-13.4-2.1-20-1.1-20.9-3.5-31.5-8.1-35.7-2.6-2.3-11.2-5.1-14-4.5-3.1.6-5-1.7-7.5-8.9-2.4-6.9-3.5-20.9-2.4-31l.7-6.9 1.2 4.7c.7 2.5 2.8 7.2 4.7 10.3 4.3 7.2 15.5 19.9 17.9 20.3 1.1.2 3-1.4 5.4-4.7 4.3-5.8 10.3-11.4 11.9-10.8.5.1 1.6 3 2.4 6.3 2.7 11.9 3.3 13.4 5.1 13.4 1.1 0 2.3-1.3 3-3.4.9-2.5 2.4-3.9 5.6-5.5 15.3-7.1 25.4-3.6 27.2 9.6.9 6.8-.6 10.4-5.7 13.7-4 2.7-11.7 3.7-10.3 1.4.4-.7.3-.8-.4-.4-1.7 1-1.5 3.3.4 4 .9.3 3.4.6 5.7.6 3.8 0 4.9.7 11.7 6.9 4.1 3.7 10.7 9.2 14.5 12.1 3.9 2.9 6.2 5 5.1 4.6-6-2.1-11.6-2.7-21.4-2.4-9.1.2-11.4.6-13.1 2.2-1.2 1.1-2.1 2.6-2.1 3.4 0 .8 2.2 4.4 4.9 8.1 6.2 8.5 8.6 13.2 11 22.3 2.7 9.8 4.1 21.2 4.8 39.8.8 22.7-1.4 30.4-13.3 44.7-7.4 8.9-9.4 10.4-9.4 7.3 0-2.4-3.7-2.8-4.6-.5-.9 2.2-7 1.9-11.4-.6-4.9-2.8-6.8-6.3-8.3-15.1-.9-5.3-1.6-7.3-2.7-7.3-2.1 0-1.8 14.1.4 18.3 1.8 3.5 8.1 9.2 10.1 9.2.8 0 1.5.5 1.5 1 0 1.7-5.1 9.2-10 14.8-6.1 6.8-10.2 14.4-9.8 17.9.4 4 2.7 3.9 8-.3 2.6-1.9 7.3-4.6 10.5-5.9 4-1.7 5.8-2.9 5.8-4.2 0-2.2-4.3-2.9-8.6-1.4-3.3 1.2-3.4 1.3 1.8-6.3 1.8-2.6 4.1-7 5-9.6 1.5-4.1 2.2-4.9 4.7-5.3 1.8-.2 3.6.2 4.4.9.7.8 2.2 1.4 3.2 1.4 1.4 0 2.6 2.1 5 8.8 1.7 4.8 3.8 11.2 4.6 14.1 1.7 6.8 2.5 7.6 7.7 7.7 2.3 0 5.7.4 7.5.8 2.5.7 3.2.5 3.2-.7 0-1.7-6.8-4.7-10.8-4.7-2.5 0-2.9-.5-4.6-6.4-1-3.6-3.3-9.9-5.1-14-1.8-4.2-3-7.6-2.6-7.6 1 0 13.1-14.6 15.8-19 4.7-7.7 6.6-16.6 6.4-30.4-.2-23-3.8-47-8.9-58.6-1.1-2.5-4.5-7.9-7.6-12l-5.7-7.5 5.8-.8c12.7-1.8 25.1.7 39.9 8 4.3 2.1 7.9 3.3 8.9 2.9 3.5-1.3 2.8-1.8-22.1-19.3-4.9-3.4-12.1-9.2-16.1-12.8l-7.2-6.6 3.4-3c7.3-6.4 7.4-21.1.2-28.7-3.6-3.9-7.2-5.2-14.4-5.2-6.7 0-7.6.3-20.5 6.8-.4.2-1-1.5-1.4-3.8-1.8-10.9-9.8-11.1-17.9-.3-1.6 2.2-3.9 5.2-5 6.7l-2 2.6-5.5-6.5c-3-3.6-7.2-9.7-9.2-13.5-3.5-6.6-3.8-7.7-3.8-15.4 0-7.6-.9-10.6-3.2-10.6-.4 0-1.8 1.9-3.2 4.2zM907.7 27.2c-.7 2 1.9 6.3 4.8 8.2 1.6 1.1 5.5 1.9 9.8 2.2 11.9.8 11.6.7 10.6 5.6-1.1 6-1.1 15.6.1 16.3.6.4 1-1.6 1-5.3 0-3.3.3-8 .6-10.6.6-4 1-4.6 3-4.6 2.9 0 4-1.7 1.6-2.4-1-.4-6.6-1-12.4-1.4-11.3-.9-16.8-3.3-16.8-7.3 0-2.1-1.6-2.6-2.3-.7zM829 28.6c-5 1.3-11 4.4-15.1 7.7-2.3 1.7-7.9 10.8-7.9 12.6 0 .9 1.2-.2 2.6-2.4 5.7-8.5 10.6-12.3 19.4-14.9 9.4-2.8 11.7-2.3 17.5 3.7 6.8 7 12.4 17.1 14.8 26.6 2.5 10.1 2.7 33.6.5 47.6-3.1 18.5-4 31.9-3.6 49 .4 15 .9 18.4 3.7 29.2 3.7 14.3 7.7 24.4 12.1 30.8 7.1 10.3 18.4 19.5 23.9 19.5 1.1 0 2.9-1.2 4-2.8 1.2-1.6 2.4-2.3 2.8-1.7.5.5 1.5 1.2 2.3 1.4 17.3 4.8 21.1 5.1 27.1 2.1 2.2-1.2 4.8-3.5 5.8-5.1 2.1-3.4 7.2-7.3 20.2-15.4 8.1-5 17.3-8.5 26.1-10 4.8-.7 8.4-3.6 7.5-6-.6-1.4-1.4-1.6-4.5-1.1-2 .4-8.2 1.2-13.7 1.8-8.4.9-10.6.8-13.6-.5-4.4-1.8-4.8-3.6-5.5-23.7-.6-16.3-.9-18.2-3.2-17.8-1.5.3-1.8 2.4-2.2 18.4-.7 24.1-1.6 25.5-14.6 22.3-7-1.8-14.9.9-20.9 7.2-6.4 6.6-11.5 15.5-11.5 19.8 0 2.5-1 4.7-3 7.1l-2.9 3.5-4.4-2.3c-5.7-3-14.7-12.2-19.2-19.7-4.1-6.9-8.4-19.6-11.5-34.4-2-9.4-2.2-12.2-1.7-32 .4-15.5 1.2-25.6 2.8-35.6 3-18.9 3-41.4 0-52.9-4.4-16.7-17.8-33.8-26.3-33.5-1.3 0-4.8.7-7.8 1.5zm126.7 173.7c.9.9 3.4 2.2 5.5 2.9l3.8 1.1-6.8 4.1c-16.9 10.2-26.2 18.3-26.2 23 0 2.4-4.7 3.1-11.5 1.7-8.4-1.7-12.9-4.1-13.3-7-.5-3.1 6.8-17.8 10.5-21.2 1.5-1.5 5.1-3.2 7.9-3.9 4.4-1.1 6-1.1 11.6.4 5.8 1.6 6.8 1.6 10 .3 2.7-1.1 3.9-2.5 4.9-5.4l1.4-3.8.3 3c.2 1.6 1.1 3.8 1.9 4.8z"/><path d="M915.2 212.5c-3 3-2.6 6 .7 6 1.9 0 2.7-.7 3.3-3 .8-3.1.4-5.6-.9-5.4-.4.1-1.9 1.2-3.1 2.4zM685 28.7c-4.7.8-18.5 5.6-19.2 6.6-1.1 1.8.3 3.7 2.8 3.7 2.3 0 2.4.1 2.3 10.6 0 8 .4 11.1 1.5 13 3.4 5.1 10.9 6.9 32.1 7.9 8.1.4 14.2 1.1 14.6 1.7.4.6 1.2.7 1.8.3 1.2-.7 13.7 1.3 25.1 3.9 3 .7 6.1 1.1 6.7.9 1.7-.6 2.3-4.9 2.7-19.3.2-6.9.7-14.6 1.1-17.2.5-3.3.4-5.2-.4-6.2-1.8-2.2-12.4-3.6-35.6-4.7-11.5-.6-23.7-1.2-27-1.4-3.3-.2-7.1-.1-8.5.2zm10.4 18l.7 5.3h-3c-3.2 0-4.1-1.4-4.1-6.5 0-4.8-1.1-9.5-2.2-9.5-.6 0-.7 3-.3 8.1l.7 8.2-4.7-.7c-6.2-1-5.8 1.3.6 3.3 2.4.8 4.8 1.9 5.2 2.5.6.8 1 .7 1.4-.2.2-.6 1.8-1.2 3.4-1.2 2.5 0 2.9.4 2.9 2.7 0 1.6.3 3.8.6 5 .6 2.1.3 2.3-3.8 2.3-5.7 0-14-2.5-16-4.7-1.8-2-3.5-17.6-2.4-21.1.5-1.4 2.4-2.4 6.9-3.6 3.4-.9 7.6-1.7 9.2-1.8 3.3-.3 3.4-.1 4.9 11.9zm47.5-9.7c4.6.5 8.6 1.2 8.9 1.5.3.2 0 3-.7 6.1-.6 3.2-1.1 7.2-1.1 9 0 3.5.1 3.4-7.2 4.9-1.6.3-1.8-.7-1.8-10.2 0-6.7-.4-10.2-1-9.8-.6.3-1 4.8-1 10s-.4 9.6-.8 9.9c-.5.3-2.5.1-4.5-.5l-3.7-1-.1-6.2c-.1-3.4-.5-7.3-1-8.7-.6-1.7-.7.3-.5 5.9l.4 8.3-4-.5c-2.2-.3-4.2-.8-4.5-1-.3-.3-.8-4.3-1.1-8.9-.4-5.9-.8-7.4-1.2-5.3-.4 1.6-.4 5.4-.2 8.3l.5 5.4-2.9-.4c-2.6-.3-3-.8-4.1-6.3l-1.2-6 .5 6.1c.5 6.1.5 6.1-2.1 5.7-2.3-.5-2.5-1-2.7-6.7l-.1-6.1-.6 6c-.6 6-.6 6-3.6 5.6-3.6-.4-4.5-1.5-4.5-6.1 0-1.9-.4-5.1-.9-7.1l-.8-3.5 19.6.3c10.8.2 23.4.8 28 1.3zm-38.1 24.7c.3 5.3.3 5.3-2.6 5.3-3.2 0-4.2-1.7-4.2-7.8 0-3.2.2-3.3 3.3-3 3.1.3 3.2.4 3.5 5.5zm7.3-.7l.6 3.5.2-3.3c.1-2.7.5-3.2 2.6-3.2 2.3 0 2.5.4 2.5 4.5V67h-12v-5.1c0-4.9.1-5 2.8-4.7 2.2.2 2.8.9 3.3 3.8zm16.1-.4c.5.3.8 2.3.8 4.6 0 3.7-.2 4-2.2 3.4-1.3-.3-3.3-.6-4.5-.6-2.1 0-2.3-.5-2.3-4.6v-4.6l3.7.7c2.1.4 4.1.9 4.5 1.1zm9.6 2c.6.2 1.2 1.7 1.2 3.4 0 1.8.4 2.9 1 2.5.6-.3 1-1.9 1-3.6 0-1.8.5-2.9 1.4-2.9.7 0 2.8-.3 4.5-.6l3.1-.7v11.4l-5.7-.6C729 69.9 730 70.3 730 66.1c0-2.1.3-4.1.6-4.4.6-.6 3.7-.2 7.2.9zM1559.7 30.4c-10.7 3.9-14 8.6-14.5 21.2-.5 10.5.7 13.7 8.2 22.1 8 8.9 14.3 10.3 23.1 5.3 10.4-6 16.4-15.4 17.3-27 .6-8.8-1.6-13.7-7.8-16.8-4.6-2.3-13.3-2.9-17.5-1.3-1.6.7-1.1 1 2.5 1.5 10.3 1.6 15 3.6 17 6.9 4 6.5 1.5 19-5.1 26.2-5.2 5.6-13.6 10.1-17.2 9.1-3.1-.7-9.6-7-13.6-13-2.2-3.4-2.6-4.9-2.4-11.1.2-11 3-14.9 15.1-20.9 2.8-1.5 5.2-2.9 5.2-3.1 0-1-6.6-.4-10.3.9zM395.4 31c-5.4 1.7-7.8 5.3-8.2 12.5-.6 8.4.1 10.7 4.4 15.5 6 6.6 14.2 7.5 21.2 2.3 3.9-3 5.8-6.4 6.7-12.5.9-5.9-1.9-12.2-6.9-15.6-3.9-2.6-12.3-3.7-17.2-2.2zm14.8 8.9c2.8 2.5 3.3 3.6 3.2 7.1-.2 7.3-4.5 12-11 12-3.3 0-9-5.7-9.9-10-1.6-7.5 2.1-11.9 10.2-12 3.3 0 5 .6 7.5 2.9z"/><path d="M401.4 45.4c-.9 2.4 0 5.1 1.8 5.4 2.1.4 3.4-3.4 1.8-5.3-1.6-1.9-2.9-1.9-3.6-.1zM1217.3 32.2c-1.3.6-2.3 1.5-2.3 2s.9.4 2-.2c1.2-.6 4-1.5 6.3-2l4.2-.8h-4c-2.2 0-5 .4-6.2 1zM54.7 32.7c-1.7 1.6-.1 2 8.7 2.6 10.1.6 14.1 2 17.5 6.3 1.5 1.9 2.1 2.2 2.1 1.1 0-2.6-6.6-8.5-10.7-9.6-4.2-1.2-16.6-1.5-17.6-.4zM1247 33.2c-1.9.6-5.9.8-8.7.5-4-.4-5.3-.2-5.3.7 0 1.4 4.2 2.6 9.1 2.6 2.9 0 10.6-2.6 12.4-4.2 1.2-1.1-3.1-.9-7.5.4zM1663.1 36.9c-1.7 1.8-3.1 4-3.1 4.8 0 .9.9.3 2.5-1.4l2.4-2.8.1 3.7c0 5.2 1.7 4.8 2.2-.5.8-6.6-.4-7.7-4.1-3.8zM134.5 35.7c-4.1 1-22.1 8.6-23.5 9.9-1.8 1.7 2.7.5 16-4.6 7.2-2.7 9.6-3.1 15.2-2.8 4.8.3 7.3.9 9 2.3l2.3 2-2-2.4c-3.8-4.5-10-6.1-17-4.4zM904.7 40.5c-1.5 3.1-2.7 6.5-2.7 7.6 0 3.9 2.4 1.3 5.2-5.6 3.3-7.9 3.2-7.5 1.5-7.5-.7 0-2.5 2.5-4 5.5zM970.4 38.1c-.3.6.3 2.4 1.5 4l2.2 3-2.7 8.4c-1.6 4.6-2.5 8.8-2.1 9.1 1.2 1.2 2-.4 4.8-8.9l2.7-8.2 3.3.3c7.7.6 7.6.5 6.8 7.4-.3 3.5-1.2 8.3-1.8 10.7-.7 2.3-1 4.6-.7 4.9 1.2 1.2 3.9-7.7 4.4-14.6.4-6.5.7-7.2 2.6-7.2 1.1 0 3.7-.3 5.7-.6l3.7-.6.4 9.6c.3 7.3.8 10 2.1 11.3 2.4 2.5 2.8 1.4 1.7-5.3-1.5-9-1.3-16.9.5-18.4 1.7-1.4 2-5 .4-5-.6 0-2.2.9-3.5 1.9-1.6 1.3-4.9 2.1-10.2 2.6-9 .8-16-.5-18.4-3.4-1.9-2.4-2.4-2.5-3.4-1zM917.4 41.7c-.3 1.6-1.2 5-2 7.7-1.6 5.7-1.8 7.9-.5 7.2.4-.3 1.5-3.1 2.4-6.3 2.5-9.6 2.8-11.3 1.7-11.3-.5 0-1.2 1.2-1.6 2.7zM1560.6 46.2c-2.7 3.6-3.3 5.8-1.6 5.8.5 0 2.9 1.7 5.1 3.7l4.2 3.8 2.1-2.9c1.2-1.7 3.6-4.7 5.5-6.8 2.5-2.8 3.1-4.2 2.3-5-.8-.8-1.8-.6-3.7.6-3 2-9 1.3-10.4-1.1-.7-1.3-1.3-.9-3.5 1.9zm7.7 2.3l3.5.7-2.2 3.3c-1.1 1.9-2.3 3.4-2.6 3.4-.3 0-2-1.3-3.9-2.9-2.9-2.5-3.2-3.1-2.1-4.5.7-.9 1.9-1.4 2.6-1.1.7.3 2.8.8 4.7 1.1zM85.5 47.7l-2.9 1.6 7.4 1.9c9.1 2.3 13.3 5 19.2 12 9.7 11.5 14.9 21.2 20.9 39.3l3.4 10-.1 21c-.1 15.1-.5 23-1.7 28-1.7 8-3.5 13-4.3 12.3-.3-.3-1.4-4.2-2.4-8.7-3.5-14.3-7.5-20.1-13.9-20.1-4.9 0-8.4 2.8-12.8 10.2-3.6 6-12.3 26.4-12.3 29 0 2.9-1.9 3-6.4.4-9.9-5.8-20.5-21.2-24.1-35.1-1.7-6.6-2-23-.5-26.9.7-1.8.6-2.6-.2-2.6-1.3 0-.5-7.4 1.8-16.5 1.5-6.2 9.6-23.6 11.7-25.3.9-.8 1.2 2.1 1.2 12.1.1 20.8 4.9 34.7 11.3 33 4.3-1.1 7.7-15.1 7-28.7-.5-9.7-5.7-23.2-9.6-25.2-2.3-1.1-2.2-1.2 3.5-7.3 4.8-5 6.4-6.1 9.1-6.1 1.7 0 3.2-.4 3.2-1 0-1.5-6.8-2.3-9.8-1.1-5.4 2.2-23.3 22.1-28.1 31l-3.3 6.3-3.2-3C47.9 86.5 44 84 41 82.6c-10.4-4.9-18.9-2.7-23.1 6-2.8 5.8-2.2 11.4 2 19.7 6.1 12 13.7 18.7 21.4 18.7h3.4l.6 9.7c.8 12.4 2.7 19.7 7.8 30.2 7.8 15.9 22.3 28 37.6 31.1 8.7 1.8 22.8.9 28.1-1.9 9.7-5 17.2-16 20.7-30.2 1-3.9 1.8-13.3 2.2-24.4l.6-18 4.2-4.7C153.6 110.9 158 95 158 77c0-13-2.6-17.9-7.8-15.1-3.5 1.9-12 12-14.8 17.7l-2.7 5.5-3.8-7.1c-4.3-8.2-13.5-20.5-18.7-25.1-7.4-6.5-18.1-8.8-24.7-5.2zm67.9 18.9c.3.9.6 4.9.6 8.9 0 12.7-4.3 30.6-9.4 39-2.7 4.4-2.5 4.7-5-6-.8-3.9-2.3-9.8-3.3-13.2l-1.7-6.1 3.2-6.4C140.7 76.9 150.2 65 152 65c.4 0 1.1.7 1.4 1.6zM80.5 81.7c1.5 3.8 2.9 9.3 3.2 12.4.6 6-1.1 17.6-3.2 22.4l-1.3 3-1.6-3.8c-4.6-10.5-6.4-31-3.3-38 .9-2.1 2.1-3.6 2.6-3.3.5.3 2.1 3.6 3.6 7.3zm-39.4 6.5c2.6 1.1 5.9 3.2 7.3 4.7l2.7 2.8-2 7.2c-1.1 4-2.3 9.9-2.7 13.2-.6 5.7-.8 5.9-3.6 5.9-6.2 0-12.8-6.1-18.2-16.7-2.8-5.6-3.4-12.7-1.3-15.3 4.2-5.4 8.5-5.8 17.8-1.8zm73.9 64c2.9 4.8 4.9 11.3 6.4 21.3 1.5 10.5 1.3 11-6.7 15-3.3 1.6-6.8 2.5-9.8 2.5-5.3 0-15-1.7-16-2.8-1-1 1.9-9 8-21.5 8.3-17.2 13.8-21.6 18.1-14.5z"/><path d="M140.1 87.6c-2.3 2.9-2.4 3.4-1.5 5.8.9 2.3 2.2 2 2.7-.7.3-1.6.5-1.3.6 1 0 2.1.6 3.3 1.5 3.3 1.7 0 2.6-2.2 2.6-6 0-6.4-2.5-7.8-5.9-3.4zM75 95.5c0 1.6.6 2.5 1.5 2.5s1.5-.9 1.5-2.5-.6-2.5-1.5-2.5-1.5.9-1.5 2.5zM32.6 98.2c-3.1 4.4-1.3 9.8 3.3 9.8 3.9 0 4.6-1.1 2-3.1-3-2.2-1.9-5.3 1.6-4.6 3.2.6 4.4-1.2 2-3-2.9-2-7.2-1.6-8.9.9zM50.2 49.6c-.7.3-1.7 1.5-2.4 2.7-1 2-1 2.1.6.8 1.2-1 3.3-1.2 8.4-.7 15.1 1.5 21.7 1.8 20.9 1-1.7-1.8-24.8-5-27.5-3.8zM1657.4 50.9c-1.8 1.1-3.9 3-4.8 4.2-1.8 2.6-2.2 8.4-.6 9.4.7.4.9-.2.4-1.9-1.1-4.7 5.1-11.6 10.5-11.6 3.2 0 2.9 5.9-.5 10-3 3.5-8 6.4-9.4 5.5-1.5-.9-17.7 33.7-18.7 39.8l-.5 3.4 5.1-.1c4.8-.1 5.1-.2 5.1-2.7 0-5.7 5.2-20.6 10.1-28.8 2.7-4.6 4.8-8.6 4.5-8.8-.6-.7-9.3 12.7-11.1 17.1-1.2 2.9-3.3 10.6-4.9 18.6-.4 2-1.2 2.5-3.6 2.6-1.6.1-3-.3-3-.8s2.6-7.1 5.8-14.6c3.3-7.5 6.7-15.8 7.8-18.4 1.6-4 2.3-4.7 5.4-5.3 5.4-.9 7-1.5 7-2.7 0-.5 1.1-2.4 2.5-4 2.1-2.5 2.5-3.9 2.3-7.7-.3-4.3-.5-4.6-3.3-4.9-1.7-.1-4.4.6-6.1 1.7zM1911.7 54.7c-.3.5-1.1 3.7-1.7 7.3-1.6 8.7-14.1 35.7-19.4 41.7l-3.9 4.5-6.6-.7c-18.2-1.7-37.2 10.4-48 30.7-2.8 5.3-5.1 10.1-5.1 10.7 0 2.2 3.1 1 6.8-2.7 4.1-4.1 24.5-14.8 30.2-15.9l3.5-.6-4.7 5.1c-10.3 11.5-16.1 37.3-10.9 48.7 3.7 8.1 13.4 13.7 14.5 8.2.3-1.2 1.2-6 2.1-10.7 1.9-10 6.9-22.6 9.5-24 1.8-1 5-.4 5 .9 0 .3-.9 1.2-1.9 1.8-2.7 1.7-5.1 13-5.8 28.2-.8 16.7 2.8 42.4 8.1 58.6.7 1.9.3 2-4.7 1.7-4.9-.3-5.8-.1-9 2.8-3.9 3.3-5.7 8-5.7 14.2 0 3.3-.3 3.8-2.3 3.8-3.2 0-6.3 2.5-7.5 6-1.5 4.1-.1 4.6 5.4 2 3.4-1.7 5.5-2.1 8.5-1.6l3.9.6-.6-5.2c-.4-4-.2-5.8 1-7.3 1.5-1.9 1.5-1.8 1.6 1.6 0 2.4.6 3.9 1.6 4.3 1.1.4 1.4 1.7 1.2 4.8-.3 3.9-.5 4.3-3.3 4.6-1.6.2-3.5.8-4.1 1.3-1.9 1.5-2.3 4.7-1 6.5 1.2 1.5 1.8 1.5 7.9-1 3.6-1.4 7.5-2.6 8.6-2.6 2.2 0 2.8-1.9 1.1-3.6-1.3-1.3-3.1-12-2.3-13.9.3-.9 1.9-1.5 3.9-1.5 4.4 0 9.9-2.3 11.3-4.7.9-1.6 1-1.5 1.1.8 0 3.2-1.7 4.9-5 4.9-4.6 0-6.4 3.6-3.5 7.4 1.3 1.8 1.5 1.8 4-.3 2.5-1.9 2.9-1.9 6.2-.6 2 .8 3.9 1.5 4.4 1.5.5 0 .9-3.9.9-8.6 0-6 .9-12.5 2.9-21.3 3.6-15.3 5.4-27.2 4.9-32.6l-.4-4-.7 5c-.5 2.7-2.1 8-3.5 11.7l-2.8 6.7.1-21.2c0-11.7-.4-24.6-.9-28.7l-.8-7.5 3.2 4c1.7 2.2 4.3 6.4 5.7 9.2 3.7 7.9 13.5 15.2 11.9 8.9-.3-1.4-.1-2.6.5-2.8.7-.2.2-1.8-1.4-4.1-5.9-8.7-15.7-37.8-15.7-46.7 0-2.5-.4-3.9-1-3.5-2.7 1.6 1.2 19.8 7.6 35.7 2.1 5.1 3.7 10.2 3.6 11.3-.1 1.1.8 3.5 1.9 5.4 2.9 4.9 1.7 4.9-2.5-.1-2.2-2.5-3.9-5.7-4.2-8-.4-2.1-1.2-3.8-1.9-3.8-1.4 0-9.5-11.5-9.5-13.4 0-.6 1 .4 2.1 2.1 2.9 4.5 3.4 4.1.9-.7-1.1-2.2-2.4-5.7-2.8-7.7-.5-2.5-1.4-3.9-2.6-4.1-1.6-.3-1.8 0-1.1 1.9 1.1 3.8 2.6 12 2.9 16.9.2 2.5.9 9.9 1.6 16.5 1.3 13.1.8 28.2-1.6 43.4-1.7 11.2-4.7 18.7-8.2 20.5-2.3 1.2-2.7 1.1-5.2-1.8-5.3-6.1-7.3-12.8-10.5-34.3-2.9-19.9-1.2-51.6 3-56.3 2-2.2 1.6-5.9-.7-7.4-5.6-3.5-14.2 11.8-16.9 30-.6 4.1-1.6 7.4-2.1 7.4-1.5 0-7.8-7.3-8.4-9.8-.4-1.3-.4-7.4-.2-13.5.4-9.8.9-12.2 3.7-18.8 3.4-8.1 8.6-15.1 13-17.3 2.7-1.4 4.8-1.3 30.1 1.3 12.1 1.3 22.5 6.4 34.6 17 5.1 4.4 10.6 10.2 12.4 12.9 2.2 3.4 3.7 4.9 4.7 4.5 3.6-1.4-1.9-13.9-10.7-24.3-3.5-4.1-8.3-10.5-10.7-14.2-4.1-6.4-9.7-11.8-12.1-11.8-.5 0-2.1-2.1-3.4-4.8-2.1-4.3-2.3-6-2.3-20.2 0-8.5.2-20.4.5-26.4.3-7.8.2-11-.7-11.3-.6-.2-1.3 0-1.6.4zm1.1 57c1.5 2.7 1.5 3.4 0 3-.6-.1-1.3.5-1.5 1.5-.3 1.1 1.4 2.6 5.6 4.8 4.9 2.6 6.7 4.4 10.2 9.8 2.4 3.7 5.7 8.3 7.4 10.2 6.1 7 5.9 7.3-1 1.8-10.6-8.5-21.1-12.6-35.5-13.9-6.3-.5-14-1.4-17-1.9-14.6-2.3-21.5-.9-37.3 8.1-3.8 2.1-7.1 3.9-7.4 3.9-.2 0 .8-2.3 2.3-5.1 3.5-6.4 12.7-14.2 22.1-18.7 5.8-2.7 9.4-3.7 17.9-4.6l10.7-1.2 4.9-5.3c3.3-3.6 6.7-9.2 10.6-17.3l5.7-12.1.5 17.4c.3 11.2.9 18.2 1.8 19.6zm-4.2 128.6c-1.9 7.5-3.7 17.1-4 21.4-.4 5.7-.9 7.7-1.8 7.4-4.2-1.3-6-1.2-7.7.3-1.8 1.7-3.1 1.2-3.1-1.1 0-.7 1.1-1.3 2.8-1.3 5-.1 6.7-2 7.1-8 .1-3 .9-7 1.6-8.7.8-1.8 2.3-6.8 3.5-11 2.4-8.8 4.1-13.5 4.7-13 .2.2-1.2 6.5-3.1 14zm-1.9-6.1c-.3.7-.5.2-.5-1.2s.2-1.9.5-1.3c.2.7.2 1.9 0 2.5zm-25 16.9c1.5.5 4.2 2.4 5.9 4 3.1 3 3.2 3 6.8 1.5 4.2-1.8 4.7-.6 1 3.1-2.2 2.2-3.1 2.5-6.8 2-7.6-1.1-9.3 2.3-7.3 14.5.8 4.5.7 4.8-1.3 4.8-1.3 0-1.8-.4-1.4-1.1.3-.6 0-5.3-.7-10.5-1-7.8-1.6-9.5-3.2-10-3-.9-6 2.8-6.8 8.3-.6 4.6-.6 4.6-.8-2-.1-7.8 1.5-11.9 5.7-14.1 3.3-1.8 5.2-1.9 8.9-.5zm19.3 1.9c0 .5-.5 1-1.1 1-.5 0-.7-.5-.4-1 .3-.6.8-1 1.1-1 .2 0 .4.4.4 1zm-39.5 20c-2.8 1.2-3.7 1.2-3 0 .3-.6 1.6-1 2.8-.9 2.1 0 2.1.1.2.9zm14.1 9.5c-2.7 2.1-5.3 2-3.6 0 .7-.8 2.2-1.5 3.4-1.5 2.1.1 2.1.1.2 1.5z"/><path d="M1900.8 105.7c-.8 1-2.7 4.4-4.1 7.5-3.1 6.9-4.8 7.6-15.1 5.8-5.3-.9-8.2-.9-11.1-.1-2.2.6-5.2 1.1-6.7 1.1s-2.9.4-3.2.8c-.2.4 3.2.4 7.6-.1 5.6-.6 9.3-.6 11.8.2 2.1.6 5.9 1.1 8.5 1.1 5.9 0 9-3 12.2-11.9 1.2-3.3 2-6.1 1.9-6.1-.2 0-1 .8-1.8 1.7zM345 58c0 .5.7 1 1.6 1 .8 0 1.2-.5.9-1-.3-.6-1-1-1.6-1-.5 0-.9.4-.9 1zM447.4 66.7c.3 2.7 1 12 1.6 20.8 1.4 24.9 2.3 30.2 6.4 39.4l3.7 8.2-.5 34.2c-.3 18.8-.8 37-1.1 40.3-.5 4.7-.3 6.9 1 9.4 2.2 4.3 2.8 3.3 1.4-2.4-.9-3.8-.8-6.1.6-12.8 2.2-10.7 3.3-54 1.6-64.3-.6-3.9-2.5-10.6-4.2-14.9-2.7-7.1-3.2-9.7-4-24-1.3-22.2-4-38.6-6.2-38.6-.5 0-.6 2.1-.3 4.7zM98 66.5c-1.9 2.3-2.9 14.1-3 34.8 0 20.1.9 24.9 4.9 26.2 3.1.9 5.7-1 8.3-6.2 2-4.3 2.3-6.2 2.3-17.3 0-11.2-.3-13.3-2.9-20.4-2.9-8.1-4.7-12.4-7-16.4-1.2-2-1.5-2.1-2.6-.7zm6.2 17c2.9 8.1 3.3 10.1 3.2 19.5 0 10.6-1.4 16.1-4.7 18.9-1.2.9-1.6.8-2.3-.6-1.3-2.9-1.8-49-.5-47.8.6.6 2.5 5.1 4.3 10z"/><path d="M101 99c0 2 .5 3 1.5 3 .9 0 1.5-.9 1.5-2.4 0-1.3-.7-2.6-1.5-3-1.1-.4-1.5.2-1.5 2.4zM955.5 70.2c-1.6.6-5 2.6-7.4 4.4l-4.5 3.4-4.1-4c-2.2-2.2-5-4-6.2-4-2.1 0-11.3 7-16.2 12.4-4.5 4.8 0 2.7 7.1-3.4 3.8-3.3 7.6-6 8.5-6 .9 0 3.3 1.6 5.4 3.5 2.2 1.9 4.5 3.5 5.2 3.5.7 0 3.1-1.3 5.3-2.9 2.1-1.6 5.7-3.4 7.9-4 3.5-.9 4.2-.8 6.3 1.2 1.3 1.2 3.5 4.2 4.9 6.7 4.6 8.1 9.7 15.1 11.7 16.2 1.7.9 1 1.5-5.1 4.7-3.8 2-8.9 5.1-11.3 6.9-5 3.7-8.5 4-11.9 1.2-1.8-1.5-2.2-2.6-1.7-4.6.6-2.2.5-2.4-1.3-1.5-1.1.6-2.2 2-2.6 3-1.5 4.7-7.6 2.7-12.3-4.2C928.5 96 919.5 88 916.6 88c-3.6 0-3.2 1.4.7 2.8 2.1.7 5.2 3.6 8.3 7.4 8.6 10.8 11.9 13.8 15.1 13.8 1.6 0 3.4-.5 4-1.1.9-.9 2.1-.4 4.8 2 5.1 4.5 8.3 4.2 16.9-1.8 3.9-2.6 9.9-6.1 13.4-7.6 6.4-2.8 7.3-3.9 4.7-4.9-.8-.3-1.4-.9-1.3-1.3.1-.4-1.4-2.5-3.5-4.6-2-2-5.1-6.5-6.8-9.8-3.7-6.9-10.1-13.9-12.6-13.8-1 0-3.1.5-4.8 1.1zM340.6 72.6c-.3.9-.6 4.4-.6 8 0 3.5-.6 8.1-1.4 10.1-.8 2.1-3.1 9.8-5.1 17.1-4.1 14.5-4.3 19-1.1 34.7 1.7 8.3 4.6 27.2 4.6 29.9 0 1 2.2 6.8 4.9 13 5.6 12.9 5.8 13.6 7.6 28 .8 6.3 1.9 11.5 2.7 12.3 1.2 1.2 1.4.1 1-7.4-.5-12.1-2.4-19.7-8.1-32.7-4.2-9.7-5.1-12.8-6.5-24.1-1-7.2-2.4-16.1-3.2-19.9-2.5-12-1.9-22.2 2.2-36.3 2-6.9 4.2-14.2 4.9-16.2.8-2.4 1.1-6.3.7-10.9-.5-7-1.3-8.9-2.6-5.6zM1273.4 76.4c-3.3 2.5-9.9 8-14.8 12.4l-9 8-4-1.5c-10.9-3.8-23.5-2.4-32.6 3.7-2.5 1.6-5.8 3-7.3 3s-4.6.9-6.8 2c-4.2 2.2-12.9 10.1-14.6 13.4-.9 1.6-2.6 1.9-10.6 2.4-5.3.2-9.4.9-9.1 1.3.3.5 4.4.9 9.1.9 7.5 0 8.4.2 7.3 1.5-.7.8-1.9 1.5-2.7 1.5-4.1 0-13.3 7-13.3 10.1 0 2.9 1.5 3 3.8.4 1.2-1.3 4-3.4 6.3-4.6 3.9-1.9 4.1-2 3.4-.2-4.8 11.5-7 28.3-6.2 46.8.9 21 6.1 32 23.1 49.1 11.9 11.9 23.5 20.3 34.6 24.9 5.8 2.4 8.2 2.7 21.5 3.2 12.5.5 16.1.3 21-1.2 16.6-4.8 25.8-14.6 30-31.7 2.2-9 3.1-32.8 1.6-42.5-.7-4.3-3.3-13.8-5.7-21.1-2.4-7.3-4.4-14.5-4.4-16 0-3.8-3.9-11.2-10.1-19.5-5-6.6-15.5-15.2-26.1-21.4-2.6-1.6-4.8-3.1-4.8-3.5 0-1.1 17.8-16.5 23.2-20.2 2.6-1.7 4.8-3.7 4.8-4.4 0-2-1.5-1.4-7.6 3.2zm-31.8 21.7l4.6 1.2-5.4 5.6c-8.6 8.9-17.8 19.8-17.8 21 0 .6.5 1.1 1.1 1.1.5 0 .8-.4.5-.8-.2-.4 4.8-6.3 11.3-13.1 12.8-13.3 12.8-13.3 19-9.3 2.2 1.5 2.2 1.6.3 2.3-2.6 1-3.5 3.7-1.4 4.2.9.3 0 .5-2.1.6-8.4.2-18.3 9.1-23.3 20.8l-2.7 6.4-3.6-3.4c-2-1.9-4.9-4.2-6.6-5l-3-1.6 4.3-.1c3 0 4.2-.4 4.2-1.5 0-.9-1-1.5-2.6-1.5-1.4 0-5.4-.7-8.8-1.6-3.3-.9-9.4-2.2-13.5-2.8-4.1-.6-7.6-1.7-7.8-2.3-.5-1.5 7.3-9.5 11.9-12.3 5.3-3.2 6.6-2.4 2.7 1.6l-3.4 3.6 4.9-3.1c2.8-1.7 6.1-3.1 7.4-3.1 1.6 0 2.2-.4 1.9-1.4-.5-1.2 4.6-4.1 10.3-6 2.9-.9 13.1-.6 17.6.5zm20.5 14c4.7 1.6 9 5.9 15.8 15.9 12.1 17.7 13 21.4 8.2 31.7-6.5 13.6-16.9 26.5-22.7 27.9-2.6.7-10.8-.6-15.7-2.5-4-1.5-12.5-9.9-14.9-14.5-1.7-3.4-1.9-5.1-1.4-11.5.5-5.4.3-9-.8-12.4-1.2-4.1-1.2-5.4-.1-8.6 3.4-9.7 10.6-19.6 16.6-22.7 3.4-1.7 10.1-1.8 11.7-.2.9.9 1.2.9 1.2.1 0-.7-1-1.9-2.2-2.7-2.7-2-.7-2.1 4.3-.5zm-63.6 11.9c5.4 1 10 2.1 10.2 2.4.5.5-12.5-.2-19.4-1-4.1-.5-5.1-1.3-3.6-2.7.9-1 2.1-.9 12.8 1.3zm.6 6.8c8.7.7 11.5 1.3 15 3.4 8.5 5 9.3 6.6 10.2 19.1 1.3 16.7 1.2 17.7-2.3 26-5.8 14-15.3 21.8-24.2 19.8-5.7-1.3-14.6-7.8-18-13-2.7-4.3-2.8-5-2.8-16.5 0-12.4 1.4-20.5 5.1-30.5 2.2-5.9 1.9-7.9-.5-3.4-2 3.7-2 2.4 0-2.7 1.5-3.6 2-4 4.3-3.5 1.4.3 7.4.9 13.2 1.3zm97.5 35.9c2.5 8.5 2.9 11.8 3.2 25.6.4 15.3-1 29.7-2.8 29.7-.5 0-1.6-3.5-2.5-7.8-3-13.6-3-13.6-5.6-14.3-1.3-.4-4.3-.7-6.5-.8-5.4-.1-12.5 4.5-25.6 16.8-9.9 9.3-15.9 17.2-19.9 26.1-1.2 2.7-2.9 5-3.6 5-2.2 0-10.3-4.4-17.8-9.8-8.4-6-20.5-17.6-26.3-25.4-4-5.2-10.6-18.7-9.7-19.7.3-.2 2.3 1.3 4.6 3.4 5.5 5 11.3 7.5 17.5 7.5 4.3 0 6.1-.6 10-3.3 5.5-3.8 12.5-13.3 15.1-20.6l1.7-5 5.4 6c7.6 8.3 13.4 11.1 24.2 11.7 8.2.4 8.6.3 12.7-2.7 4.9-3.5 13.8-15.7 18.5-25.3 1.8-3.7 3.6-6.7 3.9-6.7.4-.1 1.9 4.3 3.5 9.6zm-11.3 36.2c2 .8 2.8 2.3 4.2 8.3 1 4 2.6 9.4 3.7 12 1.2 2.8 1.8 5.7 1.4 7.2-1.1 4.4-9.4 12.4-16.4 15.8-6.7 3.3-6.7 3.3-22.2 3.3-8.5 0-16.3-.3-17.3-.7-1.7-.7-1.6-1 .4-5 4.2-8.2 9.7-15.3 18-23.3 9.9-9.5 16.4-14.8 20.4-16.9 3.5-1.8 4.5-1.9 7.8-.7z"/><path d="M1253.4 146.5c-.9 2.1.3 4.5 2.1 4.5 1 0 1.5-1 1.5-3 0-3.2-2.6-4.3-3.6-1.5zM1193 162.4c0 1.7.5 2.6 1.6 2.6 1 0 1.4-.7 1.2-2.2-.5-3.2-2.8-3.5-2.8-.4zM1232.8 199.4c-.6 1.4-.8 3.2-.5 4 .9 2.3 5.4 2 6.7-.3 1.8-3.4 1.1-4.6-1.3-2.3-3.1 3-4 2.8-3.5-.8.5-3.6.1-3.8-1.4-.6zM262.7 73.6c-1.2 1.2-.8 7.1.6 8.3 1 .8 1.8.7 3.1-.2 2.5-1.9 1.8-8.1-.9-8.5-1.2-.2-2.4 0-2.8.4zm3 4.6c-.3.8-.6.5-.6-.6-.1-1.1.2-1.7.5-1.3.3.3.4 1.2.1 1.9zM1749.5 77.1c-20 .6-25.8 1.6-43.3 7.5-1.1.3-1 .8.2 2.6.9 1.2 1.6 3.7 1.6 5.5v3.2l-9.7.3c-9.2.3-9.9.2-11.6-2-1.8-2.2-5.2-2.9-7.3-1.4-4.1 2.7-5.8 13.6-2.6 16.5 2.2 2 9.2 2.3 11 .5.9-.9 1.2-.8 1.2.5 0 2.7 2.6 3.1 5.7.9 1.5-1.1 5-2.3 7.7-2.7 3.3-.4 4.5-1 3.8-1.7-1.1-1.1-9.6-.7-12.3.6-1.3.6-1.8 0-2.2-2.6-.3-1.8-.2-3.6.2-3.9.3-.4 4.2-.9 8.5-1.3l7.9-.6-.6 13.3c-.3 7.2-1.5 18.4-2.7 24.7-3.4 17.8-3.8 51.4-1.1 71.9 1.2 8.5 2.1 15.8 2.1 16.3s.4.7.9.4c.7-.5 2.2 9 1.6 10.1-.1.1-1.8-.2-3.8-.8-2.7-.7-4.4-.6-7 .5-3.8 1.5-9.2 7.9-8.2 9.6 1 1.6 7.4 1.2 15-1 8-2.3 11.8-2.5 16.4-.9 1.8.6 3.4 1 3.6.7.2-.2-.7-2.6-2-5.3-4.3-8.7-7.6-23.8-7.5-34 .1-5 .1-10.4.1-12-.1-2.7-.3-2.8-1.3-1.1-.6 1.1-1.3 6.1-1.6 11.1-.5 10.1 1.2 20.1 5.3 31.1l2.3 6.1-4.8-.1-4.7-.1-.6-8.6c-.4-4.7-1.3-11.7-2.1-15.6-1.5-6.9-1.9-11.7-3.1-32.6-.5-8.2-.3-9.7 1-9.7 1 0 1.5 1 1.5 3.1 0 5.3 6 12.3 13.8 16.1 6.2 3.1 7.5 3.3 18.5 3.7 9.8.3 12.6 0 15.8-1.4 2.2-1 4.2-1.6 4.5-1.2.3.3.1 7.6-.5 16.3-1.4 19.6-1.4 30-.1 32.4.9 1.8 1.3 1.8 4.8.4 2-.8 5.1-2.1 6.7-2.9 2.8-1.4 11.1-3 21.8-4.2 2.6-.3 4.7-1.1 4.7-1.7 0-.6-2.8-2.2-6.2-3.5-4.6-1.7-7.4-2.2-11.4-1.9l-5.4.5-.1-21.1c-.1-25.1-.9-34.1-4.3-50.1-2.8-12.5-4.6-38.5-3.2-45.7.8-4.5 2.4-4.9 14.5-3.4 5 .7 9.8.8 10.6.3.8-.4 1.5-2.1 1.5-3.7v-2.8l2.9 2.9c2.2 2.2 3.9 2.9 6.8 2.9 2.1 0 4.3-.4 4.9-.8 4.4-2.9 6.3-17.4 2.8-21.3-3.1-3.5-7-4.9-13.2-4.9-4.4 0-6.3.5-7.5 1.8-2.8 3.1-2.1 4 2.1 2.9 4.9-1.3 12.4-.1 15.1 2.4 2.6 2.4 2.9 9.5.6 13.9-1.3 2.4-2.2 3-5 3-4.1 0-6.5-2.9-6.5-7.8 0-4.3 2.7-9.5 4.6-8.8.8.3 1.4.1 1.4-.3 0-.9-2.4-2.1-4.1-2.1-.5 0-1.9 2-3.1 4.4l-2.1 4.5-1.7-3.2c-2.2-4-4.7-4.4-11.9-1.8-3.1 1.1-6.7 2.1-8.1 2.3-2.3.3-2.5 0-2.2-3.2.2-1.9.8-5.2 1.3-7.4.6-2.1.7-4.1.2-4.5-.4-.3-9.8-.3-20.8 0zm17.2 4.3c-.3.8-1.1 6.1-1.7 11.8-.9 8.3-1.5 10.6-3 11.7-2.3 1.5-2.7 4.1-.6 4.1 1.1 0 1.4 3.8 1.9 18.2.5 17 1.5 24.4 5.2 39.3.8 2.8.5 2.7-5.3-2.8-8-7.6-12.7-9.7-21.9-9.7-10 0-25 5.5-31.4 11.6-1.4 1.3-2.8 2.4-3.2 2.4-1.5 0-.6-14.2 1.9-31.5 2.1-14.9 2.5-20.3 2-31.5-.2-7.4-.8-14.4-1.1-15.5-.5-1.8.5-2.3 10.2-4.9 9.1-2.5 13.4-3.1 27.3-3.6 9.1-.4 17.3-.7 18.4-.8 1.2-.1 1.6.3 1.3 1.2zm21.3 12.5c.5 1.1 1 4.3 1 7.1 0 4.6-.2 5.1-1.7 4.5-1-.4-6-1-11.1-1.3-8.9-.5-9.3-.6-8.8-2.6.3-1.2.6-3.2.6-4.6 0-2.3.3-2.6 3.3-2.2 1.8.2 4.8-.3 6.7-1.1 5-2.2 8.7-2.1 10 .2zm-102.7 5.3c1.1 2.3 1.5 4.6 1.1 6.3-.6 2.3-1.1 2.6-4.3 2.3-2.9-.2-3.7-.7-3.9-2.7-.2-1.3 0-2.1.6-1.7 1.7 1 4.2-.5 4.2-2.6 0-1.6-.5-1.9-2.5-1.6-2.9.6-3.1.1-.8-2.4 2.2-2.5 3.4-1.9 5.6 2.4zm69 60.6c2.6 1.4 7 4.9 9.7 7.8 4.8 5.1 6.1 7.4 4 7.4-.5 0-1 1.6-1 3.6 0 5.1-1.1 6.6-8.1 10.9-5.3 3.3-7.4 3.9-14.1 4.5-11 1-21.4-1-28.2-5.5-3.6-2.4-8.6-10.3-8.6-13.6 0-4.3 4.5-8.6 13.7-13 13.2-6.5 23.4-7.1 32.6-2.1zm17.6 58.9c0 7.9.4 14.3.9 14.3.4 0 1.6-.7 2.6-1.5 2.1-1.6 10.3-2 12.5-.6 2 1.3.2 1.9-7.9 3.1-3.9.6-9.6 2.2-12.6 3.6-3.1 1.4-5.7 2.4-5.8 2.3-.3-.4.4-12.9 1.9-37.2.6-8.8.2-10.5-1.5-6.5-.8 2-.9 1.8-.9-1.5-.1-2 .3-3.7.8-3.7s2.6-1.5 4.5-3.4c2.8-2.6 3.6-4.2 3.8-7.2.3-6.3 1.5 22.8 1.7 38.3zm-65.5 18.9c3.8 1.5.3 3.8-8.1 5.3-2.3.5-4.5.6-4.8.3-.3-.3.7-1.8 2.2-3.4 2.6-2.8 6.9-3.7 10.7-2.2z"/><path d="M1732 93.9c-9.1 3.8-14 6.3-14 7.3 0 1.1.8 1 3.3-.6 1.2-.8 5.5-2.7 9.5-4.1 7.3-2.6 9.5-2.7 23.5-1 2 .3 3.7.1 3.7-.4 0-1.4-5.7-2.9-13-3.4-5.4-.4-7.6 0-13 2.2zM1738 108.4c-5.3 1.5-9.8 3.7-15.7 7.8-6.3 4.3-5.2 5.2 1.3 1.3 11.8-7.1 23.6-9 29.4-4.6 3.7 2.7 4.9 2.1 2.7-1.2-1.5-2.3-7.6-4.8-11.3-4.6-1.1 0-3.9.6-6.4 1.3zM1733 132c-5.8.8-10.7 2.7-15.3 5.8-4.5 3.1-2 3.2 4.1.2 3.9-1.9 8-3 13.2-3.5 7.5-.6 7.6-.6 10.8 2.4 1.7 1.7 3.6 3.1 4 3.1 2.1 0 1.7-1.3-1.4-4.6-3.8-4-6.9-4.7-15.4-3.4zM1736 164.1c-.8.5-3 .9-4.8.9-4.4 0-9.2 4.6-9.2 8.9 0 7.5 15.1 12 23.9 7.1 4.7-2.7 6.9-6.9 5.5-10.7-1.4-4.1-12.1-8.4-15.4-6.2zm9.8 5c2.7 1.7 3.1 2.8 2.1 5.7-1.9 5.1-13.2 6.8-19 2.9-4.2-2.8-4.6-4.6-1.6-7.8 2.1-2.3 3-2.5 9.3-2.4 3.9.2 8 .9 9.2 1.6zM384.6 85.1c-5.9 6.9-1.5 15.9 7.7 15.9 4.7 0 5.6-.5 8-4 4-5.8.3-8.3-4.3-2.9-2.5 3.1-2.7 3.1-5.5 1.8-1.7-.8-3.1-2.3-3.3-3.3-.6-2.7 1.8-6.6 4-6.6 2.4 0 2.3-1.7-.1-3-2.9-1.5-3.7-1.3-6.5 2.1z"/><path d="M422.6 83.6c-.3.9-.6 6.7-.6 12.9 0 6.8-.5 12.5-1.2 14-.8 1.9-3.9 4-10 7.1-7.5 3.8-9.6 4.4-15 4.4-7.3 0-13.1-2.4-19.1-8.1l-4-3.9-1.8 2.2c-1.1 1.1-1.9 2.7-1.9 3.5 0 .7-.4 1.3-1 1.3-2.6 0-.5 4.7 5 11.3 3.3 3.9 8.2 10.3 10.9 14.2 3.5 5.1 6.4 7.9 10.2 10.1 4.9 2.9 6.5 3.3 16.6 3.8 14.7.9 14.5 1.1 16.1-14.9 1-9.3 1.1-48.7.3-58.8-.2-1.4-3.9-.7-4.5.9zm-44.1 34.5c6 4.5 12.6 6.9 19.3 6.9 4.5 0 20.8-6.4 24.4-9.6 1.5-1.5 1.7-1.3 2.4 2.2.9 4.9-.4 35.6-1.6 36.8-1.1 1.1-4.9 1.2-15.5.2-10.1-1-15.8-4.5-20.7-12.5-1.8-2.9-4.7-7-6.4-9-6.8-8-9.4-12.8-8.8-16 .4-1.7.8-3.1 1.1-3.1.2 0 2.8 1.8 5.8 4.1zM951.7 83.4c-2.1.8-5.6 2.6-7.8 4.1-4.2 2.7-5.8 2.5-8.2-1.3-1-1.5-4.9-1.6-6.5 0-1.9 1.9-1.4 3.8 1.6 6.7 1.5 1.6 3.5 4 4.5 5.5 2.8 4 6.2 5.3 8.5 3.3 2.5-2.3 3.7-2.2 9.4 1.3 2.6 1.6 5.1 3 5.4 3 .3 0 3-2.1 5.9-4.6l5.4-4.7-1.9-3.6C965.4 88 959.6 82 957.4 82c-1.1.1-3.6.7-5.7 1.4zm9.5 6.1c5 6.1 5.2 7.1 1.4 9.4-1.9 1.2-3.7 2.9-4 3.7-.5 1.3-1.4 1-4.6-2-4.4-4-9.7-4.9-12-2.1-1.2 1.4-1.6 1.3-3.7-.6-1.2-1.3-2.3-2.8-2.3-3.5 0-.7-1.4-2.4-3.1-3.8-2.6-2.2-2.8-2.7-1.3-3.3 1-.4 2.2 0 2.9 1 2.4 3.3 5.6 3.6 10.7.9 5.3-2.7 10.7-4.2 12.4-3.3.6.3 2.3 1.9 3.6 3.6zM1521 90.1c-3.2.6-5.3 1.8-7.2 4-2.6 3-2.8 4.9-.8 4.9.5 0 .7-.6.4-1.3-.9-2.5 5.6-5.1 13-5.1 6.9-.1 7 0 9.4 3.4 2.3 3.3 2.3 4 1.7 14-.8 12.5-2 15-9.5 20.2-7.2 5.1-10.4 5-15.5-.2-4.7-4.8-6.3-5.2-3.8-.9 5.3 9.1 12.1 10.3 22.1 3.8 9.1-5.9 10.7-9.5 10.5-22.7-.1-9.1-.5-10.8-2.8-14.7-3.8-6.7-6.6-7.5-17.5-5.4zM1801.2 93.7c.5 2.5 2.8 2.8 2.8.4 0-1.2-.6-2.1-1.6-2.1-.9 0-1.4.7-1.2 1.7z"/><path d="M1526.5 99c-.3.5-2.3 1.4-4.3 2.1l-3.7 1.1.2 6.5c.1 3.5.3 6.7.6 6.9.2.3 1.7-.1 3.2-.8 2.4-1.1 2.9-1 4.1.6 1.8 2.5 2.2 1.3 2.7-9.2.3-6.2.1-8.2-.9-8.2-.7 0-1.6.4-1.9 1zm-.7 12.5c-.2.1-1.3.6-2.5.9-2.1.7-2.3.4-2.3-3.7 0-3.6.4-4.6 2.3-5.4 2.1-1 2.2-.8 2.5 3.5.2 2.4.2 4.5 0 4.7zM774.7 102c-4.4 3.9-9.4 14.8-10.7 23.5-.5 3.9-1 12-1 18.1 0 12.2-1.4 18.5-7 30.8-4.5 9.9-8.6 21.5-13.1 37.1-3.6 12.6-4.1 15.5-4.6 28.6l-.6 14.5 3.2 3.6c3.8 4.4 7.8 5.5 11.9 3.4 4.2-2.2 6.5-5.7 10.2-16.1 1.8-5 4.3-11.8 5.5-15.3 1.3-3.5 2.5-6.5 2.8-6.8.3-.3 1.5 1 2.8 2.8 1.3 1.8 8 9 14.9 15.9 10.8 10.8 13.7 13.2 20.9 16.7 6.5 3.3 9.4 4.2 13.5 4.2 7.5 0 10.7-2.4 15.1-11.4 3.4-6.8 3.7-8 3.3-13.8-.7-8.8-3.9-16.4-9.9-23.1-7-7.9-12.7-11.5-23.2-14.8-4.9-1.5-10-3.8-11.3-5-2.3-2.2-2.4-2.2-2.4-.2 0 2.2 3.5 5.8 6.6 6.7 2 .6 2.1 1.2 1.7 7-.5 5.9-.4 6.4 2.2 8.4 2 1.6 4.1 2.2 7.9 2.2 6.2 0 7.6-1.1 7.6-6.4v-4l4 3.9 4 3.9-2.6 2.1c-3 2.4-4.5 10.4-2.4 13 2.1 2.5 8 3.6 11.1 2.1 1.5-.8 3-1.1 3.3-.8.3.3.6 3.2.6 6.4 0 6.8-4.1 16.1-8.7 19.8-4.1 3.3-11 2.3-21.2-3-7.9-4.1-7.9-4.1-6.9-7.1 1.5-4.3.5-14.6-1.5-16.7-1.6-1.5-2-1.5-4.4-.2-1.4.8-3.3 2.6-4.1 4-1.6 2.5-1.5 2.5 1.4-.3 3.4-3 5.9-3.5 6.8-1.1.8 2.2.8 13.9-.1 14.8-.9.8-9.3-7.4-9.3-9.1 0-.7-.4-1.2-1-1-.5.1-4.8-3.6-9.5-8.3-7.1-6.9-8.5-8.8-8-10.7.6-2.5-.6-3.1-2.2-1.1-.6.7-3.6 8.9-6.8 18.1-4 11.5-6.7 17.8-8.6 19.8-6.1 6.6-14.9 1.4-14.9-8.8 0-6.4.9-8.3 3.4-7.4 3.2 1.2 6.2-.3 9.6-5 5.1-7.1 3.4-14.7-4.4-18.8-1.4-.8-2.6-2.3-2.6-3.3 0-2.6 7.4-24.2 12.5-36.3 2.4-5.7 4.6-11.8 5-13.7.4-1.8 1.2-3.8 1.7-4.5.5-.6 1.3-9.2 1.7-19.1.8-17.4.9-18.1 4.1-25.1 7.1-15.3 15-16 21.5-1.8 1.8 3.8 2.6 7.9 3.1 15.2.7 11 0 13.8-4.8 18.3-2.2 1.9-2.8 2.1-5.6 1.1-3-1-3.2-1.4-3.2-5.8 0-6.1 3.3-11.5 7.3-11.9 3.1-.4 3.6-1.7.8-2.5-5.1-1.3-11.1 6.9-11.1 15 0 4.6 1.7 6.4 7.2 7.7 2.1.5 3.5 0 6.3-2.5l3.5-3.1v2.7c0 1.5-.7 5.4-1.6 8.7-2.9 11.5-1.1 12 2.5.8 3.9-12.3 6.9-18.6 11.3-23.5 3.9-4.5 15-12.5 17.2-12.5 2.5 0 4.6 6 4.6 13.2 0 8.7-6.5 32.6-8.8 32.1-.5-.1-1.2 1.7-1.5 4-.9 6.8-7.6 10-9.1 4.4-1.8-6.8.3-12.7 4.6-12.7 1.7 0 2.7-.4 2.3-1-.3-.6-1.9-1-3.5-1-4.1 0-6.3 3.6-6.4 10.4 0 6.1 1.2 8.2 5.7 9.4l3.1.8-4 4.4c-2.1 2.4-6.1 5.4-8.9 6.6-2.7 1.3-4.1 2.4-3.1 2.4 3.4 0 10.4-4 14.1-8.2 4.8-5.2 9.6-15.4 14.6-30.8 3.4-10.3 4.1-13.9 4.2-21 .1-7-.3-9.3-1.9-12.1-4-6.9-11.9-4.5-23.6 7.2-2.5 2.5-5.8 6.8-7.2 9.5l-2.6 4.9.6-9c1-14.8-2.2-26.1-9.2-33.2-3.5-3.5-10.3-3.2-14.7.7zm40.4 103.6c3.8 1.6 4 1.9 3.5 4.7-.3 1.6-.6 3.6-.6 4.3 0 2-7.9 1.8-10.2-.3-1.8-1.6-2.6-8.2-1.1-9.6 1.1-1.1 4-.8 8.4.9zm20 18.6c1.6 3 1.7 4.3.8 5.9-.9 1.7-1.7 2-4.1 1.5-4.9-1-6-2.4-5.3-6.5.4-2 1.4-4.4 2.2-5.3 2-2.2 3.6-1.1 6.4 4.4zm-86-2.9c2.7 1.8 3.5 3 3.7 6 .6 6.9-5.6 13.9-10.2 11.5-1.6-.9-1.8-1.8-1.2-6.7.8-7.1 2.4-13.1 3.5-13.1.4 0 2.3 1 4.2 2.3z"/><path d="M811 207.5c0 .8.4 1.5 1 1.5.5 0 .7-.7.4-1.5-.4-.8-.8-1.5-1-1.5-.2 0-.4.7-.4 1.5zM745.6 224.9c-.3.5-.1 2.2.4 3.7 1.3 3.2 3.4 2 2.8-1.7-.3-2.4-2.2-3.6-3.2-2zM656.1 126.1c-11.2 11.5-20.5 20.8-20.7 20.6-.2-.2 1.4-5.7 3.6-12.2 4.5-13.5 4.6-13.8 2.4-13.3-1.7.3-4.3 7.3-17.9 47.2-4.1 12-7.5 22.4-7.5 23 .1 2.9 3.2-3.8 8.6-18.4l5.9-16 16.8-17.2c15.5-16 18.8-18.7 12.3-9.9-2.7 3.6-3.3 6.1-1.7 6.1.6 0 8.7-5.4 18.1-12.1 9.4-6.6 17.8-12.3 18.7-12.6 3.1-1.2.5 2.5-12.9 18.2-12.7 14.9-15.2 18.5-12.9 18.5.5 0 9.9-5.4 20.8-11.9 18.8-11.3 19.9-11.9 20.8-9.9 1.1 2.4-1.6 5-22.2 22-6.2 5.2-11.2 10.1-11.2 11-.1 1 .2 1.8.7 1.8.4 0 7.2-3.2 15-7 14.3-7 16.2-7.7 16.2-6.2 0 2.1-4.2 5.9-16.5 14.7-7.4 5.3-13.5 10.3-13.5 11.1 0 1.9 1 1.8 6.5-.6 7.9-3.4 7.2-2.3-3.2 5.4-5.5 4.1-10.4 7.9-10.8 8.6-1.4 2.3 1 3.1 5.1 1.7 9.1-3.2 10.1-2.9 3.8 1.1-4.6 3-7.5 4.1-12.1 4.6l-6.1.7-4.3-5.1c-5.5-6.5-8.1-6.6-3.4-.1 1.9 2.6 3.5 5.5 3.5 6.3 0 .9.8 2.2 1.9 2.9 2.1 1.6 12.5 18.9 11.3 18.9-.8 0-4.9-2.6-13.1-8.4-4.5-3.1-7.7-2.9-6.8.4.6 2.5.8 2.5-3.3-.5-3.6-2.6-8-3.3-8-1.3 0 .7-1.7-.5-3.8-2.5-4.3-4.2-6.5-4.6-7.8-1.6l-.9 2-2.8-2.1c-2-1.6-3.6-2.1-5.7-1.7-2 .4-3.6 0-5.3-1.3-1.4-1.1-3.2-2-4.1-2-.9 0-2.7-1.8-4.1-4-2.9-4.6-4.2-5-5.5-1.5-.5 1.4-1.4 2.5-2 2.5-2.7 0 .4 22.5 3.4 24.2.9.5 1.6 2.1 1.6 3.6 0 3.6 1.3 5.4 3.6 5.1 1.1-.1 3.7.3 5.9.9 3.6 1.1 4.2 1 5.5-.8 1.5-2 1.6-2 3.2-.1.8 1 2 2 2.5 2.2.5.2 2 3.5 3.2 7.4 3 8.9 10.3 24.7 12.2 26.1 2.1 1.7 5.2 2.5 6.6 1.6.6-.4 2.1-5 3.2-10.1 1.2-5.2 3.2-11.3 4.6-13.7 3.2-5.5 3.2-7.4-.1-4.3-3.6 3.3-6.1 9.1-7.4 17.3-1.3 8-1.6 8.7-3.4 8-2.2-.9-11.8-20.9-14.6-30.5-1.3-4.5.5-5.5 2.9-1.5 2.1 3.3 2.5 3.5 7.3 3.4 4.6-.1 5.2-.4 6.1-2.9.9-2.3 1.3-2.5 2.9-1.6 1.3.9 2.3.9 3.7 0 1.5-1 2.2-.9 3.1.2 2.4 2.9 5.6 1.2 10.9-5.7 2.1-2.8.4-4-3.2-2.2-6.2 3.3-6.7 3.4-6.7 2.4 0-1.4-3.3-1.3-4.7.1-.9.9-1.6.8-2.8-.5-2.5-2.5-4.7-1.7-5.9 2-.5 1.6-1.4 2.1-4.2 2-3.1-.2-3.9-.7-5.5-3.9-2.4-4.6-4.5-4.7-6.2-.5l-1.4 3.3-2.3-3.8c-2.5-4.2-6-5.1-6.1-1.5 0 1.3-.3 1.7-.6 1-.7-1.8-3-1.5-4.2.5-.9 1.5-1.1 1.3-1.7-1.5-.6-3.2-2.8-4.3-3.7-2-.3.7-.6 0-.6-1.5-.1-1.5-.7-3-1.5-3.3-.8-.3-1.9-2.8-2.5-5.5-1.4-6.5-1.4-6.9.4-6.9.8 0 1.5-.7 1.5-1.5 0-2.5 1.8-1.7 3.5 1.5 1.6 3.1 4 4 4.8 1.7.3-.8 1.2-.5 2.9 1 2.9 2.7 4.4 2.9 5.6.7.7-1.3 1.3-1 4 1.7 3.3 3.4 5.7 3.4 7-.1.7-1.8 1.1-1.6 4.5 2.5 4 4.8 5.7 5.4 7.7 3 1.1-1.4 1.5-1.4 3.8.1 1.7 1.1 3.6 1.4 6 1 2.8-.4 4.1 0 6.5 2 4.2 3.5 18.6 10.6 20.3 10 2-.8 1.7-3-.6-5.1-1.8-1.6-14-21.4-14-22.7 0-.4 3.9-.9 8.8-1.3 11.3-.9 12.5-1.2 11.9-3.6-.4-1.5 1.2-2.9 7.8-6.9 4.5-2.7 8.8-5.6 9.5-6.5 2.2-2.6-1.2-2.8-9.2-.5-4 1.2-8.2 2.4-9.3 2.7-1.1.3 3.5-3.6 10.3-8.7 14.7-11.1 16.3-15 4-9.6-2.1.9-3.8 1.4-3.8 1.2 0-.2 3.6-2.9 7.9-6 7.4-5.2 8.1-6 9.7-11.1 2.6-8.3 1.5-8.6-10.5-2.6-5.5 2.8-10.1 4.9-10.1 4.7 0-.3 5.2-4.8 11.6-10.2l11.6-9.6-.7-4.7c-.8-5.2-1.2-6.1-2.7-6.1-.7 0-8.3 4.3-17 9.6-8.8 5.3-16.1 9.5-16.3 9.3-.1-.2 4.6-5.9 10.6-12.6 10.1-11.5 10.8-12.5 10.2-15.5-1.1-6.4-.5-6.7-26.6 11.8-8.6 6.1-8.6 5.8.2-6.6 6.1-8.5 7.2-11.1 4.9-10.9-.7 0-10.5 9.5-21.7 21zM88.1 127.3c-.9 2.2-1.5 10.3-1.2 16 .1 2.3.5 2.8 2.2 2.5 1.5-.2 2.7-1.8 4.1-5.2 2.5-6.5 1.9-9.3-1-4.7-2.7 4.5-3.6 2.6-2.4-5.2.9-5.8-.1-7.7-1.7-3.4zM526.2 147.8c-.1 13.2.3 21.5 1.8 32.9 1.1 8.3 2.3 15.9 2.6 16.7.5 1.3-.2 1.6-3.5 1.6-5.2 0-8.9 1.8-12.9 6.4-4.2 4.8-4.7 8.7-2.8 21.4.8 5.9 1.8 13.9 2.2 17.8l.6 7.1-5.3.7c-5.2.7-5.7 1.1-13.6 9.4-4.6 4.8-8.5 9.5-8.9 10.5-1 3.2 1.4 4.5 9.7 5.2 7.7.7 8.1.6 15.5-2.9 4.2-2 8.6-3.6 9.8-3.6 1.2 0 3.2-.7 4.4-1.6 2.1-1.5 2.2-2.1 2.2-17.1 0-11.3.4-17.2 1.6-21.2 5.6-19.5 7.8-24.7 11.3-26.9 3.1-1.8 2.5-3.4-1.1-3-3 .3-3.6 1-6.5 6.8-1.8 3.6-3.2 7.4-3.3 8.5 0 1.1-.7 2.9-1.5 3.9-.8 1.1-1.5 3.3-1.5 4.9 0 1.5-.6 3.8-1.2 5-.8 1.4-1.5 8.4-1.8 19.2l-.5 17-4 .5c-2.2.3-6.6 1.8-9.7 3.3-5.4 2.6-15.8 3.9-15.8 1.9 0-.4 2.9-3.7 6.3-7.4 5.9-6.3 6.6-6.8 10.6-6.8 2.3 0 5.2-.5 6.3-1.1 1.9-1 2-1.7 1.4-10.3-.4-5-1.4-13.8-2.2-19.6-1.2-8-1.3-11.4-.5-14.2 1.5-4.8 7.1-9.6 12.1-10.4 2.2-.4 4.3-1.1 4.6-1.5.3-.5 2.2-.9 4.3-.9 3.5 0 6.1-1.4 6.1-3.2 0-.4-2-.5-4.4-.2-4.2.6-4.4.5-5-2.2-1.8-8.9-3.6-29.7-3.6-42.3 0-12.8-1.2-22.1-2.9-22.1-.3 0-.7 8-.9 17.8zM789.1 135.3c-1.9 1.9-1.4 5.7.8 5.7 1.8 0 3.1-1.8 3.1-4.5 0-1.8-2.5-2.6-3.9-1.2zM1049.3 156c-1.8.6-3.2 1.4-3.1 1.8.1.4-.2 1.4-.6 2.3-.4.9 0 4.3.8 7.5 1.1 4.2 1.5 10.9 1.5 23.6l-.1 17.8h-2.7c-1.5 0-5 .7-7.7 1.6-2.7.8-7.1 2.1-9.9 2.9-12.6 3.4-12.8 3.6-14.7 11.1-2.5 9.9-4.8 24.1-4.8 30 0 4 .5 5.5 2.3 7.1 4.2 3.9 8.4 4.4 31.9 4.1 12.3-.2 28.6.1 36.3.5l14 .8 5.9-4.3c12.1-8.8 11.4-7.6 12.7-22.8.7-7.5.9-15.2.5-17.3-.7-4-3.6-6.3-6.4-5.2-1.4.5-1.2.9 1.2 2.2l2.9 1.5-.8 14.6c-.7 14-.8 14.6-3.3 17.2-1.5 1.4-4 3.5-5.6 4.5l-2.9 1.9.7-2.9c.4-1.7 1-7.6 1.3-13.3.4-8 .2-11.3-1.2-15.4-1.6-4.9-1.6-5.3.1-6.5 1-.7 2.4-1.3 3.1-1.3 1.8 0 1.6-1.9-.3-2.7-.8-.3-2.7.3-4.2 1.4-3.6 2.7-21.8 3.9-32.3 2.1-8.7-1.5-19.1-1.5-34.7-.2-10.8.9-11.2.9-9.2-.8 1.1-.9 4.2-2 6.8-2.3 7.8-1 9.2-1.5 9.2-3 0-2.3 10.6-2.1 11.9.2.9 1.5 1.2 1.6 2 .4.7-1.1 3-1.2 11.7-.7 20.2 1.3 44.4 1.4 45.4.1 1.6-2-9.3-4.5-19.3-4.5h-8.7v-3.1c0-5 3.1-17.1 5.6-22.1 1.4-2.7 3.5-7.7 4.8-11.3l2.4-6.5-11.2.2c-12.4.3-22.7-1.7-28.7-5.5l-3.4-2.2 8-.3c11.5-.5 23.6 1.4 27.6 4.4 1.8 1.3 4 2.4 4.8 2.4 1 0 1.2-.3.6-.8-.6-.4-1.6-1.9-2.2-3.4-2.1-4.8-6.3-6.1-21.3-6.4-7.4-.2-15 .1-16.7.6zm24 14.8c5.9.2 10.6.7 10.4 1.1-.1.3-2.7 5.5-5.7 11.5-4.6 9.5-5.4 12-5.8 18.3l-.5 7.3h-20.4l.1-21.3.1-21.2 5.5 1.9c3.5 1.2 9.4 2.1 16.3 2.4zm4.4 29.4c-.3.7-.5.2-.5-1.2s.2-1.9.5-1.3c.2.7.2 1.9 0 2.5zm-20.7 25.9c2.5.6 11.1 1.1 19.2 1.1l14.7.1 1 3.1c1.6 4.8 1.5 18.4-.1 25.6l-1.5 6.5-4.9-.2c-2.7-.1-19.1-.3-36.4-.5-41-.4-38.3 1.1-35.5-19.4 2.3-16.9 1.3-15.4 10.3-15.5 4.2 0 10-.4 12.7-.9 7.4-1.1 15.4-1.1 20.5.1z"/><path d="M1062.2 181.9c-4.7 3.5-5.6 4.7-4.2 5.6 1 .6 11.5-5.8 12.6-7.7 1.3-2-4.7-.5-8.4 2.1zM1063.5 192.7c-3.2 3.2-6.5 8.3-6.5 10 0 2.5 2.6 1.2 5.3-2.7 1.6-2.2 4.2-4.7 5.8-5.5 1.6-.9 2.9-2.2 2.9-3 0-2.5-4.5-1.7-7.5 1.2zM1031.9 237.1c-5.2 3.7-13.9 12-13.9 13.2 0 .5 2.6-1.4 5.8-4.1 3.1-2.7 7.2-5.9 9-7.2l3.4-2.2-3.2 5.6c-1.8 3.1-3 5.9-2.8 6.1.5.6 8.8-12.2 8.8-13.6 0-1.7-2.7-.9-7.1 2.2zM1044.5 242.1c-5.5 4.3-10.2 8.4-10.4 9-.4 1.4 0 1.2 9.8-5.4 5.2-3.5 7.2-4.4 6.7-3.1-2.8 6.9-2.4 10.3 1 9 1.3-.5 1.5-.9.6-1.4-.8-.6-.4-2.5 1.8-7.1 5.5-11.6 4.1-11.8-9.5-1zM1065.1 244.6c-5.3 4-9.3 8.4-7.6 8.4.3 0 3-2.1 6.1-4.6 5.8-4.7 7.4-5.1 5.4-1.5-1.5 2.9-.4 4.4 2.1 3.1 1.1-.6 1.7-1.5 1.4-2-.4-.6.1-2 .9-3.2 4.4-6.2-.2-6.3-8.3-.2zM1078.3 247.1c-2.5.9-3.1 2.9-.9 2.9 1.4 0 4.2-2.7 3.5-3.4-.2-.2-1.4 0-2.6.5zM1646.6 162c-5.2 4.8-7.1 10.4-6.1 17.8.9 6.7 5.4 15.9 9.8 20.1l3.6 3.4-3 4.4c-1.7 2.4-3.9 6.3-4.9 8.6-3.7 8.3-14.1 10.1-21.4 3.6-4.1-3.5-5.7-3.6-12-.4-5.6 2.9-9.1 3.2-11.2 1-.9-.8-2.4-1.5-3.5-1.5-1 0-1.9-.4-1.9-.9 0-.8 3.3-5.4 5.8-8 2.2-2.2 10.7-20.1 13.3-27.6 2.6-7.8 3-17.5 1-21.4-1.2-2.1-1.8-2.3-6.6-1.8-6.4.7-12.3 3.5-18.2 9-7.8 7.2-9 12.2-5.3 22 2 5.4 8.6 13.7 10.9 13.7.7 0-.6-2.5-2.8-5.7-4.9-6.7-5.1-7.9-1.1-5.8 1.6.8 5.4 1.5 8.5 1.5 3 0 5.5.3 5.5.7 0 1.6-7.5 14.1-10.2 16.9-1.6 1.7-3.5 4.9-4.3 7-1.2 3.5-1.7 3.9-5.2 4.3l-3.8.3 3.9 1.2c3 .8 4.1 1.8 4.7 3.9.4 1.5 3.9 5.7 7.7 9.4 10.4 10.1 13.6 17.8 9.1 21.9-3.2 2.9-4.9 6.9-4.9 11.4 0 3.1.9 5.2 3.7 9.1 4.3 5.7 5.8 4.8 1.9-1.1s-3.6-11.6.9-17c1.9-2.3 3.5-5.2 3.5-6.4 0-4.2-5.4-13.1-12.2-20-4.5-4.6-6.8-7.6-6.8-9.2 0-1.3.1-2.4.3-2.5 1.6-.4 19.2-2.1 22.2-2 2.2 0 5.8.9 8 2.1 2.1 1.1 5.6 2 7.6 2 2.4 0 3.9.5 4.3 1.5.3 1 1.9 1.5 4.6 1.5 3.8 0 4.2.3 5.7 3.7.9 2.1 1.6 6.3 1.7 9.4.1 5.1-.2 5.8-4.1 10.3l-4.3 4.9.1 8.6c0 9.9 1.5 15.4 4.3 15.9 1.5.3 1.7 0 1.1-1.4-1.6-4-2.5-9.1-2.5-15 0-5.5.4-6.5 4-11.4 3.7-4.9 4-5.9 4-11.6 0-3.4-.6-8-1.4-10.2-1.4-3.9-1.4-4.1 1-5.7 3.3-2.1 3.1-4.4-.6-5.2-1.6-.3-3-.8-3-1.2 0-.8 4.9-10.1 6.1-11.5 5.1-6 13.5-18.7 15.6-23.3 3.2-6.9 3.5-15.1.9-20.1-2.2-4.2-8.3-7.1-14.9-7.2-4.2 0-5.3.5-9.1 4zm-32 3.8c.8 4.2-.5 11.2-3.5 19.4l-2.2 5.6-5.8.7c-9.9 1.1-16.1-2.7-16.1-9.9 0-3.4.7-5 3.4-8.2 4.6-5.4 10.7-9.5 16.4-10.9 6-1.6 7-1.1 7.8 3.3zm49-3.3c8.4 3.5 8.5 18 .3 25-3.6 2.9-5.6 2.9-13.6-.2-3.5-1.3-4.5-2.2-5.3-5.2-2.1-7.7-.5-13.8 4.9-18.4 3.7-3.1 8.2-3.5 13.7-1.2zm-6.9 29.9l5.1 1.1-3.1 3.5-3 3.4-3.9-4.3c-4.1-4.7-4.9-6.8-2-5.6.9.5 4 1.3 6.9 1.9zm-57.7 29c0 .2-.9.6-2 .9-1.1.3-2 .1-2-.4s.9-.9 2-.9 2 .2 2 .4zm46 4.7c0 .5-.9.9-2 .9-2.2 0-2.7-1.6-.7-2.3 1.5-.5 2.7.1 2.7 1.4z"/><path d="M1602.8 169.6c-.5.4-.8 2.1-.8 3.8.1 2.6.2 2.8 1.1 1.3 1.1-1.9.8-6.3-.3-5.1zM1594 174.5c-1.4 4.1-.8 6.5 1.6 6.5 1.3 0 1.4-.3.4-1.5-.8-.9-1-2.8-.6-5 .9-4.5.1-4.5-1.4 0zM1659 168.8c0 2.1.7 4.7 1.6 5.8 1.5 1.8 1.5 1.7 1-1.5-.3-1.8-.6-4.4-.6-5.7 0-1.3-.4-2.4-1-2.4-.5 0-1 1.7-1 3.8zM1649 169c0 3 2.8 8 4.5 8 1.2 0 1.1-.6-.5-3.3-1.1-1.7-2-4-2-5 0-.9-.4-1.7-1-1.7-.5 0-1 .9-1 2zM813.6 168.6c-.9 2.4-.7 3.4.8 3.4 1.6 0 2.9-2.7 2-4.1-.8-1.4-2.1-1.1-2.8.7zM774.5 171.2c-.3 1.8-1.1 8.3-1.9 14.5-1.4 11.6-1.6 12-8.4 20.1l-2.3 2.7 1.7-4c2-5 3.1-9.3 5.4-21.8 2.5-14 .4-10.5-2.6 4.4-1.4 6.8-3.2 13.5-3.9 14.9-.7 1.4-1.6 4-2 5.7-.9 4.5 1.2 4.3 4.5-.3 1.4-1.9 3.3-4.5 4.3-5.7l1.8-2.2-.5 2.5c-.3 1.4-.8 5.3-1.1 8.5l-.5 6 1.5-5c.8-2.8 2.4-12.2 3.5-21s2.2-17.5 2.4-19.3c.3-1.7.1-3.2-.4-3.2s-1.2 1.5-1.5 3.2zM238.2 175.5c-1.1 2.4-2.8 7.2-3.7 10.6-.9 3.5-2.3 7.6-3.1 9.2-1.5 2.7-1.5 2.8.5 1.7 1.1-.6 2.5-1.8 2.9-2.8 1.2-2.2 6.4-22.4 5.9-22.8-.2-.2-1.3 1.6-2.5 4.1zM902.3 172.8c-1.5.2-2.3 1-2.3 2.3 0 2.3 2.2 2.5 4 .4 1.6-2 .9-3.1-1.7-2.7zM1892.8 178.6c-.5.4-.8 11.3-.9 24.3 0 17.4-.3 22.9-1.1 21.1-.5-1.4-1.2-8.8-1.5-16.5-.3-7.7-.9-14.7-1.3-15.4-1.6-3-2.3 12.3-1.1 22.9 1.3 11.8 5.1 28.2 6.6 28.7.6.2 1.1-9.3 1.2-27 .2-26.7-.5-39.6-1.9-38.1zM1954.7 183.9c-2.3 2.2-3.8 4.3-3.4 4.7.4.4 1.2.3 1.8-.3.8-.8 2-.6 4.1.7 4 2.4 5.8 1.6 5.8-2.5 0-2.9.4-3.4 2.7-3.7 1.4-.2 2.8-.9 3.1-1.6.2-.8-1.1-1.2-4.8-1.2-4.5 0-5.5.4-9.3 3.9zm6.5 1.6c-.5 2.6-1.7 3.1-4.1 1.6-1.2-.8-1.2-1.2-.2-2.5.8-.9 2.1-1.6 3.1-1.6 1.3 0 1.6.6 1.2 2.5zM1802.1 183c0 2.5 1.9 6 3.4 6 .4 0 .3-.6-.2-1.3-.6-.6-1.5-2.6-2.1-4.2-1-2.8-1-2.9-1.1-.5zM915.6 185.6c-1.2 3.1-.7 4.5 1.7 4.2 3-.4 3.9-5.8.9-5.8-1.1 0-2.3.7-2.6 1.6zM2011.2 185.2c.3.7 1.7 1.4 3.2 1.6l2.8.4-2.3 2.4c-1.7 1.8-2 2.7-1.1 3.6 1.3 1.3 6.2-.4 6.2-2.2 0-.6-.4-.8-1-.5-1.2.8-1.3-.5-.1-2.4 1-1.6 3.1-.6 3.1 1.5 0 .8.7 1.4 1.5 1.4 2 0 1.9-3.4-.1-5.4-2-2-12.8-2.3-12.2-.4zM1814 188.3c-2.1 1.1-2.5 2-2.5 5.7-.1 2.5-.6 5.5-1.3 6.7-.7 1.2-1.2 4.2-1.2 6.6 0 5.2 2 7.5 7.3 8.4 3 .4 4 .1 6.1-2.1 2.1-2.3 2.7-2.5 4.4-1.5 2.7 1.7 4.8.6 5.5-2.8.7-3.5-1.3-6.7-5.4-8.9-2.3-1.1-2.8-1.9-2-2.7 1.8-1.8 1.3-6.5-.9-8.7-2.3-2.3-6.3-2.6-10-.7zm9.7 3.7c1.8 3.6 0 5.2-5.6 4.8-4.2-.3-4.6-.5-4.9-3.1-.3-2.1.2-2.9 2-3.7 3.7-1.5 7.1-.7 8.5 2zm-6.5 8.9c1.6.6 2.9 2.3 3.7 4.9 2.1 6.2 0 9.2-5.3 7.8-5.1-1.3-6.8-5.3-4.6-11 1-2.8 2.4-3.1 6.2-1.7zm9.2 1.7c3.8 2.1 4.6 3.1 4.6 5.4 0 6.2-4.5 4-8.1-3.9-1-2.2-1.7-4.1-1.5-4.1.2 0 2.4 1.2 5 2.6zM1799 190.7c0 2.6 3.5 5.3 7 5.3 2.3-.1 2.2-.2-1.2-2-2-1.1-4.2-2.8-4.7-3.7-.9-1.6-1-1.6-1.1.4zM1832.6 193.6c-1.6 1.9-2.5 3.8-2.1 4.2.9.9 5.5-4.4 5.5-6.4 0-1.8 0-1.8-3.4 2.2zM1479.7 213.7c-8 12-18.2 27-22.6 33.3-8.1 11.6-8.9 13-7.2 13 1 0 16.7-21.1 27.6-37 3.2-4.7 6.2-8.9 6.6-9.4.4-.4-1.6 5.4-4.5 13-2.9 7.7-6 16-7 18.6-1 2.6-2.8 6.3-4.1 8.2-1.9 2.8-2.1 3.6-.9 4 .8.3 1.4.1 1.4-.4 0-2.1 17.7-11.3 28.4-14.7 13.4-4.3 16.1-5.6 24.9-12.2 3.7-2.8 7.4-5.1 8-5.1.7 0 1.7-.4 2.3-1 .5-.5 3.2-1.2 5.9-1.6l5-.6-17.2 11.4c-9.5 6.2-23.2 15.2-30.5 19.9-14.2 9.3-35.7 26.5-35.8 28.8 0 .7-.6 1.1-1.3.8-.8-.3-4.2-.2-7.5.2-3.4.4-6.2.7-6.3.7 0-.1-.3-2.4-.6-5.1-.4-3.9-1.5-6.3-5-10.9-6-7.9-7.6-11.9-7-17.9.6-6.9 3.7-9.9 9.7-9.5l4.5.3.5 10c.4 7.6.7 9.2 1.3 6.6.4-1.8.7-6.7.7-10.7 0-8.4-.8-9.4-8.2-9.4-7.5 0-11.8 5.2-11.8 14.2 0 4.7 3.6 13.4 6.5 15.8 3.3 2.8 6.4 8.8 7.1 13.9.4 2.8 1 5.1 1.3 5.1.4 0 .5 1.6.3 3.5s-.1 4.3.4 5.2c.5 1.3.9.2 1.5-3.5.4-2.9.9-5.5 1-5.6.2-.2 3-.7 6.2-1.1 5.6-.6 5.8-.6 4.8 1.3-.6 1.2-.7 3-.1 4.8l.8 2.9.1-3.6c.1-2 .9-4.6 1.9-5.7 4.6-5.2 28.1-23.6 39.9-31.2 29.2-18.7 46.7-30.6 47.1-31.9.4-1.2-.8-1.3-6.9-.8-4.1.3-8 .7-8.8.9-.8.2-1.7-.7-2-2-1-3.8-2.5-3-4 2-.8 2.7-1.8 4.8-2.2 4.8-.4 0-1-1.6-1.3-3.6-.9-4.7-2.7-3.9-4.4 1.9-1.4 5.1-3.2 5.4-3.2.7 0-6.3-3.2-4.3-5 3.3-1.3 4.9-3 6.3-3 2.4 0-1.2-.5-2.9-1-3.7-.9-1.3-1.1-1.3-2 0-.5.8-1.3 3-1.6 4.7-.7 3.8-2.1 4.3-2.6 1-.2-1.2-.7-2.2-1.3-2.2-.5 0-1.1 1-1.3 2.2-.4 2.9-2 3-2.4.1-.6-4.5-2.8-3-6.2 4.4-2.4 5.2-4.3 7.8-6.5 9.1-3 1.8-3.1 1.8-3.1-.2 0-1.3-.7-2.1-1.7-2.1-1.4 0-1.4-.2.2-2 1-1.1 2.3-2 3-2 .6 0 2-.6 3.1-1.4 1.9-1.5 1.9-1.5-.1-3-2.2-1.6-1.9-1.8 3.8-3 3.2-.7 3.6-3.3.7-3.8-3-.4-2.2-2.1 1.4-3.3 3.7-1.2 4.2-4.5.9-6-3.6-1.5-2.7-2.5 2.2-2.5 5 0 5.7-1.2 2.2-3.5-1.3-.8-2.9-2.5-3.6-3.8-1.1-2-.8-3.1 2.3-8.6 2-3.5 3.6-6.9 3.6-7.7 0-4.1-4.1.7-17.3 20.3zm12.1-.7l3 3h-4.4c-2.4 0-4.4-.2-4.4-.5 0-.6 2.3-5.5 2.6-5.5.1 0 1.6 1.3 3.2 3zm-2 7.5c3.1.9 2.3 2.5-1.8 3.9-2.4.8-3.6 1.8-3.8 3.3-.3 1.9.2 2.3 2.5 2.4 2.8.1 2.8.1-.4.9-3.9.9-6.3 2.7-6.3 4.6 0 .8.8 1.4 1.8 1.5 1 0 .6.5-1.1 1.1-1.6.5-3 .8-3.2.6-.2-.2 1.2-4.8 3.2-10.1 2.8-7.4 4-9.6 5.2-9.3.9.2 2.6.7 3.9 1.1zm38.3 2.8c-.8.8-1.1.7-1.1-.4 0-2 1.3-3.4 1.8-1.9.3.7-.1 1.7-.7 2.3zm-7.7 5.8c-2.4 2.7-2.8 1.8-1.3-3.1 1.3-4.3 1.3-4.3 2.2-1.6.7 2.1.5 3.2-.9 4.7zm-6.4-1.1c0 1 .8 2.3 1.7 2.8 1.5.9 1.2 1.3-1.8 3.1-4.6 2.8-4.9 2.7-3.3-1.7.7-2 1.3-4.5 1.4-5.5 0-2.4 2-1.1 2 1.3zm-7.7 5.7l1.5 3.3-10 3.1c-5.5 1.7-10.1 2.9-10.3 2.7-.2-.2.9-2.8 2.5-5.8l2.7-5.4.8 3.2c.8 3.7 3.2 4.2 4.5.9.6-1.6.9-1.7.9-.5.2 4.8 5.1 1.9 5.1-3.1 0-2.8.2-2.7 2.3 1.6zM1477 246c0 .5-.7 1-1.5 1s-1.5-.5-1.5-1c0-.6.7-1 1.5-1s1.5.4 1.5 1zm-.5 3.6c-1.1.9-2.8 2-3.8 2.5-1.6.9-1.7.8-.8-1 .6-1.1 2.1-2.2 3.3-2.4 1.3-.2 2.5-.5 2.8-.5.3-.1-.4.6-1.5 1.4zM1837.4 195.6c-1.9 1.9-3.4 4-3.4 4.7 0 1.3 5.7-4 7.1-6.6 1.6-2.8-.1-2-3.7 1.9zM901.4 197.4c-2.3 3.7-1.5 7 1.9 7.4 2.3.3 3-.2 4.3-3.3 1.2-2.8 1.2-4 .3-5.1-1.8-2.1-4.7-1.7-6.5 1zm4.4 1.8c-.4 2.7-2.8 3.6-2.8 1 0-2 .8-3.2 2.2-3.2.5 0 .8 1 .6 2.2zM402.5 208.4c-3.3.7-7.6 2.1-9.5 3.1-1.9 1.1-4 1.8-4.6 1.7-1.6-.3-1.9 1.8-1.9 13.8v10.5h10.2c5.6 0 10.7-.5 11.2-1 .6-.6 1.4-6.6 1.9-13.5s1.2-13.3 1.6-14.3c1-2-.1-2.1-8.9-.3zm4.5 6.6v4l-2-2c-1.1-1.1-2-2.5-2-3.1 0-.5-.4-.7-1-.4-.5.3-1 1.5-1 2.5 0 2-4.8 6.5-8.1 7.5-2.6.8-2.6.8-3.1-3.4-.3-3 .1-3.7 3-5.4 3.5-2.1 8-3.4 12-3.6 1.9-.1 2.2.4 2.2 3.9zm-4.4 10.4c-1.4 2.4-2.6 5.7-2.6 7.2 0 2.6-.1 2.6-3-1.4-3.4-4.7-3.5-5.2-1.6-5.2.7 0 3-1.4 5.1-3 2.1-1.7 4-2.8 4.3-2.6.2.3-.7 2.5-2.2 5zm2.6 8.8c-.6.6-1.7.8-2.6.6-1.4-.3-1.3-.9.6-4.8l2.3-4.5.3 3.9c.2 2.1-.1 4.3-.6 4.8zm-11.3-3.2l3.2 4H393c-3.6 0-4-.3-4-2.4 0-2.2.9-5.6 1.4-5.6.2 0 1.7 1.8 3.5 4z"/><path d="M394.7 215.7c-1.2 1.1-.8 2.3.8 2.3.8 0 1.5-.7 1.5-1.5 0-1.6-1.2-2-2.3-.8zM145.4 213.4c-1.7.8-4.7 2.8-6.6 4.5-2 1.7-3.8 3.1-4.2 3.1-.3 0-2.8-1.6-5.5-3.5-2.6-1.9-5.6-3.5-6.5-3.5-2.5 0-1.9 2.4 1.2 4.2 1.5.9 4.2 3.2 6 5.1l3.3 3.4-5-.5c-8.8-.8-12.5 3.9-11 13.7.9 6.3 4.4 9.1 11.2 9.1 8.1 0 13.6-4.6 13.7-11.5v-2.9l4.3 4.2c4 3.9 7.7 5.5 7.7 3.2 0-1.1-6.3-8.3-12.5-14.3-2.2-2.1-4-4.4-4-5-.1-2.1 7.8-7.7 10.8-7.7 3.5 0 3.5 1.8 0 8-3 5.3-2.6 7.5.8 4.4 4.8-4.4 6.3-10.8 3.1-13.7-2.2-2-2.8-2-6.8-.3zm-10.2 19.4c4.4 2.6 3.7 8.2-1.3 10.7-3.9 2.1-8.5 1.9-10.9-.5-2.6-2.6-2.8-9.5-.3-10.8 2.7-1.5 9.5-1.2 12.5.6zM1958.3 223.3c-11.8 6.3-12 6.4-10.7 7.7.8.8 2.1.6 4.7-.6 2-1 4-1.4 4.4-1.1.4.4.9 3.3 1.1 6.5.5 7.3-.7 8.8-7.5 9.5-4.5.5-5.4.3-6.3-1.3-1.4-2.7-1.2-10.1.5-13 1.8-3.1 1.9-6.3.3-5.8-1.9.7-5.5 7.4-7.9 14.8-1.7 5-2.2 10-2.6 22.1l-.6 15.6 6.2 5.1c7.3 6.1 9 6.6 18.5 5.9 5.6-.4 8.4-.1 12.6 1.4 15 5.4 39.6 7.3 45.3 3.6 1.2-.7 3.9-1.9 5.9-2.6 5.5-1.8 11.8-6.8 13.4-10.6 1.4-3.5 3.4-25.3 3.4-38.6 0-9.4-.6-10.1-14.8-16.4-11.6-5.1-12.2-5.2-39.9-6l-18.2-.5-7.8 4.3zm22.3.9c.3.4.3 4.1-.1 8.3l-.7 7.5h-4.6c-2.6 0-5.2-.4-5.7-.8-1.5-1-3.5-8.2-3.5-12.7v-3.7l6.9.4c3.9.2 7.3.7 7.7 1zm39.9 4.3c5 2.1 10.3 4.8 11.9 5.9l2.9 1.9-.7 18.6c-.4 10.2-1.2 20.3-1.7 22.3-1.1 4.2-6.4 9.2-11.9 10.9-1.9.7-4.6 1.9-5.9 2.7-1.4 1-5.5 1.7-10.5 2l-8.3.4-.1-3.7c-.3-8-3.2-10.4-9.9-8.2-3.4 1.1-3.8 1.6-4.1 5-.3 3.3-.6 3.8-2.5 3.5-1.9-.3-2.2-1-2.5-5.8-.2-3-.8-6-1.4-6.7-.6-.8-3.4-1.3-6.9-1.3-4.8 0-6 .4-7.3 2.2-.9 1.2-1.6 3.2-1.6 4.4 0 2.1-1.7 3.4-4.6 3.4-1.1 0-1.4-1.6-1.4-7 0-3.9-.3-7-.7-7-4.1 0-13 2.3-13.9 3.5-2.7 3.7-2.5-15 .2-30.3.7-3.8 1.9-4.2 2.8-.8.8 3.1 1.8 3.4 9.4 2.8 5.7-.4 6.4-.7 7.4-3.1.5-1.4.8-5.9.5-9.9-.5-6.3-.3-7.3 1.3-8.2 2.7-1.4 2.7-1.5 3.3 4.5.3 3 1.1 6.7 1.9 8.2 1.2 2.6 1.8 2.8 8.2 3.1 7.9.3 8.6-.2 8.6-6.3 0-2.2.3-5.7.7-7.8l.6-3.9 13.6.4c13.2.4 13.8.5 22.6 4.3zM1952 280c0 4.3-.3 5-1.9 5-2.6 0-8.1-4.7-8.1-7 0-2.2 1.3-2.8 6.3-2.9l3.7-.1v5zm19.6-1.4c1.6.4 2.4 1.8 3.1 5.4l1 4.8-4.9-1.9c-2.7-1-5.8-1.9-7-1.9-1.6 0-1.9-.4-1.4-2.3.3-1.2.6-2.5.6-2.9 0-1.3 5.3-2.1 8.6-1.2zm21.8 8.6c.5 2.1.7 4.1.3 4.4-.3.3-2.4.3-4.6-.1-3.8-.6-4.1-.9-4.1-4 0-3.6 1.1-4.5 5-4.2 2 .2 2.7 1 3.4 3.9z"/><path d="M1995.3 230.9c-1.3 3.2-2.3 6.1-2.3 6.4 0 1.3 6.9 4.6 11.1 5.2 4.1.6 4.7.4 6.2-1.9s4.7-10.2 4.7-11.8c0-.4-.7-.5-1.5-.2s-2 2.5-2.6 4.8c-.6 2.2-1.6 4.7-2.1 5.3-1.4 1.7-5.1 1.6-9.4-.2l-3.5-1.4 1.6-3.7c1.6-3.9 2-8.4.8-8.4-.5 0-1.8 2.7-3 5.9zM2022.7 232.7c-3.2 11.5-3.2 12.4-.7 14.5 3.1 2.5 10.3 2.2 10.8-.5.3-1.6.1-1.7-1.8-.7-1.7.9-2.9.9-5.2-.1-2.5-1-2.9-1.6-2.4-3.8 1.5-6.3 1.8-9.9.8-10.5-.6-.3-1.3.2-1.5 1.1zM1975.4 254.8c.5.8-.3 1-2.6.7l-3.3-.5 3.7 1.4c5.5 2.2 12.1 2.9 18.6 2.1 3.1-.4 5-1 4.2-1.2-.8-.3-2.2-.7-3-1-.8-.3-4.4-.7-8-.7-3.6-.1-7.4-.6-8.4-1.1-1.4-.6-1.7-.5-1.2.3zM1974.1 260.8c-.1 3.8 3.1 10.7 5.4 11.6 5.7 2.2 11.1-.5 13.4-6.7 1.5-3.8-.2-3.1-3.1 1.3-1.3 1.9-3.2 3.6-4.2 3.8-1.7.4-1.8-.1-1.2-4.7.4-3.2.3-5.1-.3-5.1-1.4 0-2.4 4.4-1.8 7.6.3 1.9.1 2.4-1.1 2.2-1.9-.4-5.2-5.7-6.2-10.1l-.8-3.2-.1 3.3zM2022.4 279.4c-.3.8-.4 2.3-.1 3.3.4 1.6.6 1.5 1.2-.5.8-2.4 2.5-2.8 4.3-1 .6.6 1.5.8 1.9.4 1-1-2.6-3.6-4.9-3.6-1 0-2.1.6-2.4 1.4zM2005.6 282.9c-1 1.1-1.6 3.1-1.4 4.7.4 3.9 2.3 4 2.3.2 0-3.1.3-3.3 3.6-3.6 3-.3 3.7.1 4.2 1.8.6 2.5 2.7 1.8 2.7-.9s-2.1-4.1-6-4.1c-2.4 0-4.3.7-5.4 1.9zM1820.6 222.9c-2 3.8-2 3.6.4 3.8 1.1.1 2.7-.8 3.5-2 2.5-3.5 1.7-4.5-1-1.2-2.5 3.1-3.3 2.8-1.4-.7.6-1.1.8-2.2.6-2.5-.3-.3-1.3.9-2.1 2.6zM102.4 224.6c-1 4.1.4 15.3 3 24.4l2.4 8.3-5.7 6.8c-6.3 7.5-12.7 17.3-13.3 20.4-.2 1.2.3 2.1 1.4 2.3 1.1.2 2.9-1.5 5.5-5.4l3.8-5.7.8 3.9c.4 2.1 1 5 1.3 6.4.5 2 .7 2.2 1.4 1 .5-.9.5-4.7 0-8.5l-.9-7 4.3-5.5c3.8-4.9 11.2-11 14.8-12.3.7-.2 1-.8.6-1.2-.7-.7-5.6.3-10.2 2.1-1.5.6-4.3-11.3-5.2-21.6-.7-8.6-1.2-11-2.4-11-.5 0-1.3 1.2-1.6 2.6zM423.2 231.3c-1.6 1.9-6.5 20.4-5.9 22.2.4.8 1.5 1.5 2.7 1.5 3.6 0 14.7 5.1 17.5 8.1 1.6 1.6 3.4 2.9 3.9 2.9 1.3 0 5.4-13.8 6.3-20.8l.5-4.9-6.3-2.3c-10.7-3.9-15.9-6.2-15.9-7.1 0-1.3-1.6-1.1-2.8.4zm4.5 4.8c1.5 1.5-.6 6.6-2.9 7.2-1.6.5-1.8.1-1.2-3.1 1-5.5 1.8-6.4 4.1-4.1zm11.1 4.2c3.5 1.2 6.3 2.5 6.3 2.9-.1.5-.1 1.9-.1 3.2 0 5.1-9.8 5.6-13.2.7-1.4-1.9-1.3-9.2.1-9 .3 0 3.5 1 6.9 2.2zm-8.7 10.1c2.8 3.1 4.2 3.9 7 4 1.9 0 4.2-.4 5.1-.8 1.7-.8 1.7-.6.1 3.8-1.7 4.5-1.7 4.5-3.8 2.6-2.2-2.1-14.3-8-16.3-8-1.1 0-.8-3.8.5-6.2.7-1.3 3.8.6 7.4 4.6z"/><path d="M436.7 242.6c-.4.4-.7 1.4-.7 2.3 0 1.1.3 1.2 1.1.4.6-.6 1-1.6.7-2.3-.2-.6-.7-.8-1.1-.4zM796.1 240.9c-1.5 2.7-1.4 4.1.3 4.1 1.5 0 2.8-4.7 1.5-5.6-.4-.2-1.3.4-1.8 1.5zM1157.1 243.7c-.6 2.1-1.1 4.4-1.1 5 0 1.4-4.8 4.9-5.6 4.1-.2-.3 0-2.7.6-5.3.6-2.6.9-5 .6-5.2-1.2-1.2-2.4 1.1-3.6 6.6l-1.3 6.1-5.4 2c-2.9 1.1-5.8 2-6.2 2-.5 0-1.4.7-2.1 1.5-1.6 2-.3 2 7 0 3-.8 5.6-1.5 5.6-1.5.3 0-1.4 7.2-1.8 7.5-.1.1-4 2-8.5 4-4.6 2.1-8.3 4.1-8.3 4.6 0 1.9 2.3 1.8 8.1-.6 7.7-3.1 8.1-3.1 6.9.1-1.4 3.5-1.3 6.7.2 6.2.6-.2 1.8-2.7 2.6-5.5 1-3.6 2-5.3 3.4-5.6 1.7-.5 1.9-.2 1.4 1.6-1.9 6.5-2.9 11.8-2.3 12.3 1.2 1.3 2.6-.8 4.2-6.4 2.5-9.1 2.9-9.7 7.6-11.1 7.5-2.2 10.9-4.2 10.9-6.3 0-1.5-.4-1.8-1.7-1.3-7 3-11.6 4.5-12 4.1-.3-.3-.1-2.2.4-4.3 1-4.2 3.2-5.7 13.3-8.8 6.9-2.2 8.1-2.8 8.3-4 .5-2.5-7.1-1.2-17.5 3-1.6.6-1.7.2-1.2-3.9.8-5.7-1-6.3-2.5-.9zm-4.5 16.5c-.8 3.2-1.8 4.4-3.3 4.6-2 .3-2.1.1-1.3-3 .9-3 3.3-5.8 5.1-5.8.4 0 .2 1.9-.5 4.2zM820 243.9c-.5 1.1-1 2.9-1 4.1 0 3.3 3.8 10 5.8 10 1 0 1.3-.3.6-.8-3.4-2.2-4.8-11.7-1.9-12.8 1.6-.7 5.3 1.4 8.7 4.8 1.1 1.1 2.2 1.8 2.4 1.5 1.8-1.8-6.6-8.7-10.7-8.7-1.8 0-3.2.7-3.9 1.9zM402.1 245.4c-.7.8-2.7 1.8-4.4 2.2-6.9 1.4-15.7 4.5-15.7 5.5 0 .5 1.1.7 2.4.3 1.9-.4 2.6-.1 3.1 1.8.9 2.9 4.4 6.8 6.2 6.8 1.8 0 1.7-.3-1.2-4.6-1.4-2.1-2.4-4.2-2.2-4.8.2-.6 2.6-1.6 5.3-2.2 2.7-.6 6-1.6 7.2-2.3 2.1-1.1 2.4-.9 4.7 4.1 2.6 5.8 6.1 21.5 5 22.6-.4.4-1.3-.1-2-1.1-2.2-3-7.7-6.7-10-6.7-2.5 0-5.5 2.9-5.5 5.2 0 1.5-4.7 3.5-5.7 2.4-.2-.2-2.2-4.8-4.3-10.2-3.8-9.8-6-12.7-6-8.2 0 2.6 6.4 19.3 8.5 22.2 1.3 1.7 1.8 1.8 4 .6 1.8-1 5.2-1.1 13.5-.6l11 .6v-5.7c0-6.7-3.2-19.2-6.3-24.8-2.4-4.3-5.6-5.6-7.6-3.1zm1.5 25.7c1.9 1.1 3.4 2.3 3.4 2.5 0 .2-2.2.4-5 .4-5.1 0-6.4-1.2-3.8-3.8 1.5-1.5 1.5-1.6 5.4.9zM1438 246.9c0 2.1 2.3 4.5 3.3 3.4.4-.3.7-1.7.7-3 0-1.6-.6-2.3-2-2.3-1.3 0-2 .7-2 1.9z"/><path d="M825.4 250.5c-.3.8-.3 1.9.1 2.5 1.1 1.8 2.5 1.1 2.5-1.5 0-2.7-1.7-3.4-2.6-1zM397.5 254.7c.9 2.1 2.3 4.5 3.1 5.3 1 1 .7-.4-.8-3.7-2.6-5.9-4.7-7.3-2.3-1.6zM116 260c0 .5.3 1 .7 1 3.5 0 31.4 6.8 39.1 9.6 9.6 3.4 10.2 2.5 1.2-2-6.8-3.5-13.3-5.4-26.3-7.6-13.6-2.3-14.7-2.4-14.7-1zM1740.2 267.5c-2.2 5.8-2.9 13.9-1.3 14.9 1.7 1.1 11.1-1.7 11.1-3.2 0-1.1-.9-1.3-4.5-.8-5.2.8-5.2 1-2.8-8 1.2-4.5 1.4-6.7.7-7.4-.8-.8-1.7.6-3.2 4.5zM1754.8 264.7c-3.5 4.1-3.2 7.3.7 7.3 4.3 0 7.6-7 3.9-8.4-2.4-.9-3-.8-4.6 1.1zM1726.7 268.8c-1.7 1.8-1.7 2.1-.2 3.6 2 2 3.8 2 7.6 0 4.3-2.2 3.5-4.8-1.7-5.2-2.9-.2-4.5.2-5.7 1.6zM1762 283.5c-1.9 2.3-.8 3.7 1.8 2 1.2-.9 2.2-2 2.2-2.6 0-1.4-2.6-1.1-4 .6zM1725.5 288.1c-.8 1.2 1.3 3.9 3.1 3.9 2.4 0 2.4-1.8-.1-3.4-1.5-1-2.6-1.2-3-.5zM1752.3 288.7c-3.1.6-3 3.3.2 3.3 1.4 0 2.9-.8 3.5-2 1.1-2.1.9-2.2-3.7-1.3zM1737.2 291.2c.7 2 7.4 2.2 8.1.4.5-1.3-.2-1.6-3.9-1.6-3.2 0-4.4.4-4.2 1.2z"/></svg>
