<svg id="headshot" width="50" height="50" preserveAspectRatio="xMidYMid meet" viewBox="0 0 115 115" xmlns="http://www.w3.org/2000/svg"><g stroke="#000"><path d="m101.995 114.615-21.933-8.997-1.162-6.013 11.192-27.714 1.812-15.134-7.431-34.339-7.599-11.815-12.294-7.589-12.542.042-8.879 2.887-9.933 5.957-7.696 9.898-2.61 9.514.887 13.988-3.51.372-2.53 3.537-.53 5.586 2.796 8.51 5.658 8.086 4.055 5.19 1.767 19.244-2.272 1.596-4.422 10.315-11.308 7.322z" fill="#ffefef"/><path d="m45.14 43.961c.178 1.24.023 2.479.403 3.619.096.289-.025.677.05.976.105.422 0 .98 0 1.419 0 .113-.036.296 0 .402.057.173.143.329.201.503.033.101.218.151.251.252.04.119.071.232.151.351.074.111.217.214.251.352.072.286.118.637.252.905.033.067-.034.185 0 .252.041.081.172.166.201.251.062.187.136.38.224.574.042.092.157.163.201.251.235.469.401.953.704 1.407.114.172.252.126.402.202.184.092.42.159.603.251.282.141.504.302.805.402.089.03.148.125.251.151.274.068.583.11.855.201.22.073.65.001.854-.051.162-.041.384 0 .553 0h1.177 1.537c.173 0 .442-.054.603 0 .24.08.423.174.653.251.091.031.212-.03.302 0 .177.059.381.144.553.202.241.08.557-.062.804 0 .242.06.476.106.725.174.198.053.503 0 .704 0 .471 0 1.072.099 1.469-.102.187-.095.503.067.704 0 .335-.114.755-.052 1.056-.204.138-.07.402 0 .553-.051.293-.099.562-.258.854-.356.075-.026.176.025.252 0 .066-.023.137-.121.201-.153.145-.074.307-.13.452-.204.129-.065.203-.204.352-.254.318-.108.678-.104.976-.255.252-.127.461-.497.603-.712.186-.281.603-.356.754-.661.078-.159.127-.358.201-.508.155-.314.371-.57.526-.883.054-.11.121-.284.151-.406.012-.049-.023-.107 0-.152.168-.342.435-.61.553-.966.029-.089.125-.15.151-.254.099-.398.214-.837.402-1.218.141-.286.103-.718.201-1.015.026-.079.121-.164.151-.253.235-.71.58-1.373.905-2.031.053-.108.216-.219.301-.305.649-.658 1.567-.664 2.384-.94.309-.104.68-.332.975-.481.061-.031.091-.122.151-.153.203-.102.511.063.695.124.37.123.638.371.804.704.054.106 0 .381 0 .503 0 .454-.051.883-.051 1.357 0 .122-.053.396 0 .503.181.36.362.772.553 1.156.021.04-.02.11 0 .151.145.288.251.6.403.904.059.119.176.189.251.302.145.218.217.508.325.725.029.057.105.069.151.1.071.047.209.269.251.352.015.03-.019.073 0 .101.089.133.232.212.302.351.035.071.015.182.05.252.085.169.214.327.301.502.115.229.196.441.302.654.035.07.015.181.05.251.035.069.117.133.151.201.02.04-.014.109 0 .151.04.12.132.298.201.402.208.312.559.782.905.956.181.09.272.362.453.452.218.109.418.223.653.302.281.093.842 0 1.114 0h.691c.567 0 1.448.125 1.942-.125.065-.033.233 0 .302 0 .224 0 .506.044.695-.051.167-.085.564 0 .745 0 .426 0 .738.072 1.097.251.066.033.18-.024.251 0 .197.066.419.039.603.101.115.038.331 0 .453 0h1.076c.335 0 .704.05 1.056.05.093 0 .262.03.352 0 .374-.127.716-.197 1.076-.38.178-.09.464-.056.653-.152.116-.059.264-.169.403-.204.215-.055.576-.076.774-.176.27-.137.449-.431.704-.56.121-.061.181-.244.302-.306.107-.054.237-.012.352-.051.088-.029.269-.11.352-.152.08-.041.12-.163.201-.204.068-.034.208-.066.251-.153.192-.389.36-.828.553-1.219.02-.041-.02-.112 0-.153.115-.233.134-.524.251-.762.041-.082-.04-.224 0-.306.121-.245.076-.559.201-.813.034-.068-.033-.186 0-.254.053-.107.014-.193.051-.306.092-.278.108-.533.201-.813.051-.155-.021-.365.05-.509.114-.231.172-.521.251-.761.124-.375-.066-.741.095-1.068.081-.163-.132-.348-.053-.507.047-.096.273-.205.306-.306.055-.165-.206-.4-.154-.558.132-.399.661-.832.661-1.272 0-.305 0-.61 0-.916 0-.114.036-.299 0-.407-.115-.343-.389-.501-.71-.609-.124-.041-.245-.116-.355-.153-.188-.062-.416-.002-.607-.051-.368-.092-.782-.05-1.168-.05-.318 0-.713.05-1.016-.051-.058-.02-.15.027-.204 0-.179-.09-.344-.17-.558-.204-.438-.069-.884-.087-1.251-.271-.15-.075-.404-.024-.559-.102-.211-.105-.356-.322-.609-.407-.226-.076-.559-.171-.76-.305-.118-.079-.188-.227-.306-.306-.163-.109-.368-.216-.507-.356-.024-.024.015-.072 0-.102-.052-.104-.259-.292-.356-.357-.323-.216-.707-.419-1.064-.509-.095-.023-.173-.125-.254-.152-.207-.07-.399-.054-.608-.102-.694-.159-1.356-.192-2.077-.192-.461 0-.923 0-1.384 0-.052 0-.296.026-.375 0-.066-.023-.126-.077-.203-.051-.341.112-.682.185-1.021.297-.107.036-.249-.035-.356 0-.123.041-.268.067-.406.101-.078.019-.177-.025-.253 0-.339.112-.688.116-1.032.201-.178.044-.468-.005-.628.074-.19.094-.404.239-.628.274-.332.052-.772.099-1.073.248-.148.073-.29.159-.457.201-.397.098-.807.048-1.186.174-.092.03-.213-.03-.304 0-.284.093-.54.211-.812.301-.096.032-.208.003-.305.051-.25.123-.466.488-.611.703-.313.463-.744.853-1.065 1.328-.076.112-.282.461-.407.503-.103.034-.217-.018-.324 0-.077.013-.145.065-.222.073-.451.048-.929 0-1.385 0-.049 0-.349.038-.425 0-.201-.1-.357-.255-.559-.356-.067-.034-.182.024-.254 0-.127-.042-.246-.047-.355-.102-.163-.081-.438.058-.611 0-.293-.098-.56-.153-.862-.255-.288-.096-.671.08-.965 0-.183-.049-.354-.067-.526-.125-.074-.024-.186.035-.254 0-.231-.115-.528-.176-.762-.254-.112-.038-.262.037-.375 0-.244-.082-.531-.082-.793-.125-.144-.024-.301.024-.445 0-.585-.098.134-.074-.444-.074-.126 0-.339.04-.458 0-.396-.133-.768-.256-1.169-.357-.327-.082-.691.058-1.015-.051-.401-.134-.923.095-1.338 0-.227-.052-.35-.074-.578-.074-.063 0-.246.03-.305 0-.285-.142-.664.05-.966-.051-.12-.04-.21-.051-.355-.051-.474 0-.948 0-1.422 0-.128 0-.443.059-.56 0-.273-.136-.515-.033-.811-.101-.645-.148-1.288-.125-1.968-.125-.389 0-.779 0-1.168 0-.155 0-.412-.049-.559 0-.141.046-.233.09-.356.15-.076.038-.223-.02-.305 0-.092.023-.129.065-.203.101-.041.02-.111-.02-.152 0-.284.14-.616.153-.914.251-.256.085-.497.186-.762.252-.232.057-.494.029-.71.1-.05.016-.154-.024-.203 0-.198.098-.402.132-.611.201-.14.047-.216.155-.355.201-.044.015-.113-.02-.153 0-.253.125-.497.272-.762.403-.239.118-.668.264-.815.553-.155.307 0 .727 0 1.055" fill="#fff"/><path d="m33.001 72.087c1.161 3.772.458 8.429 2.185 11.884.88 1.76 2.195 3.745 3.318 5.43.42.629 1.716.849 1.981 1.38.367.733-1.57 1.446-1.78 1.86-.223.441.176 2.022.548 2.765.725 1.452 3.468 1.959 3.942 2.433.276.277 1.831-.05 2.225.738.172.345-.8.557.372 1.729.043.043 1.269.076 1.268-.102 0-.046-.198.354.099.503.423.211 1.06-.019 1.499.201.296.148.041.684.402.804 1.907.635 4.628 1.296 6.31 2.418.423.282.289 1.051.905 1.256 2.834.945 6.479 1.142 9.564 1.142.684 0 2.44.327 3.086 0 7.71-3.905 11.948-10.141 16.63-17.225 2.009-3.039 5.393-10.068 3.458-13.938-2.373-4.746-5.929-4.037-9.617-5.272-.519-.173-.444-.054-1.079-.345-2.471-1.132-7.19-.433-9.906-.675-2.192-.195-5.025-.197-6.936.746-1.25.617-3.195-.297-4.527.143-2.914.964-6.341.667-9.5.667-2.098 0-5.815-.694-7.576-1.873-.583-.39-.676-1.175-1.273-1.575-.551-.37-1.808-.875-2.117-1.493-.759-1.518-1.952-2.979-2.693-4.462-.145-.288-.969-1.088-1.32-.915-.579.286.528 4.053.702 4.575.807 2.421-.06 5.005-.06 7.241" fill="#892d2d"/><path d="m59.22 71.31c3.59.956 7.423.102 10.95.984 1.684.421 3.777-.452 5.434.1 1.511.504 3.51-.442 5.075-.051 1.429.358 4.957 2.147 4.273 4.173-.389 1.152-3.595 1.495-4.486 2.084-1.548 1.023-2.422 2.7-3.965 3.72-.833.551-3.685.377-4.444-.002-1.091-.546-2.827-.519-4.001-.912-3.296-1.104-6.333-2.346-9.308-4.338-1.484-.994.11-5.591 1.602-5.591" fill="#e0bad8" visibility="hidden"/><path d="m59.885 70.46c-2.63-.78-4.338 1.733-5.53 3.497-.509.755-.568 3.187.399 3.67 1.99.995 2.164-3.751 4.373-2.646 2.12 1.06 2.641 4.311 5.178 5.58 2.153 1.076 5.079.13 7.17 1.176 1.143.571 4.459 1.784 5.852 1.078.547-.277.411-1.847.653-2.338.418-.846 2.215-2.803 2.36-2.901 1.736-1.172 3.284 1.067 4.426-1.247.224-.453-.347-.95-.509-1.273-.852-1.703-2.174-1.496-4.202-1.842-3.178-.541-6.522-.714-9.988-.714-1.13 0-4.025.49-5.108-.051-1.171-.586-2.831-.053-3.946-.611-.587-.293-.929-1.221-1.731-1.221" fill="#ffefef" stroke="#000"/></g><g transform="matrix(.1 0 0 -.1 0 115)"><path d="m535 1128c-22-5-42.979-17.557-52.979-14.557-10 2-27.67-4.524-23.67-11.524s-20.334-20.065-33.334-15.065c-10 4 52.602 33.183 55.602 29.183 4-3-53.619-19.037-79.619-33.037-27-13-71-48-99-77-64-68-87-137-79-238 3-38 2-66-2-64-19 12-50-26-56-68-6-37-2-54 30-118 37-76 71-108 97-92 9 6 5 10-16 14-63 11-127 202-80 241 14 11 21 10 47-4 20-12 32-14 37-7 4 6 34 16 68 23 61 13 92 27 56 27-19 0-105-22-135-34-12-6-18 1-23 26-13 60-17 120-7 114 5-3 7 2 4 13-15 57 63 175 151 226 45 26 157 55 214 55 77 0 168-78 219-187 18-39 33-80 33-90s5-25 10-33c8-13 10-13 10 1 0 39-43 152-74 193-27 34-44.22 27.903-35.22 37.903 10 11-53.897 59.229-66.897 49.229s56.117-38.132 47.117-28.132c-6 8-15.134 10.962-11.134 14.962 4 5-8.854 9.827-14.854 5.827-7-4 4.988-.789 4.988 4.211 0 13-68 40-115 45-22 3-58 1-80-5z"/><path d="m478 769c-40-20-54-48-39-76 5-10 14-37 21-61 8-31 18-46 36-52 30-12 154-13 171-2 7 4 24 33 37 65 25 55 38 68 51 47 4-6 1.406 18.705-8.594 22.705-15 6 19.886-29.261 15.411-45.449-4.145-14.994 8.183-30.256 15.183-52.256 18-63 31-126 25-120-3 3-14-2-24-12-10-9-18-12-18-8s-10 0-22-11c-19-17-21-17-15-1 4 9 2 17-3 17-6 0-10-3-10-7 0-5-7-16-15-26-10-14-18-16-31-9-11 6-13 11-5 16 6 4 11 2 11-5 0-8 4-8 16 2 14 12 14 14-6 21-23 8-60-6-60-22 0-6-4-10-10-10-5 0-7 7-3 16 5 14 3 15-18 4-13-7-32-19-41-28-10-8-18-11-18-6 0 4 26 32 57 61s51 53 44 53-35-21-62-47l-50-48 15-64c17-75 27-88 53-72 16 11 16 11-4 6-17-5-21-2-18 12 14 69 15 72 33 67 15-5 15-4-2 10s-20 13-37-7c-10-12-18-17-18-12 0 12 34 55 44 55 3 0 4-4 1-9-4-5 32-10 81-11 49-2 102-3 118-4 27-1 55-16 55-29 0-3-19-3-42-1-31 3-36 2-18-4 24-8 24-8 5-20-11-6-15-12-8-12 6 0 15 5 19 11 3 6 18 9 33 7 24-3 27 0 29 24 2 23-4 33-34 50-33 20-35 23-19 34 12 9 16 22 13 43-3 24-1 29 14 26 26-5 22 2-9 20l-28 16 34-5c18-4 44-6 58-6 16 0 22-4 17-11-4-7-9-44-11-83s-6-80-8-91-4-30-4-42c-1-23-28-56-40-49-4 3-8-1-8-9 0-18 13-20 20-2 4 9 6 9 6-1 1-7-6-15-14-18-8-4-13-10-10-14 6-10-15-8-32 3-8 5-13 4-13-3 0-9 50-35 55-28 41 65 57 128 71 290 5 58 8 67 28 72 26 6 46 44 46 84 0 16 5 33 12 40 16 16 7 23-42 29-28 4-46 13-56 28-12 18-22 21-52 18-20-2-48-11-62-21-14-9-32-16-40-17-8 0-14-6-12-14 2-11-5-12-30-6-115 25-117 25-228 9-29-5-33-3-22 8 9 9 43 13 111 13 55 0 97 3 95 7-9 14-69 25-96 17-16-4-30-3-33 2-8 12-12 11-57-12zm407-18c-3-6 11-13 32-16 67-11 66-10 60-68-9-68-24-79-107-75-63 3-68.068 2.632-82 38-18.771 47.651-32.691 74.181-27.617 53.444 5.974-24.413 4.023 2.52-13.977 20.52-8 8 0 8.226 0 .226 0-6 14-5.508 0-4.508-14 0 15.109 21.721 15.109 24.721 0 8 75.23 34.443 108.23 39.443 20 3 3.102 1.341-22.898 2.341-18 0-51.159-7.855-62.159-13.855s-20.688-32.332-26.688-30.332c-14 5 90.888 39.891 121.888 39.891 13 1 9.112-5.891 5.112-10.891zm-206-33c20-7 23-13 18-44-9-56-31-81-77-89-50-8-125 1-138 18-17 22-24 104-10 113 34 22 151 23 207 2zm109-276c2-7-7-12-22-12-27 0-35 15-13 23 17 7 30 3 35-11z"/><path d="m380 680c-22-6-21-7 13-11 20-3 37-2 37 2 0 12-24 16-50 9z"/><path d="m197 653c-13-12-7-69 9-89 15-18 15-18 5 3-25 50-5 89 30 57 10-9 22-15 25-12s-8 15-24 27c-33 23-36 24-45 14z"/><path d="m304 624c5-16 9-69 11-118 5-128 32-236 65-264 8-8 9-11 3-7-7 3-13 0-13-8 0-15 36-57 50-57 5 0 17-8 27-19 10-10 51-33 92-50 81-35 137-37 169-7 10 9 21 14 24 11s13 4 23 15 22 20 27 20c13 0 9-58-7-97-8-20-13-38-10-41 2-3 9 6 14 19 9 21 10 22 11 4s2-17 11 4c5 14 7 31 5 38-6 14 3 16 28 7 9-3 13-11 10-16-4-6 2-7 16-3 15 5 20 4 16-4-5-7-1-8 10-4 13 5 15 3 9-7-5-8-4-11 2-7 5 3 33-3 62-13 28-11 57-20 64-20 13 1-112 58-175 80-50 18-68 63-38 95 22 23 26 45 9 45-5 0-8-4-5-8 6-10-40-62-54-62-6 0-10-7-10-15s-4-15-10-15c-5 0-6 7-3 17 4 11 3 14-5 9-7-4-12-3-12 3 0 16 18 22 23 9 3-8 6-6 6 5 1 10 6 15 11 12 6-3 13 1 17 10 3 10 0 21-8 25-7 5-10 13-5 17 4 4 14-1 22-11 8-11 14-15 14-8 0 14-48 47-56 39-3-3 0-15 6-27 13-25 13-25-19-35-15-5-21-4-17 3 3 6 1 14-5 18-7 4-9 3-5-4 3-6 2-13-4-17-15-9-12-25 3-19 8 3 13-3 13-16 0-11-4-20-8-20s-8-6-8-14c0-7-7-19-15-26-9-8-15-9-15-2 0 6 5 14 10 17 7 4 7 13 0 26-6 11-8 24-5 29 3 6-1 7-9 4-19-7-21-21-4-26 6-2 8-10 4-17-5-7-15-10-23-6-13 4-13 3-4-9 9-11 7-15-9-19-18-5-20-2-16 23 3 22 1 27-10 23-8-3-14-9-14-15 0-5 6-6 13-2 6 4 8 3 4-1-12-13-57-17-57-5 0 5 7 10 15 10s15 5 15 11c0 7-9 9-24 5-16-4-26-1-29 8-8 20 4 28 19 15 10-9 15-7 20 5 3 9 11 16 16 16 6 0 8-7 4-15-3-8-1-15 4-15 6 0 10 5 10 10 0 6 5 10 11 10 5 0 8-4 5-9s1-12 10-15c8-3 12-2 9 3s0 13 6 16c5 4 8 13 5 21s-1 14 3 14c5 0 7 8 4 18-3 12 1 19 11 19 19 0 19-2 6-27-6-10-6-21-1-24 4-3 13 6 20 21 12 27 3 42-26 43-18 0-35-38-28-60 8-25-10-26-24-2-6 9-11 11-11 5 0-16-49 4-51 21-1 6-3 31-4 56-4 65-5 67-15 50-5-9-7-28-6-43 2-15-1-30-6-33s-4-12 3-20c6-8 9-18 5-21-4-4-11-2-15 5s-15 10-24 6c-10-3-17-1-17 5s-7 8-15 4c-10-3-15 0-13 8 2 7-1 13-7 14-5 0-19 6-30 12-16 9-18 14-7 24 15 16 16 29 1 29-5 0-7-4-4-10 3-5 0-10-7-10-8 0-13 10-13 25 1 24 15 49 15 27 0-6 6-9 14-6 9 3 16-5 21-23l7-28 20 25c12 15 18 34 16 52-5 30 1 35 19 17 7-7 12-4 16 10 4 17 0 21-16 21-30 0-53-15-38-24 16-10 13-53-4-60-8-3-15-1-15 5 0 15-43 28-57 17-6-5-9-17-7-26 4-14 3-13-6 1-7 11-10 29-7 43 3 15 0 21-7 17-6-4 1 9 17 29 25 34 26 37 7 35-12-1-18-7-16-14 3-7 0-13-5-13-7 0-9 9-5 23 16 54 18 77 8 77-6 0-12-5-14-12-2-6-4 6-4 28-1 62-10 108-24 112-10 4-11-3-6-24zm122-417c8 3 14-1 14-8 0-11 2-11 10 1 5 8 12 11 16 7s2-13-4-19c-9-9-15-9-23-1-6 6-17 9-24 7-7-3-16 3-19 13-6 14-4 15 5 6 6-6 18-9 25-6zm80-22c6-14 8-13 20 2 10 14 15 15 25 6 7-7 9-16 5-20s-11-2-15 6c-6 10-10 9-14-4-4-9-15-15-24-13-21 3-34 18-27 30 8 13 24 9 30-7zm2-46c10-16 9-16-19-2-34 17-35 19-10 19 10 0 24-8 29-17z"/><path d="m250 573c-15-17-16-53-2-53 7 0 32 48 32 62s-15 9-30-9z"/><path d="m538 553c18-2 45-2 60 0s0 4-33 4-45-2-27-4z"/><path d="m280 521c0-6 4-13 10-16s7 1 4 9c-7 18-14 21-14 7z"/><path d="m640 510c0-5 5-10 11-10 5 0 7 5 4 10-3 6-8 10-11 10-2 0-4-4-4-10z"/><path d="m230 506c0-2 7-9 15-16 9-7 15-8 15-2 0 5-7 12-15 16-8 3-15 4-15 2z"/><path d="m683 503c-26-10-12-19 22-15 19 2 32 8 29 13-6 10-31 11-51 2z"/><path d="m360 459c0-5 5-7 10-4 6 3 10 8 10 11 0 2-4 4-10 4-5 0-10-5-10-11z"/><path d="m447 433c-4-3-7-11-7-17s5-5 12 2c6 6 9 14 7 17-3 3-9 2-12-2z"/><path d="m290 379c5-17 10-62 11-99 1-54-4-81-27-138-30-72-61-103-128-129-19-7-24-12-13-12 10-1 28 4 39 10 16 9 23 8 29-2 7-12 9-12 9 0 0 7 13 29 30 47 16 19 35 52 41 75l13 41 13-49c7-26 15-56 18-66 12-50 17-57 41-57 23 0 24 1 9 16-40 40-52 87-58 219-3 72-9 140-12 153-11 34-25 26-15-9z"/><path d="m397 403c-4-3-7-13-7-22 1-13 3-13 11 2 11 19 8 33-4 20z"/><path d="m637 399c7-7 15-10 18-7s-2 9-12 12c-14 6-15 5-6-5z"/><path d="m417 393c-12-12-7-30 8-30 10 0 12 4 5 12-5 7-7 15-3 18 3 4 4 7 1 7-2 0-8-3-11-7z"/><path d="m676 389c3-5 21-9 40-9s33 4 30 9-22 9-41 9-32-4-29-9z"/><path d="m640 370c8-5 22-9 30-9 10 0 8 3-5 9-27 12-43 12-25 0z"/><path d="m497 353c-3-5 1-14 9-21 12-11 14-9 14 8 0 20-14 27-23 13z"/><path d="m601 344c13-16 39-19 39-5 0 5-11 11-25 13-20 4-23 3-14-8z"/><path d="m853 343c4-3-1-12-11-20-15-13-15-13 6-3 23 11 30 30 10 30-6 0-8-3-5-7z"/><path d="m646 325c-5-13 6-20 18-12 2 1 13-6 23-16 11-9 23-14 28-10 4 5 5 3 1-4-3-6-2-14 4-18 5-3 10 1 10 9 0 19 11 20 29 4 8-7 5 1-5 17-18 28-18 29-1 16 16-13 20-13 27-1 5 8 6 19 3 24-4 6-8 5-11-2-2-7-8-9-13-6s-31 8-58 10c-37 4-50 1-55-11z"/><path d="m464 285c-10-26 1-35 13-10 6 14 7 25 2 25s-12-7-15-15z"/><path d="m492 271c-6-17-7-31-3-31 10 0 25 50 18 57-3 2-9-10-15-26z"/><path d="m588 289c-21-12-24-31-4-23 9 3 16-5 21-23 6-19 9-23 12-12 2 10 14 20 26 23 18 5 19 8 7 15-9 6-19 6-26 0-9-7-13-5-16 10-2 16-7 18-20 10z"/><path d="m805 290c-4-6-11-8-16-5-5 4-9 2-9-3 0-10 41-24 49-17 2 3-1 5-7 5s-9 7-6 15c7 17-1 20-11 5z"/><path d="m410 269c0-5 5-7 10-4 6 3 10 8 10 11 0 2-4 4-10 4-5 0-10-5-10-11z"/><path d="m580 235c9-11 9-15 1-15-7 0-9-5-5-11 4-8 9-7 14 2 10 15 2 39-12 39-6 0-5-6 2-15z"/><path d="m648 18c-15-15-16-18-3-18 9 0 18 7 22 15 8 23 0 24-19 3z"/><path d="m858 22c9-10 19-17 21-16 6 5-20 34-30 34-5 0-1-8 9-18z"/><path d="m129.39690844 2.94039088.00000318-.00000005" fill="#d8d8d8" stroke="#000"/></g></svg>
