<svg class="doodle" preserveAspectRatio="xMidYMid meet" viewBox="0 0 95 101" xmlns="http://www.w3.org/2000/svg"><g transform="matrix(.1 0 0 -.1 0 101)"><path d="m130 887c0-35 22-88 44-106 9-8 18-12 20-10s-12 36-30 74c-27 56-33 64-34 42z"/><path d="m349 777c-36-24-46-50-48-127 0-25-10-71-21-103-23-66-26-154-6-202 16-37 58-64 120-76 49-9 81 3 123 43 26 25 37 29 60 23 67-17 87-12 107 25 35 66-1 148-85 190-49 26-52 32-33 73 23 48 12 101-31 144-30 30-38 33-93 33-45 0-67-5-93-23zm160-38c77-72 29-130-95-116-58 6-74 21-74 68 0 32 5 41 28 53 41 23 114 20 141-5zm-82-204c33-22 65-96 66-153 1-77-54-102-140-63-48 22-73 62-73 116 0 39 24 105 43 118 17 11 74 1 104-18zm131-7c83-45 112-75 112-114 0-47-9-64-35-64-30 0-75 53-115 137-42 88-43 86 38 41z"/><path d="m70 744c0-58 82-115 146-102 14 2 3 12-37 35-31 18-66 43-77 57-23 30-32 33-32 10z"/><path d="m716 699c-40-44-63-85-53-96 14-13 88 70 101 115 11 33-7 27-48-19z"/><path d="m826 680c-48-42-99-107-94-121 5-15 92 64 119 107 29 47 19 52-25 14z"/><path d="m475 130c-14-28-23-55-20-60 16-26 78 2 106 47 32 52 12 54-32 3-30-35-39-41-39-25 1 11 7 31 15 45 17 30 18 40 5 40-5 0-21-23-35-50z"/></g></svg>
