<svg class="doodle" preserveAspectRatio="xMidYMid meet" viewBox="0 0 285 354" xmlns="http://www.w3.org/2000/svg"><g transform="matrix(.1 0 0 -.1 0 354)"><path d="m2144 3451c-71-47-229-178-387-319l-115-102-74 24c-206 70-417 49-600-59-42-24-98-50-125-56-108-26-156-44-196-72-73-53-167-140-208-193-22-29-47-55-56-59-9-3-75-10-147-15-72-6-144-13-159-16-60-13-6-25 136-31 81-3 147-10 147-14 0-12-43-39-63-39-28 0-127-54-175-95-50-43-76-88-67-115 10-30 33-24 85 23 49 44 154 106 164 96 3-2-8-43-24-89-63-183-90-389-90-672 1-490 88-704 425-1043 264-266 542-455 750-510 75-20 407-39 542-32 115 7 237 42 357 105 96 50 228 181 278 277 81 156 111 290 129 580 22 358 6 459-144 945-19 63-43 151-52 195-19 96-57 181-130 290-108 163-260 301-502 459-73 47-133 90-133 95 0 20 236 231 379 338 96 72 141 113 141 130 0 22-25 15-86-26zm-639-451c22-6 46-13 54-16s-28-48-100-125c-137-145-262-290-297-342-20-31-23-40-12-50 9-8 14-9 17-1 15 41 296 351 381 420 70 57 95 63 146 35 58-31 84-52 69-58-48-18-81-75-50-86 6-2-6-7-28-11-119-20-180-52-271-141-74-73-127-153-179-271-21-49-40-91-42-93-1-2-33 24-70 57s-90 74-118 91l-50 31h50c69 0 95 9 95 31 0 19-9 22-85 34-22 3-98 19-170 35-71 16-177 38-234 49s-108 24-114 30c-33 33 227 271 296 271 22 0 21-3-43-82l-35-43 35 23c54 36 153 82 175 82 27 0 42 11 46 34 4 21 99 78 169 101 53 17 298 14 365-5zm402-276c31-15 77-52 115-92 72-77 246-329 304-442 37-71 39-80 39-165s-2-95-41-175c-121-254-312-488-424-521-46-14-194 8-281 41-91 34-242 179-295 282-23 44-24 57-24 214 0 120-4 183-16 228-22 85-14 140 35 242 75 158 170 278 260 332 58 34 186 44 227 17 40-26 39-11-3 36l-38 42 45-7c25-3 68-18 97-32zm-1215-210c95-19 175-37 177-40 13-13-338 10-401 27-40 10-45 18-26 37s64 15 250-24zm-112-114c304-27 363-43 475-128 84-64 96-103 116-400 14-203 9-242-41-369-124-312-332-457-527-368-117 53-247 167-296 259-21 39-22 53-21 271 1 259 14 350 80 542 40 116 42 162 5 100-31-51-36-41-12 23 25 66 49 93 76 86 11-3 76-10 145-16zm1925-635c57-183 65-238 72-505 7-313-12-557-44-567-13-5-30 47-76 236-26 111-36 138-57 153-32 23-150 34-205 19-95-25-274-162-474-361-142-142-214-236-291-382-70-131-86-151-114-142-72 21-280 148-391 238-172 139-365 338-445 459-57 86-152 283-148 307 3 17 14 11 83-45 44-36 109-80 145-97 56-28 78-33 162-36 86-4 102-2 144 19 117 56 283 261 346 426l31 83 111-114c94-95 123-118 186-148 90-43 143-55 282-64 93-6 109-5 153 15 99 44 261 241 383 469 80 147 91 164 102 157 5-3 26-57 45-120zm-188-735c27-16 36-32 53-92 12-40 41-135 65-211 58-179 58-207 0-285-60-83-162-164-274-220l-94-47-281-3c-321-4-366 0-366 29 0 28 49 122 120 228 124 185 505 544 645 607 43 19 95 17 132-6z"/><path d="m1721 2116c-18-22-16-75 3-94 38-39 78 47 40 89-21 23-28 24-43 5z"/><path d="m584 1826c-3-8-4-27-2-43 4-35 41-40 46-6 6 42-31 83-44 49z"/><path d="m1331 1122c-36-67-17-122 40-122 36 0 89 47 89 79 0 29-13 26-53-9-50-44-61-40-54 20 6 50-4 65-22 32z"/></g></svg>
