<svg class="doodle" preserveAspectRatio="xMidYMid meet" viewBox="0 0 180 253" xmlns="http://www.w3.org/2000/svg"><g transform="matrix(.1 0 0 -.1 0 253)"><path d="m1330 2463c-49-25-133-113-158-165-12-24-27-69-32-100-27-144 62-381 192-511l58-58-49-72c-27-40-63-100-80-134-61-122-132-174-237-174-61 0-126 27-209 87-61 44-86 43-206-12-100-46-159-51-202-18-15 12-43 25-62 28-19 4-35 13-35 20 0 17 42 78 90 133 70 79 239 441 281 599 29 110 31 264 5 322-24 53-45 59-145 44-177-27-397-190-447-330-43-120 31-325 166-459 53-53 78-58 54-10-9 17-39 63-66 101-51 73-61 104-30 91 56-23 118-36 200-42 53-3 92-10 92-16 0-21-113-209-176-294-37-48-79-116-95-151-31-68-34-71-112-82-28-4-47-8-40-9 7 0 37-10 68-22 49-18 58-26 77-66 12-25 65-91 118-147 170-179 230-270 230-349 0-45-12-71-51-112-73-78-93-201-47-295 32-64 102-149 114-137 5 4-11 44-34 87-48 88-61 156-43 213 7 20 37 73 67 118 34 51 54 92 54 110 0 78-81 213-216 360-114 125-136 159-132 201l3 33 105 13c58 6 168 13 245 15 137 2 141 1 215-30 41-17 102-35 135-39 41-4 69-14 88-30 22-18 41-24 78-24 28 0 59-5 71-11 58-31 97-273 56-353-6-10-39-52-75-93l-65-75 4-166c6-197 24-270 70-286 15-5 30-8 32-5 3 2-5 31-16 64-22 62-37 286-24 339 3 14 33 65 66 114 74 109 87 161 71 289-6 46-18 109-28 139l-17 55 43 37c56 48 53 71-11 93-26 8-50 18-54 21-10 11 86 186 140 256 138 177 249 357 283 454 33 94 37 220 10 290-23 58-90 120-155 143-73 26-189 30-232 8zm201-53c92-26 148-98 156-204 9-112-46-239-129-293-33-22-46-25-96-21-83 8-191 55-219 96-41 61-44 213-5 288 26 49 87 108 132 128 41 18 110 20 161 6zm-894-27c40-61 13-254-59-436l-33-82-55-8c-89-14-209-4-257 21-67 35-88 73-88 163 0 76 1 77 46 135 80 104 201 187 316 219 79 22 110 19 130-12zm831-553c34-7 62-15 62-19 0-3-24-33-53-65l-52-59-54 59c-59 64-93 113-86 125 3 4 31-1 63-11s86-24 120-30zm-1118-540c0-11-48-25-56-17-4 3-3 10 1 16 8 14 55 14 55 1zm868-82c3-14-3-18-27-18-31 0-47 13-36 31 11 16 59 6 63-13z"/><path d="m1494 2336c-11-29 1-132 20-161 10-15 20-25 22-22 3 2 0 44-5 92-11 89-24 124-37 91z"/><path d="m1307 2303c-23-23 16-140 56-168 36-25 39 0 8 61-17 32-33 71-36 87-5 26-15 34-28 20z"/><path d="m427 2253c-4-3-7-29-7-57 1-47 2-49 15-32 25 34 17 115-8 89z"/><path d="m280 2204c-38-100-33-154 16-154 24 0 24 0 8 31-12 24-14 45-9 90 7 62 1 76-15 33z"/></g></svg>
