<svg class="doodle" preserveAspectRatio="xMidYMid meet" viewBox="0 0 290 524" xmlns="http://www.w3.org/2000/svg"><g transform="matrix(.1 0 0 -.1 0 524)"><path d="m1353 5083c-13-2-23-9-23-14s1-9 3-10c1 0 35-6 76-12l73-12 70-170c72-177 154-422 145-431-3-3-23 20-43 53-21 32-64 85-94 118-38 40-64 79-78 118-47 124-102 212-102 162 0-48-87 20-96 75-21 128-106 141-258 40-147-99-232-223-243-357-10-123 29-236 90-257 14-5 29-7 32-4s-6 29-20 59c-18 39-25 71-25 114 0 52 2 57 14 45 24-25 96-158 102-189 5-25 2-32-23-45-16-8-46-33-66-55-46-51-52-92-42-281 13-251 15-235-20-238-77-8-309-100-372-148-21-16-47-54-71-105l-39-80-38 83c-20 45-40 100-43 120-5 44-28 70-38 44-12-31 7-100 51-192 70-145 60-159-44-59-71 68-81 74-81 50 0-20 65-90 117-126 56-39 58-67 3-59-8 1-36 17-61 35-26 18-61 41-78 49-29 15-32 15-37 1-11-29 14-64 78-109 109-77 104-69 111-189 7-113 33-209 69-260 31-43 95-86 156-103 78-23 208-21 263 3 77 35 179 167 151 195-15 15-61-6-121-56-72-60-96-69-175-64-123 8-198 64-222 165-29 124-13 268 46 422 43 112 81 148 245 234 72 38 145 83 162 100 51 48 56 77 49 281-6 163-5 184 11 216 21 42 82 78 145 86 88 12 121-36 175-255 18-75 42-147 52-161 27-38 75-37 209 4 228 69 319 88 458 93 160 7 235-8 375-71 184-82 202-110 203-306 1-112-1-130-22-172-13-26-45-67-71-91-104-98-177-116-591-147-235-18-341-48-348-98-3-16 5-27 27-40 39-22 47-46 65-212 35-311 56-622 56-847v-152l-92-54c-51-30-125-71-165-91-87-46-111-69-93-91 7-8 24-15 39-15 31 0 115 38 174 79l44 30 16-134c9-74 28-183 41-242 26-114 47-251 66-423 31-286 108-503 240-679l61-81h117c250 1 383 37 420 113 11 23 11 36-3 85-27 91-92 148-230 202-60 24-137 50-170 59s-65 20-72 24c-11 7-23 56-78 317-15 69-55 242-90 385-93 383-112 483-124 660-20 287-93 881-121 985-17 62-13 80 23 95 33 14 152 28 322 40 181 12 343 48 439 97 130 66 206 211 206 392 0 68 5 78 65 121 84 61 156 128 153 144-5 25-37 14-96-32-114-90-127-98-130-88-6 18 40 70 100 111 32 23 56 46 53 51-9 14-53 11-80-7-44-29-28 3 35 71 62 67 74 95 40 95-28 0-85-54-132-124-23-34-43-63-45-65-1-2-69 28-150 67-82 39-184 83-228 98-79 26-82 26-206 16-150-14-339-49-508-97-69-19-130-35-137-35-14 0-34 56-65 185-38 159-82 231-155 255-19 6-34 14-34 17s38 84 84 181c47 98 90 197 96 222 30 114 67 75 101-107 25-130 51-202 85-234 14-13 41-49 60-80 22-37 46-62 69-73 31-15 53-37 127-129 23-28 184-101 200-91 12 7 1 87-18 141-11 30-29 52-65 78-66 47-80 73-140 255-83 249-169 461-200 492-23 23-35 28-76 27-26-1-58-4-70-6zm-159-99c25-9 19-33-14-60-30-26-104-164-116-218-12-52 18-24 69 65 26 46 55 91 62 99 13 12 15 11 15-14 0-36-57-180-127-320l-55-110-48 92c-53 104-75 132-102 132-39 0-5 115 56 188 38 44 49 41 40-13-5-36-3-45 8-45 21 0 39 23 87 110 54 97 76 113 125 94zm353-408c37-40 83-99 102-132 47-80 81-125 90-120 5 3 29-8 55-24 47-30 86-81 86-114 0-15-5-17-27-11-38 9-88 48-147 112-26 30-63 60-81 68-21 8-42 28-55 52-11 21-41 66-65 101-43 60-66 121-80 207l-6 40 30-53c17-30 61-86 98-126zm173-2790c0-8 33-160 74-338 96-416 135-610 146-728 11-112 25-131 116-150 131-27 293-99 340-152 62-68 66-108 12-127-17-6-86-16-152-21-67-5-147-12-178-15l-58-5-45 58c-25 31-61 87-80 123-62 118-118 376-136 629-6 93-22 201-44 300-18 85-39 184-45 220s-16 89-22 118c-11 49-10 54 12 77 26 27 60 33 60 11z"/><path d="m929 2828c0-2-4-88-9-193-13-322 15-733 70-1024 12-66 8-71-72-71-115 0-256-111-288-226-16-56-9-179 23-429 14-104 28-222 32-261l6-72-68-7c-37-4-84-13-103-21-59-25-332-308-353-367-11-30 33-63 99-77 32-7 102-13 154-14 94-1 96-1 212 52 64 29 145 59 180 68 87 22 116 42 128 84 5 19 10 127 10 240 0 317 14 402 112 695 44 130 73 185 125 231 27 24 43 46 39 53-11 18-81 13-107-8-28-22-112-191-133-266-7-27-23-72-34-100-11-27-25-72-30-100-6-27-15-69-21-92-14-53-31-322-31-486 0-71-5-137-10-148-7-13-21-19-43-19-29 0-72-14-251-80-78-28-207-47-237-34-21 10-20 12 38 80 33 38 90 97 126 132 57 55 70 62 105 62 61 0 144 18 164 37 30 27 28 71-41 658-12 103-2 165 35 218 40 56 117 113 173 127 25 6 69 20 96 31 28 10 68 19 90 19 49 0 109 28 114 54 3 18-2 19-72 13-58-5-78-3-87 8-30 36-67 404-80 795-10 317-25 440-51 440-5 0-9-1-10-2z"/></g></svg>
