<svg class="doodle" preserveAspectRatio="xMidYMid meet" viewBox="0 0 246 199" xmlns="http://www.w3.org/2000/svg"><g transform="matrix(.1 0 0 -.1 0 199)"><path d="m1392 1915c-51-58-160-213-418-595-114-168-253-374-310-457-57-84-104-157-104-163 0-17 21-11 42 13 48 55 347 459 463 627 70 102 132 190 138 195 14 15 4-17-105-310-95-256-138-355-187-435-25-42-26-46-6-53 8-4 26 6 42 22 69 68 309 185 547 267 210 72 276 105 421 208 66 47 129 89 140 94s40 19 65 30c39 18 146 42 190 42 8 0-59-49-150-108-91-60-317-208-503-330-185-121-406-273-490-335-183-138-375-301-395-337-14-23-21-26-66-26-28 1-90-3-137-7l-86-9-11 81c-13 94-24 118-103 228-107 149-134 225-117 344 4 34 17 77 28 95 29 45 92 69 166 61 31-3 58-7 60-10 2-2 8-75 14-163 5-87 10-161 10-164s6 4 12 14c17 29 23 275 8 320-15 47-55 66-137 66-252-1-312-327-104-564 66-76 107-160 127-261 9-44 20-84 25-89 5-6 9-45 9-87 0-43 4-80 9-83 12-8 17 7 31 96l12 76 63 11c34 6 82 11 108 11h46l-11-30c-6-18-7-50-3-78 8-46 8-46 16-17 4 17 11 47 14 68s19 53 36 72c77 87 527 435 755 583 615 398 868 574 861 595-4 14-58 15-208 3l-105-8-16 41c-9 23-22 41-28 41-11 0-31-41-61-124-8-21-18-38-24-38-5 0-17 24-25 53-9 29-21 54-27 56-16 6-41-35-59-93-24-81-54-95-54-26 0 50-10 82-25 82-23 0-45-36-72-120-28-85-53-115-53-66 0 15-7 42-14 61-25 59-44 44-73-54-10-36-23-66-29-68s-16 15-23 37c-14 48-31 48-47-1-15-43-36-44-45-1-4 19-12 39-17 44-15 15-52-29-91-109-51-105-96-167-139-191-50-28-50-28-54 5-2 17-12 32-26 39l-23 11 30 31c17 16 42 33 57 36 36 10 74 36 74 52 0 8-9 19-20 26-31 20-24 36 23 48 94 23 117 54 60 79-44 20-41 35 10 59 80 37 88 80 25 121-21 13-35 28-32 32 3 5 29 9 59 9 73 0 109 14 96 37-5 10-23 27-39 37-36 24-72 76-72 105 0 13 27 74 60 138 33 63 60 123 60 134 0 32-26 22-68-26zm-33-342c28-25 51-50 51-55 0-9-83-11-128-2l-30 6 20 49c12 27 24 49 28 49s30-21 59-47zm-31-149c17-7 32-18 32-24s-29-24-65-42c-47-22-67-37-71-54-10-39 2-54 43-55h38l-54-19c-66-22-105-50-109-79-2-15 4-24 19-30l23-8-21-12c-30-15-63-14-63 3s60 191 90 261c38 89 51 94 138 59zm721-36c-11-20-29-24-29-7 0 6 5 20 11 31 9 16 13 18 19 7 5-7 4-21-1-31zm-133-44c7-39-9-79-38-95-23-12-24 8-3 79 18 61 31 66 41 16zm-140-48c3-19 15-42 25-52 10-9 19-22 19-28 0-14-109-80-117-72-3 3 4 38 16 78 11 40 21 81 21 91 0 32 29 18 36-17zm-137-129c15-35 17-49 8-52-172-56-357-108-364-102-2 3 18 49 45 103 48 95 50 98 57 69 12-47 34-85 50-85 9 0 24 14 34 30l18 30 11-25c7-15 20-25 32-25 27 0 60 55 60 100 0 30 2 32 14 20 8-8 23-37 35-63zm-561-214c5-17-26-29-40-15-6 6-7 15-3 22 9 14 37 9 43-7zm22-48c0-10-111-78-117-71-12 11 43 58 78 66 19 4 35 8 37 9 1 1 2-1 2-4z"/><path d="m362 958c-19-19-14-47 14-75 26-26 27-26 40-8 28 38 12 95-26 95-9 0-21-5-28-12z"/></g></svg>
