<svg class="doodle" preserveAspectRatio="xMidYMid meet" viewBox="0 0 111 71" xmlns="http://www.w3.org/2000/svg"><g transform="matrix(.1 0 0 -.1 0 71)"><path d="m516 658c-48-75-85-298-55-334 15-18 61-14 141 12 94 31 89 69-8 56-33-5-66-6-72-4-18 6-15 39 14 157 14 59 23 113 20 121-8 20-23 17-40-8z"/><path d="m769 653c-53-56-65-114-28-133 46-25 122 24 134 85 8 38-10 63-50 71-24 4-35 0-56-23z"/><path d="m242 575c-39-33-40-47-4-75 34-28 97-23 147 11 42 29 48 41 31 65-10 13-31 19-78 22-58 4-67 2-96-23z"/><path d="m900 296c-29-32-21-63 12-45 34 17 58 40 58 56 0 22-45 15-70-11z"/><path d="m217 213c-23-22 18-73 58-73 37 0 33 35-7 60-36 22-41 23-51 13z"/><path d="m721 200c-39-9-55-28-39-47 25-31 108-2 108 38 0 21-13 22-69 9z"/><path d="m436 161c-12-18 28-36 81-36 51 0 80 16 67 37-7 11-141 10-148-1z"/></g></svg>
