<svg class="doodle" preserveAspectRatio="xMidYMid meet" viewBox="0 0 150 148" xmlns="http://www.w3.org/2000/svg"><g transform="matrix(.1 0 0 -.1 0 148)"><path d="m596 1384c-80-16-186-49-238-75-21-11-46-19-57-19-36 0-41-31-41-250v-212l188 4c134 2 193 7 204 16 19 15 24 44 43 258 14 163 19 208 31 267 5 25 3 27-28 26-18 0-64-7-102-15zm41-139 3-70-35 39c-19 22-35 45-35 53 0 31-30 10-40-28-18-64-118-149-178-149-36 0-46 106-13 139 47 47 172 91 246 88l50-2zm-37-99c0-3-20-46-45-97-26-53-45-107-45-126 0-18-3-33-7-33-8 0-103 133-103 143 0 3 10 7 23 11 13 3 54 28 93 55 64 46 84 57 84 47zm19-184c1-24-4-52-9-63-11-20-54-26-65-9-4 6 8 42 26 81 36 77 47 75 48-9zm-225-9 55-68-56-3c-31-2-62-1-69 2-22 9-16 136 7 136 4 0 33-30 63-67z"/><path d="m412 1238c-16-16-15-35 1-40 22-9 37 3 37 28 0 26-18 32-38 12z"/><path d="m956 957c-21-16-65-144-101-300-26-110-27-118-11-136 9-10 36-21 60-24 89-13 275-107 336-172 38-40 56-33 80 33 36 94 80 272 86 348l7 70-29 12c-16 6-85 32-154 58-143 53-221 91-233 110-10 17-18 18-41 1zm80-121c10-43-38-116-77-116-19 0-1 118 23 147 14 18 46-1 54-31zm176-52c143-50 138-46 138-104 0-64-30-90-102-90-99 0-149 40-156 125-4 49 2 105 12 105 2 0 51-16 108-36zm-195-143c26-21 62-53 78-71 47-50 80-63 141-56 29 3 59 9 68 12 10 4 16 1 16-9 0-25-42-127-52-127-5 0-28 13-51 29-51 35-208 114-259 130-36 12-38 15-38 52 0 46 14 79 34 79 8 0 36-17 63-39z"/><path d="m1190 715c-15-39 4-58 21-21 9 20 10 29 1 38-8 8-14 4-22-17z"/><path d="m580 702c-8-3-27-15-42-27s-60-30-100-40c-99-24-240-74-258-91-12-12-8-14 33-14 46 0 49-2 63-36 19-46 91-124 115-124 27 0 24 13-21 87-22 37-40 73-40 80 0 17 43 38 110 53 30 7 76 21 102 32 59 25 69 19 105-62 50-113 119-430 93-430-6 0-33 22-60 49s-75 62-106 77l-57 28-36-20c-24-13-43-34-58-65-22-47-63-74-98-67-12 2-38 52-79 153-71 172-88 206-112 226-16 13-17 10-12-41 6-63 64-225 123-344 45-90 48-92 145-66 43 11 86 10 334-6l89-6-6 118c-8 195-84 442-153 505-33 30-53 38-74 31zm5-509 60-38-84-3c-65-2-88 1-100 12-13 14-12 18 9 41 31 33 45 32 115-12z"/><path d="m446 548c9-31 49-109 68-133 12-15 15-16 16-5 0 24-68 160-80 160-7 0-9-9-4-22z"/></g></svg>
