<svg class="doodle" preserveAspectRatio="xMidYMid meet" viewBox="0 0 288 351" xmlns="http://www.w3.org/2000/svg"><g transform="matrix(.1 0 0 -.1 0 351)"><path d="m1766 3397c-54-39-86-79-125-157-37-73-85-200-78-207 3-3 29 41 57 98 65 129 124 222 159 251 26 22 47 48 38 48-2 0-25-15-51-33z"/><path d="m823 3213c-19-7-16-31 5-37 9-3 76-10 147-16 72-6 150-16 175-21 60-14 121-50 154-94 31-41 53-38 31 4-18 37-104 114-150 135-19 10-61 21-93 26-59 10-248 12-269 3z"/><path d="m2305 3151c-85-21-435-173-435-190 0-12 64 6 200 56 161 59 233 81 290 88 78 9 218-10 253-35 15-11 27-16 27-11 0 16-76 70-120 86s-162 19-215 6z"/><path d="m1465 2953c-28-6-115-45-115-52 0-3 49-19 110-35 190-49 270-100 395-251 154-186 253-373 365-689l70-199v-311c0-372-12-544-46-686-26-106-56-180-66-164-4 5-22 70-41 144-58 224-104 319-176 367-77 52-191 20-268-76-73-91-266-509-291-629-7-32-12-37-38-40-23-2-49 9-107 48-200 134-398 453-437 705-17 105-17 377-1 435 9 32 10 45 2 48-24 8-4 190 36 332 28 100 134 334 190 424 36 56 43 35 43-124 0-330 48-570 130-652 70-71 125-43 168 87 34 101 47 194 47 345-1 127-4 157-28 243-15 54-42 130-60 170-31 67-86 137-108 137-5 0-9 7-9 16 0 23 191 211 220 218 14 2 42 8 63 11 20 3 37 10 37 16 0 29-140 40-191 14-53-28-164-131-272-254-133-150-206-249-259-349-23-42-43-79-44-81-2-2-34 21-71 52-153 125-313 173-436 131-88-30-166-135-182-245-18-124 106-383 244-512 77-71 135-99 221-105l67-5 7-116c19-322 86-544 230-760 70-106 214-252 308-314 191-126 408-175 646-148 177 21 247 55 364 179 140 148 221 346 247 597 9 85 30 517 31 617 0 9 27 48 61 85 154 173 237 478 227 837-3 136-6 157-28 201-23 47-28 50-67 53-38 3-46-1-107-59-86-80-176-200-227-302l-41-80-50 94c-99 184-239 379-350 486-117 112-289 173-413 146zm1192-365c17-22 24-179 13-296-13-144-41-280-85-417-34-106-107-255-124-255-13 0-18 16-61 199-22 91-50 203-62 249l-23 83 48 94c70 138 237 355 273 355 6 0 16-6 21-12zm-1374-262c61-145 81-244 74-371-7-125-29-247-60-319l-20-48-15 27c-60 115-102 336-102 534 0 141 11 206 45 257 23 35 36 21 78-80zm-828-121c90-24 184-73 241-127l51-48-33-127c-19-70-41-175-50-234s-20-113-25-120c-14-23-92-14-150 17-95 52-213 206-259 338-12 33-21 86-22 126-1 59 3 75 25 108 27 42 95 82 137 82 14 0 52-7 85-15zm1460-1199c62-62 119-229 150-442 27-180 18-203-100-262-100-51-168-66-261-58-105 8-225 33-242 50-20 20 31 164 133 373 152 314 246 413 320 339z"/><path d="m2423 2185c-49-51-55-88-24-126l20-24 15 35 15 35 1-36c0-19 6-44 14-54 14-19 15-19 34-1 50 45 34 216-20 216-6 0-31-20-55-45z"/><path d="m1207 2073c-11-11-8-68 5-81 18-18 38 5 38 43 0 21-6 35-16 39-19 7-19 7-27-1z"/><path d="m429 2005c-15-8-34-33-44-57-33-83 7-148 91-148 23 0 46 5 50 11 3 6-8 26-26 44-21 22-31 40-28 56 3 21 10 25 58 29 39 4 56 9 58 21 8 44-105 75-159 44z"/><path d="m733 2890c-25-10-59-57-49-67 3-4 12-1 18 5 16 16 97 15 331-4 185-16 230-15 198 5-48 30-454 80-498 61z"/><path d="m1626 2567c-9-13-20-48-26-78-27-148-39-666-20-860 15-152 42-199 117-199 38 0 105 74 134 147 21 52 23 78 27 263 4 237-3 283-70 466-48 133-117 276-135 282-6 2-19-8-27-21zm87-232c82-207 82-209 82-435 0-216-7-260-47-320-30-44-54-58-69-43-19 19-28 188-28 538-1 308 3 376 19 358 4-4 24-48 43-98z"/><path d="m1684 1984c-8-31 10-74 31-74 20 0 30 46 16 76-14 32-39 31-47-2z"/><path d="m1449 1453c-21-56-30-133-27-245l3-113h30c38 0 68 43 97 138 27 89 13 108-31 43-49-71-55-62-47 73 7 122-3 162-25 104z"/></g></svg>
