<svg class="doodle" preserveAspectRatio="xMidYMid meet" viewBox="0 0 170 156" xmlns="http://www.w3.org/2000/svg"><g transform="matrix(.1 0 0 -.1 0 156)"><path d="m1207 1477c-32-17-84-53-116-79-32-27-63-48-67-48-5 0-49 27-99 60-96 65-130 79-147 62s-3-38 54-80c29-22 77-64 106-94l53-54-89 4c-76 4-94 1-131-17-72-37-98-132-71-259 28-128 144-177 312-132 83 23 148 111 148 201v52l58-54c89-85 137-114 162-99 21 13-20 67-169 223-75 78-131 145-131 156 0 37 147 141 199 141 31 0 51-11 51-28 0-9-21-60-46-115-34-73-44-101-35-110 19-19 107 82 125 144 18 61 13 94-22 132-34 36-72 35-145-6zm-201-338c73-22 103-99 62-158-48-70-171-102-236-61-59 36-84 151-44 200 30 36 131 45 218 19z"/><path d="m432 1313c-38-72-15-281 59-541l30-103-82-98c-164-199-288-395-274-433 19-50 68-16 146 103l53 81 23-108c13-59 26-110 29-113 10-10 24 24 24 59 0 19-5 83-12 141l-11 107 61 75c80 98 175 184 251 227 33 19 61 38 61 43 0 14-68 7-132-13-34-11-66-20-69-20-26 0-71 200-94 414-17 151-27 196-44 196-6 0-14-8-19-17z"/><path d="m675 620c-8-13-3-15 145-46 174-36 441-105 593-153 70-23 133-41 140-41 22 0-18 28-98 68-158 80-243 105-517 152-181 31-253 37-263 20z"/></g></svg>
