<svg class="doodle" preserveAspectRatio="xMidYMid meet" viewBox="0 0 203 354" xmlns="http://www.w3.org/2000/svg"><g transform="matrix(.1 0 0 -.1 0 354)"><path d="m425 3341c-53-32-123-116-135-161-10-38-9-47 12-88 16-31 39-55 73-76 81-51 149-125 164-179 26-92 3-157-98-274-82-95-131-130-208-149-85-22-127-53-157-117-71-150-27-257 112-274 41-4 66 0 139 27 108 39 199 46 232 16 29-27 27-88-5-173-14-37-33-93-42-125-20-69-11-83 56-92 71-9 210-79 217-108 6-24-12-79-76-233l-34-80v-205c0-237-6-218 110-360 141-172 162-228 139-367-19-119-18-130 14-162 35-36 166-61 190-37 20 20 35 175 30 318-4 114-5 117-42 177-46 75-56 131-56 330v144l39 91c22 50 42 112 46 137 9 58-8 140-47 232-31 72-51 186-30 173 6-3 18-28 28-54 22-60 45-85 110-122l53-29-5-123c-6-134 0-155 48-191 32-24 116-34 147-17 37 19 52 73 58 210l6 127 26-29c28-32 93-58 123-51 29 8 33 50 14 141-36 176-89 264-168 277-51 9-83 40-92 88-9 47 10 88 46 101 24 9 36 4 95-36 38-25 75-48 85-51 31-11 48 24 48 100 0 62-5 80-36 142-49 95-112 171-213 256-46 39-92 86-103 105-36 69-13 157 53 192 46 24 80 23 139-7 107-54 140-29 140 110 0 67 4 97 16 114l16 22 25-23c14-13 46-53 70-90 49-76 72-94 96-75 26 20 37 64 37 150 0 103-20 187-53 231-15 19-55 53-89 76-74 49-71 50-241-18-133-53-198-72-249-72-44 0-52 7-78 63-44 93-82 85-216-43-148-141-191-163-263-134-47 18-65 46-76 114-12 77-30 106-87 144-60 41-106 46-153 17zm113-46c57-24 82-53 82-94 1-49 30-109 74-151 85-80 199-29 379 169 38 42 53 52 74 49 23-2 29-10 40-48 17-61 54-90 115-90 54 0 179 37 270 80 80 38 136 47 174 27 83-43 137-142 138-251 0-39-3-84-7-99-7-27-9-26-60 50-28 42-64 86-79 96-26 19-28 19-53 3-34-22-64-89-65-142 0-23-3-56-6-73-6-27-11-31-39-31-18 0-38 7-45 15-32 38-170-1-223-64-24-29-27-41-27-102 0-41 6-81 14-97 15-29 96-109 158-155 87-67 240-347 188-347-5 0-40 16-78 36-55 29-76 35-100 29-34-7-91-65-93-93-4-58 21-120 63-159 12-12 40-24 60-28 25-5 48-19 67-41 34-38 79-169 88-251 7-68-6-69-78-8-90 77-94 72-108-148-8-140-11-147-69-147-78 0-98 47-87 205l7 102-38 24c-66 41-104 81-135 140-16 32-41 66-55 76-26 17-27 16-55-15-39-44-38-86 7-192 75-176 79-193 61-257-8-32-29-98-47-148l-33-90 5-181c5-199-1-174 80-326 25-47 36-167 30-317l-5-113-66 4c-36 3-81 13-99 22-38 20-40 35-16 146 28 131 8 195-109 349-93 123-113 159-127 230-13 70-13 262 1 334 5 31 28 105 50 164 41 107 57 189 42 209-17 22-161 93-203 100-50 7-70 19-70 40 0 8 15 54 34 102 50 127 52 208 7 253-26 26-36 29-91 29-44 0-80-8-128-27-54-22-83-28-145-28-74 0-80 2-103 28-30 35-32 94-3 157 30 66 64 96 141 126 95 36 160 94 260 231 56 77 72 128 64 201-12 101-43 150-132 207-58 37-94 88-94 132 0 40 44 105 93 137 48 30 55 31 105 11z"/><path d="m696 2869c-42-33-35-63 23-88 65-27 124-28 152 0 27 27 18 35-21 19-52-22-172 2-154 31 8 14 49 11 93-7 61-24 72-13 30 29-43 43-82 48-123 16z"/><path d="m1012 2820c-50-36-70-68-51-82 36-24 240 12 270 48 21 26 3 26-83 0-93-29-151-36-157-21-7 18 42 35 101 35 65 0 88 7 88 25s-23 25-79 25c-37 0-57-7-89-30z"/><path d="m884 2241c-37-23-69-64-54-69 12-4 100 65 100 79s-11 11-46-10z"/></g></svg>
