<svg class="doodle" preserveAspectRatio="xMidYMid meet" viewBox="0 0 191 158" xmlns="http://www.w3.org/2000/svg"><g transform="matrix(.1 0 0 -.1 0 158)"><path d="m352 1422c-22-7-12-41 16-56 92-47 272-79 306-53 19 14 19 15-5 30-27 17-299 85-317 79z"/><path d="m1144 1316c-17-44 66-70 227-70 94 0 121 3 143 18 61 39 22 51-205 61-142 6-159 6-165-9z"/><path d="m340 1025c-98-28-190-61-243-87-28-14-37-25-37-43 0-26 25-45 59-45s41-32 41-192c1-176 10-232 48-271 64-68 173-98 427-117 321-23 409-31 426-41 10-5 42-9 71-9 65 0 129-10 371-57 131-25 191-33 198-26 20 20 29 90 39 303 5 118 15 272 21 342 11 119 11 129-6 148-46 51-193 68-920 105-369 19-393 18-495-10zm241-117c10-18 48-242 49-285 0-19-94-17-110 2-7 9-17 59-21 113-10 114-20 154-39 160-11 4-12-21-6-145l7-149-70 9c-38 5-78 6-88 3-17-7-16-9 5-26 12-10 46-26 75-35 28-10 67-26 85-37 31-19 34-19 51-3 13 11 32 15 62 13l44-3 6-65c4-36 9-74 10-85 4-19-1-20-91-20-107 0-220 29-265 68-36 30-54 111-62 273l-6 130 27 22c44 34 204 79 288 81 29 1 40-4 49-21zm754-9c177-10 328-29 341-42 4-3-1-46-10-94s-19-121-22-161c-8-86-19-98-105-108l-56-6-6 47c-4 26-7 105-7 174s-4 132-9 139c-13 21-21-21-22-128-1-52-4-124-8-160-7-76-12-79-101-60l-57 12-7 112c-12 181-24 202-25 43l-1-139-51 7c-91 13-103 18-110 55-4 18-10 77-14 131-11 151-28 136-24-20 4-129 4-131-18-131-34 0-71 17-83 39-6 12-17 49-25 83l-14 63 2-85c2-85 2-85-24-88-40-5-56 20-65 100l-8 73-7-64c-10-79-23-95-72-86-62 12-68 22-78 126-6 52-14 110-19 129-6 19-10 41-10 48 0 14 380 9 715-9zm-555-389c12-19 23-136 15-160-5-16-15-20-50-20-39 0-46 4-60 30-16 30-21 150-7 164 11 12 93 0 102-14zm130-20c11-11 20-29 20-39 0-11 3-28 8-38 5-13 8-6 12 27l5 45h40 40l3-77 3-78h-111-110v83c0 46 3 87 7 90 14 14 64 6 83-13zm251-26c79-18 89-31 89-107 0-65-5-68-85-54-39 6-73 16-77 22-9 12-11 155-2 155 3 0 37-7 75-16zm479-130v-106l-37 6c-21 3-85 10-143 16-136 13-167 19-180 35-6 8-10 41-8 77 3 73 10 77 94 59 45-10 54-16 63-43 6-17 11-42 11-55 0-43 25-19 32 30 8 60 13 67 51 68 18 1 43 5 57 9 60 19 60 19 60-96z"/></g></svg>
