<svg class="doodle" preserveAspectRatio="xMidYMid meet" viewBox="0 0 265 431" xmlns="http://www.w3.org/2000/svg"><g transform="matrix(.1 0 0 -.1 0 431)"><path d="m1480 4271c-95-31-210-144-274-269-33-64-9-56 43 15 60 83 107 123 186 159 108 50 175 27 346-119 106-91 159-204 159-338 0-83-15-91-29-17-7 34-21 78-31 98-30 59-132 147-215 186-106 51-155 51-260 1-92-44-145-82-145-103 0-7 4-14 9-14s62 25 127 56l119 56 51-16c64-20 160-82 198-127 72-85 94-202 106-574 11-344 40-601 110-980 47-256 55-328 55-535 0-155-5-228-24-357-24-160-24-165-7-245 42-205 42-193 11-313-46-182-31-302 77-605 52-146 90-230 95-209 2 8-17 87-43 175-82 279-86 301-87 419-1 90 4 129 26 212 31 117 33 155 12 273-17 99-19 190-5 275 5 33 15 120 20 194 17 213-1 406-74 791-13 74-32 204-41 288-9 85-24 215-35 290-27 200-34 302-21 302 16 0 137-246 171-348 42-124 57-232 65-437 10-292 31-435 87-600 42-124 48-190 38-415-11-222-24-359-45-457-36-168-28-553 16-733 23-95 57-172 78-178 16-5 15 1-16 188-25 153-25 613 0 720 26 111 38 358 27 577-11 224-15 255-51 353-49 136-84 348-94 580-11 247-44 380-145 600-32 69-62 139-65 155-4 17-9 38-11 47-4 12 6 22 32 35s40 27 46 48c10 38-5 54-30 32-34-31-45-22-38 30 8 61 24 77 99 98l61 17 23-28c12-16 30-42 39-60 17-31 17-32-39-182-65-173-78-232-54-232 21 0 56 60 135 234l64 141-28 55c-16 30-54 82-86 116-65 68-78 107-78 239 0 118-21 169-99 245s-135 110-152 93c-19-19-4-40 56-79 93-62 121-131 145-364 12-113 12-114-11-132-16-13-25-16-33-8-6 6-13 70-17 143-9 178-32 240-128 340-138 145-321 231-421 198z"/><path d="m467 4129c-23-27-61-58-85-69-60-28-129-95-158-152-61-121-69-285-19-428 14-41 23-80 21-87-3-6-17-13-32-15-40-4-66-54-72-138-4-58-1-74 17-103 38-62 219-187 271-187 30 0 25 33-7 47-50 23-190 142-203 172-16 39-4 108 20 121 10 6 42 10 70 10 54 0 95 15 85 31-4 5-16 9-29 9-30 0-53 26-77 90-45 118-50 420-8 489 24 39 104 91 141 91 18 0 42 13 69 38l42 37 130 3c133 4 177-1 177-19 0-5-17-17-37-25-75-30-105-50-157-104-94-98-149-248-150-410-1-115 14-153 132-329l77-116 4-115c4-133-7-200-60-397-51-185-75-330-89-535-19-269 3-390 116-641 113-249 129-355 119-767-5-201-4-297 4-327 12-45 29-63 41-44 13 23 19 306 10 556-11 337-17 364-148 660-67 153-75 210-69 489 6 274 17 355 83 630 50 207 57 298 34 426-15 87-35 129-108 230-100 137-124 225-98 349 34 162 95 278 180 342 78 59 138 74 296 71 141-1 188 8 137 27-16 6-34 11-41 11-24 0-25 12-4 30l22 17-25 16c-45 30-178 46-487 60l-93 5z"/><path d="m511 3968c-43-12-132-101-164-164-59-117-60-243-3-338 42-69 94-191 112-261 18-73 27-296 15-398-6-48-33-181-60-295-81-336-120-634-106-796 12-135 33-204 155-496 64-154 95-317 125-665 24-277 52-435 77-435 7 0 9 18 4 53-3 28-17 181-31 339-43 490-54 548-154 774-21 50-58 146-81 213-50 146-59 256-41 473 15 181 33 282 93 523 59 242 71 355 59 560-6 112-13 163-29 200-68 170-105 252-119 267-53 58-2 253 94 358 19 22 41 40 48 40 16 0 65 38 65 51 0 11-14 10-59-3z"/><path d="m921 3911c-13-3-34-19-45-34-20-27-21-43-24-300-5-370 20-613 72-691 21-33 39-33 65 1 95 120 125 763 45 963-12 31-26 46-50 56-18 8-35 14-36 13-2-1-14-4-27-8zm57-73c13-16 42-167 42-219 0-32-9-50-44-93-43-53-63-92-53-103 10-9 49 25 78 69l29 43v-85c0-116-18-353-31-420-13-66-37-110-49-89-24 43-56 584-44 757 5 79 11 108 26 127 22 28 31 31 46 13z"/><path d="m970 3406c-6-9-10-21-8-28 3-8 9-4 17 10 15 28 9 39-9 18z"/><path d="m956 3274c-20-20-21-54-1-54 16 0 35 30 35 54 0 20-14 20-34 0z"/><path d="m1301 3705c-123-35-163-99-169-273-5-140 8-181 83-258 74-75 146-108 228-102 154 10 270 127 293 296 13 103-38 224-120 284-75 54-221 79-315 53zm181-125c20-6 58-30 84-53 43-39 47-48 52-98 11-138-74-249-191-249-51 0-86 20-136 76-70 80-89 192-43 253 48 65 147 95 234 71z"/><path d="m1400 3441c-16-30-12-76 8-94 25-23 38-21 56 5 22 32 20 55-9 83-29 30-41 31-55 6z"/><path d="m340 3196c0-8 6-16 13-19 19-7 41 8 33 22-10 16-46 14-46-3z"/><path d="m2257 3101c-2-10-1-59 4-108 5-48 18-225 29-393 31-463 47-546 140-744l49-105-10-553c-5-304-13-641-19-749-5-111-6-208-1-225 12-44 40-94 51-94 13 0 13-1-6 92-15 72-15 87 0 176 39 241 61 660 53 1017-6 267-13 310-85 511-55 154-60 182-82 483-23 311-43 482-71 603-21 89-42 126-52 89z"/><path d="m261 2933c-5-11-14-85-20-164-7-115-15-163-40-239-50-159-110-376-127-468-21-114-14-237 26-447 17-88 46-261 64-385 31-209 37-233 81-340 26-63 64-155 85-205 46-112 64-189 90-381 27-203 56-296 74-247 9 23-2 206-20 323-20 130-44 206-126 404-84 203-99 259-132 497-15 101-38 247-53 324-21 113-27 168-26 285 0 175 16 260 104 552 67 222 78 295 61 417-12 81-24 104-41 74z"/><path d="m1820 2737c-31-16-38-60-39-267-2-210-11-257-59-300-46-42-246-144-314-161-27-6-90-10-146-7-87 3-105 7-172 39-44 21-108 64-155 106l-80 69-33-39c-17-22-32-48-32-58s-9-23-20-29-20-19-20-28c0-27 61-123 133-210 35-42 109-139 165-214 176-239 253-277 577-292 198-9 216 7 241 211 17 139 30 944 17 1093-9 102-15 112-63 87zm-879-651c192-139 339-174 511-120 108 34 270 106 313 138 44 34 52 33 61-6 17-68-1-632-22-700-8-26-77-32-221-19-263 23-338 63-461 243-38 57-104 146-146 198-85 106-136 197-136 244 0 39 10 76 20 76 4 0 41-24 81-54z"/><path d="m1094 2703c-70-77-82-170-28-240 40-53 101-76 187-71 65 4 72 6 98 38 16 19 37 54 46 78 16 42 16 45-1 58-25 18-58 0-108-55-40-45-54-49-98-26-36 19-60 52-60 85 0 40 35 88 71 98 45 11 47 28 7 52-48 29-74 25-114-17z"/></g></svg>
