<svg class="doodle" preserveAspectRatio="xMidYMid meet" viewBox="0 0 106 99" xmlns="http://www.w3.org/2000/svg"><path d="m630 865c-5-13-17-53-26-87-8-35-23-71-32-82-21-23-72-49-80-41-3 3 1 46 9 96 16 90 11 115-17 87-12-11-34-86-58-200-5-22-18-31-77-53-39-15-92-34-117-41-64-20-109-64-65-64 10 0 64 12 120 26 57 15 106 24 109 21 8-8-23-119-38-132-7-7-60-34-118-60-133-60-192-94-187-109 8-23 54-16 164 25 62 23 116 39 119 36 4-4-1-33-10-65-15-56-14-92 4-92 15 0 30 28 57 105 21 60 35 83 55 94 15 9 30 13 33 9 3-3-6-51-20-106-29-116-32-162-10-162 20 0 37 37 74 158 40 127 61 152 156 182 100 32 164 67 177 96 22 47-2 49-100 10-49-20-104-39-122-43l-33-6 6 48c14 99 52 132 217 186 152 50 190 69 190 92 0 18-5 19-63 15-34-3-110-22-169-42-58-20-109-36-114-36-4 0-4 29-1 65 6 67 2 95-14 95-5 0-14-11-19-25zm-94-322c-8-57-33-103-64-114-17-6-24-5-29 7-9 25 15 90 46 123 42 45 55 41 47-16z" transform="matrix(.1 0 0 -.1 0 99)"/></svg>
