<svg class="doodle" preserveAspectRatio="xMidYMid meet" viewBox="0 0 220 184" xmlns="http://www.w3.org/2000/svg"><g transform="matrix(.1 0 0 -.1 0 184)"><path d="m257 1783c-16-15-5-63 22-99 60-83 76-89 280-109 96-9 149-18 158-28 13-12 13-26 3-88-13-86-10-285 5-282 6 2 11 31 13 65 4 115 22 269 32 288 6 11 21 20 35 20 33 0 55 10 55 25 0 22-16 25-300 55-52 5-120 17-149 26-65 19-121 69-121 108 0 24-18 35-33 19z"/><path d="m245 1604c-51-55-118-225-98-245 17-17 31-3 62 59 80 162 98 253 36 186z"/><path d="m1431 1576c-14-16-6-38 32-95l30-44-42-136c-51-169-55-187-42-195 17-11 40 35 88 181l47 142 70-6c39-3 82-11 96-17 24-11 25-15 23-91-2-66-16-156-47-297-2-10 0-21 5-24 22-13 65 137 79 276 6 52 13 102 15 110 7 22 195 47 207 28 4-7 8-56 8-108 1-175 24-273 67-287 19-7 21 21 7 117-7 52-13 142-14 200 0 94 3 109 25 145 26 42 32 80 15 90-6 4-35-8-65-25-152-87-504-75-554 19-14 25-37 33-50 17z"/><path d="m445 1538c-16-42-67-238-72-275-7-55 9-57 31-4 21 54 66 234 66 265 0 27-17 36-25 14z"/><path d="m1192 979c-49-9-120-48-207-112l-59-45-55 50c-82 75-126 101-155 94-60-15-349-263-319-273 15-5 76 36 171 115 96 81 138 105 165 98 12-3 47-26 77-51 30-26 68-53 84-61 27-15 31-14 80 17 103 65 176 100 224 106 48 5 51 4 88-35 22-22 50-59 64-82 73-122 182-280 218-316 50-50 53-45-97-129-57-31-133-78-170-103-115-79-185-85-245-23-25 26-28 36-23 70 3 24 1 41-5 41-23 0-49-23-68-60-47-91-124-60-251 100-118 150-248 255-306 248-36-4-35-19 2-37 68-31 109-67 200-175 184-222 232-255 320-222 42 16 47 17 68 2 12-9 44-32 71-51 80-58 124-51 276 48 52 34 156 93 230 132 132 69 163 96 122 109-10 4-24 18-30 32-7 13-32 46-56 72-40 43-73 91-176 258-42 67-147 179-175 185-11 3-39 2-63-2z"/><path d="m1082 720c-30-10-89-40-131-65-91-53-120-56-153-16-35 40-64 54-104 47-35-7-64-38-64-68 0-9 20-40 45-67 24-28 63-76 86-106 64-84 120-106 172-65 39 31 75 25 170-30 48-27 93-50 100-50 12 0 74 48 177 138l35 31-35 67c-20 38-64 97-101 136-60 61-70 68-105 68-21-1-63-9-92-20zm106-54c27-14 107-108 131-154 16-30 7-54-27-74-15-9-44-32-64-52s-41-36-47-36c-5 0-28 16-52 36-90 75-179 96-232 54-14-11-30-20-35-20-14 0-82 77-82 93 0 7-22 35-50 62-27 27-50 52-50 56s9 11 20 14c15 5 32-3 60-29 54-49 92-48 215 5 52 22 114 44 137 48 24 5 44 9 46 10s15-5 30-13z"/></g></svg>
