<svg class="doodle" preserveAspectRatio="xMidYMid meet" viewBox="0 0 120 189" xmlns="http://www.w3.org/2000/svg"><g transform="matrix(.1 0 0 -.1 0 189)"><path d="m891 1834c-12-15-21-35-21-46 0-10-17-37-38-61-21-23-49-61-62-84-22-41-54-63-68-48-4 3-12 21-18 38-14 41-45 46-114 16-59-25-80-50-80-96 0-18-11-62-25-99-14-36-25-77-25-90s-15-41-33-61c-43-48-57-91-56-162l2-56 8 63c10 82 39 128 87 142 20 5 43 10 50 10 17 0 15 27-3 34-19 7-19 57-1 122 8 27 20 68 26 92 23 87 75 105 139 47 43-39 88-46 113-17 8 9 27 38 42 64 25 45 51 68 75 68 17 0 81-61 81-77 0-8-9-26-20-40-13-16-20-41-20-67 0-30-9-56-31-92-43-67-53-98-39-123 6-12 16-21 23-21 26 0 89-54 104-87 14-36 14-36-23-74s-38-40-25-72c33-81 17-103-103-138-74-22-130-65-124-96 5-27 23-25 34 4 8 23 23 32 80 51 38 12 87 32 109 45 40 22 40 23 45 94 4 56 10 77 28 95 34 37 29 86-12 139-19 24-48 53-65 64-29 19-41 48-23 59 26 16 64 89 72 139 5 31 19 70 31 86 28 38 20 73-25 99-31 18-34 25-42 88-5 37-14 69-20 71-7 2-21-8-33-23z"/><path d="m682 1406c-75-81-80-127-5-54l43 42v-61c0-59 11-86 25-63 11 18 23 124 18 153-8 39-34 34-81-17z"/><path d="m593 1154c-63-31-120-91-128-136-9-49-2-121 13-126 9-3 11 6 6 35-15 95 90 213 190 213 30 0 37-4 42-25 17-67-34-160-118-218-30-21-66-39-81-41-14-1-33-8-41-15-18-15-176-332-244-491-60-140-89-224-94-270l-3-34 85 2c59 2 88 8 96 18 6 7 14 42 17 76 10 106 73 279 175 478 99 194 96 215-8 54-91-140-126-222-166-389-49-206-44-195-104-195-39 0-50 4-50 16 0 15 41 118 188 465 104 248 94 234 202 254 60 11 85 25 98 53 6 15 27 49 47 76 32 45 35 53 35 121 0 54-4 78-16 89-23 24-83 19-141-10z"/></g></svg>
