<svg class="doodle" preserveAspectRatio="xMidYMid meet" viewBox="0 0 345 371" xmlns="http://www.w3.org/2000/svg"><g transform="matrix(.1 0 0 -.1 0 371)"><path d="m884 3615c-226-21-325-55-413-143-81-81-136-231-147-397-8-128-12-143-49-176-47-43-76-117-82-210-8-109 0-137 68-238l61-89-42-62c-23-34-50-80-60-103-70-159-79-588-19-864 26-118 59-213 193-558 58-148 106-275 106-281 0-7-21-31-46-53-86-75-96-95-92-183 3-68 6-80 32-106 31-34 101-56 144-46 64 15 101 81 117 209 10 79 13 85 46 85 19 0 29-5 29-15 0-24 138-162 184-184 72-35 116-25 204 46 51 42 75 84 66 118-13 51-176 165-236 165-30 0-46 41-51 130-6 109-32 177-117 310-36 58-88 146-115 195l-48 90 7 230c4 127 14 264 22 305 13 72 110 367 181 557 44 116 63 137 112 128 53-10 83-27 100-57 22-39 4-129-50-253l-44-100v-145c0-173 13-217 80-279 91-84 209-127 388-141 178-14 180-15 244-71 31-27 60-49 64-49 14 0 19 17 49 157 16 76 38 167 49 203 21 67 27 104 14 98-175-87-161-83-273-82-119 0-263 26-300 53-57 41-49 149 23 330 41 104 42 108 42 226 0 136-22 218-78 302-63 93-108 106-284 82-99-14-136-4-152 43-19 53-13 67 60 144 82 87 110 143 117 235 5 78-7 120-54 189-19 27-34 58-34 68 0 28 42 42 123 42 44 0 78 5 85 12 21 21 15 82-10 105-22 20-63 44-70 42-2-1-66-7-144-14zm155-71c17-4 28-10 25-15s-16-6-29-3c-41 10-130-22-160-59-14-17-42-49-61-69-55-60-127-219-132-292-4-55 0-68 32-129 30-55 35-74 30-105-5-34-1-44 39-97l45-60h150c137 0 153-2 179-21 74-55 118-165 116-294-1-76-7-104-54-240-46-136-53-165-53-235 0-153 35-181 254-205 145-16 195-15 264 9 67 24 76 25 76 11 0-5-17-18-37-27-28-14-39-27-46-53-12-47-2-128 19-151 23-26 5-24-53 7-38 19-80 29-179 40-163 19-231 36-317 81-116 61-147 119-147 275 0 101 16 167 70 288 47 104 55 140 46 205-11 67-50 107-133 134-37 13-93 25-124 28-49 5-58 3-85-20l-29-26 29-24 28-23-27-64c-36-85-117-322-165-485-55-190-63-254-58-467 7-241 23-294 145-475 115-171 135-216 141-323 8-147-33-198-150-187-132 12-155 46-305 472-133 375-161 529-150 829 10 262 38 382 110 477 27 36 37 58 33 73-5 21-2 22 72 21 61 0 86 5 119 23 55 29 79 63 63 91-13 26-31 26-98 1-62-24-93-25-130-6-39 21-89 75-106 118-21 50-21 150 1 195 41 86 156 97 250 23 23-18 29-19 41-6 18 18 9 46-26 81-38 38-74 55-151 69-36 7-65 17-64 22 29 156 69 319 89 365 47 105 172 202 280 218 71 10 279 13 323 5zm-156-229c48-60 60-101 47-153-12-49-54-137-78-164-52-60-115 38-93 143 11 51 79 209 90 209 3 0 19-16 34-35zm854-1657c-3-7-5-2-5 12s2 19 5 13c2-7 2-19 0-25zm-750-1218c77-35 133-79 133-105 0-50-103-107-165-91-35 9-125 85-149 125l-20 34 32 28c40 35 104 39 169 9zm-393-105c-1-39-9-79-24-114l-23-53-46 5c-74 8-96 56-71 149 16 55 52 80 114 76l51-3z"/><path d="m323 1949c-24-46-24-252 1-354 22-94 62-175 86-175 35 0 43 49 37 228-6 172-16 239-32 234-6-1-9-71-7-177 3-111 0-175-6-175-19 0-25 38-32 233-7 212-15 243-47 186z"/><path d="m835 3187c-9-22-2-62 10-60 6 1 11 14 13 29 4 32-14 56-23 31z"/><path d="m2783 3169c-160-27-281-119-319-243-21-69-30-275-15-348 15-70 65-149 159-249 160-171 293-183 485-46 84 60 147 133 191 221 49 98 67 174 67 290 1 89-2 104-28 155-31 62-93 111-166 133-54 17-272 17-288 1-14-14-7-16 114-38 182-33 256-78 283-173 45-155-39-381-185-495-80-63-174-107-230-107-34 0-54 8-92 36-64 47-173 175-205 241-25 51-26 59-22 181 4 105 8 135 27 174 32 67 100 126 229 197 62 35 112 67 112 72 0 11-45 10-117-2z"/><path d="m2739 2867c-14-17-34-48-44-67-17-34-17-34 6-50 21-13 55-41 149-118l27-22 44 57c24 32 67 86 96 121 77 91 67 123-27 83-27-11-65-21-85-21-41 0-105 24-105 39 0 23-36 10-61-22zm148-57 53-12-41-59c-22-32-45-59-51-59-19 0-118 91-118 109 0 44 31 48 157 21z"/><path d="m2000 2036c-30-6-66-18-80-25-56-30-119-109-105-131 12-20 35-10 35 14 0 52 99 87 254 89 118 2 127-2 174-81 25-43 25-45 19-200-11-256-35-315-165-409-148-106-194-105-313 4-74 68-94 71-63 11 52-100 125-153 215-153 118 0 319 135 370 247 23 50 24 64 24 243v190l-32 65c-34 70-83 127-121 141-32 12-146 10-212-5z"/><path d="m2093 1867c-18-13-60-32-94-42l-62-19 7-120c4-67 11-125 15-129 5-5 25-1 46 7 50 21 72 20 87-4 7-11 18-20 24-20 16 0 22 41 29 190 5 97 4 129-7 143-13 17-15 16-45-6zm-19-108c3-17 6-53 6-79 0-46-1-49-35-60-19-6-39-9-45-5-5 3-10 35-10 71 0 51 4 68 20 84 30 30 56 26 64-11z"/></g></svg>
