<svg class="doodle" preserveAspectRatio="xMidYMid meet" viewBox="0 0 362 408" xmlns="http://www.w3.org/2000/svg"><g transform="matrix(.1 0 0 -.1 0 408)"><path d="m583 4004c-174-38-346-135-410-231-54-80-80-124-88-150-12-43 12-23 68 56 102 143 208 215 381 260 143 37 182 26 289-82 154-158 269-393 295-607 32-247 24-554-22-868-47-319-51-384-50-732 1-261 4-356 17-430 34-201 122-493 195-650 92-198 289-412 447-486 74-35 96-32 150 22 46 45 47 45 72 29 29-20 162-58 278-80 179-34 236-14 380 131 78 78 135 125 246 197 222 146 375 215 573 258 48 11 101 26 116 34 60 31 84 96 41 110-9 3-62-2-117-10-380-57-503-40-533 73-6 22-18 172-26 335-14 286-21 337-45 352-38 24-59-97-60-351 0-171-17-320-41-370-28-59-60-70-152-54-40 7-92 16-117 20-65 11-155-6-225-43-146-78-344-347-345-470-1-44-30-104-76-155l-39-43-80 47c-101 60-250 207-327 324-89 135-160 326-235 637l-38 158 1 370c0 374 8 509 44 765 32 225 41 355 41 575 0 325-30 479-137 686-108 209-261 365-374 382-19 3-63-1-97-9zm2297-3261c13-20 94-63 153-80 28-8 23-12-105-90-186-113-299-196-389-283-63-61-80-85-90-123-11-40-18-48-47-58-64-21-277 19-360 67-81 48-80 81 7 259 98 203 158 257 313 286 62 11 75 10 182-15 101-24 121-26 154-16 61 20 98 55 123 115l23 56 11-48c6-26 17-58 25-70z"/><path d="m2137 542c-47-48-54-90-18-108 51-26 93 19 89 96-4 59-22 62-71 12z"/><path d="m1882 1282c-39-6-52-62-17-75 16-7 51 17 65 43 12 23-11 38-48 32z"/><path d="m2148 1053c-52-61-3-127 51-69 31 33 26 80-10 84-15 2-31-4-41-15z"/><path d="m1908 854c-58-31-79-130-34-159 41-27 78-16 103 30 33 61 37 88 16 112-25 29-53 35-85 17zm42-58c0-36-21-62-41-51-14 9-4 66 14 77 22 14 27 9 27-26z"/></g></svg>
