<svg class="doodle" preserveAspectRatio="xMidYMid meet" viewBox="0 0 295 499" xmlns="http://www.w3.org/2000/svg"><g transform="matrix(.1 0 0 -.1 0 499)"><path d="m2795 4950c-10-11-29-20-41-20-18 0-25-7-30-27-10-49-13-53-39-63-13-5-84-14-157-19-147-11-251-37-295-76-25-21-26-24-10-30 9-4 17-13 17-19 0-16-37-50-78-70-37-19-51-44-32-56 7-4 84-11 171-15 88-4 159-10 159-14 0-3-7-15-15-25-20-26-19-52 3-61 9-4 68-10 130-14 93-5 116-9 127-24 15-21 7-68-25-142-12-27-23-67-27-90-5-37-2-44 22-63 15-12 42-24 61-28 53-10 58-23 45-109-6-42-11-99-11-126 0-63-24-115-61-135-31-15-53-10-91 24-25 21-103 11-210-28-137-50-157-75-124-155 21-49 93-123 147-151 26-13 51-28 54-34 13-21-27-151-59-193-55-72-175-126-326-147-41-6-79-15-85-21-5-6-10-47-10-92v-82l-54-5c-56-5-57-6-87-73-25-58-49-64-136-39-185 54-328 30-328-56 0-15 16-60 34-100l35-72-34-50c-59-88-59-164 2-231 61-68 70-48 21 49l-33 63 30 56c21 40 38 59 62 69 18 8 33 16 33 18 0 16-27 70-61 122-44 68-43 86 4 106 48 20 113 15 204-16 104-36 138-31 202 29 25 23 68 56 95 72 27 15 58 41 70 56 20 27 20 29 4 74-9 26-15 50-12 55 3 4 29 8 57 8 29 0 72 5 97 11 69 15 221 93 258 132 41 42 92 181 92 249 0 53-8 63-84 112-54 34-129 113-123 129 4 13 184 87 211 87 11 0 35-9 51-20 78-51 187-2 219 99 8 25 17 109 20 186 7 138 6 141-16 162-13 12-40 29-60 37-20 9-39 19-41 23-3 5 6 40 19 78 25 73 32 172 14 205-12 22-51 35-138 49-70 11-92 24-92 52 0 10-5 21-11 25-6 3-68 11-138 16-69 6-130 14-135 19-6 5-3 16 8 28 9 10 21 35 27 54 13 47 40 56 209 68 219 16 217 16 266 61 50 46 88 103 79 118-10 16-30 12-50-10z"/><path d="m701 4919c-63-12-167-63-181-89-17-31-5-50 30-50h31l-35-34c-42-39-46-72-16-121 48-78 183-130 309-119l73 7-7-40c-6-36-3-45 24-75 17-19 59-48 93-63 53-24 81-30 173-34 85-5 109-9 107-20-9-45 46-88 169-130 69-23 83-32 81-47-2-11-4-40-6-66-3-61-14-73-189-195-77-54-156-112-174-129-39-37-43-77-11-111 12-13 19-26 15-29-3-3-35 4-70 15-77 26-153 36-201 27-20-4-57-25-87-51-33-28-72-50-106-60-66-19-134-79-169-147-51-101-24-231 71-338 30-33 55-66 55-71 0-6-9-22-20-36-14-18-20-41-20-74 0-40 5-55 32-85 39-44 112-99 191-144 59-33 68-48 41-71-9-7-19-21-23-31s-29-33-56-51c-27-17-56-44-65-60-14-25-13-30 5-65 20-37 87-83 101-69 4 3-12 27-35 52-70 76-55 101 71 119 90 13 110 31 63 56-31 17-31 21 1 59s29 72-8 82-186 108-225 149c-51 52-46 85 23 148 31 28 53 55 50 60s-22 12-42 15c-108 18-205 183-174 298 35 128 167 202 250 140 40-29 65-28 56 2-4 12-10 41-13 63-4 35-2 44 18 58 33 23 99 20 182-8 109-37 126-39 153-21 32 21 30 39-6 72-16 14-30 34-30 44 0 23 53 68 208 175 135 93 222 168 222 190 0 7-8 17-17 23-16 8-15 13 11 49 22 33 26 44 17 60-10 19-104 62-134 62-25 0-117 50-117 63 0 8 9 22 20 32s20 26 20 37c0 17-11 18-153 18-111 0-168 4-208 16-64 19-119 58-119 84 0 25 43 65 99 91 31 14 41 23 33 31s-49 6-143-7c-200-26-281-10-363 74l-39 39 59 55c59 55 59 55 40 76s-19 21 15 35c19 7 50 17 69 21 40 8 86 30 95 45 7 12-51 12-114-1z"/><path d="m820 2144c-61-12-78-25-90-70-11-37-10-58 4-127 24-117 37-348 34-592l-3-210-65-6c-72-6-443-110-502-140-51-26-62-47-92-165-68-269-102-567-73-636 22-52 90-94 175-107 37-5 315-13 617-16 303-3 602-9 664-14l115-8 104 75c162 118 200 155 217 215 24 87 51 445 40 528-9 67-58 122-101 117-44-5-39-26 11-50l46-23-5-55c-3-30-8-118-11-195-9-204-21-291-45-325-21-29-148-130-164-130-4 0-6 10-2 23 13 52 26 216 28 336 1 106-3 144-23 220-27 106-24 118 39 141 43 15 51 27 30 48-17 17-38 15-83-10-67-36-142-49-320-55-130-4-201-2-300 11-146 20-433 22-605 6-140-13-233-13-225 0 13 22 65 39 174 59 102 18 117 23 142 50 24 27 34 31 81 31 71 0 125-16 139-41 10-20 11-20 31-2 24 21 70 22 448 4 374-17 618-11 628 17 11 34-163 71-377 79l-153 6 6 75c11 116 58 286 119 422 30 69 66 157 80 195 14 39 28 77 32 86 6 15-17 17-232 22-195 4-252 8-318 25-92 24-160 51-211 86l-36 24 108 7c119 8 319-6 424-31 36-8 91-30 123-49 59-36 113-55 106-39-19 43-76 128-96 141-52 34-133 45-373 48-129 2-246 1-260-1zm218-264c31-6 127-15 212-21 85-5 163-12 172-15 14-4 3-32-68-177-99-200-121-268-129-380-3-45-8-97-11-114l-5-33h-184c-122 0-186 4-191 11-3 6-3 186 1 399l7 388 70-24c38-13 95-28 126-34zm289-557c-3-10-5-4-5 12 0 17 2 24 5 18 2-7 2-21 0-30zm-407-499c60-9 199-17 377-21l282-6 17-74c22-100 15-379-13-498l-19-80-175 3c-96 1-374 5-619 8-442 5-563 12-615 36-34 15-55 56-55 109 0 67 51 421 66 457 18 44 45 52 177 53 62 0 157 6 212 13 137 19 252 19 365 0z"/><path d="m1117 1695c-93-35-208-145-151-145 37 0 227 121 228 145 1 15-35 15-77 0z"/><path d="m1120 1489c-58-23-180-176-180-226 0-44 37-27 95 45 31 37 78 83 105 102 49 35 67 61 55 80-8 12-42 12-75-1z"/><path d="m534 656c-80-37-339-264-321-282 4-4 62 38 129 93 126 101 182 143 192 143 3 0-10-28-30-62-44-77-67-129-60-135 6-7 97 124 132 191 37 71 27 84-42 52z"/><path d="m825 615c-159-114-326-258-313-270 2-3 67 35 143 85 77 49 144 90 151 90s5-23-10-70c-22-76-17-103 20-108 32-4 48 12 34 34-13 20-14 17 64 199 48 113 27 123-89 40z"/><path d="m1169 529c-85-46-242-189-225-206 3-3 53 31 112 75 58 45 110 79 115 77 4-3 1-21-7-40-19-47-18-65 7-65 35 0 59 19 59 46 0 14 12 45 26 70 46 78 10 96-87 43z"/><path d="m1327 424c-28-15-34-43-11-51 13-4 74 44 74 58s-31 10-63-7z"/></g></svg>
