<svg class="doodle" preserveAspectRatio="xMidYMid meet" viewBox="0 0 167 76" xmlns="http://www.w3.org/2000/svg"><g transform="matrix(.1 0 0 -.1 0 76)"><path d="m118 605c-14-31-4-43 22-27 30 18 93 14 147-9 39-17 60-20 108-15 184 19 185 19 206 0 11-10 44-52 73-94 29-41 61-81 70-89 13-11 14-16 4-22-7-5-130-9-273-9-244 0-263 1-299 21-46 24-58 18-27-15 53-57 134-68 432-62 243 5 254 6 263 26 14 30 25 24 46-24 20-49 73-91 126-102 17-3 92 6 175 22 79 15 178 28 221 28 66 1 79-2 100-21 42-40 78-24 78 34 0 22-6 36-19 43-39 20-231 8-392-26-26-5-27-3-34 48-9 63-46 106-117 133-62 23-100 9-129-46-16-33-24-39-51-39-37 0-91 51-157 148-22 33-54 71-71 86-55 45-85 46-202 0l-46-18-60 27c-44 20-76 27-121 27-56 0-62-2-73-25zm942-219c52-24 62-99 18-146-24-26-62-22-108 10-35 25-44 50-36 96 12 64 50 76 126 40z"/><path d="m224 231c-42-7-100-38-90-48 3-3 36 4 73 15 37 12 84 26 103 31l35 9h-40c-22 0-59-4-81-7z"/><path d="m750 205c-30-8-106-14-167-15-67 0-113-4-113-10 0-37 149-63 237-41 60 15 163 61 163 72 0 13-56 10-120-6z"/></g></svg>
