<svg class="doodle" preserveAspectRatio="xMidYMid meet" viewBox="0 0 207 316" xmlns="http://www.w3.org/2000/svg"><g transform="matrix(.1 0 0 -.1 0 316)"><path d="m852 3100c-83-20-146-87-214-229-67-141-87-241-98-500-17-387-21-408-134-675-85-198-137-342-208-571-102-330-116-414-133-804l-6-134 68-67c51-51 77-70 105-75 90-17 170 30 226 133 19 34 76 178 128 319 51 141 99 261 105 267 7 8 20 0 42-29 110-138 452-479 552-551 62-43 214-118 284-138 119-35 224-13 292 61 51 55 120 182 144 267 30 103-2 274-78 420-32 62-65 104-142 182-121 122-193 167-376 233-148 53-212 83-247 114l-22 20v-27c0-41 35-83 96-117l54-31v-114c0-109 1-116 25-140 40-40 86-54 175-54 106 0 124 16 135 114l7 69 69-69 69-68-40-40c-70-69-90-197-40-251 41-44 133-57 207-29 24 9 47 14 51 10s8-42 10-84c4-91-15-177-60-266-83-165-164-204-324-155-84 25-267 115-293 143-18 20-18 25-5 86 24 111-4 281-51 302-21 9-32 7-71-18-25-16-55-45-67-64l-21-35 30 26c66 59 109 74 132 46 29-34 26-287-3-287-21 0-123 98-150 145-14 23-35 47-48 52-28 13-234 209-279 266-25 31-32 49-31 79 1 25-2 38-11 38-32 0-48-36-171-385-31-88-76-201-100-252-55-114-85-138-167-138-49 0-61 4-89 30-50 48-69 98-69 192 0 45 4 93 10 108 9 24 13 25 58 19 60-8 93 8 146 67 58 63 79 119 74 194s-28 111-115 178c-56 42-58 45-57 88 2 56 89 316 204 609 49 124 104 272 124 331 37 112 38 114 66 574 11 180 24 235 83 350 76 146 164 215 237 185 71-30 158-168 185-298 8-37 18-126 21-198 9-175-2-219-70-291-32-33-61-53-74-53-42 0-92 28-103 57-15 41-1 135 30 196 26 51 43 64 126 97 29 11 29 12 10 26-92 67-234-111-223-280 5-77 20-98 86-120 74-26 95-21 161 34l61 51v-51c0-27-11-98-25-156-52-221-23-215 55 11 28 83 74 197 102 254 43 89 62 116 132 186 90 89 254 205 291 205 48 0 85-104 85-239 0-163-103-555-160-606-11-10-24-41-30-71-19-90-80-155-131-139-64 21-66 240-2 273 10 5 35 12 56 16 62 11 41 36-31 36-79-1-116-64-117-197 0-114 14-138 98-168 32-11 57-22 57-26 0-18-174-169-230-199-51-27-60-35-43-38 28-4 112 37 180 89 120 90 213 264 332 618 66 196 83 279 84 421 1 134-9 182-49 237-73 98-218 49-405-137-78-76-112-121-177-229l-20-34 1 199c0 216-11 288-68 413-73 159-163 220-283 191zm674-1999c24-11 47-27 50-35s2-43-3-78c-8-59-10-63-40-71-50-15-122 0-153 32-29 29-48 110-35 151 13 42 86 43 181 1zm311-263c31-34 73-124 73-155-1-43-22-63-66-63-54 0-106 28-115 63-9 33 10 114 35 151 20 32 46 33 73 4zm-1575-17c65-41 78-64 78-136-1-109-70-205-148-205-50 0-62 14-62 76 0 65 26 214 45 260 17 41 28 42 87 5z"/><path d="m1442 1077c2-15 8-26 13-25 12 3 8 29-7 43-6 7-8 1-6-18z"/><path d="m217 753c-14-13-6-71 11-93 25-31 42-18 42 30 0 47-32 85-53 63z"/><path d="m1021 2414c-24-31-26-53-8-79 28-38 87 6 87 65 0 18-27 40-49 40-5 0-19-12-30-26z"/><path d="m1484 1795c-16-40-12-55 15-55 26 0 43 24 39 57-5 43-35 42-54-2z"/><path d="m761 1788c-5-13-16-81-25-153-36-271-48-340-68-379-22-45-127-180-134-173-3 2 5 26 16 53 38 88 121 468 119 542l-1 27-13-30c-7-17-32-116-55-220-23-105-55-226-72-270-37-102-48-150-37-166 13-22 37-2 114 98 39 50 71 90 73 88s-1-36-7-77c-6-40-13-104-16-143l-5-70 20 65c11 35 29 118 40 185 23 140 80 577 80 617 0 34-17 37-29 6z"/><path d="m1155 440c-19-37-19-70-1-70 21 0 46 40 46 72 0 37-25 37-45-2z"/><path d="m1615 400c-31-34-31-109-2-174 28-61 71-111 88-101 7 5 5 13-4 23-43 49-68 154-48 205 16 41 56 36 127-16 33-24 65-51 73-60 18-22 31-21 31 2s-74 93-129 120c-52 27-112 28-136 1z"/><path d="m1709 269c-8-16-8-28 0-45 14-31 29-31 41 0 19 51-16 90-41 45z"/></g></svg>
