<svg class="doodle" preserveAspectRatio="xMidYMid meet" viewBox="0 0 206 228" xmlns="http://www.w3.org/2000/svg"><g transform="matrix(.1 0 0 -.1 0 228)"><path d="m513 2199c-46-23-133-110-133-134 0-18 2-18 33-4 20 9 34 6 79-15 30-14 60-26 65-26 20 0 35 30 42 81 6 50 7 52 47 64 62 18 71 25 49 42-29 21-133 17-182-8zm45-75c-4-47-27-63-62-44-14 7-26 19-26 26 0 17 49 54 72 54 16 0 19-6 16-36z"/><path d="m1545 2140c-25-3-40-10-40-19 0-14 19-22 79-36l29-6-37-37c-20-21-36-45-36-55 0-39 98-27 121 14 8 16 6 19-11 19-26 0-26 22 0 45 22 20 33 15 54-27 14-27 34-30 49-7 14 22-8 76-36 91-27 14-122 24-172 18z"/><path d="m490 1397c-198-110-190-105-190-122 0-24 36-26 89-5 62 24 87 25 95 4 3-9 9-53 12-99 11-141-14-169-160-181-72-7-74-6-92 21-26 40-24 174 3 237 29 63 37 105 23 113-31 19-107-105-160-263-35-104-46-210-56-503l-7-215 104-84c150-121 158-123 369-125 163-1 180-3 249-28 153-55 410-97 600-97 115 0 185 13 250 45 25 13 72 33 103 45 72 27 168 97 207 151 35 47 46 94 66 284 18 164 31 534 21 588-4 20-18 50-33 67-46 55-335 187-469 215-70 14-304 27-699 39l-160 4zm419-4c24-6 24-7 18-107-4-56-10-123-13-150l-7-49-81 6c-45 3-88 9-98 12-33 13-78 170-78 276v32l118-7c64-3 128-9 141-13zm486-12c61-5 133-17 160-26 80-27 259-109 330-151 76-46 69-7 55-334-15-336-28-466-51-512-27-54-91-113-152-142-209-99-275-116-449-116h-68v53c0 69-16 124-45 153-32 32-104 33-165 2-43-22-45-25-55-83-9-54-13-60-36-63-14-2-30 3-36 10s-16 56-22 107c-14 125-21 132-137 138-62 3-97 0-114-9-33-18-70-75-70-109 0-49-88-95-104-53-3 9-6 53-6 99 0 45-3 97-6 114-6 27-11 31-38 31-45 0-197-38-224-56-13-9-27-13-30-9-23 23-8 377 22 538 18 92 30 102 55 45 16-37 26-47 51-53 38-8 171 2 218 16 51 17 57 37 57 208v154l28 20c17 13 31 17 36 11 5-5 14-45 20-89 16-110 28-150 55-182 23-27 28-28 139-31 106-3 117-2 136 17 15 15 21 34 21 66 0 24 5 89 11 145l12 100h146c80 0 196-4 256-9zm-1005-1030c0-86-12-108-53-97-39 9-101 60-122 100l-20 38 24 19c18 15 39 19 97 19h74zm396-6c15-23 43-121 44-151 0-7-39 2-97 22-54 19-108 34-120 34s-25 4-28 10c-8 13 14 93 29 102 6 4 44 8 83 8 67 0 74-2 89-25zm344-75c22-12 40-61 40-111 0-44-3-45-91-29-29 6-57 16-61 23-14 22-9 90 9 109 18 20 73 24 103 8z"/><path d="m1232 1333c-37-74-75-182-69-197 13-33 175-96 248-96 48 0 75 31 118 134 41 99 49 136 27 136-20 0-41-32-66-105-32-94-43-105-98-105-49 0-172 36-172 50 0 4 11 38 25 74 25 67 33 146 15 146-5 0-18-17-28-37z"/><path d="m1716 1233c-53-177-58-232-23-267 57-57 217-48 217 11 0 11-6 13-22 8-54-17-81-17-120 1l-40 18 6 51c3 27 10 73 15 100 5 28 7 60 4 73-6 26-29 29-37 5z"/><path d="m830 813c0-13-8-15-47-10l-48 6 45-20c98-44 281-62 392-37l53 11-35 15c-19 8-97 18-172 23-76 5-149 14-163 19-20 8-25 6-25-7z"/><path d="m805 695c6-64 43-156 77-192 24-25 90-39 139-28 45 10 115 78 135 131 22 57 12 66-23 24-62-75-99-109-118-112s-20 2-16 90c2 61 0 92-7 92-22 0-36-46-35-113 0-64-1-68-21-65-25 4-77 79-101 145-31 87-36 92-30 28z"/><path d="m1715 356c-14-21-16-33-8-59l10-32 13 32c15 40 41 49 80 27 16-10 33-15 37-11 13 13-42 57-79 63-31 6-38 3-53-20z"/><path d="m1417 304c-43-23-62-98-36-145 15-28 29-14 29 30 0 59 16 73 80 69 45-2 56-7 66-26 16-33 22-36 39-22 22 19 18 58-10 85-20 21-34 25-82 25-32-1-70-8-86-16z"/></g></svg>
