<svg class="doodle" preserveAspectRatio="xMidYMid meet" viewBox="0 0 380 461" xmlns="http://www.w3.org/2000/svg"><g transform="matrix(.1 0 0 -.1 0 461)"><path d="m3373 4590c-12-5-47-43-78-85-57-77-116-130-215-192-30-20-84-59-120-87-83-66-104-79-177-109-33-13-96-47-140-76l-80-51-74 26c-58 20-100 27-196 31l-121 6 6 36c4 20 7 52 7 71 0 29-4 36-22 38-17 3-56-31-174-152-84-86-160-158-171-162-23-7-58 21-58 47 0 10 20 59 45 110 47 96 53 127 33 147-17 17-59 15-86-4-29-20-28-12 8 71 66 155 19 154-107-2-32-39-80-89-108-110-86-68-319-341-428-502l-51-76-9 35c-19 73-25 82-49 69-12-7-46-34-74-61l-51-48 5 50c2 27 2 50-2 50-17 0-141-287-161-375-7-28-6-29 9-14 9 8 34 62 56 118 39 103 62 141 85 141 7 0 45 30 84 66l71 66v-60c0-107 19-95 161 99 42 57 119 151 170 209 52 58 109 124 127 147s51 52 72 64c22 13 71 62 111 111 39 49 73 87 76 85 2-3-17-46-42-97-70-144-55-198 28-105 49 55 83 61 73 14-3-17-21-57-40-88-47-78-50-94-28-138 27-51 56-76 80-69 11 4 83 72 161 151 77 80 145 145 150 145 6 0 6-12 0-32-14-51-11-76 11-88 12-6 85-15 163-19 118-6 149-12 186-30 60-31 90-25 219 47 59 33 123 65 142 71s80 45 135 86 120 81 144 90c29 10 71 41 127 95 46 44 90 80 98 80 7 0 17 11 20 25 7 29 36 34 36 7 0-10-16-45-36-78-75-124-89-164-58-164 9 0 69 52 133 117 117 117 155 143 211 143h31l-33-47c-17-26-56-76-86-111-29-35-60-79-69-99-23-57-106-175-151-215-23-21-65-49-94-64-97-49-182-110-276-197-51-48-100-87-108-87s-19 11-24 24-18 27-28 30c-20 7-32 43-32 96 0 15-7 34-16 41-23 19-97-22-211-120-91-76-123-96-193-122-40-15-135-85-233-172-37-33-70-57-73-54s4 55 15 116c28 151 19 167-57 111-49-35-59-37-87-10l-22 21-53-36c-74-50-186-151-232-209-30-38-36-51-27-62 18-22 33-17 47 15 13 30 185 201 202 201 5 0 15-12 22-27 22-47 34-43 139 36l31 24-6-64c-4-35-9-80-12-99-11-82 28-78 141 15 120 98 216 165 237 165 32 0 79 30 168 105 97 82 161 128 168 120 3-3 9-33 13-67 6-51 12-66 33-81 15-11 26-28 26-42 0-12 6-28 14-35 23-18 70 9 173 104 139 128 190 165 288 211 87 41 92 45 151 126 85 118 137 197 164 249 13 25 44 77 70 115 84 125 93 155 49 155-11 0-33 7-50 15-35 19-34 19-126-63-40-35-77-61-83-57-5 3-10 25-11 48-2 84-31 124-76 107z"/><path d="m1285 3183c-109-5-259-24-345-43-93-20-310-87-324-100-5-5 1-28 13-54 16-33 21-59 19-98l-3-53-171-3-172-2-41 34c-54 45-103 56-139 29-42-30-76-108-80-183-6-112 23-148 126-157 43-4 67-1 90 11 39 20 42 20 42-2s19-42 40-42c8 0 40 13 70 29s88 36 129 45c41 10 79 20 84 23 36 22-114 31-204 12-62-13-69-7-69 63 0 36 4 48 18 52 27 8 191 26 245 26h48l-6-122c-9-181-33-444-50-539-70-394-80-992-24-1413 11-83 22-179 26-214 4-39 13-70 24-84 11-11 19-26 19-32s5-40 10-75c5-36 7-68 4-72-2-4-30 0-62 8-96 26-182-10-256-105-44-55-47-89-10-98 40-10 138 3 268 36 134 34 219 38 289 14 79-27 81-21 32 93-98 229-127 371-133 666-2 128-8 227-13 227-16 0-27-43-40-151-22-191 6-402 82-619 22-63 43-123 46-132 5-16-3-18-80-18h-85l-6 68c-16 172-29 285-47 377-24 129-35 236-49 470-14 231-11 330 10 330 9 0 18-21 27-65 24-121 120-224 277-300 101-49 169-60 388-60 155 0 173 2 234 25 36 14 71 25 77 25 11 0 5-222-14-525-18-286-4-415 45-415 12 0 68 21 125 45 107 47 223 75 391 95 111 13 162 27 158 43-6 21-130 77-202 92-46 9-96 12-147 8l-77-6-5 449c-6 466-10 526-53 759-14 77-32 175-40 218-28 155-47 386-48 579-1 185 0 198 20 225 21 27 23 28 115 27 52 0 148-4 215-9 120-8 121-8 137 16 10 13 17 41 17 63v39l49-46c57-53 79-61 163-55 52 4 64 9 83 33 46 57 75 202 61 299-9 55-49 106-110 139-36 19-57 22-164 22-123 0-124 0-148-28-43-50-37-53 109-53 147 1 191-12 231-67 39-53 24-213-25-265-15-17-31-22-73-22-45 0-56 4-82 31-27 28-29 36-29 107 0 95 26 154 70 162 35 6 36 21 4 38-44 23-61 11-105-72l-42-79-21 41c-25 50-65 82-102 82-15 0-77-15-137-34-147-47-178-52-185-32-3 8 1 57 10 108s17 109 17 128l1 35-240 1c-132 0-267-1-300-3zm467-71c-1-6-13-97-26-202-26-195-32-219-73-257-28-27-30-49-4-62 26-14 29-40 41-331 12-293 28-440 71-629 16-74 28-139 26-144-2-6-41 25-88 68-163 151-246 189-414 188-196 0-437-86-585-208-30-25-61-45-69-45-20 0-8 243 24 485 52 394 57 458 50 665-4 107-10 227-15 265-11 82-8 85 79 111 243 71 348 86 731 103 228 10 256 10 252-7zm394-233c16-18 19-37 19-123 0-95-1-101-20-99-11 2-69 8-130 14-60 5-139 13-175 17l-65 7 4 75c2 41 5 77 7 79s34 5 71 6c41 2 88 11 118 23 68 28 146 29 171 1zm-1930-85c30-52 42-130 25-163-9-16-21-21-51-21-63 0-90 15-90 49 0 26 4 30 32 33 23 2 37 11 48 30 19 35 3 53-45 50-40-3-43 5-14 42 32 41 63 35 95-20zm1144-1105c122-19 251-96 359-215 28-31 58-69 66-85 14-25 13-29-2-38-12-6-19-28-23-79-8-86-22-106-123-173-100-66-153-86-269-100-164-20-355 4-475 61-80 37-108 59-153 119-85 113-100 190-50 259 68 94 319 222 492 251 74 12 104 12 178 0zm489-1041c5-202 12-372 16-377 4-7 23-2 52 16 40 23 57 27 133 27 61 1 92-3 104-13 25-21 8-28-124-51-114-21-217-51-307-91-29-12-56-20-59-16-4 4 3 177 15 385 24 413 25 462 13 462-5 0-16-15-25-32l-16-33v53c-1 42 3 56 21 70 85 68 130 118 141 161 12 44 12 42 19-75 4-65 11-284 17-486zm-1230-469c82-29-18-86-189-106l-54-6 18 29c50 79 140 112 225 83z"/><path d="m1217 2909c-78-16-340-132-366-162-24-29 9-29 62 1 28 17 97 47 152 68 95 36 106 38 220 38 66 1 162-3 213-8 70-7 92-6 92 3 0 39-265 82-373 60z"/><path d="m1285 2619c-84-19-193-61-256-97-85-50-179-120-179-133 0-6 42 12 93 39 257 139 415 164 553 87 68-38 80-40 70-7-23 72-179 134-281 111z"/><path d="m1100 2154c-88-15-206-63-267-110-69-52-34-50 96 6 86 37 197 60 302 63l75 2 59-52c99-88 135-60 43 32-78 78-133 88-308 59z"/><path d="m1165 1554c-22-7-61-16-87-19-88-11-158-86-158-171 0-31 7-44 44-79 76-74 225-104 340-71 106 31 189 135 170 211-22 88-207 166-309 129zm131-75c84-14 119-45 111-96-13-75-92-118-217-117-56 0-85 6-115 21-49 25-95 70-95 91 0 23 40 77 69 96 31 19 153 21 247 5z"/><path d="m2404 2896c-7-19 13-56 30-56 19 0 28 28 16 51-12 22-38 25-46 5z"/></g></svg>
