<svg class="doodle" preserveAspectRatio="xMidYMid meet" viewBox="0 0 260 496" xmlns="http://www.w3.org/2000/svg"><g transform="matrix(.1 0 0 -.1 0 496)"><path d="m140 4890c-77-120-114-299-113-555 0-148 4-199 22-285 24-112 79-243 125-297 34-40 66-50 192-62 114-10 149-24 192-77 55-66 96-264 129-614 24-264 24-904 0-1117-31-276-79-455-164-612-115-214-123-232-123-277 0-39 3-44 26-50 65-16 214 73 315 189 35 39 154 164 264 277 259 265 286 307 330 505 16 70 16 78 2 93-13 12-21 13-40 5-18-9-31-32-52-90-62-177-74-194-259-376-94-92-198-191-230-220-51-44-59-48-52-27 33 116 56 224 70 326 42 326 45 781 7 1039-25 168-28 201-46 440-8 110-20 235-26 278-24 181-75 312-137 354-52 35-141 65-207 70-33 2-70 6-82 9-44 9-110 162-134 311-15 91-18 386-5 488l8 70 22-75c41-140 119-266 279-452 86-99 129-132 162-124 15 4 45 32 73 68 91 120 194 218 227 218 17 0 39-60 70-193 34-147 48-179 77-175 13 2 32 18 43 36s29 47 40 64c22 35 76 65 175 100 49 17 87 23 155 23 80 0 95-3 137-28 56-32 95-93 114-176 35-148-5-244-131-308-57-30-162-39-157-15 1 8-3 12-10 10-7-3-14-16-16-31-4-34 14-43 108-52 41-3 87-13 102-21s92-69 170-137c79-67 182-152 229-189s92-75 100-85c13-15 12-16-6-9-99 38-282 53-465 39-129-11-166-24-193-71l-19-32 27-45c14-25 56-87 92-138 165-231 231-472 264-957 6-96 9-260 6-365-6-210-20-282-80-405-42-85-162-246-254-340l-73-75-18 35c-22 45-41 48-83 13-28-23-42-28-88-28-67 1-169 50-206 99-29 38-58 123-80 236-26 127-45 152-64 83-24-84-5-252 34-319 31-53 125-139 170-155 19-7 35-20 35-28 0-32-78-145-224-324-104-127-160-253-137-309 16-42 49-36 141 28 45 30 129 78 186 106 117 56 140 81 104 110-27 22-82 23-138 4-23-8-43-12-46-8-2 4 19 41 46 82 28 41 73 122 101 180 27 58 57 113 65 123 21 23 95 23 130-2 15-10 40-21 55-25 36-9 69-78 139-295 73-229 78-240 103-257 13-8 66-19 126-24 57-5 114-12 125-16 12-3 25-1 29 6 19 30-89 88-181 97-30 3-58 11-63 17s-26 63-46 126c-21 63-60 169-86 234-27 66-49 126-49 134 0 7 40 59 89 115 189 218 252 322 294 485 20 80 22 109 21 367 0 300-14 465-59 710-56 303-99 401-283 645l-63 85 33 8c18 4 94 10 168 13 214 10 360-23 620-138 137-61 194-76 219-59 13 8 13 12 0 27-24 29-136 115-319 243-217 153-305 222-443 346l-109 98 51 44c93 82 136 223 107 360-19 94-48 148-108 206-65 61-129 81-258 80-110 0-138-8-274-75-54-26-102-48-106-48s-15 30-24 66c-30 119-60 154-131 154-74 0-129-45-247-202-44-60-84-108-89-108-13 0-157 176-211 260-27 41-67 111-90 156-40 81-40 82-48 235-7 159-18 199-51 199-9 0-31-22-49-50z"/><path d="m1450 4001c-14-28-13-76 4-116 29-68 96-33 96 50 0 22-7 51-16 63-20 28-69 30-84 3zm57-73c-3-7-5-2-5 12s2 19 5 13c2-7 2-19 0-25z"/><path d="m1008 2125c-14-27-49-122-77-210s-58-173-66-189c-19-36-13-43 20-22 47 31 65 74 125 315 36 144 35 178-2 106z"/></g></svg>
