<svg class="doodle" preserveAspectRatio="xMidYMid meet" viewBox="0 0 232 321" xmlns="http://www.w3.org/2000/svg"><path d="m1148 2763c-213-213-388-380-388-371s29 107 65 217c36 111 65 210 65 222 0 36-33 17-62-36-48-90-442-1233-436-1264 7-38 74 114 193 437l78 213 292 297c161 163 295 295 299 291 3-3-17-38-44-78-28-41-50-82-50-92 0-45-13-53 527 316 101 69 187 125 193 125 28 0-37-87-286-380-196-232-250-310-212-310 15 0 97 46 399 226 366 217 379 223 379 163 0-40-56-95-300-299-189-158-330-288-330-305 1-41 20-35 279 90 271 130 321 149 321 123 0-35-88-114-280-252-148-107-280-216-280-232 0-28 28-25 114 10 150 62 143 51-73-113-185-141-199-155-181-176 17-21 45-19 131 10 109 38 128 29 49-22-97-63-147-81-254-95l-96-12-86 92c-47 51-90 92-95 92-19 0-8-28 39-100 27-41 54-88 59-105 6-16 26-47 45-68 39-42 198-302 198-323 0-8-4-14-8-14s-68 41-141 90c-133 90-163 105-198 98-14-3-18-12-17-41l1-38-26 17c-14 10-43 28-63 42-41 27-112 40-122 23-12-18-24-13-69 27-93 84-126 92-154 37l-18-35-49 35c-44 31-57 35-110 35-51 0-68 5-106 30-25 16-53 30-62 30-19 0-51 32-101 100-42 57-63 62-81 18-8-18-26-46-41-63-27-28-27-31-21-119 12-162 48-303 86-338 10-10 22-38 25-65 10-71 28-93 73-93 21 0 64-7 95-15 78-20 84-19 115 15l27 29 46-43c48-47 58-66 115-221 44-123 140-335 178-393 30-48 101-88 137-77 24 8 31 25 74 185 42 156 64 219 104 297 35 71 36 73 17 73-23 0-87-79-117-146-16-36-40-122-55-196-14-73-33-140-41-148-13-13-18-11-44 20-38 44-165 303-214 435-56 148-59 227-7 164 75-93 68-89 147-89 92 0 101 4 126 51 21 43 26 45 64 27 21-9 32-8 59 4 32 16 35 15 68-8 28-20 39-23 60-15 33 12 137 120 145 149 11 45-11 47-92 8-79-37-105-44-105-26 0 16-58 12-85-6-23-15-26-15-56 10-49 42-78 32-110-39-13-27-19-30-68-33-61-4-76 6-116 74-47 79-86 76-120-11l-17-46-37 55c-20 31-46 63-59 72-30 21-62 10-62-22 0-24-14-32-25-14-11 17-35 11-60-15-25-28-29-26-39 21-4 18-16 40-27 50-20 18-21 18-34 1-11-16-13-14-20 20-3 21-17 49-30 63-23 24-45 89-59 175-7 38-5 41 24 52 20 8 30 18 30 32 0 12 4 21 8 21 10 0 43-36 65-72 21-34 56-46 72-24 17 22 25 20 65-12 50-41 67-45 90-22 28 28 41 25 79-14 19-19 47-40 63-47 24-10 31-9 48 6 11 10 22 26 25 36 10 32 28 22 93-50 76-85 94-93 133-55l29 28 40-23c30-17 58-22 117-24 75-2 80-4 143-48 68-49 257-147 324-169 32-10 40-10 53 3 20 19 11 46-33 98-60 72-262 405-251 415 3 3 85 14 182 24s183 24 191 30c7 7 14 25 14 41 0 31 4 34 215 172 79 52 110 78 110 92 0 18-6 20-50 18-27-1-104-18-170-38-66-19-121-35-124-35-12 0 41 46 170 146 153 119 255 217 244 234-8 13-40 5-134-32-40-16-75-27-77-25s49 42 114 89c64 48 130 100 145 116 33 35 77 147 77 197 0 33-2 35-32 35-20 0-86-26-168-66-74-36-151-72-170-80l-35-14 40 36c22 20 120 104 218 186l178 150-6 41c-16 105-28 149-42 154-21 8-86-25-329-169-285-169-304-180-304-172s40 55 213 254c159 182 172 202 169 256-2 52-17 84-38 84-31 0-115-52-339-209-126-89-231-157-233-151-4 12 37 77 128 205 32 44 67 99 79 122 65 130 2 79-401-324z" transform="matrix(.1 0 0 -.1 0 321)"/></svg>
