<svg class="doodle" preserveAspectRatio="xMidYMid meet" viewBox="0 0 246 448" xmlns="http://www.w3.org/2000/svg"><g transform="matrix(.1 0 0 -.1 0 448)"><path d="m1632 4431c-7-4-21-48-32-98-34-157-115-363-232-591-72-140-116-209-170-268l-41-45-121 7c-143 8-245-9-365-59-170-70-363-237-475-409-65-100-156-280-156-308 0-32 33-24 87 20 164 137 473 299 636 335 26 5 23-1-42-75-163-189-258-472-249-745 3-105 7-127 30-178 31-65 114-158 163-181 18-9 47-16 64-16 39 0 41 5 75 181 46 235 129 458 188 502 19 14 34 17 57 12 39-8 39-23 1-60-59-56-97-247-107-535-12-346 42-735 153-1102 5-16-4-18-86-18-50 0-101-5-113-12-97-51-157-152-165-276-2-42-9-82-13-88-5-6-27-14-50-18-50-8-105-57-123-111-26-74-6-81 110-34 71 29 85 31 150 25l72-7-5 100c-5 85-3 104 12 127 21 33 35 18 35-38 0-25 8-45 25-64 19-21 25-38 25-75 0-78-11-95-66-104-61-9-104-49-104-98 0-36 24-67 52-67 9 0 57 16 107 35s113 40 141 46c59 13 70 29 47 69-23 39-47 145-47 212s6 72 94 82c75 8 150 41 181 78l25 30v-41c0-54-24-77-88-86-58-8-92-35-92-73 0-29 34-92 50-92 5 0 30 15 55 32l46 33 74-27c43-16 77-23 80-17 4 5 10 84 15 177 9 171 16 217 69 455 56 248 77 414 71 552-2 50-2 49-20-35-18-87-54-200-88-280l-19-44-6 404c-4 223-11 451-18 507-6 57-9 108-7 115 6 18 95-106 153-213 36-66 67-108 118-155 85-80 111-83 114-14 1 25 3 54 4 65 0 11-15 46-34 78-111 183-262 634-283 842-7 78-13 93-25 74-38-60 33-371 161-703 23-60 45-132 50-161s22-80 39-114c17-33 27-61 22-61-14 0-86 82-114 131-14 24-29 62-33 84-4 26-18 51-39 70-65 61-186 238-172 251 3 3 19-15 36-40 46-67 54-65 22 6-16 35-38 94-50 132s-26 75-32 83c-11 12-49 19-49 8 0-3 11-61 24-128 32-158 76-627 76-804-1-333-54-693-124-831-27-53-77-102-105-102-20 0-79 59-114 115-110 179-188 730-166 1180 10 227 31 354 69 429 35 69 38 104 9 140-51 65-144-1-217-156-52-108-77-190-112-367-16-79-33-148-38-153-13-13-62 31-118 105l-46 62 4 225c4 213 6 229 32 305 55 161 163 333 246 390 65 45 133 45 540-1 212-24 315-57 474-153 160-98 367-283 465-419 28-38 57-72 64-75 51-19 48 74-7 189-44 93-93 167-197 295-42 52-115 149-162 215-83 117-172 210-238 249-41 25-85 107-100 190-8 42-10 196-5 511 6 464 4 488-32 465zm-23-676c2-170 18-349 36-391 20-48 19-61-5-67-12-3-20-14-20-26 0-21 34-50 114-96 75-42 119-87 196-201 40-58 101-140 136-182s62-78 60-80-50 31-105 72c-231 172-385 226-735 261-87 9-204 22-260 30-254 36-378 9-666-149-76-42-141-76-145-76-15 0 73 147 118 196 93 102 241 205 375 263 88 37 179 56 357 76l140 15 58 63c86 93 149 193 243 385 46 95 85 178 86 185 3 30 16-170 17-278zm-38-2786c-56-240-66-293-81-429-15-138-10-130-85-123-55 5-67 3-95-17-34-24-55-17-48 16 2 14 18 22 61 30 91 19 107 42 122 184 3 36 24 119 45 185s53 169 70 228c69 242 76 201 11-74zm-44 104c-3-10-5-4-5 12 0 17 2 24 5 18 2-7 2-21 0-30zm-462-332c22-10 69-41 104-69 35-29 67-52 71-52 3 0 30 9 60 19 35 12 56 16 59 9 5-15-31-60-69-85-29-20-41-22-99-17-126 11-158-25-147-171 3-49 9-111 12-138 7-47 6-47-22-47h-29l-3 82c-3 107-29 267-48 295-27 42-88 22-121-40-9-18-23-57-30-87-13-54-13-54-10 56 4 143 25 191 101 234 60 35 112 38 171 11zm346-44c-8-8-11-7-11 4 0 20 13 34 18 19 3-7-1-17-7-23zm-731-362c-14-8-33-14-44-15-15 0-16 3-6 15 7 8 27 15 44 15l31-1zm270-175c-29-23-68-36-78-25-13 12 39 45 72 45h31z"/><path d="m1411 3457c-16-24-46-78-66-120-50-104-78-127-161-127-35 0-105 7-154 16-86 14-96 14-192-5-55-12-113-21-129-21-15 0-31-4-34-10-8-12 10-12 159 1 103 9 130 8 195-7 97-22 206-23 246-2 42 23 79 65 108 123 29 60 71 184 64 191-3 3-19-15-36-39z"/><path d="m1266 2094c-4-11-9-190-12-399s-8-396-11-415l-6-35-8 35c-4 19-15 148-24 287-16 256-23 309-41 282-14-22-17-333-4-439 24-197 98-520 119-520 16 0 21 78 27 440s-5 733-24 766c-8 15-10 14-16-2z"/></g></svg>
