<svg class="doodle" preserveAspectRatio="xMidYMid meet" viewBox="0 0 174 532" xmlns="http://www.w3.org/2000/svg"><g transform="matrix(.1 0 0 -.1 0 532)"><path d="m758 5247c-114-33-178-124-198-285-14-111-13-109-80-121-78-13-193-74-251-131-120-120-191-390-143-551 52-176 238-414 373-478 55-26 94-36 224-56l37-6v-483c0-516 6-625 46-804 84-378 141-511 257-599l29-22-17-102c-9-56-20-109-25-118-4-9-31-24-58-34-98-34-195-147-247-287-22-59-28-93-29-162-1-76 2-90 20-108l21-21 7 62c12 115 45 216 97 293 57 85 145 179 162 173 7-2 13-27 14-63 5-121 24-301 37-349 8-28 32-88 54-135 44-94 56-138 43-158-4-8-35-17-68-21s-72-15-86-24c-64-41-124-169-152-323-9-49-20-96-25-103-6-11-23-11-96 2-136 22-190 5-182-60l3-28 101-5c90-4 104-8 137-32 43-33 80-49 94-40 15 9 29 68 48 191 20 135 33 186 61 242 41 82 121 127 174 99 27-14 90-144 160-329 67-179 76-188 110-122 10 22 32 49 47 61 24 19 36 21 85 16 33-3 60-2 63 4 12 19-6 48-39 64-39 18-80 13-140-16-21-11-42-16-46-11-5 4-38 76-74 158-45 104-71 181-85 252-12 55-37 145-57 200-58 160-64 190-76 368-11 167-8 225 13 225 6 0 63-51 127-113 121-117 177-153 255-163 32-5 46-2 56 9 19 24 7 34-52 47-78 16-146 60-258 167-112 108-125 127-135 201-7 57 4 82 37 82 10 0 32 12 49 28 42 37 56 120 72 409 9 185 9 277-1 460-7 125-15 366-18 536l-6 307h37c98 0 174 155 228 465 29 173 37 520 13 636-42 208-139 289-346 289-100 0-89-12-113 121-28 153-77 267-124 289-40 18-112 21-164 7zm141-93c24-31 53-124 75-243 9-46 16-87 16-91 0-5-28-41-63-82l-63-74-69 62c-37 35-93 76-123 91l-54 28 5 65c6 77 38 168 75 211 33 40 75 58 134 59 39 0 50-4 67-26zm-262-438c36-19 121-108 163-169 17-27 44-76 58-110 24-57 26-76 30-249 7-303-19-418-103-462-32-17-58-21-135-21-88 0-101 3-162 33-44 22-84 52-121 92-73 79-193 259-208 312-7 24-12 97-13 163 0 114 1 124 32 195 67 156 102 191 225 225 62 18 193 13 234-9zm675-11c87-59 117-172 118-435 0-214-16-421-40-517-11-41-37-110-57-152-34-67-41-76-68-79-23-2-37 4-60 28-16 16-37 30-46 30-25 0-73 54-108 120-39 72-48 149-56 460-10 361 9 500 70 528 16 8 23 17 19 27-5 13 8 15 93 15 89 0 102-2 135-25zm-339-1027c20-41 67-108 105-151l69-79 7-211c4-117 14-399 22-627 15-404 13-607-7-740-10-65-30-110-50-110-6 0-35 23-65 52-68 64-101 131-148 303-96 347-116 525-123 1090l-5 430 73 62c40 34 76 60 79 58 4-2 23-37 43-77z"/><path d="m420 4430c-47-47-54-69-48-164 8-117 82-226 153-226 61 0 101 75 92 171-8 96-99 259-143 259-8 0-32-18-54-40zm81-71c30-43 49-112 49-181 0-70-17-84-56-47-63 59-88 174-50 232 23 34 30 34 57-4z"/><path d="m1155 4350c-41-16-49-36-37-93 6-29 14-86 17-127s10-92 16-114c12-46 50-86 80-86 29 0 74 51 93 107 18 52 22 197 6 237-19 50-126 97-175 76zm111-95c13-20 16-43 12-113-10-204-93-201-91 3 0 44 6 92 12 108 13 34 45 36 67 2z"/><path d="m1015 2046c-16-16-25-36-25-56 0-26 3-30 29-30 36 0 53 21 55 67 1 47-23 55-59 19z"/></g></svg>
