<svg viewBox="0 0 696 696" xmlns="http://www.w3.org/2000/svg" xmlns:xlink="http://www.w3.org/1999/xlink"><path d="m0 0h696v696h-696z" fill="#fff"/><g xmlns="http://www.w3.org/2000/svg"><g stroke-width="4.12"><path d="m264 48h24.72v24.72h-24.72z"/><path d="m288 48h24.72v24.72h-24.72z"/><path d="m336 48h24.72v24.72h-24.72z"/><path d="m432 48h24.72v24.72h-24.72z"/><path d="m288 72h24.72v24.72h-24.72z"/><path d="m312 72h24.72v24.72h-24.72z"/><path d="m384 72h24.72v24.72h-24.72z"/><path d="m408 72h24.72v24.72h-24.72z"/><path d="m432 72h24.72v24.72h-24.72z"/><path d="m240 96h24.72v24.72h-24.72z"/><path d="m264 96h24.72v24.72h-24.72z"/><path d="m288 96h24.72v24.72h-24.72z"/><path d="m336 96h24.72v24.72h-24.72z"/><path d="m240 120h24.72v24.72h-24.72z"/><path d="m264 120h24.72v24.72h-24.72z"/><path d="m360 120h24.72v24.72h-24.72z"/><path d="m384 120h24.72v24.72h-24.72z"/><path d="m408 120h24.72v24.72h-24.72z"/><path d="m432 120h24.72v24.72h-24.72z"/><path d="m240 144h24.72v24.72h-24.72z"/><path d="m288 144h24.72v24.72h-24.72z"/><path d="m312 144h24.72v24.72h-24.72z"/><path d="m432 144h24.72v24.72h-24.72z"/><path d="m240 168h24.72v24.72h-24.72z"/><path d="m264 168h24.72v24.72h-24.72z"/><path d="m312 168h24.72v24.72h-24.72z"/><path d="m336 168h24.72v24.72h-24.72z"/><path d="m384 168h24.72v24.72h-24.72z"/><path d="m408 168h24.72v24.72h-24.72z"/><path d="m432 168h24.72v24.72h-24.72z"/><path d="m240 192h24.72v24.72h-24.72z"/><path d="m288 192h24.72v24.72h-24.72z"/><path d="m336 192h24.72v24.72h-24.72z"/><path d="m384 192h24.72v24.72h-24.72z"/><path d="m432 192h24.72v24.72h-24.72z"/><path d="m240 216h24.72v24.72h-24.72z"/><path d="m384 216h24.72v24.72h-24.72z"/><path d="m408 216h24.72v24.72h-24.72z"/><path d="m48 240h24.72v24.72h-24.72z"/><path d="m96 240h24.72v24.72h-24.72z"/><path d="m120 240h24.72v24.72h-24.72z"/><path d="m144 240h24.72v24.72h-24.72z"/><path d="m168 240h24.72v24.72h-24.72z"/><path d="m192 240h24.72v24.72h-24.72z"/><path d="m312 240h24.72v24.72h-24.72z"/><path d="m360 240h24.72v24.72h-24.72z"/><path d="m384 240h24.72v24.72h-24.72z"/><path d="m480 240h24.72v24.72h-24.72z"/><path d="m504 240h24.72v24.72h-24.72z"/><path d="m528 240h24.72v24.72h-24.72z"/><path d="m552 240h24.72v24.72h-24.72z"/><path d="m576 240h24.72v24.72h-24.72z"/><path d="m120 264h24.72v24.72h-24.72z"/><path d="m240 264h24.72v24.72h-24.72z"/><path d="m264 264h24.72v24.72h-24.72z"/><path d="m288 264h24.72v24.72h-24.72z"/><path d="m360 264h24.72v24.72h-24.72z"/><path d="m432 264h24.72v24.72h-24.72z"/><path d="m456 264h24.72v24.72h-24.72z"/><path d="m504 264h24.72v24.72h-24.72z"/><path d="m600 264h24.72v24.72h-24.72z"/><path d="m48 288h24.72v24.72h-24.72z"/><path d="m72 288h24.72v24.72h-24.72z"/><path d="m144 288h24.72v24.72h-24.72z"/><path d="m168 288h24.72v24.72h-24.72z"/><path d="m192 288h24.72v24.72h-24.72z"/><path d="m240 288h24.72v24.72h-24.72z"/><path d="m288 288h24.72v24.72h-24.72z"/><path d="m336 288h24.72v24.72h-24.72z"/><path d="m384 288h24.72v24.72h-24.72z"/><path d="m408 288h24.72v24.72h-24.72z"/><path d="m456 288h24.72v24.72h-24.72z"/><path d="m480 288h24.72v24.72h-24.72z"/><path d="m504 288h24.72v24.72h-24.72z"/><path d="m528 288h24.72v24.72h-24.72z"/><path d="m552 288h24.72v24.72h-24.72z"/><path d="m600 288h24.72v24.72h-24.72z"/><path d="m624 288h24.72v24.72h-24.72z"/><path d="m72 312h24.72v24.72h-24.72z"/><path d="m96 312h24.72v24.72h-24.72z"/><path d="m120 312h24.72v24.72h-24.72z"/><path d="m240 312h24.72v24.72h-24.72z"/><path d="m264 312h24.72v24.72h-24.72z"/><path d="m312 312h24.72v24.72h-24.72z"/><path d="m336 312h24.72v24.72h-24.72z"/><path d="m456 312h24.72v24.72h-24.72z"/><path d="m504 312h24.72v24.72h-24.72z"/><path d="m624 312h24.72v24.72h-24.72z"/><path d="m96 336h24.72v24.72h-24.72z"/><path d="m120 336h24.72v24.72h-24.72z"/><path d="m144 336h24.72v24.72h-24.72z"/><path d="m192 336h24.72v24.72h-24.72z"/><path d="m288 336h24.72v24.72h-24.72z"/><path d="m312 336h24.72v24.72h-24.72z"/><path d="m336 336h24.72v24.72h-24.72z"/><path d="m360 336h24.72v24.72h-24.72z"/><path d="m384 336h24.72v24.72h-24.72z"/><path d="m408 336h24.72v24.72h-24.72z"/><path d="m432 336h24.72v24.72h-24.72z"/><path d="m456 336h24.72v24.72h-24.72z"/><path d="m480 336h24.72v24.72h-24.72z"/><path d="m504 336h24.72v24.72h-24.72z"/><path d="m528 336h24.72v24.72h-24.72z"/><path d="m576 336h24.72v24.72h-24.72z"/><path d="m600 336h24.72v24.72h-24.72z"/><path d="m624 336h24.72v24.72h-24.72z"/><path d="m48 360h24.72v24.72h-24.72z"/><path d="m72 360h24.72v24.72h-24.72z"/><path d="m144 360h24.72v24.72h-24.72z"/><path d="m216 360h24.72v24.72h-24.72z"/><path d="m336 360h24.72v24.72h-24.72z"/><path d="m384 360h24.72v24.72h-24.72z"/><path d="m432 360h24.72v24.72h-24.72z"/><path d="m456 360h24.72v24.72h-24.72z"/><path d="m504 360h24.72v24.72h-24.72z"/><path d="m552 360h24.72v24.72h-24.72z"/><path d="m600 360h24.72v24.72h-24.72z"/><path d="m48 384h24.72v24.72h-24.72z"/><path d="m120 384h24.72v24.72h-24.72z"/><path d="m144 384h24.72v24.72h-24.72z"/><path d="m192 384h24.72v24.72h-24.72z"/><path d="m264 384h24.72v24.72h-24.72z"/><path d="m384 384h24.72v24.72h-24.72z"/><path d="m408 384h24.72v24.72h-24.72z"/><path d="m456 384h24.72v24.72h-24.72z"/><path d="m480 384h24.72v24.72h-24.72z"/><path d="m504 384h24.72v24.72h-24.72z"/><path d="m528 384h24.72v24.72h-24.72z"/><path d="m552 384h24.72v24.72h-24.72z"/><path d="m600 384h24.72v24.72h-24.72z"/><path d="m624 384h24.72v24.72h-24.72z"/><path d="m48 408h24.72v24.72h-24.72z"/><path d="m96 408h24.72v24.72h-24.72z"/><path d="m168 408h24.72v24.72h-24.72z"/><path d="m384 408h24.72v24.72h-24.72z"/><path d="m408 408h24.72v24.72h-24.72z"/><path d="m456 408h24.72v24.72h-24.72z"/><path d="m504 408h24.72v24.72h-24.72z"/><path d="m528 408h24.72v24.72h-24.72z"/><path d="m624 408h24.72v24.72h-24.72z"/><path d="m48 432h24.72v24.72h-24.72z"/><path d="m96 432h24.72v24.72h-24.72z"/><path d="m120 432h24.72v24.72h-24.72z"/><path d="m192 432h24.72v24.72h-24.72z"/><path d="m336 432h24.72v24.72h-24.72z"/><path d="m360 432h24.72v24.72h-24.72z"/><path d="m384 432h24.72v24.72h-24.72z"/><path d="m432 432h24.72v24.72h-24.72z"/><path d="m456 432h24.72v24.72h-24.72z"/><path d="m480 432h24.72v24.72h-24.72z"/><path d="m504 432h24.72v24.72h-24.72z"/><path d="m528 432h24.72v24.72h-24.72z"/><path d="m576 432h24.72v24.72h-24.72z"/><path d="m240 456h24.72v24.72h-24.72z"/><path d="m264 456h24.72v24.72h-24.72z"/><path d="m312 456h24.72v24.72h-24.72z"/><path d="m408 456h24.72v24.72h-24.72z"/><path d="m432 456h24.72v24.72h-24.72z"/><path d="m528 456h24.72v24.72h-24.72z"/><path d="m552 456h24.72v24.72h-24.72z"/><path d="m264 480h24.72v24.72h-24.72z"/><path d="m288 480h24.72v24.72h-24.72z"/><path d="m360 480h24.72v24.72h-24.72z"/><path d="m432 480h24.72v24.72h-24.72z"/><path d="m480 480h24.72v24.72h-24.72z"/><path d="m528 480h24.72v24.72h-24.72z"/><path d="m576 480h24.72v24.72h-24.72z"/><path d="m600 480h24.72v24.72h-24.72z"/><path d="m624 480h24.72v24.72h-24.72z"/><path d="m240 504h24.72v24.72h-24.72z"/><path d="m288 504h24.72v24.72h-24.72z"/><path d="m384 504h24.72v24.72h-24.72z"/><path d="m432 504h24.72v24.72h-24.72z"/><path d="m528 504h24.72v24.72h-24.72z"/><path d="m552 504h24.72v24.72h-24.72z"/><path d="m240 528h24.72v24.72h-24.72z"/><path d="m264 528h24.72v24.72h-24.72z"/><path d="m288 528h24.72v24.72h-24.72z"/><path d="m312 528h24.72v24.72h-24.72z"/><path d="m336 528h24.72v24.72h-24.72z"/><path d="m360 528h24.72v24.72h-24.72z"/><path d="m384 528h24.72v24.72h-24.72z"/><path d="m408 528h24.72v24.72h-24.72z"/><path d="m432 528h24.72v24.72h-24.72z"/><path d="m456 528h24.72v24.72h-24.72z"/><path d="m480 528h24.72v24.72h-24.72z"/><path d="m504 528h24.72v24.72h-24.72z"/><path d="m528 528h24.72v24.72h-24.72z"/><path d="m576 528h24.72v24.72h-24.72z"/><path d="m240 552h24.72v24.72h-24.72z"/><path d="m312 552h24.72v24.72h-24.72z"/><path d="m432 552h24.72v24.72h-24.72z"/><path d="m480 552h24.72v24.72h-24.72z"/><path d="m528 552h24.72v24.72h-24.72z"/><path d="m552 552h24.72v24.72h-24.72z"/><path d="m576 552h24.72v24.72h-24.72z"/><path d="m600 552h24.72v24.72h-24.72z"/><path d="m624 552h24.72v24.72h-24.72z"/><path d="m240 576h24.72v24.72h-24.72z"/><path d="m336 576h24.72v24.72h-24.72z"/><path d="m408 576h24.72v24.72h-24.72z"/><path d="m552 576h24.72v24.72h-24.72z"/><path d="m576 576h24.72v24.72h-24.72z"/><path d="m624 576h24.72v24.72h-24.72z"/><path d="m264 600h24.72v24.72h-24.72z"/><path d="m312 600h24.72v24.72h-24.72z"/><path d="m384 600h24.72v24.72h-24.72z"/><path d="m408 600h24.72v24.72h-24.72z"/><path d="m432 600h24.72v24.72h-24.72z"/><path d="m456 600h24.72v24.72h-24.72z"/><path d="m504 600h24.72v24.72h-24.72z"/><path d="m528 600h24.72v24.72h-24.72z"/><path d="m552 600h24.72v24.72h-24.72z"/><path d="m624 600h24.72v24.72h-24.72z"/><path d="m240 624h24.72v24.72h-24.72z"/><path d="m288 624h24.72v24.72h-24.72z"/><path d="m312 624h24.72v24.72h-24.72z"/><path d="m336 624h24.72v24.72h-24.72z"/><path d="m360 624h24.72v24.72h-24.72z"/><path d="m504 624h24.72v24.72h-24.72z"/><path d="m528 624h24.72v24.72h-24.72z"/><path d="m552 624h24.72v24.72h-24.72z"/><path d="m576 624h24.72v24.72h-24.72z"/><path d="m600 624h24.72v24.72h-24.72z"/><path d="m624 624h24.72v24.72h-24.72z"/></g><path d="m0 0v14h14v-14zm12 12h-10v-10h10z" transform="matrix(12 0 0 12 48 48)"/><path d="m0 0v14h14v-14zm12 12h-10v-10h10z" transform="matrix(12 0 0 12 480 48)"/><path d="m0 0v14h14v-14zm12 12h-10v-10h10z" transform="matrix(12 0 0 12 48 480)"/><g stroke-width="12"><path d="m96 96h72v72h-72z"/><path d="m528 96h72v72h-72z"/><path d="m96 528h72v72h-72z"/></g></g><a xlink:href="https://www.chrisdeluca.me"><text fill="#1a64f0" x="268" y="680">https://www.ChrisDeLuca.me</text></a></svg>