<?xml version="1.0" standalone="no"?>
<!DOCTYPE svg PUBLIC "-//W3C//DTD SVG 20010904//EN"
 "http://www.w3.org/TR/2001/REC-SVG-20010904/DTD/svg10.dtd">
<svg version="1.0" xmlns="http://www.w3.org/2000/svg"
 width="1024.000000pt" height="1024.000000pt" viewBox="0 0 1024.000000 1024.000000"
 preserveAspectRatio="xMidYMid meet">
<metadata>
Created by potrace 1.14, written by Peter Selinger 2001-2017
</metadata>
<g transform="translate(0.000000,1024.000000) scale(0.100000,-0.100000)"
fill="#000000" stroke="none">
<path d="M5089 10096 c-2 -2 -35 -7 -74 -10 -97 -8 -140 -15 -210 -33 -33 -8
-67 -16 -75 -18 -54 -12 -133 -34 -250 -71 -175 -56 -200 -61 -200 -40 0 24
-30 20 -121 -15 -94 -36 -255 -114 -260 -126 -2 -4 -42 -21 -89 -37 -188 -63
-430 -201 -628 -356 -42 -33 -121 -90 -174 -126 -54 -35 -98 -69 -98 -74 0 -5
-67 -78 -149 -162 -146 -150 -196 -205 -256 -283 -16 -21 -39 -50 -51 -64 -34
-42 -156 -231 -188 -291 -16 -30 -37 -68 -46 -85 -82 -149 -182 -460 -210
-655 -6 -41 -13 -86 -16 -100 -20 -121 -24 -485 -9 -705 12 -160 13 -510 2
-548 -6 -22 -12 -27 -25 -22 -34 15 -99 13 -133 -3 -150 -69 -303 -312 -348
-552 -6 -30 -13 -68 -17 -85 -3 -16 -8 -88 -10 -160 -5 -222 31 -340 240 -777
31 -65 56 -120 56 -123 0 -3 10 -22 23 -43 13 -20 44 -75 69 -122 118 -222
234 -385 371 -521 40 -41 87 -92 103 -114 16 -22 31 -42 34 -45 3 -3 52 -64
108 -137 82 -106 106 -143 117 -188 20 -73 52 -263 60 -345 4 -36 8 -76 10
-90 2 -14 6 -65 10 -115 4 -49 9 -103 12 -120 13 -75 11 -584 -3 -685 -30
-227 -85 -433 -164 -615 -10 -22 -50 -116 -90 -210 -102 -242 -171 -377 -245
-480 -91 -127 -117 -152 -246 -234 -63 -40 -181 -117 -264 -171 -257 -168
-337 -217 -416 -249 -71 -30 -129 -71 -100 -71 7 0 9 -5 6 -10 -4 -7 1327 -10
3986 -10 3888 0 3992 0 3975 19 -9 10 -14 25 -11 33 8 21 -3 28 -165 93 -80
32 -173 71 -208 86 -35 16 -66 29 -68 29 -3 0 -73 30 -157 66 -333 145 -622
265 -817 339 -113 42 -230 90 -261 107 -111 58 -228 167 -271 253 -23 45 -61
249 -55 298 10 83 54 165 138 256 59 65 113 148 137 214 12 31 21 60 21 65 -1
4 14 31 32 59 30 46 38 53 66 53 27 0 37 7 57 39 57 90 139 244 191 361 31 69
66 145 77 170 59 128 78 173 111 265 32 88 61 186 73 250 2 11 7 31 10 45 3
14 8 84 10 155 2 72 9 159 14 195 5 36 12 79 14 95 3 17 8 53 11 80 3 28 8 61
10 75 2 14 7 43 9 65 10 83 18 150 21 165 2 13 7 63 21 200 2 25 6 65 9 90 3
25 7 74 10 110 3 36 8 81 10 100 2 19 7 69 10 110 4 41 8 86 10 100 2 14 6 54
10 90 35 348 67 416 218 466 146 48 235 128 310 280 69 139 101 270 113 464
11 190 44 293 122 383 23 27 43 55 43 63 3 30 2 40 -6 57 -11 25 -110 69 -190
82 -69 12 -146 25 -180 30 -134 19 -195 32 -270 57 -143 49 -212 100 -306 228
-45 61 -95 100 -151 121 -21 7 -38 15 -38 19 0 3 -7 36 -15 74 -11 52 -12 72
-3 77 13 8 15 93 5 192 -13 127 -86 387 -191 679 -24 70 -50 155 -57 190 -8
42 -26 85 -54 128 -23 36 -72 128 -109 204 -123 257 -221 409 -335 522 -39 38
-71 73 -71 77 0 4 -5 13 -11 20 -6 7 -34 48 -62 92 -108 166 -172 239 -288
326 -30 22 -54 47 -54 54 0 13 -46 54 -52 47 -2 -1 -12 -2 -23 -2 -14 0 -20 7
-20 23 -1 26 -22 53 -70 88 -139 103 -523 244 -800 293 -47 9 -98 18 -115 22
-33 7 -420 16 -426 10z m-851 -187 c-10 -5 -47 -21 -82 -34 -47 -18 -64 -21
-60 -11 7 18 97 52 144 55 12 0 11 -2 -2 -10z m-159 -73 c-8 -7 -163 -56 -166
-52 -5 4 160 63 166 59 2 -2 2 -5 0 -7z"/>
</g>
</svg>
